G75*
%MOIN*%
%OFA0B0*%
%FSLAX24Y24*%
%IPPOS*%
%LPD*%
%AMOC8*
5,1,8,0,0,1.08239X$1,22.5*
%
%ADD10R,0.0591X0.2165*%
%ADD11R,0.0472X0.0315*%
%ADD12R,0.0354X0.0315*%
%ADD13R,0.0315X0.0354*%
%ADD14R,0.0906X0.1811*%
%ADD15R,0.0394X0.0551*%
%ADD16R,0.0630X0.0710*%
%ADD17R,0.0240X0.0870*%
%ADD18R,0.0551X0.1181*%
%ADD19R,0.0710X0.0630*%
%ADD20R,0.0551X0.0472*%
%ADD21R,0.0470X0.0220*%
%ADD22R,0.0220X0.0470*%
%ADD23R,0.0138X0.0118*%
%ADD24R,0.0374X0.0236*%
%ADD25R,0.0118X0.0138*%
%ADD26R,0.0236X0.0374*%
%ADD27R,0.0550X0.0137*%
%ADD28R,0.0110X0.0197*%
%ADD29R,0.0787X0.0354*%
%ADD30R,0.0276X0.0157*%
%ADD31R,0.0413X0.0236*%
%ADD32R,0.0098X0.0264*%
%ADD33R,0.0264X0.0098*%
%ADD34R,0.0709X0.0630*%
%ADD35R,0.0217X0.0472*%
%ADD36R,0.0551X0.0394*%
%ADD37R,0.0470X0.1300*%
D10*
X003617Y005668D03*
X003617Y009054D03*
D11*
X005017Y008416D03*
X005017Y007707D03*
X005017Y006216D03*
X005017Y005507D03*
D12*
X013423Y008387D03*
X013423Y009135D03*
X013423Y009787D03*
X014250Y010161D03*
X013423Y010535D03*
X013423Y011187D03*
X013423Y011935D03*
X013423Y012687D03*
X014250Y013061D03*
X013423Y013435D03*
X013423Y014187D03*
X014250Y014561D03*
X013423Y014935D03*
X013423Y015687D03*
X013423Y016435D03*
X014250Y016061D03*
X013423Y017187D03*
X013423Y017935D03*
X013423Y018687D03*
X014250Y019061D03*
X013423Y019435D03*
X013423Y019987D03*
X014250Y020361D03*
X013423Y020735D03*
X013423Y021387D03*
X013423Y022135D03*
X014250Y021761D03*
X014250Y017561D03*
X014250Y011561D03*
X014250Y008761D03*
X015723Y007535D03*
X015723Y006787D03*
X016550Y007161D03*
X032463Y020437D03*
X032463Y021185D03*
X032473Y021767D03*
X032473Y022515D03*
X032463Y023137D03*
X033290Y023511D03*
X032463Y023885D03*
X032473Y024527D03*
X032473Y025275D03*
X032473Y025927D03*
X033300Y026301D03*
X032473Y026675D03*
X033300Y024901D03*
X033300Y022141D03*
X033290Y020811D03*
X022410Y021987D03*
X022410Y022735D03*
X022410Y023287D03*
X022410Y024035D03*
X022410Y024587D03*
X022410Y025335D03*
X022410Y025887D03*
X022410Y026635D03*
X021584Y026261D03*
X021584Y024961D03*
X021584Y023661D03*
X021584Y022361D03*
X008510Y023787D03*
X007684Y024161D03*
X007010Y023787D03*
X006184Y024161D03*
X005510Y023787D03*
X004684Y024161D03*
X004110Y023787D03*
X003284Y024161D03*
X004110Y024535D03*
X005510Y024535D03*
X007010Y024535D03*
X008510Y024535D03*
D13*
X015443Y023855D03*
X016191Y023855D03*
X015817Y023028D03*
X030543Y016355D03*
X031291Y016355D03*
X030917Y015528D03*
X034427Y027158D03*
X034801Y027985D03*
X034053Y027985D03*
X014817Y008194D03*
X015191Y007368D03*
X014443Y007368D03*
D14*
X028360Y008261D03*
X031273Y008261D03*
D15*
X032213Y009118D03*
X032961Y009118D03*
X032587Y009984D03*
X034903Y011114D03*
X035651Y011114D03*
X035277Y010248D03*
X033991Y007694D03*
X033243Y007694D03*
X033617Y006828D03*
X033843Y017528D03*
X034591Y017528D03*
X034217Y018394D03*
D16*
X032877Y017161D03*
X031757Y017161D03*
X033877Y016271D03*
X034997Y016271D03*
X033637Y012111D03*
X032517Y012111D03*
X027277Y007161D03*
X026157Y007161D03*
X025877Y010261D03*
X024757Y010261D03*
X023677Y010261D03*
X022557Y010261D03*
X021877Y009261D03*
X020757Y009261D03*
X020557Y011261D03*
X021677Y011261D03*
X024357Y013661D03*
X025477Y013661D03*
X025377Y019061D03*
X024257Y019061D03*
X027357Y020361D03*
X028477Y020361D03*
X034047Y021041D03*
X034137Y022061D03*
X034157Y023081D03*
X034197Y024021D03*
X035317Y024021D03*
X035277Y023081D03*
X035257Y022061D03*
X035167Y021041D03*
X035147Y024991D03*
X034027Y024991D03*
X034057Y026341D03*
X035177Y026341D03*
X020577Y026061D03*
X019457Y026061D03*
X019457Y025061D03*
X019457Y024061D03*
X019457Y023061D03*
X020577Y023061D03*
X020577Y024061D03*
X020577Y025061D03*
X016377Y022061D03*
X016377Y021061D03*
X016377Y020061D03*
X016377Y019061D03*
X015257Y019061D03*
X015257Y020061D03*
X015257Y021061D03*
X015257Y022061D03*
X015357Y017461D03*
X016477Y017461D03*
X016477Y016161D03*
X016477Y015131D03*
X015357Y015131D03*
X015357Y016161D03*
X015257Y013061D03*
X016377Y013061D03*
X016377Y012061D03*
X016377Y011061D03*
X016377Y010061D03*
X016377Y009061D03*
X015257Y009061D03*
X015257Y010061D03*
X015257Y011061D03*
X015257Y012061D03*
X017357Y007361D03*
X018477Y007361D03*
X018277Y006061D03*
X017157Y006061D03*
X012477Y005461D03*
X011357Y005461D03*
X011017Y004101D03*
X009897Y004101D03*
X002367Y026961D03*
X001247Y026961D03*
D17*
X023867Y009191D03*
X024367Y009191D03*
X024867Y009191D03*
X025367Y009191D03*
X025367Y007131D03*
X024867Y007131D03*
X024367Y007131D03*
X023867Y007131D03*
X031767Y013631D03*
X032267Y013631D03*
X032767Y013631D03*
X033267Y013631D03*
X033267Y015691D03*
X032767Y015691D03*
X032267Y015691D03*
X031767Y015691D03*
X025667Y015831D03*
X025167Y015831D03*
X024667Y015831D03*
X024167Y015831D03*
X024167Y017891D03*
X024667Y017891D03*
X025167Y017891D03*
X025667Y017891D03*
D18*
X030367Y020326D03*
X030367Y022216D03*
D19*
X003917Y002301D03*
X003917Y003421D03*
X001217Y007701D03*
X001217Y008821D03*
X005917Y008301D03*
X006797Y008301D03*
X006797Y009421D03*
X005917Y009421D03*
X013817Y005721D03*
X013817Y004601D03*
X020117Y006301D03*
X020117Y007421D03*
X021917Y007421D03*
X022817Y007001D03*
X022817Y008121D03*
X021917Y006301D03*
X023377Y013151D03*
X023377Y014271D03*
X023417Y016301D03*
X023417Y017421D03*
X026617Y017421D03*
X026617Y016301D03*
X029817Y016821D03*
X029817Y015701D03*
X030807Y013351D03*
X030807Y012231D03*
X033877Y010371D03*
X033877Y009251D03*
X035157Y009021D03*
X035157Y007901D03*
X034817Y006021D03*
X034817Y004901D03*
X036517Y011701D03*
X036517Y012821D03*
X034097Y013981D03*
X034097Y015101D03*
X033017Y018101D03*
X033017Y019221D03*
X028017Y023701D03*
X028017Y024821D03*
X007017Y025401D03*
X006017Y025401D03*
X005017Y025401D03*
X004017Y025401D03*
X004017Y026521D03*
X005017Y026521D03*
X006017Y026521D03*
X007017Y026521D03*
X001407Y023821D03*
X001407Y022701D03*
X001407Y021731D03*
X001407Y020611D03*
X001407Y017561D03*
X001407Y016441D03*
D20*
X001217Y010952D03*
X001217Y009771D03*
X001217Y006052D03*
X001217Y004871D03*
X017227Y003122D03*
X017227Y001941D03*
X001307Y024771D03*
X001307Y025952D03*
D21*
X004046Y016723D03*
X004046Y016409D03*
X004046Y016094D03*
X004046Y015779D03*
X004046Y015464D03*
X004046Y015149D03*
X004046Y014834D03*
X004046Y014519D03*
X004046Y014204D03*
X004046Y013889D03*
X004046Y013574D03*
X004046Y013259D03*
X004046Y012944D03*
X004046Y012629D03*
X004046Y012314D03*
X004046Y011999D03*
X010188Y011999D03*
X010188Y012314D03*
X010188Y012629D03*
X010188Y012944D03*
X010188Y013259D03*
X010188Y013574D03*
X010188Y013889D03*
X010188Y014204D03*
X010188Y014519D03*
X010188Y014834D03*
X010188Y015149D03*
X010188Y015464D03*
X010188Y015779D03*
X010188Y016094D03*
X010188Y016409D03*
X010188Y016723D03*
D22*
X009479Y017432D03*
X009164Y017432D03*
X008849Y017432D03*
X008534Y017432D03*
X008219Y017432D03*
X007904Y017432D03*
X007589Y017432D03*
X007274Y017432D03*
X006959Y017432D03*
X006644Y017432D03*
X006329Y017432D03*
X006014Y017432D03*
X005699Y017432D03*
X005384Y017432D03*
X005069Y017432D03*
X004754Y017432D03*
X004754Y011290D03*
X005069Y011290D03*
X005384Y011290D03*
X005699Y011290D03*
X006014Y011290D03*
X006329Y011290D03*
X006644Y011290D03*
X006959Y011290D03*
X007274Y011290D03*
X007589Y011290D03*
X007904Y011290D03*
X008219Y011290D03*
X008534Y011290D03*
X008849Y011290D03*
X009164Y011290D03*
X009479Y011290D03*
D23*
X028166Y013805D03*
X028166Y014061D03*
X028166Y014317D03*
X028887Y014317D03*
X028887Y014061D03*
X028887Y013805D03*
D24*
X028525Y013876D03*
X028525Y014242D03*
D25*
X028273Y015991D03*
X028017Y015991D03*
X027761Y015991D03*
X027761Y016712D03*
X028017Y016712D03*
X028273Y016712D03*
X026973Y008812D03*
X026717Y008812D03*
X026461Y008812D03*
X026461Y008091D03*
X026717Y008091D03*
X026973Y008091D03*
D26*
X026898Y008453D03*
X026532Y008453D03*
X027832Y016353D03*
X028198Y016353D03*
D27*
X021356Y005225D03*
X021356Y004969D03*
X021356Y004713D03*
X021356Y004457D03*
X021356Y004201D03*
X021356Y003945D03*
X021356Y003689D03*
X021356Y003433D03*
X021356Y003177D03*
X021356Y002921D03*
X021356Y002666D03*
X021356Y002410D03*
X021356Y002154D03*
X021356Y001898D03*
X018477Y001898D03*
X018477Y002154D03*
X018477Y002410D03*
X018477Y002666D03*
X018477Y002921D03*
X018477Y003177D03*
X018477Y003433D03*
X018477Y003689D03*
X018477Y003945D03*
X018477Y004201D03*
X018477Y004457D03*
X018477Y004713D03*
X018477Y004969D03*
X018477Y005225D03*
D28*
X014398Y025439D03*
X014201Y025439D03*
X014004Y025439D03*
X013807Y025439D03*
X013610Y025439D03*
X013414Y025439D03*
X013414Y026187D03*
X013610Y026187D03*
X013807Y026187D03*
X014004Y026187D03*
X014201Y026187D03*
X014398Y026187D03*
X009898Y026287D03*
X009701Y026287D03*
X009504Y026287D03*
X009307Y026287D03*
X009110Y026287D03*
X008914Y026287D03*
X008914Y025539D03*
X009110Y025539D03*
X009307Y025539D03*
X009504Y025539D03*
X009701Y025539D03*
X009898Y025539D03*
D29*
X009394Y025913D03*
X013894Y025813D03*
D30*
X027453Y019465D03*
X027453Y019091D03*
X027453Y018717D03*
X028354Y018717D03*
X028354Y019091D03*
X028354Y019465D03*
D31*
X030545Y019223D03*
X030545Y018479D03*
X031608Y018479D03*
X031608Y018853D03*
X031608Y019227D03*
D32*
X007714Y021401D03*
X007517Y021401D03*
X007321Y021401D03*
X007124Y021401D03*
X006927Y021401D03*
X006923Y022322D03*
X007120Y022322D03*
X007317Y022322D03*
X007514Y022322D03*
X007710Y022322D03*
D33*
X007813Y022058D03*
X007813Y021861D03*
X007813Y021664D03*
X006821Y021664D03*
X006821Y021861D03*
X006821Y022058D03*
D34*
X011817Y024810D03*
X011817Y025912D03*
X019817Y017512D03*
X019817Y016410D03*
X024417Y022210D03*
X025317Y022210D03*
X025317Y023312D03*
X024417Y023312D03*
X021017Y007412D03*
X021017Y006310D03*
X001407Y018550D03*
X001407Y019652D03*
D35*
X026943Y014273D03*
X027691Y014273D03*
X027691Y013249D03*
X027317Y013249D03*
X026943Y013249D03*
D36*
X029350Y010535D03*
X029350Y009787D03*
X028484Y010161D03*
D37*
X016117Y002161D03*
X014117Y002161D03*
X015117Y003861D03*
M02*
