%
M48
M72
T01C0.0197
T02C0.0236
T03C0.0315
T04C0.0360
T05C0.0400
T06C0.0512
T07C0.0591
T08C0.0900
T09C0.1102
T10C0.1180
%
T01
X3817Y1661
X5517Y3961
X5017Y7441
X5587Y7551
X5117Y9161
X4517Y9161
X2817Y10441
X4317Y10661
X3407Y12271
X3167Y12921
X3227Y13741
X3217Y14361
X2117Y13701
X1717Y12661
X1217Y12261
X1817Y11691
X4677Y12441
X4667Y12971
X4687Y13561
X6037Y13821
X6147Y14681
X6337Y15411
X7177Y15261
X7727Y14901
X7027Y14621
X8587Y14611
X9527Y13491
X11627Y12651
X12207Y12851
X12697Y12541
X14517Y12361
X14617Y13661
X15117Y14161
X14507Y15281
X14567Y16581
X12697Y17391
X12327Y16721
X11607Y16231
X10857Y16491
X10177Y17241
X10107Y17841
X10387Y18491
X11477Y18301
X10717Y19871
X11477Y20311
X9447Y20531
X9437Y21081
X9817Y22321
X10227Y22771
X10747Y22331
X11437Y23681
X11117Y24611
X10087Y24771
X10087Y24131
X9397Y24001
X8967Y23621
X9417Y24961
X8517Y25461
X8097Y26261
X8417Y27261
X10417Y25661
X12467Y24851
X12617Y25361
X13697Y24911
X14387Y24991
X15407Y25791
X16927Y25361
X16917Y24561
X16947Y23581
X16347Y22911
X16867Y22761
X14747Y21181
X14477Y20801
X14557Y19901
X16327Y18331
X17067Y18671
X17117Y17991
X19117Y17861
X19317Y18561
X20937Y19341
X21617Y19891
X21247Y20431
X20617Y22211
X23027Y24321
X22957Y25511
X22887Y26261
X24007Y27121
X24237Y27681
X24367Y29131
X25397Y24831
X25667Y24021
X26797Y24861
X27377Y22791
X26107Y21561
X26877Y20381
X24887Y19341
X24547Y20161
X23897Y20431
X23387Y17541
X20617Y16961
X20007Y15541
X19967Y14961
X19997Y13971
X21247Y13461
X20937Y12921
X19947Y12331
X22207Y10301
X22817Y9431
X21607Y8481
X20517Y8961
X20167Y8121
X22637Y7731
X24337Y7891
X25147Y7831
X24897Y8541
X24807Y9161
X26047Y10491
X26797Y10081
X26747Y9351
X28417Y9041
X30427Y7301
X31177Y9301
X33887Y9201
X35037Y9811
X34517Y11071
X34657Y12871
X33857Y12821
X33197Y14411
X31727Y14701
X31157Y14101
X30137Y14431
X30067Y13681
X28497Y13581
X27647Y13961
X27147Y13361
X27657Y12801
X26167Y11531
X25627Y11951
X23757Y11531
X23317Y11961
X21617Y14461
X17047Y13701
X16447Y14311
X12217Y14961
X11887Y14441
X11287Y15371
X9367Y16211
X8437Y16171
X7937Y16471
X6287Y16481
X5447Y16561
X4977Y16821
X4287Y17701
X3667Y17551
X2457Y17751
X1267Y18821
X2247Y19161
X3547Y19281
X3927Y18771
X5087Y18761
X5667Y19561
X6217Y19541
X6917Y19221
X7677Y19221
X8167Y18301
X8757Y18171
X8917Y19251
X6757Y20911
X5907Y20461
X5407Y21301
X4987Y22321
X5757Y23081
X6507Y23411
X7327Y23471
X7307Y22331
X4547Y23531
X3277Y23381
X2667Y24461
X2987Y25261
X2787Y26091
X1517Y23891
X1817Y23541
X1667Y22771
X1437Y21881
X3267Y21641
X3987Y20361
X6357Y17961
X4627Y15671
X4607Y15151
X2017Y15961
X6037Y12251
X6837Y11941
X10687Y9101
X12777Y7391
X12777Y6511
X13667Y5831
X14077Y5381
X12777Y4641
X11797Y4571
X11117Y6161
X13917Y6421
X14847Y6411
X16367Y8221
X14417Y10761
X19807Y4951
X19647Y4111
X19197Y3691
X20247Y3121
X20717Y2701
X20687Y3591
X20727Y4181
X22217Y4661
X22217Y2961
X27737Y6971
X28667Y2281
X33717Y6091
X33047Y6841
X34727Y6431
X35107Y7011
X31867Y12811
X30617Y17271
X29907Y18511
X30307Y19461
X32337Y20331
X33417Y20251
X34167Y20311
X32227Y21581
X32117Y22821
X32117Y24171
X29897Y23461
X30297Y21651
X28127Y18641
X28577Y17571
X33927Y17611
X34527Y17561
X34197Y18281
X32377Y26851
X32417Y27391
X17217Y27661
X12617Y27361
X12867Y26061
X14417Y23511
X13767Y22731
X2017Y8761
X1217Y6861
X13527Y3521
X16007Y4281
X16207Y3661
X16177Y1851
T02
X3647Y11551
T03
X36767Y7969
X36767Y7181
X36767Y6394
T04
X25809Y5841
X24825Y5841
X24825Y5061
X25809Y5061
T05
X17817Y8461
X17817Y9461
X17817Y10461
X17817Y11461
X17817Y12461
X17817Y13461
X17817Y14461
X17817Y15461
X17817Y16461
X17817Y17461
X17817Y19061
X17817Y20061
X17817Y21061
X17817Y22061
X17817Y23061
X17817Y24061
X17817Y25061
X17817Y26061
X17617Y29161
X18617Y29161
X19617Y29161
X19617Y30161
X18617Y30161
X17617Y30161
X21587Y30161
X22587Y30161
X23587Y30161
X23587Y29161
X22587Y29161
X21587Y29161
X24937Y28371
X25817Y27061
X26817Y27061
X27817Y27061
X27817Y26061
X26817Y26061
X25817Y26061
X27497Y28371
X27497Y30151
X29837Y30151
X29837Y28371
X32397Y28371
X32397Y30151
X36817Y26061
X36817Y25061
X36817Y24061
X36817Y23061
X36817Y22061
X36817Y21061
X36817Y19061
X36817Y18061
X36817Y17061
X36817Y16061
X36817Y15061
X36817Y14061
X36817Y13061
X36817Y12061
X24937Y30151
X13517Y18481
X13517Y17481
X1317Y15361
X1317Y14361
X1317Y13361
X6017Y2981
X7017Y2981
X8017Y2981
X9017Y2981
X10017Y2981
X11017Y2981
X12017Y2981
X12017Y1981
X11017Y1981
X10017Y1981
X9017Y1981
X8017Y1981
X7017Y1981
X6017Y1981
X6017Y28261
X5017Y28261
X5017Y29261
X6017Y29261
X7017Y29261
X7017Y28261
X7017Y30261
X6017Y30261
X5017Y30261
X4017Y30261
X4017Y29261
X4017Y28261
T06
X9117Y28891
X11085Y28891
X13057Y28891
X15025Y28891
T07
X36782Y8795
X36782Y5567
T08
X27687Y3991
X22947Y3991
T09
X1817Y2561
X1817Y29561
X36317Y29561
X36317Y2561
T10
X33167Y4774
X31317Y5955
X31317Y3593
M30
