G75*
%MOIN*%
%OFA0B0*%
%FSLAX24Y24*%
%IPPOS*%
%LPD*%
%AMOC8*
5,1,8,0,0,1.08239X$1,22.5*
%
%ADD10R,0.0591X0.2165*%
%ADD11R,0.0472X0.0315*%
%ADD12R,0.0315X0.0354*%
%ADD13R,0.0354X0.0315*%
%ADD14R,0.0906X0.1811*%
%ADD15R,0.0551X0.0394*%
%ADD16R,0.0630X0.0710*%
%ADD17R,0.0240X0.0870*%
%ADD18R,0.0551X0.1181*%
%ADD19R,0.0870X0.0240*%
%ADD20R,0.0710X0.0630*%
%ADD21R,0.0551X0.0472*%
%ADD22R,0.0470X0.0220*%
%ADD23R,0.0220X0.0470*%
%ADD24R,0.0394X0.0551*%
%ADD25R,0.0550X0.0137*%
%ADD26R,0.0110X0.0197*%
%ADD27R,0.0787X0.0354*%
%ADD28R,0.0276X0.0157*%
%ADD29R,0.0236X0.0413*%
%ADD30R,0.0264X0.0098*%
%ADD31R,0.0098X0.0264*%
%ADD32R,0.0709X0.0630*%
%ADD33R,0.0470X0.1300*%
%ADD34R,0.1457X0.0472*%
%ADD35R,0.0098X0.0276*%
%ADD36R,0.0276X0.0098*%
%ADD37R,0.0850X0.0669*%
%ADD38R,0.0118X0.0138*%
%ADD39R,0.0236X0.0374*%
%ADD40R,0.0138X0.0118*%
%ADD41R,0.0374X0.0236*%
D10*
X003617Y005668D03*
X003617Y009054D03*
D11*
X005017Y008616D03*
X005017Y007907D03*
X005017Y006216D03*
X005017Y005507D03*
D12*
X014443Y007368D03*
X015191Y007368D03*
X014817Y008194D03*
X014837Y017608D03*
X015211Y018435D03*
X014463Y018435D03*
X012677Y019218D03*
X013051Y020045D03*
X012303Y020045D03*
X015317Y022958D03*
X015691Y023785D03*
X014943Y023785D03*
X034073Y027515D03*
X034821Y027515D03*
X034447Y026688D03*
D13*
X032030Y026301D03*
X031203Y025927D03*
X031203Y025275D03*
X031203Y024527D03*
X031193Y023885D03*
X032020Y023511D03*
X031193Y023137D03*
X031203Y022515D03*
X031203Y021767D03*
X031193Y021185D03*
X031193Y020437D03*
X032020Y020811D03*
X032030Y022141D03*
X032030Y024901D03*
X031203Y026675D03*
X022410Y026635D03*
X022410Y025887D03*
X022410Y025335D03*
X022410Y024587D03*
X022410Y024035D03*
X022410Y023287D03*
X022410Y022735D03*
X022410Y021987D03*
X021584Y022361D03*
X021584Y023661D03*
X021584Y024961D03*
X021584Y026261D03*
X014250Y021761D03*
X013423Y021387D03*
X013563Y020735D03*
X014390Y020361D03*
X013563Y019987D03*
X013423Y022135D03*
X008510Y023807D03*
X007684Y024181D03*
X007010Y023807D03*
X006184Y024181D03*
X005510Y023807D03*
X004684Y024181D03*
X004110Y023807D03*
X003284Y024181D03*
X004110Y024555D03*
X005510Y024555D03*
X007010Y024555D03*
X008510Y024555D03*
X013423Y016435D03*
X013423Y015687D03*
X013423Y014935D03*
X014250Y014561D03*
X013423Y014187D03*
X013423Y013435D03*
X014250Y013061D03*
X013423Y012687D03*
X013423Y011935D03*
X013423Y011187D03*
X013423Y010535D03*
X014250Y010161D03*
X013423Y009787D03*
X013423Y009135D03*
X013423Y008387D03*
X014250Y008761D03*
X015783Y007655D03*
X016610Y007281D03*
X015783Y006907D03*
X014250Y011561D03*
X014250Y016061D03*
D14*
X026620Y007891D03*
X029533Y007891D03*
D15*
X030640Y015827D03*
X029774Y016201D03*
X030640Y016575D03*
X032860Y018527D03*
X032860Y019275D03*
X031994Y018901D03*
X008770Y022791D03*
X007904Y022417D03*
X007904Y023165D03*
X004880Y021665D03*
X004014Y021291D03*
X004880Y020917D03*
X004970Y020225D03*
X004970Y019477D03*
X004104Y019851D03*
D16*
X003247Y020061D03*
X003247Y020951D03*
X002127Y020951D03*
X002127Y020061D03*
X002817Y022631D03*
X003937Y022631D03*
X002377Y027121D03*
X001257Y027121D03*
X015257Y022061D03*
X016377Y022061D03*
X016567Y021061D03*
X016377Y020061D03*
X015257Y020061D03*
X015257Y019061D03*
X016377Y019061D03*
X016637Y017271D03*
X015517Y017271D03*
X015257Y016161D03*
X016377Y016161D03*
X016377Y015131D03*
X015257Y015131D03*
X015257Y013061D03*
X016377Y013061D03*
X016377Y012061D03*
X015257Y012061D03*
X015257Y011061D03*
X016377Y011061D03*
X016377Y010061D03*
X015257Y010061D03*
X015257Y009061D03*
X016377Y009061D03*
X017357Y007361D03*
X018477Y007361D03*
X018477Y006171D03*
X017357Y006171D03*
X015927Y005631D03*
X014807Y005631D03*
X012887Y005481D03*
X011767Y005481D03*
X020557Y011651D03*
X021677Y011651D03*
X023897Y007041D03*
X025017Y007041D03*
X028757Y009761D03*
X029877Y009761D03*
X032147Y009751D03*
X032137Y010761D03*
X032517Y011741D03*
X033637Y011741D03*
X033257Y010761D03*
X033267Y009751D03*
X032857Y017321D03*
X031737Y017321D03*
X032807Y021041D03*
X033927Y021041D03*
X033917Y022061D03*
X032797Y022061D03*
X032807Y023081D03*
X033927Y023081D03*
X033927Y024021D03*
X032807Y024021D03*
X032807Y025001D03*
X033927Y025001D03*
X033927Y026021D03*
X032807Y026021D03*
X026877Y019631D03*
X025757Y019631D03*
X020727Y023061D03*
X020727Y024071D03*
X020727Y025061D03*
X019607Y025061D03*
X019607Y024071D03*
X019607Y023061D03*
X019607Y026061D03*
X020727Y026061D03*
X015447Y021061D03*
D17*
X031767Y015691D03*
X032267Y015691D03*
X032767Y015691D03*
X033267Y015691D03*
X033267Y013631D03*
X032767Y013631D03*
X032267Y013631D03*
X031767Y013631D03*
D18*
X028897Y020456D03*
X028897Y022346D03*
D19*
X031427Y008801D03*
X031427Y008301D03*
X031427Y007801D03*
X031427Y007301D03*
X033487Y007301D03*
X033487Y007801D03*
X033487Y008301D03*
X033487Y008801D03*
D20*
X003917Y002301D03*
X003917Y003421D03*
X001217Y007701D03*
X001217Y008821D03*
X005917Y008301D03*
X006797Y008301D03*
X006797Y009421D03*
X005917Y009421D03*
X009837Y006431D03*
X009837Y005311D03*
X010727Y005351D03*
X010727Y004231D03*
X020307Y006271D03*
X021297Y006261D03*
X021297Y007381D03*
X020307Y007391D03*
X021327Y009241D03*
X021327Y010361D03*
X023667Y015331D03*
X023667Y016451D03*
X026307Y016431D03*
X026307Y015311D03*
X028347Y015291D03*
X028347Y016411D03*
X027387Y017551D03*
X027387Y018671D03*
X031187Y018411D03*
X031187Y019531D03*
X034067Y016861D03*
X034067Y015741D03*
X034077Y014731D03*
X034077Y013611D03*
X035247Y012011D03*
X035247Y010891D03*
X035157Y009021D03*
X035157Y007901D03*
X034727Y005831D03*
X034727Y004711D03*
X027737Y009901D03*
X027737Y011021D03*
X031037Y012231D03*
X031037Y013351D03*
X027727Y023661D03*
X027727Y024781D03*
X007807Y021531D03*
X007807Y020411D03*
X007017Y025401D03*
X006017Y025401D03*
X005017Y025401D03*
X004017Y025401D03*
X004017Y026521D03*
X005017Y026521D03*
X006017Y026521D03*
X007017Y026521D03*
X001407Y017561D03*
X001407Y016441D03*
D21*
X001217Y010952D03*
X001217Y009771D03*
X001217Y006052D03*
X001217Y004871D03*
X017027Y005312D03*
X017027Y004131D03*
X017027Y003142D03*
X017027Y001961D03*
X001307Y024771D03*
X001307Y025952D03*
D22*
X004046Y016723D03*
X004046Y016409D03*
X004046Y016094D03*
X004046Y015779D03*
X004046Y015464D03*
X004046Y015149D03*
X004046Y014834D03*
X004046Y014519D03*
X004046Y014204D03*
X004046Y013889D03*
X004046Y013574D03*
X004046Y013259D03*
X004046Y012944D03*
X004046Y012629D03*
X004046Y012314D03*
X004046Y011999D03*
X010188Y011999D03*
X010188Y012314D03*
X010188Y012629D03*
X010188Y012944D03*
X010188Y013259D03*
X010188Y013574D03*
X010188Y013889D03*
X010188Y014204D03*
X010188Y014519D03*
X010188Y014834D03*
X010188Y015149D03*
X010188Y015464D03*
X010188Y015779D03*
X010188Y016094D03*
X010188Y016409D03*
X010188Y016723D03*
D23*
X009479Y017432D03*
X009164Y017432D03*
X008849Y017432D03*
X008534Y017432D03*
X008219Y017432D03*
X007904Y017432D03*
X007589Y017432D03*
X007274Y017432D03*
X006959Y017432D03*
X006644Y017432D03*
X006329Y017432D03*
X006014Y017432D03*
X005699Y017432D03*
X005384Y017432D03*
X005069Y017432D03*
X004754Y017432D03*
X004754Y011290D03*
X005069Y011290D03*
X005384Y011290D03*
X005699Y011290D03*
X006014Y011290D03*
X006329Y011290D03*
X006644Y011290D03*
X006959Y011290D03*
X007274Y011290D03*
X007589Y011290D03*
X007904Y011290D03*
X008219Y011290D03*
X008534Y011290D03*
X008849Y011290D03*
X009164Y011290D03*
X009479Y011290D03*
D24*
X023453Y009558D03*
X024201Y009558D03*
X023827Y010424D03*
X029133Y011714D03*
X029881Y011714D03*
X029507Y010848D03*
X029751Y012618D03*
X029003Y012618D03*
X029377Y013484D03*
X029557Y014268D03*
X029931Y015134D03*
X029183Y015134D03*
D25*
X021356Y005225D03*
X021356Y004969D03*
X021356Y004713D03*
X021356Y004457D03*
X021356Y004201D03*
X021356Y003945D03*
X021356Y003689D03*
X021356Y003433D03*
X021356Y003177D03*
X021356Y002921D03*
X021356Y002666D03*
X021356Y002410D03*
X021356Y002154D03*
X021356Y001898D03*
X018477Y001898D03*
X018477Y002154D03*
X018477Y002410D03*
X018477Y002666D03*
X018477Y002921D03*
X018477Y003177D03*
X018477Y003433D03*
X018477Y003689D03*
X018477Y003945D03*
X018477Y004201D03*
X018477Y004457D03*
X018477Y004713D03*
X018477Y004969D03*
X018477Y005225D03*
D26*
X014398Y025439D03*
X014201Y025439D03*
X014004Y025439D03*
X013807Y025439D03*
X013610Y025439D03*
X013414Y025439D03*
X013414Y026187D03*
X013610Y026187D03*
X013807Y026187D03*
X014004Y026187D03*
X014201Y026187D03*
X014398Y026187D03*
X009898Y026287D03*
X009701Y026287D03*
X009504Y026287D03*
X009307Y026287D03*
X009110Y026287D03*
X008914Y026287D03*
X008914Y025539D03*
X009110Y025539D03*
X009307Y025539D03*
X009504Y025539D03*
X009701Y025539D03*
X009898Y025539D03*
D27*
X009394Y025913D03*
X013894Y025813D03*
D28*
X025403Y018275D03*
X025403Y017901D03*
X025403Y017527D03*
X026304Y017527D03*
X026304Y017901D03*
X026304Y018275D03*
D29*
X028565Y018330D03*
X028939Y018330D03*
X029313Y018330D03*
X029309Y019393D03*
X028565Y019393D03*
D30*
X006777Y021531D03*
X006777Y021728D03*
X006777Y021925D03*
X006777Y022122D03*
X006777Y022319D03*
X005856Y022315D03*
X005856Y022118D03*
X005856Y021921D03*
X005856Y021724D03*
X005856Y021528D03*
D31*
X006120Y021425D03*
X006317Y021425D03*
X006514Y021425D03*
X006514Y022417D03*
X006317Y022417D03*
X006120Y022417D03*
D32*
X008667Y021502D03*
X008667Y020400D03*
X011817Y024810D03*
X011817Y025912D03*
X019817Y017512D03*
X019817Y016410D03*
X024547Y016432D03*
X025417Y016422D03*
X025417Y015320D03*
X024547Y015330D03*
X027387Y015310D03*
X027387Y016412D03*
X024947Y011502D03*
X024947Y010400D03*
X022197Y006862D03*
X022197Y005760D03*
X025457Y022290D03*
X026317Y022280D03*
X026317Y023382D03*
X025457Y023392D03*
D33*
X014497Y003851D03*
X015497Y002151D03*
X013497Y002151D03*
D34*
X024077Y012980D03*
X024077Y014082D03*
D35*
X025563Y014108D03*
X025760Y014108D03*
X025957Y014108D03*
X026154Y014108D03*
X026350Y014108D03*
X026350Y012978D03*
X026154Y012974D03*
X025957Y012974D03*
X025760Y012974D03*
X025563Y012974D03*
D36*
X025394Y013305D03*
X025394Y013463D03*
X025394Y013620D03*
X025394Y013777D03*
X026520Y013777D03*
X026520Y013620D03*
X026520Y013463D03*
X026520Y013305D03*
D37*
X025957Y013541D03*
D38*
X023783Y008742D03*
X023527Y008742D03*
X023271Y008742D03*
X023271Y008021D03*
X023527Y008021D03*
X023783Y008021D03*
D39*
X023708Y008383D03*
X023342Y008383D03*
D40*
X025556Y009175D03*
X025556Y009431D03*
X025556Y009687D03*
X026277Y009687D03*
X026277Y009431D03*
X026277Y009175D03*
D41*
X025915Y009246D03*
X025915Y009612D03*
M02*
