G75*
%MOIN*%
%OFA0B0*%
%FSLAX24Y24*%
%IPPOS*%
%LPD*%
%AMOC8*
5,1,8,0,0,1.08239X$1,22.5*
%
%ADD10C,0.1780*%
%ADD11R,0.0671X0.2245*%
%ADD12R,0.0552X0.0395*%
%ADD13R,0.0820X0.0820*%
%ADD14C,0.0820*%
%ADD15R,0.0434X0.0395*%
%ADD16R,0.0395X0.0434*%
%ADD17R,0.0986X0.1891*%
%ADD18R,0.0474X0.0631*%
%ADD19C,0.1182*%
%ADD20R,0.0710X0.0790*%
%ADD21R,0.0320X0.0950*%
%ADD22R,0.0631X0.1261*%
%ADD23R,0.0790X0.0710*%
%ADD24OC8,0.0820*%
%ADD25R,0.0631X0.0552*%
%ADD26R,0.0550X0.0300*%
%ADD27R,0.0300X0.0550*%
%ADD28R,0.0595X0.0595*%
%ADD29C,0.0671*%
%ADD30R,0.0848X0.0848*%
%ADD31R,0.0218X0.0198*%
%ADD32R,0.0454X0.0316*%
%ADD33R,0.0198X0.0218*%
%ADD34R,0.0316X0.0454*%
%ADD35R,0.0630X0.0217*%
%ADD36R,0.0190X0.0277*%
%ADD37R,0.0867X0.0434*%
%ADD38R,0.0356X0.0237*%
%ADD39R,0.0493X0.0316*%
%ADD40R,0.0178X0.0344*%
%ADD41R,0.0344X0.0178*%
%ADD42R,0.0789X0.0710*%
%ADD43C,0.0740*%
%ADD44C,0.1380*%
%ADD45R,0.0297X0.0552*%
%ADD46R,0.0631X0.0474*%
%ADD47R,0.0550X0.1380*%
%ADD48C,0.0437*%
D10*
X031317Y003593D03*
X033167Y004774D03*
X031317Y005955D03*
D11*
X003617Y005668D03*
X003617Y009054D03*
D12*
X005017Y008416D03*
X005017Y007707D03*
X005017Y006216D03*
X005017Y005507D03*
D13*
X017817Y026061D03*
X004017Y028261D03*
X004017Y029261D03*
X004017Y030261D03*
D14*
X005017Y030261D03*
X006017Y030261D03*
X007017Y030261D03*
X007017Y029261D03*
X007017Y028261D03*
X006017Y028261D03*
X005017Y028261D03*
X005017Y029261D03*
X006017Y029261D03*
X017817Y025061D03*
X017817Y024061D03*
X017817Y023061D03*
X017817Y022061D03*
X017817Y021061D03*
X017817Y020061D03*
X017817Y019061D03*
X017817Y017461D03*
X017817Y016461D03*
X017817Y015461D03*
X017817Y014461D03*
X017817Y013461D03*
X017817Y012461D03*
X017817Y011461D03*
X017817Y010461D03*
X017817Y009461D03*
X017817Y008461D03*
X001317Y013361D03*
X001317Y014361D03*
X001317Y015361D03*
X024937Y028371D03*
X024937Y030151D03*
X027497Y030151D03*
X027497Y028371D03*
X029837Y028371D03*
X029837Y030151D03*
X032397Y030151D03*
X032397Y028371D03*
X036817Y026061D03*
X036817Y025061D03*
X036817Y024061D03*
X036817Y023061D03*
X036817Y022061D03*
X036817Y021061D03*
X036817Y019061D03*
X036817Y018061D03*
X036817Y017061D03*
X036817Y016061D03*
X036817Y015061D03*
X036817Y014061D03*
D15*
X032463Y020437D03*
X032463Y021185D03*
X032473Y021767D03*
X032473Y022515D03*
X032463Y023137D03*
X033290Y023511D03*
X032463Y023885D03*
X032473Y024527D03*
X032473Y025275D03*
X032473Y025927D03*
X033300Y026301D03*
X032473Y026675D03*
X033300Y024901D03*
X033300Y022141D03*
X033290Y020811D03*
X022410Y021987D03*
X022410Y022735D03*
X022410Y023287D03*
X022410Y024035D03*
X022410Y024587D03*
X022410Y025335D03*
X022410Y025887D03*
X022410Y026635D03*
X021584Y026261D03*
X021584Y024961D03*
X021584Y023661D03*
X021584Y022361D03*
X014250Y021761D03*
X013423Y021387D03*
X013423Y020735D03*
X014250Y020361D03*
X013423Y019987D03*
X013423Y019435D03*
X014250Y019061D03*
X013423Y018687D03*
X013423Y017935D03*
X013423Y017187D03*
X014250Y017561D03*
X013423Y016435D03*
X013423Y015687D03*
X013423Y014935D03*
X014250Y014561D03*
X013423Y014187D03*
X013423Y013435D03*
X014250Y013061D03*
X013423Y012687D03*
X013423Y011935D03*
X013423Y011187D03*
X013423Y010535D03*
X014250Y010161D03*
X013423Y009787D03*
X013423Y009135D03*
X013423Y008387D03*
X014250Y008761D03*
X015723Y007535D03*
X015723Y006787D03*
X016550Y007161D03*
X014250Y011561D03*
X014250Y016061D03*
X013423Y022135D03*
X008510Y023787D03*
X007684Y024161D03*
X007010Y023787D03*
X006184Y024161D03*
X005510Y023787D03*
X004684Y024161D03*
X004110Y023787D03*
X003284Y024161D03*
X004110Y024535D03*
X005510Y024535D03*
X007010Y024535D03*
X008510Y024535D03*
D16*
X015443Y023855D03*
X016191Y023855D03*
X015817Y023028D03*
X030543Y016355D03*
X031291Y016355D03*
X030917Y015528D03*
X034427Y027158D03*
X034801Y027985D03*
X034053Y027985D03*
X014817Y008194D03*
X015191Y007368D03*
X014443Y007368D03*
D17*
X028360Y008261D03*
X031273Y008261D03*
D18*
X032213Y009118D03*
X032961Y009118D03*
X032587Y009984D03*
X034903Y011114D03*
X035651Y011114D03*
X035277Y010248D03*
X033991Y007694D03*
X033243Y007694D03*
X033617Y006828D03*
X033843Y017528D03*
X034591Y017528D03*
X034217Y018394D03*
D19*
X001817Y002561D03*
X001817Y029561D03*
X036317Y029561D03*
X036317Y002561D03*
D20*
X027277Y007161D03*
X026157Y007161D03*
X025877Y010261D03*
X024757Y010261D03*
X023677Y010261D03*
X022557Y010261D03*
X021877Y009261D03*
X020757Y009261D03*
X020557Y011261D03*
X021677Y011261D03*
X024357Y013661D03*
X025477Y013661D03*
X031757Y017161D03*
X032877Y017161D03*
X033877Y016271D03*
X034997Y016271D03*
X033637Y012111D03*
X032517Y012111D03*
X025377Y019061D03*
X024257Y019061D03*
X027357Y020361D03*
X028477Y020361D03*
X034047Y021041D03*
X034137Y022061D03*
X034157Y023081D03*
X034197Y024021D03*
X035317Y024021D03*
X035277Y023081D03*
X035257Y022061D03*
X035167Y021041D03*
X035147Y024991D03*
X034027Y024991D03*
X034057Y026341D03*
X035177Y026341D03*
X020577Y026061D03*
X019457Y026061D03*
X019457Y025061D03*
X019457Y024061D03*
X019457Y023061D03*
X020577Y023061D03*
X020577Y024061D03*
X020577Y025061D03*
X016377Y022061D03*
X016377Y021061D03*
X016377Y020061D03*
X016377Y019061D03*
X015257Y019061D03*
X015257Y020061D03*
X015257Y021061D03*
X015257Y022061D03*
X015357Y017461D03*
X016477Y017461D03*
X016477Y016161D03*
X016477Y015131D03*
X015357Y015131D03*
X015357Y016161D03*
X015257Y013061D03*
X016377Y013061D03*
X016377Y012061D03*
X016377Y011061D03*
X016377Y010061D03*
X016377Y009061D03*
X015257Y009061D03*
X015257Y010061D03*
X015257Y011061D03*
X015257Y012061D03*
X017357Y007361D03*
X018477Y007361D03*
X018277Y006061D03*
X017157Y006061D03*
X012477Y005461D03*
X011357Y005461D03*
X011017Y004101D03*
X009897Y004101D03*
X002367Y026961D03*
X001247Y026961D03*
D21*
X023867Y009191D03*
X024367Y009191D03*
X024867Y009191D03*
X025367Y009191D03*
X025367Y007131D03*
X024867Y007131D03*
X024367Y007131D03*
X023867Y007131D03*
X031767Y013631D03*
X032267Y013631D03*
X032767Y013631D03*
X033267Y013631D03*
X033267Y015691D03*
X032767Y015691D03*
X032267Y015691D03*
X031767Y015691D03*
X025667Y015831D03*
X025167Y015831D03*
X024667Y015831D03*
X024167Y015831D03*
X024167Y017891D03*
X024667Y017891D03*
X025167Y017891D03*
X025667Y017891D03*
D22*
X030367Y020326D03*
X030367Y022216D03*
D23*
X028017Y023701D03*
X028017Y024821D03*
X033017Y019221D03*
X033017Y018101D03*
X029817Y016821D03*
X029817Y015701D03*
X030807Y013351D03*
X030807Y012231D03*
X033877Y010371D03*
X033877Y009251D03*
X035157Y009021D03*
X035157Y007901D03*
X034817Y006021D03*
X034817Y004901D03*
X036517Y011701D03*
X036517Y012821D03*
X034097Y013981D03*
X034097Y015101D03*
X026617Y016301D03*
X026617Y017421D03*
X023417Y017421D03*
X023417Y016301D03*
X023377Y014271D03*
X023377Y013151D03*
X022817Y008121D03*
X022817Y007001D03*
X021917Y007421D03*
X021917Y006301D03*
X020117Y006301D03*
X020117Y007421D03*
X013817Y005721D03*
X013817Y004601D03*
X006797Y008301D03*
X005917Y008301D03*
X005917Y009421D03*
X006797Y009421D03*
X001217Y008821D03*
X001217Y007701D03*
X003917Y003421D03*
X003917Y002301D03*
X001407Y016441D03*
X001407Y017561D03*
X001407Y020611D03*
X001407Y021731D03*
X001407Y022701D03*
X001407Y023821D03*
X004017Y025401D03*
X005017Y025401D03*
X006017Y025401D03*
X007017Y025401D03*
X007017Y026521D03*
X006017Y026521D03*
X005017Y026521D03*
X004017Y026521D03*
D24*
X017617Y029161D03*
X018617Y029161D03*
X019617Y029161D03*
X019617Y030161D03*
X018617Y030161D03*
X017617Y030161D03*
X021587Y030171D03*
X022587Y030171D03*
X023587Y030171D03*
X023587Y029171D03*
X022587Y029171D03*
X021587Y029171D03*
X025817Y027061D03*
X026817Y027061D03*
X027817Y027061D03*
X027817Y026061D03*
X026817Y026061D03*
X025817Y026061D03*
X013021Y002975D03*
X012021Y002975D03*
X011021Y002975D03*
X010021Y002975D03*
X009021Y002975D03*
X008021Y002975D03*
X007021Y002975D03*
X006021Y002975D03*
X006021Y001975D03*
X007021Y001975D03*
X008021Y001975D03*
X009021Y001975D03*
X010021Y001975D03*
X011021Y001975D03*
X012021Y001975D03*
X013021Y001975D03*
D25*
X017227Y001941D03*
X017227Y003122D03*
X001217Y004871D03*
X001217Y006052D03*
X001217Y009771D03*
X001217Y010952D03*
X001307Y024771D03*
X001307Y025952D03*
D26*
X004046Y016723D03*
X004046Y016409D03*
X004046Y016094D03*
X004046Y015779D03*
X004046Y015464D03*
X004046Y015149D03*
X004046Y014834D03*
X004046Y014519D03*
X004046Y014204D03*
X004046Y013889D03*
X004046Y013574D03*
X004046Y013259D03*
X004046Y012944D03*
X004046Y012629D03*
X004046Y012314D03*
X004046Y011999D03*
X010188Y011999D03*
X010188Y012314D03*
X010188Y012629D03*
X010188Y012944D03*
X010188Y013259D03*
X010188Y013574D03*
X010188Y013889D03*
X010188Y014204D03*
X010188Y014519D03*
X010188Y014834D03*
X010188Y015149D03*
X010188Y015464D03*
X010188Y015779D03*
X010188Y016094D03*
X010188Y016409D03*
X010188Y016723D03*
D27*
X009479Y017432D03*
X009164Y017432D03*
X008849Y017432D03*
X008534Y017432D03*
X008219Y017432D03*
X007904Y017432D03*
X007589Y017432D03*
X007274Y017432D03*
X006959Y017432D03*
X006644Y017432D03*
X006329Y017432D03*
X006014Y017432D03*
X005699Y017432D03*
X005384Y017432D03*
X005069Y017432D03*
X004754Y017432D03*
X004754Y011290D03*
X005069Y011290D03*
X005384Y011290D03*
X005699Y011290D03*
X006014Y011290D03*
X006329Y011290D03*
X006644Y011290D03*
X006959Y011290D03*
X007274Y011290D03*
X007589Y011290D03*
X007904Y011290D03*
X008219Y011290D03*
X008534Y011290D03*
X008849Y011290D03*
X009164Y011290D03*
X009479Y011290D03*
D28*
X036817Y007949D03*
X036817Y007161D03*
X036817Y006374D03*
D29*
X036801Y005547D03*
X036801Y008775D03*
D30*
X015185Y028361D03*
X013217Y028361D03*
X010785Y028361D03*
X008817Y028361D03*
D31*
X028166Y014317D03*
X028166Y014061D03*
X028166Y013805D03*
X028887Y013805D03*
X028887Y014061D03*
X028887Y014317D03*
D32*
X028525Y014242D03*
X028525Y013876D03*
D33*
X028273Y015991D03*
X028017Y015991D03*
X027761Y015991D03*
X027761Y016712D03*
X028017Y016712D03*
X028273Y016712D03*
X026973Y008812D03*
X026717Y008812D03*
X026461Y008812D03*
X026461Y008091D03*
X026717Y008091D03*
X026973Y008091D03*
D34*
X026898Y008453D03*
X026532Y008453D03*
X027832Y016353D03*
X028198Y016353D03*
D35*
X021356Y005225D03*
X021356Y004969D03*
X021356Y004713D03*
X021356Y004457D03*
X021356Y004201D03*
X021356Y003945D03*
X021356Y003689D03*
X021356Y003433D03*
X021356Y003177D03*
X021356Y002921D03*
X021356Y002666D03*
X021356Y002410D03*
X021356Y002154D03*
X021356Y001898D03*
X018477Y001898D03*
X018477Y002154D03*
X018477Y002410D03*
X018477Y002666D03*
X018477Y002921D03*
X018477Y003177D03*
X018477Y003433D03*
X018477Y003689D03*
X018477Y003945D03*
X018477Y004201D03*
X018477Y004457D03*
X018477Y004713D03*
X018477Y004969D03*
X018477Y005225D03*
D36*
X014398Y025439D03*
X014201Y025439D03*
X014004Y025439D03*
X013807Y025439D03*
X013610Y025439D03*
X013414Y025439D03*
X013414Y026187D03*
X013610Y026187D03*
X013807Y026187D03*
X014004Y026187D03*
X014201Y026187D03*
X014398Y026187D03*
X009898Y026287D03*
X009701Y026287D03*
X009504Y026287D03*
X009307Y026287D03*
X009110Y026287D03*
X008914Y026287D03*
X008914Y025539D03*
X009110Y025539D03*
X009307Y025539D03*
X009504Y025539D03*
X009701Y025539D03*
X009898Y025539D03*
D37*
X009394Y025913D03*
X013894Y025813D03*
D38*
X027453Y019465D03*
X027453Y019091D03*
X027453Y018717D03*
X028354Y018717D03*
X028354Y019091D03*
X028354Y019465D03*
D39*
X030545Y019223D03*
X030545Y018479D03*
X031608Y018479D03*
X031608Y018853D03*
X031608Y019227D03*
D40*
X007714Y021401D03*
X007517Y021401D03*
X007321Y021401D03*
X007124Y021401D03*
X006927Y021401D03*
X006923Y022322D03*
X007120Y022322D03*
X007317Y022322D03*
X007514Y022322D03*
X007710Y022322D03*
D41*
X007813Y022058D03*
X007813Y021861D03*
X007813Y021664D03*
X006821Y021664D03*
X006821Y021861D03*
X006821Y022058D03*
D42*
X011817Y024810D03*
X011817Y025912D03*
X019817Y017512D03*
X019817Y016410D03*
X024417Y022210D03*
X025317Y022210D03*
X025317Y023312D03*
X024417Y023312D03*
X021017Y007412D03*
X021017Y006310D03*
X001407Y018550D03*
X001407Y019652D03*
D43*
X024825Y005841D03*
X025809Y005841D03*
X025809Y005061D03*
X024825Y005061D03*
D44*
X022947Y003991D03*
X027687Y003991D03*
D45*
X027691Y013249D03*
X027317Y013249D03*
X026943Y013249D03*
X026943Y014273D03*
X027691Y014273D03*
D46*
X029350Y010535D03*
X029350Y009787D03*
X028484Y010161D03*
D47*
X016117Y002161D03*
X014117Y002161D03*
X015117Y003861D03*
D48*
X015797Y004161D03*
X017017Y004981D03*
X017017Y005461D03*
X016397Y005461D03*
X015517Y006061D03*
X014637Y005561D03*
X013617Y006661D03*
X012717Y006161D03*
X012617Y007161D03*
X011117Y006161D03*
X012107Y004581D03*
X012577Y004121D03*
X012797Y004681D03*
X013187Y005251D03*
X013607Y003661D03*
X014297Y003671D03*
X014767Y002841D03*
X015617Y002561D03*
X017117Y004161D03*
X017617Y004681D03*
X017817Y003861D03*
X019137Y003561D03*
X019617Y002961D03*
X020187Y002291D03*
X020667Y003931D03*
X020417Y004761D03*
X019417Y004761D03*
X022217Y004661D03*
X022317Y005461D03*
X022217Y002961D03*
X025357Y002951D03*
X028367Y005261D03*
X029527Y008171D03*
X029817Y008761D03*
X027917Y010161D03*
X026837Y009401D03*
X027517Y008701D03*
X025817Y008861D03*
X025817Y009461D03*
X024917Y008161D03*
X021717Y010161D03*
X021017Y010261D03*
X021117Y008361D03*
X020517Y008161D03*
X015817Y008161D03*
X014417Y009461D03*
X014417Y010761D03*
X012717Y010941D03*
X011317Y011931D03*
X011627Y012651D03*
X012207Y012851D03*
X012697Y012541D03*
X014517Y012361D03*
X014617Y013661D03*
X015117Y014161D03*
X016137Y013811D03*
X016747Y014311D03*
X014617Y015431D03*
X014567Y016581D03*
X014617Y017961D03*
X014417Y018561D03*
X014517Y019561D03*
X014417Y020861D03*
X012817Y019761D03*
X012827Y019131D03*
X011917Y018461D03*
X012827Y017381D03*
X012937Y016781D03*
X011937Y016301D03*
X011137Y016781D03*
X010177Y017241D03*
X010177Y017841D03*
X010417Y018531D03*
X010817Y019961D03*
X011927Y020291D03*
X012817Y022361D03*
X013817Y022661D03*
X014417Y022261D03*
X014717Y022861D03*
X016347Y022911D03*
X016867Y022761D03*
X016947Y023581D03*
X016917Y024561D03*
X016017Y025161D03*
X015317Y026261D03*
X016717Y027661D03*
X017217Y027661D03*
X015287Y029901D03*
X012617Y027361D03*
X012917Y026161D03*
X012617Y025361D03*
X012467Y024851D03*
X011117Y024191D03*
X010267Y023751D03*
X009817Y022901D03*
X009217Y022661D03*
X008957Y023281D03*
X008317Y023261D03*
X007517Y023461D03*
X005867Y022321D03*
X005817Y021401D03*
X004997Y021211D03*
X004827Y020501D03*
X005137Y019821D03*
X005927Y019561D03*
X006617Y019251D03*
X006677Y020021D03*
X007977Y020861D03*
X008297Y020041D03*
X008917Y019251D03*
X008797Y018331D03*
X008107Y018301D03*
X008097Y016641D03*
X008227Y016041D03*
X008857Y015941D03*
X009367Y016211D03*
X008217Y014761D03*
X007727Y014901D03*
X007407Y015411D03*
X007017Y014761D03*
X006317Y014561D03*
X006087Y013931D03*
X004687Y013561D03*
X004667Y012971D03*
X004677Y012441D03*
X004007Y011541D03*
X003407Y012271D03*
X003167Y012921D03*
X003227Y013741D03*
X003217Y014361D03*
X002117Y014361D03*
X002017Y015961D03*
X003667Y017551D03*
X004287Y017701D03*
X004977Y016821D03*
X005447Y016441D03*
X006327Y016341D03*
X007197Y016791D03*
X004627Y015671D03*
X004607Y015151D03*
X001717Y012661D03*
X001217Y012261D03*
X001837Y011571D03*
X002817Y010441D03*
X004317Y010661D03*
X004517Y009161D03*
X005117Y009161D03*
X005917Y007561D03*
X005017Y006961D03*
X002017Y008761D03*
X001217Y006861D03*
X005517Y003961D03*
X005217Y002471D03*
X003817Y001661D03*
X010617Y009261D03*
X012717Y009461D03*
X009917Y011461D03*
X008537Y011931D03*
X006837Y011941D03*
X006297Y012251D03*
X009277Y013581D03*
X011417Y015361D03*
X012217Y014961D03*
X011887Y014441D03*
X015817Y018261D03*
X019117Y017861D03*
X019317Y018561D03*
X020917Y019161D03*
X021617Y020161D03*
X021247Y020661D03*
X020617Y022211D03*
X022917Y024261D03*
X021417Y025561D03*
X022917Y025961D03*
X025017Y026561D03*
X025017Y025261D03*
X024817Y023961D03*
X027217Y025261D03*
X028967Y024851D03*
X029687Y023661D03*
X031417Y022761D03*
X031187Y021671D03*
X029817Y021461D03*
X029017Y019761D03*
X027717Y017961D03*
X028617Y017761D03*
X028917Y017161D03*
X030017Y017761D03*
X030617Y017161D03*
X032117Y017861D03*
X032317Y019161D03*
X031317Y019761D03*
X033607Y020331D03*
X034067Y019841D03*
X033717Y018861D03*
X033497Y021581D03*
X033457Y022901D03*
X033457Y024151D03*
X033557Y025711D03*
X033577Y027141D03*
X035627Y027041D03*
X029117Y029211D03*
X026337Y027681D03*
X025317Y021551D03*
X026017Y020661D03*
X026417Y020161D03*
X026817Y019161D03*
X023417Y018161D03*
X020617Y016961D03*
X019217Y016461D03*
X019967Y014961D03*
X019997Y013971D03*
X021247Y013461D03*
X020917Y012961D03*
X020477Y012181D03*
X021617Y014461D03*
X023617Y015221D03*
X024327Y014611D03*
X024917Y014861D03*
X026417Y014861D03*
X027317Y015861D03*
X028407Y015471D03*
X029717Y014861D03*
X030917Y014761D03*
X032277Y014761D03*
X033197Y014411D03*
X033857Y013011D03*
X035647Y011971D03*
X036377Y010971D03*
X035837Y009671D03*
X035777Y008521D03*
X034617Y007061D03*
X034007Y008351D03*
X032597Y007821D03*
X031827Y010561D03*
X033147Y011421D03*
X031527Y012861D03*
X030117Y012711D03*
X029317Y013461D03*
X029117Y012161D03*
X027517Y012661D03*
X027717Y013761D03*
X026017Y012461D03*
X013717Y024761D03*
X011437Y023361D03*
X010117Y022361D03*
X009187Y023911D03*
X010117Y024461D03*
X009417Y024961D03*
X008517Y025461D03*
X008417Y026261D03*
X008417Y027261D03*
X010417Y025661D03*
X003977Y021411D03*
X002487Y021621D03*
X002207Y022221D03*
X003167Y022681D03*
X002217Y023301D03*
X002607Y023851D03*
X002617Y024461D03*
X003017Y025261D03*
X002787Y026091D03*
X002177Y020951D03*
X002197Y020341D03*
X002015Y018550D03*
X002557Y018011D03*
X005097Y018801D03*
M02*
