G75*
%MOIN*%
%OFA0B0*%
%FSLAX25Y25*%
%IPPOS*%
%LPD*%
%AMOC8*
5,1,8,0,0,1.08239X$1,22.5*
%
%ADD10C,0.00400*%
%ADD11C,0.00600*%
%ADD12C,0.00500*%
%ADD13C,0.00300*%
%ADD14C,0.00800*%
%ADD15R,0.03050X0.00500*%
%ADD16R,0.00500X0.03050*%
D10*
X0018562Y0045613D02*
X0023767Y0045613D01*
X0023767Y0049082D01*
X0023767Y0050769D02*
X0023767Y0054239D01*
X0023767Y0055925D02*
X0023767Y0058528D01*
X0022899Y0059395D01*
X0019430Y0059395D01*
X0018562Y0058528D01*
X0018562Y0055925D01*
X0023767Y0055925D01*
X0021164Y0052504D02*
X0021164Y0050769D01*
X0018562Y0050769D02*
X0023767Y0050769D01*
X0018562Y0050769D02*
X0018562Y0054239D01*
X0019430Y0061082D02*
X0018562Y0061949D01*
X0018562Y0063684D01*
X0019430Y0064551D01*
X0022899Y0061082D01*
X0023767Y0061949D01*
X0023767Y0063684D01*
X0022899Y0064551D01*
X0019430Y0064551D01*
X0019430Y0061082D02*
X0022899Y0061082D01*
X0024067Y0094313D02*
X0018862Y0094313D01*
X0018862Y0099469D02*
X0024067Y0099469D01*
X0024067Y0102939D01*
X0024067Y0104625D02*
X0024067Y0107228D01*
X0023199Y0108095D01*
X0019730Y0108095D01*
X0018862Y0107228D01*
X0018862Y0104625D01*
X0024067Y0104625D01*
X0021464Y0101204D02*
X0021464Y0099469D01*
X0018862Y0099469D02*
X0018862Y0102939D01*
X0020597Y0109782D02*
X0018862Y0111517D01*
X0024067Y0111517D01*
X0024067Y0113251D02*
X0024067Y0109782D01*
X0024067Y0097782D02*
X0024067Y0094313D01*
X0025967Y0140613D02*
X0025967Y0142347D01*
X0025967Y0141480D02*
X0020762Y0141480D01*
X0020762Y0140613D02*
X0020762Y0142347D01*
X0020762Y0144050D02*
X0020762Y0146652D01*
X0021630Y0147520D01*
X0023364Y0147520D01*
X0024232Y0146652D01*
X0024232Y0144050D01*
X0025967Y0144050D02*
X0020762Y0144050D01*
X0024232Y0145785D02*
X0025967Y0147520D01*
X0024867Y0241413D02*
X0019662Y0241413D01*
X0019662Y0244015D01*
X0020530Y0244882D01*
X0022264Y0244882D01*
X0023132Y0244015D01*
X0023132Y0241413D01*
X0023999Y0246569D02*
X0020530Y0246569D01*
X0019662Y0247436D01*
X0019662Y0249171D01*
X0020530Y0250039D01*
X0023999Y0250039D01*
X0024867Y0249171D01*
X0024867Y0247436D01*
X0023999Y0246569D01*
X0024867Y0251725D02*
X0019662Y0251725D01*
X0019662Y0255195D02*
X0024867Y0255195D01*
X0023132Y0253460D01*
X0024867Y0251725D01*
X0024867Y0256882D02*
X0024867Y0260351D01*
X0024867Y0262038D02*
X0019662Y0262038D01*
X0019662Y0264640D01*
X0020530Y0265508D01*
X0022264Y0265508D01*
X0023132Y0264640D01*
X0023132Y0262038D01*
X0023132Y0263773D02*
X0024867Y0265508D01*
X0029863Y0266180D02*
X0029863Y0267715D01*
X0030630Y0268482D01*
X0029863Y0270017D02*
X0034467Y0270017D01*
X0034467Y0273086D01*
X0034467Y0274620D02*
X0029863Y0274620D01*
X0029863Y0276922D01*
X0030630Y0277690D01*
X0032165Y0277690D01*
X0032932Y0276922D01*
X0032932Y0274620D01*
X0032932Y0276155D02*
X0034467Y0277690D01*
X0032932Y0279224D02*
X0034467Y0280759D01*
X0032932Y0282294D01*
X0029863Y0282294D01*
X0030630Y0283828D02*
X0033699Y0283828D01*
X0034467Y0284596D01*
X0034467Y0286130D01*
X0033699Y0286898D01*
X0030630Y0286898D01*
X0029863Y0286130D01*
X0029863Y0284596D01*
X0030630Y0283828D01*
X0029863Y0279224D02*
X0032932Y0279224D01*
X0029863Y0273086D02*
X0029863Y0270017D01*
X0032165Y0270017D02*
X0032165Y0271551D01*
X0032932Y0268482D02*
X0033699Y0268482D01*
X0034467Y0267715D01*
X0034467Y0266180D01*
X0033699Y0265413D01*
X0032165Y0266180D02*
X0032165Y0267715D01*
X0032932Y0268482D01*
X0032165Y0266180D02*
X0031397Y0265413D01*
X0030630Y0265413D01*
X0029863Y0266180D01*
X0038163Y0272476D02*
X0038163Y0274011D01*
X0038930Y0274778D01*
X0041999Y0271709D01*
X0042767Y0272476D01*
X0042767Y0274011D01*
X0041999Y0274778D01*
X0038930Y0274778D01*
X0038163Y0272476D02*
X0038930Y0271709D01*
X0041999Y0271709D01*
X0048163Y0273743D02*
X0049697Y0272209D01*
X0048163Y0273743D02*
X0052767Y0273743D01*
X0052767Y0272209D02*
X0052767Y0275278D01*
X0058463Y0274111D02*
X0058463Y0272576D01*
X0059230Y0271809D01*
X0058463Y0274111D02*
X0059230Y0274878D01*
X0059997Y0274878D01*
X0063067Y0271809D01*
X0063067Y0274878D01*
X0068763Y0274211D02*
X0068763Y0272676D01*
X0069530Y0271909D01*
X0071065Y0273443D02*
X0071065Y0274211D01*
X0071832Y0274978D01*
X0072599Y0274978D01*
X0073367Y0274211D01*
X0073367Y0272676D01*
X0072599Y0271909D01*
X0071065Y0274211D02*
X0070297Y0274978D01*
X0069530Y0274978D01*
X0068763Y0274211D01*
X0086667Y0269217D02*
X0086667Y0264613D01*
X0089736Y0264613D02*
X0089736Y0269217D01*
X0088201Y0267682D01*
X0086667Y0269217D01*
X0091271Y0266915D02*
X0091271Y0265380D01*
X0092038Y0264613D01*
X0093573Y0264613D01*
X0094340Y0265380D01*
X0094340Y0266915D01*
X0093573Y0267682D01*
X0092038Y0267682D01*
X0091271Y0266915D01*
X0095875Y0267682D02*
X0097409Y0267682D01*
X0096642Y0268449D02*
X0096642Y0265380D01*
X0097409Y0264613D01*
X0098944Y0265380D02*
X0098944Y0266915D01*
X0099711Y0267682D01*
X0101246Y0267682D01*
X0102013Y0266915D01*
X0102013Y0265380D01*
X0101246Y0264613D01*
X0099711Y0264613D01*
X0098944Y0265380D01*
X0103548Y0266147D02*
X0105082Y0267682D01*
X0105850Y0267682D01*
X0103548Y0267682D02*
X0103548Y0264613D01*
X0111988Y0265380D02*
X0115058Y0268449D01*
X0115058Y0265380D01*
X0114290Y0264613D01*
X0112756Y0264613D01*
X0111988Y0265380D01*
X0111988Y0268449D01*
X0112756Y0269217D01*
X0114290Y0269217D01*
X0115058Y0268449D01*
X0128067Y0269217D02*
X0128067Y0264613D01*
X0131136Y0264613D02*
X0131136Y0269217D01*
X0129601Y0267682D01*
X0128067Y0269217D01*
X0132671Y0266915D02*
X0132671Y0265380D01*
X0133438Y0264613D01*
X0134973Y0264613D01*
X0135740Y0265380D01*
X0135740Y0266915D01*
X0134973Y0267682D01*
X0133438Y0267682D01*
X0132671Y0266915D01*
X0137275Y0267682D02*
X0138809Y0267682D01*
X0138042Y0268449D02*
X0138042Y0265380D01*
X0138809Y0264613D01*
X0140344Y0265380D02*
X0141111Y0264613D01*
X0142646Y0264613D01*
X0143413Y0265380D01*
X0143413Y0266915D01*
X0142646Y0267682D01*
X0141111Y0267682D01*
X0140344Y0266915D01*
X0140344Y0265380D01*
X0144948Y0266147D02*
X0146482Y0267682D01*
X0147250Y0267682D01*
X0144948Y0267682D02*
X0144948Y0264613D01*
X0153388Y0264613D02*
X0156458Y0264613D01*
X0154923Y0264613D02*
X0154923Y0269217D01*
X0153388Y0267682D01*
X0174367Y0278913D02*
X0176969Y0278913D01*
X0177836Y0279780D01*
X0177836Y0283250D01*
X0176969Y0284117D01*
X0174367Y0284117D01*
X0174367Y0278913D01*
X0179523Y0278913D02*
X0181258Y0278913D01*
X0180390Y0278913D02*
X0180390Y0282382D01*
X0179523Y0282382D01*
X0180390Y0284117D02*
X0180390Y0284984D01*
X0183828Y0282382D02*
X0182961Y0281515D01*
X0182961Y0279780D01*
X0183828Y0278913D01*
X0186430Y0278913D01*
X0186430Y0278045D02*
X0186430Y0282382D01*
X0183828Y0282382D01*
X0188117Y0282382D02*
X0188984Y0282382D01*
X0188984Y0278913D01*
X0188117Y0278913D02*
X0189852Y0278913D01*
X0192422Y0279780D02*
X0193289Y0278913D01*
X0192422Y0279780D02*
X0192422Y0283250D01*
X0191555Y0282382D02*
X0193289Y0282382D01*
X0195860Y0282382D02*
X0197594Y0282382D01*
X0198462Y0281515D01*
X0198462Y0278913D01*
X0195860Y0278913D01*
X0194992Y0279780D01*
X0195860Y0280647D01*
X0198462Y0280647D01*
X0200149Y0278913D02*
X0201883Y0278913D01*
X0201016Y0278913D02*
X0201016Y0284117D01*
X0200149Y0284117D01*
X0205430Y0290313D02*
X0204663Y0291080D01*
X0204663Y0292615D01*
X0205430Y0293382D01*
X0208499Y0290313D01*
X0209267Y0291080D01*
X0209267Y0292615D01*
X0208499Y0293382D01*
X0205430Y0293382D01*
X0205430Y0290313D02*
X0208499Y0290313D01*
X0213401Y0283917D02*
X0215136Y0282182D01*
X0215136Y0278713D01*
X0216823Y0278713D02*
X0216823Y0282182D01*
X0219425Y0282182D01*
X0220293Y0281315D01*
X0220293Y0278713D01*
X0221979Y0279580D02*
X0222847Y0280447D01*
X0225449Y0280447D01*
X0225449Y0281315D02*
X0225449Y0278713D01*
X0222847Y0278713D01*
X0221979Y0279580D01*
X0222847Y0282182D02*
X0224582Y0282182D01*
X0225449Y0281315D01*
X0227136Y0283917D02*
X0228003Y0283917D01*
X0228003Y0278713D01*
X0227136Y0278713D02*
X0228871Y0278713D01*
X0230573Y0279580D02*
X0231441Y0278713D01*
X0233176Y0278713D01*
X0234043Y0279580D01*
X0234043Y0281315D01*
X0233176Y0282182D01*
X0231441Y0282182D01*
X0230573Y0281315D01*
X0230573Y0279580D01*
X0235730Y0279580D02*
X0236597Y0278713D01*
X0239199Y0278713D01*
X0239199Y0277845D02*
X0239199Y0282182D01*
X0236597Y0282182D01*
X0235730Y0281315D01*
X0235730Y0279580D01*
X0237465Y0276978D02*
X0238332Y0276978D01*
X0239199Y0277845D01*
X0215136Y0281315D02*
X0211667Y0281315D01*
X0211667Y0282182D02*
X0213401Y0283917D01*
X0211667Y0282182D02*
X0211667Y0278713D01*
X0190367Y0261415D02*
X0190367Y0259880D01*
X0189599Y0259113D01*
X0186530Y0262182D01*
X0189599Y0262182D01*
X0190367Y0261415D01*
X0189599Y0259113D02*
X0186530Y0259113D01*
X0185763Y0259880D01*
X0185763Y0261415D01*
X0186530Y0262182D01*
X0190467Y0252382D02*
X0190467Y0249313D01*
X0190467Y0250847D02*
X0185863Y0250847D01*
X0187397Y0249313D01*
X0187397Y0242082D02*
X0186630Y0242082D01*
X0185863Y0241315D01*
X0185863Y0239780D01*
X0186630Y0239013D01*
X0187397Y0242082D02*
X0190467Y0239013D01*
X0190467Y0242082D01*
X0189799Y0232182D02*
X0189032Y0232182D01*
X0188265Y0231415D01*
X0188265Y0230647D01*
X0188265Y0231415D02*
X0187497Y0232182D01*
X0186730Y0232182D01*
X0185963Y0231415D01*
X0185963Y0229880D01*
X0186730Y0229113D01*
X0189799Y0229113D02*
X0190567Y0229880D01*
X0190567Y0231415D01*
X0189799Y0232182D01*
X0188365Y0222282D02*
X0188365Y0219213D01*
X0186063Y0221515D01*
X0190667Y0221515D01*
X0194762Y0220162D02*
X0199967Y0220162D01*
X0199967Y0219295D02*
X0199967Y0221029D01*
X0199967Y0217608D02*
X0199967Y0215006D01*
X0199099Y0214138D01*
X0198232Y0215006D01*
X0198232Y0217608D01*
X0197364Y0217608D02*
X0199967Y0217608D01*
X0197364Y0217608D02*
X0196497Y0216740D01*
X0196497Y0215006D01*
X0196497Y0212435D02*
X0196497Y0210701D01*
X0195630Y0211568D02*
X0199099Y0211568D01*
X0199967Y0212435D01*
X0199967Y0208998D02*
X0199967Y0207263D01*
X0199967Y0208130D02*
X0196497Y0208130D01*
X0196497Y0207263D01*
X0196497Y0205576D02*
X0196497Y0202974D01*
X0197364Y0202107D01*
X0199099Y0202107D01*
X0199967Y0202974D01*
X0199967Y0205576D01*
X0200834Y0205576D02*
X0196497Y0205576D01*
X0194762Y0208130D02*
X0193895Y0208130D01*
X0190667Y0209880D02*
X0189899Y0209113D01*
X0190667Y0209880D02*
X0190667Y0211415D01*
X0189899Y0212182D01*
X0188365Y0212182D01*
X0187597Y0211415D01*
X0187597Y0210647D01*
X0188365Y0209113D01*
X0186063Y0209113D01*
X0186063Y0212182D01*
X0185863Y0201882D02*
X0186630Y0200347D01*
X0188165Y0198813D01*
X0188165Y0201115D01*
X0188932Y0201882D01*
X0189699Y0201882D01*
X0190467Y0201115D01*
X0190467Y0199580D01*
X0189699Y0198813D01*
X0188165Y0198813D01*
X0193895Y0199536D02*
X0194762Y0199536D01*
X0196497Y0199536D02*
X0199967Y0199536D01*
X0199967Y0198669D02*
X0199967Y0200404D01*
X0199099Y0196982D02*
X0195630Y0196982D01*
X0194762Y0196115D01*
X0194762Y0193513D01*
X0199967Y0193513D01*
X0199967Y0196115D01*
X0199099Y0196982D01*
X0196497Y0198669D02*
X0196497Y0199536D01*
X0201701Y0203841D02*
X0201701Y0204709D01*
X0200834Y0205576D01*
X0186730Y0192282D02*
X0189799Y0189213D01*
X0190567Y0189213D01*
X0185963Y0189213D02*
X0185963Y0192282D01*
X0186730Y0192282D01*
X0186897Y0176282D02*
X0187665Y0175515D01*
X0187665Y0173980D01*
X0186897Y0173213D01*
X0186130Y0173213D01*
X0185363Y0173980D01*
X0185363Y0175515D01*
X0186130Y0176282D01*
X0186897Y0176282D01*
X0187665Y0175515D02*
X0188432Y0176282D01*
X0189199Y0176282D01*
X0189967Y0175515D01*
X0189967Y0173980D01*
X0189199Y0173213D01*
X0188432Y0173213D01*
X0187665Y0173980D01*
X0187765Y0166182D02*
X0187765Y0163880D01*
X0186997Y0163113D01*
X0186230Y0163113D01*
X0185463Y0163880D01*
X0185463Y0165415D01*
X0186230Y0166182D01*
X0189299Y0166182D01*
X0190067Y0165415D01*
X0190067Y0163880D01*
X0189299Y0163113D01*
X0191030Y0157417D02*
X0192565Y0157417D01*
X0193332Y0156649D01*
X0190263Y0153580D01*
X0191030Y0152813D01*
X0192565Y0152813D01*
X0193332Y0153580D01*
X0193332Y0156649D01*
X0191030Y0157417D02*
X0190263Y0156649D01*
X0190263Y0153580D01*
X0188728Y0152813D02*
X0185659Y0152813D01*
X0187193Y0152813D02*
X0187193Y0157417D01*
X0185659Y0155882D01*
X0187193Y0147417D02*
X0187193Y0142813D01*
X0185659Y0142813D02*
X0188728Y0142813D01*
X0190263Y0142813D02*
X0193332Y0142813D01*
X0191797Y0142813D02*
X0191797Y0147417D01*
X0190263Y0145882D01*
X0187193Y0147417D02*
X0185659Y0145882D01*
X0187193Y0137417D02*
X0187193Y0132813D01*
X0185659Y0132813D02*
X0188728Y0132813D01*
X0190263Y0132813D02*
X0193332Y0135882D01*
X0193332Y0136649D01*
X0192565Y0137417D01*
X0191030Y0137417D01*
X0190263Y0136649D01*
X0187193Y0137417D02*
X0185659Y0135882D01*
X0190263Y0132813D02*
X0193332Y0132813D01*
X0192565Y0127417D02*
X0193332Y0126649D01*
X0193332Y0125882D01*
X0192565Y0125115D01*
X0193332Y0124347D01*
X0193332Y0123580D01*
X0192565Y0122813D01*
X0191030Y0122813D01*
X0190263Y0123580D01*
X0188728Y0122813D02*
X0185659Y0122813D01*
X0187193Y0122813D02*
X0187193Y0127417D01*
X0185659Y0125882D01*
X0190263Y0126649D02*
X0191030Y0127417D01*
X0192565Y0127417D01*
X0192565Y0125115D02*
X0191797Y0125115D01*
X0190659Y0116417D02*
X0193728Y0111813D01*
X0193728Y0116417D01*
X0195263Y0116417D02*
X0197565Y0116417D01*
X0198332Y0115649D01*
X0198332Y0112580D01*
X0197565Y0111813D01*
X0195263Y0111813D01*
X0195263Y0116417D01*
X0190659Y0116417D02*
X0190659Y0111813D01*
X0189124Y0112580D02*
X0189124Y0114115D01*
X0187589Y0114115D01*
X0186055Y0115649D02*
X0186055Y0112580D01*
X0186822Y0111813D01*
X0188357Y0111813D01*
X0189124Y0112580D01*
X0189124Y0115649D02*
X0188357Y0116417D01*
X0186822Y0116417D01*
X0186055Y0115649D01*
X0187401Y0106417D02*
X0188936Y0104882D01*
X0188936Y0101813D01*
X0190471Y0101813D02*
X0190471Y0106417D01*
X0192773Y0106417D01*
X0193540Y0105649D01*
X0193540Y0104115D01*
X0192773Y0103347D01*
X0190471Y0103347D01*
X0192005Y0103347D02*
X0193540Y0101813D01*
X0195075Y0101813D02*
X0198144Y0101813D01*
X0199678Y0101813D02*
X0199678Y0106417D01*
X0202748Y0106417D01*
X0201213Y0104115D02*
X0199678Y0104115D01*
X0198144Y0106417D02*
X0195075Y0106417D01*
X0195075Y0101813D01*
X0195075Y0104115D02*
X0196609Y0104115D01*
X0195075Y0097417D02*
X0195075Y0092813D01*
X0198144Y0092813D01*
X0193540Y0093580D02*
X0192773Y0092813D01*
X0191238Y0092813D01*
X0190471Y0093580D01*
X0190471Y0096649D01*
X0191238Y0097417D01*
X0192773Y0097417D01*
X0193540Y0096649D01*
X0188936Y0096649D02*
X0188169Y0097417D01*
X0186634Y0097417D01*
X0185867Y0096649D01*
X0185867Y0095882D01*
X0186634Y0095115D01*
X0188169Y0095115D01*
X0188936Y0094347D01*
X0188936Y0093580D01*
X0188169Y0092813D01*
X0186634Y0092813D01*
X0185867Y0093580D01*
X0186634Y0087417D02*
X0185867Y0086649D01*
X0185867Y0085882D01*
X0186634Y0085115D01*
X0188169Y0085115D01*
X0188936Y0084347D01*
X0188936Y0083580D01*
X0188169Y0082813D01*
X0186634Y0082813D01*
X0185867Y0083580D01*
X0186634Y0087417D02*
X0188169Y0087417D01*
X0188936Y0086649D01*
X0190471Y0087417D02*
X0190471Y0082813D01*
X0192773Y0082813D01*
X0193540Y0083580D01*
X0193540Y0086649D01*
X0192773Y0087417D01*
X0190471Y0087417D01*
X0195075Y0085882D02*
X0195075Y0082813D01*
X0195075Y0085115D02*
X0198144Y0085115D01*
X0198144Y0085882D02*
X0198144Y0082813D01*
X0198144Y0085882D02*
X0196609Y0087417D01*
X0195075Y0085882D01*
X0185867Y0101813D02*
X0185867Y0104882D01*
X0187401Y0106417D01*
X0185867Y0104115D02*
X0188936Y0104115D01*
X0287244Y0115838D02*
X0291889Y0115838D01*
X0291889Y0118987D02*
X0287244Y0118987D01*
X0297392Y0090935D02*
X0297392Y0086290D01*
X0300541Y0086290D02*
X0300541Y0090935D01*
X0343992Y0112590D02*
X0343992Y0117235D01*
X0347141Y0117235D02*
X0347141Y0112590D01*
X0359492Y0100535D02*
X0359492Y0095890D01*
X0362641Y0095890D02*
X0362641Y0100535D01*
X0372063Y0100586D02*
X0376667Y0100586D01*
X0372063Y0097517D01*
X0376667Y0097517D01*
X0375899Y0095982D02*
X0372830Y0095982D01*
X0372063Y0095215D01*
X0372063Y0093680D01*
X0372830Y0092913D01*
X0375899Y0092913D01*
X0376667Y0093680D01*
X0376667Y0095215D01*
X0375899Y0095982D01*
X0373063Y0050478D02*
X0373063Y0047409D01*
X0377667Y0047409D01*
X0375365Y0047409D02*
X0375365Y0048943D01*
X0373063Y0045874D02*
X0373063Y0042805D01*
X0377667Y0042805D01*
X0376899Y0041270D02*
X0373830Y0041270D01*
X0373063Y0040503D01*
X0373063Y0038968D01*
X0373830Y0038201D01*
X0376899Y0038201D01*
X0377667Y0038968D01*
X0377667Y0040503D01*
X0376899Y0041270D01*
X0375365Y0042805D02*
X0375365Y0044339D01*
X0341567Y0034063D02*
X0340032Y0035598D01*
X0336963Y0035598D01*
X0336963Y0032528D02*
X0340032Y0032528D01*
X0341567Y0034063D01*
X0341567Y0030994D02*
X0341567Y0027924D01*
X0341567Y0026390D02*
X0341567Y0023320D01*
X0341567Y0024855D02*
X0336963Y0024855D01*
X0338497Y0023320D01*
X0339265Y0021786D02*
X0339265Y0018717D01*
X0340032Y0017182D02*
X0339265Y0016415D01*
X0339265Y0015647D01*
X0339265Y0016415D02*
X0338497Y0017182D01*
X0337730Y0017182D01*
X0336963Y0016415D01*
X0336963Y0014880D01*
X0337730Y0014113D01*
X0340799Y0014113D02*
X0341567Y0014880D01*
X0341567Y0016415D01*
X0340799Y0017182D01*
X0340032Y0017182D01*
X0338497Y0027924D02*
X0336963Y0029459D01*
X0341567Y0029459D01*
X0347820Y0147913D02*
X0347053Y0148680D01*
X0347820Y0147913D02*
X0349355Y0147913D01*
X0350122Y0148680D01*
X0350122Y0149447D01*
X0349355Y0150215D01*
X0348588Y0150215D01*
X0349355Y0150215D02*
X0350122Y0150982D01*
X0350122Y0151749D01*
X0349355Y0152517D01*
X0347820Y0152517D01*
X0347053Y0151749D01*
X0351657Y0148680D02*
X0352424Y0148680D01*
X0352424Y0147913D01*
X0351657Y0147913D01*
X0351657Y0148680D01*
X0353959Y0148680D02*
X0354726Y0147913D01*
X0356261Y0147913D01*
X0357028Y0148680D01*
X0357028Y0149447D01*
X0356261Y0150215D01*
X0355493Y0150215D01*
X0356261Y0150215D02*
X0357028Y0150982D01*
X0357028Y0151749D01*
X0356261Y0152517D01*
X0354726Y0152517D01*
X0353959Y0151749D01*
X0358563Y0152517D02*
X0358563Y0149447D01*
X0360097Y0147913D01*
X0361632Y0149447D01*
X0361632Y0152517D01*
X0361105Y0159313D02*
X0362640Y0160847D01*
X0362640Y0163917D01*
X0359571Y0163917D02*
X0359571Y0160847D01*
X0361105Y0159313D01*
X0358036Y0160080D02*
X0357269Y0159313D01*
X0355734Y0159313D01*
X0354967Y0160080D01*
X0354967Y0161615D02*
X0356501Y0162382D01*
X0357269Y0162382D01*
X0358036Y0161615D01*
X0358036Y0160080D01*
X0354967Y0161615D02*
X0354967Y0163917D01*
X0358036Y0163917D01*
X0357940Y0168813D02*
X0357940Y0173417D01*
X0359475Y0173417D02*
X0359475Y0168813D01*
X0361776Y0168813D01*
X0362544Y0169580D01*
X0362544Y0172649D01*
X0361776Y0173417D01*
X0359475Y0173417D01*
X0354871Y0173417D02*
X0357940Y0168813D01*
X0354871Y0168813D02*
X0354871Y0173417D01*
X0353336Y0172649D02*
X0352569Y0173417D01*
X0351034Y0173417D01*
X0350267Y0172649D01*
X0350267Y0169580D01*
X0351034Y0168813D01*
X0352569Y0168813D01*
X0353336Y0169580D01*
X0353336Y0171115D01*
X0351801Y0171115D01*
X0352269Y0178313D02*
X0350734Y0178313D01*
X0349967Y0179080D01*
X0349967Y0182149D01*
X0350734Y0182917D01*
X0352269Y0182917D01*
X0353036Y0182149D01*
X0353036Y0180615D02*
X0351501Y0180615D01*
X0353036Y0180615D02*
X0353036Y0179080D01*
X0352269Y0178313D01*
X0354571Y0178313D02*
X0354571Y0182917D01*
X0357640Y0178313D01*
X0357640Y0182917D01*
X0359175Y0182917D02*
X0359175Y0178313D01*
X0361476Y0178313D01*
X0362244Y0179080D01*
X0362244Y0182149D01*
X0361476Y0182917D01*
X0359175Y0182917D01*
X0357963Y0189013D02*
X0357963Y0192082D01*
X0360265Y0192082D01*
X0361032Y0191315D01*
X0361032Y0189013D01*
X0356428Y0189013D02*
X0354893Y0189013D01*
X0355661Y0189013D02*
X0355661Y0192082D01*
X0354893Y0192082D01*
X0355661Y0193617D02*
X0355661Y0194384D01*
X0353359Y0193617D02*
X0353359Y0190547D01*
X0351824Y0189013D01*
X0350290Y0190547D01*
X0350290Y0193617D01*
X0358430Y0209013D02*
X0357663Y0209780D01*
X0357663Y0211315D01*
X0358430Y0212082D01*
X0361499Y0209013D01*
X0362267Y0209780D01*
X0362267Y0211315D01*
X0361499Y0212082D01*
X0358430Y0212082D01*
X0358430Y0209013D02*
X0361499Y0209013D01*
X0362167Y0219013D02*
X0362167Y0222082D01*
X0362167Y0220547D02*
X0357563Y0220547D01*
X0359097Y0219013D01*
X0352767Y0221993D02*
X0349297Y0221993D01*
X0347562Y0223728D01*
X0349297Y0225463D01*
X0352767Y0225463D01*
X0352767Y0227149D02*
X0349297Y0227149D01*
X0349297Y0229752D01*
X0350164Y0230619D01*
X0352767Y0230619D01*
X0351899Y0232306D02*
X0351032Y0233173D01*
X0351032Y0235775D01*
X0350164Y0235775D02*
X0352767Y0235775D01*
X0352767Y0233173D01*
X0351899Y0232306D01*
X0349297Y0233173D02*
X0349297Y0234908D01*
X0350164Y0235775D01*
X0347562Y0237462D02*
X0347562Y0238330D01*
X0352767Y0238330D01*
X0352767Y0239197D02*
X0352767Y0237462D01*
X0351899Y0240900D02*
X0350164Y0240900D01*
X0349297Y0241767D01*
X0349297Y0243502D01*
X0350164Y0244369D01*
X0351899Y0244369D01*
X0352767Y0243502D01*
X0352767Y0241767D01*
X0351899Y0240900D01*
X0357863Y0240480D02*
X0357863Y0242015D01*
X0358630Y0242782D01*
X0359397Y0242782D01*
X0360165Y0242015D01*
X0360932Y0242782D01*
X0361699Y0242782D01*
X0362467Y0242015D01*
X0362467Y0240480D01*
X0361699Y0239713D01*
X0360165Y0241247D02*
X0360165Y0242015D01*
X0358630Y0239713D02*
X0357863Y0240480D01*
X0358630Y0232582D02*
X0357863Y0231815D01*
X0357863Y0230280D01*
X0358630Y0229513D01*
X0358630Y0232582D02*
X0359397Y0232582D01*
X0362467Y0229513D01*
X0362467Y0232582D01*
X0350164Y0225463D02*
X0350164Y0221993D01*
X0350164Y0246056D02*
X0351899Y0246056D01*
X0352767Y0246924D01*
X0352767Y0249526D01*
X0353634Y0249526D02*
X0349297Y0249526D01*
X0349297Y0246924D01*
X0350164Y0246056D01*
X0354501Y0247791D02*
X0354501Y0248658D01*
X0353634Y0249526D01*
X0357563Y0251411D02*
X0359865Y0249109D01*
X0359865Y0252178D01*
X0362167Y0251411D02*
X0357563Y0251411D01*
X0357763Y0259513D02*
X0360065Y0259513D01*
X0359297Y0261047D01*
X0359297Y0261815D01*
X0360065Y0262582D01*
X0361599Y0262582D01*
X0362367Y0261815D01*
X0362367Y0260280D01*
X0361599Y0259513D01*
X0357763Y0259513D02*
X0357763Y0262582D01*
X0302262Y0226808D02*
X0302262Y0207910D01*
X0295569Y0201217D01*
X0293207Y0201217D01*
X0285727Y0201217D02*
X0283364Y0201217D01*
X0276671Y0207910D01*
X0276671Y0226808D01*
X0285727Y0226808D01*
X0293207Y0226808D02*
X0302262Y0226808D01*
X0285727Y0225628D02*
X0285444Y0225533D01*
X0285163Y0225431D01*
X0284886Y0225322D01*
X0284610Y0225207D01*
X0284338Y0225085D01*
X0284069Y0224956D01*
X0283803Y0224821D01*
X0283541Y0224679D01*
X0283282Y0224531D01*
X0283026Y0224377D01*
X0282775Y0224216D01*
X0282527Y0224049D01*
X0282284Y0223877D01*
X0282045Y0223698D01*
X0281810Y0223514D01*
X0281580Y0223324D01*
X0281355Y0223128D01*
X0281135Y0222927D01*
X0280919Y0222721D01*
X0280709Y0222509D01*
X0280504Y0222293D01*
X0280304Y0222071D01*
X0280110Y0221844D01*
X0279921Y0221613D01*
X0279738Y0221378D01*
X0279561Y0221138D01*
X0279390Y0220893D01*
X0279225Y0220645D01*
X0279066Y0220392D01*
X0278913Y0220136D01*
X0278766Y0219876D01*
X0278626Y0219613D01*
X0278492Y0219346D01*
X0278365Y0219076D01*
X0278245Y0218803D01*
X0278131Y0218528D01*
X0278024Y0218249D01*
X0277924Y0217968D01*
X0277831Y0217685D01*
X0277744Y0217399D01*
X0277665Y0217111D01*
X0277593Y0216822D01*
X0277528Y0216531D01*
X0277470Y0216238D01*
X0277419Y0215944D01*
X0277375Y0215649D01*
X0277339Y0215353D01*
X0277310Y0215056D01*
X0277288Y0214758D01*
X0277273Y0214460D01*
X0277266Y0214162D01*
X0277266Y0213864D01*
X0277273Y0213566D01*
X0277288Y0213268D01*
X0277310Y0212970D01*
X0277339Y0212673D01*
X0277375Y0212377D01*
X0277419Y0212082D01*
X0277470Y0211788D01*
X0277528Y0211495D01*
X0277593Y0211204D01*
X0277665Y0210915D01*
X0277744Y0210627D01*
X0277831Y0210341D01*
X0277924Y0210058D01*
X0278024Y0209777D01*
X0278131Y0209498D01*
X0278245Y0209223D01*
X0278365Y0208950D01*
X0278492Y0208680D01*
X0278626Y0208413D01*
X0278766Y0208150D01*
X0278913Y0207890D01*
X0279066Y0207634D01*
X0279225Y0207381D01*
X0279390Y0207133D01*
X0279561Y0206888D01*
X0279738Y0206648D01*
X0279921Y0206413D01*
X0280110Y0206182D01*
X0280304Y0205955D01*
X0280504Y0205733D01*
X0280709Y0205517D01*
X0280919Y0205305D01*
X0281135Y0205099D01*
X0281355Y0204898D01*
X0281580Y0204702D01*
X0281810Y0204512D01*
X0282045Y0204328D01*
X0282284Y0204149D01*
X0282527Y0203977D01*
X0282775Y0203810D01*
X0283026Y0203649D01*
X0283282Y0203495D01*
X0283541Y0203347D01*
X0283803Y0203205D01*
X0284069Y0203070D01*
X0284338Y0202941D01*
X0284610Y0202819D01*
X0284886Y0202704D01*
X0285163Y0202595D01*
X0285444Y0202493D01*
X0285727Y0202398D01*
X0293207Y0202398D02*
X0293490Y0202493D01*
X0293771Y0202595D01*
X0294048Y0202704D01*
X0294324Y0202819D01*
X0294596Y0202941D01*
X0294865Y0203070D01*
X0295131Y0203205D01*
X0295393Y0203347D01*
X0295652Y0203495D01*
X0295908Y0203649D01*
X0296159Y0203810D01*
X0296407Y0203977D01*
X0296650Y0204149D01*
X0296889Y0204328D01*
X0297124Y0204512D01*
X0297354Y0204702D01*
X0297579Y0204898D01*
X0297799Y0205099D01*
X0298015Y0205305D01*
X0298225Y0205517D01*
X0298430Y0205733D01*
X0298630Y0205955D01*
X0298824Y0206182D01*
X0299013Y0206413D01*
X0299196Y0206648D01*
X0299373Y0206888D01*
X0299544Y0207133D01*
X0299709Y0207381D01*
X0299868Y0207634D01*
X0300021Y0207890D01*
X0300168Y0208150D01*
X0300308Y0208413D01*
X0300442Y0208680D01*
X0300569Y0208950D01*
X0300689Y0209223D01*
X0300803Y0209498D01*
X0300910Y0209777D01*
X0301010Y0210058D01*
X0301103Y0210341D01*
X0301190Y0210627D01*
X0301269Y0210915D01*
X0301341Y0211204D01*
X0301406Y0211495D01*
X0301464Y0211788D01*
X0301515Y0212082D01*
X0301559Y0212377D01*
X0301595Y0212673D01*
X0301624Y0212970D01*
X0301646Y0213268D01*
X0301661Y0213566D01*
X0301668Y0213864D01*
X0301668Y0214162D01*
X0301661Y0214460D01*
X0301646Y0214758D01*
X0301624Y0215056D01*
X0301595Y0215353D01*
X0301559Y0215649D01*
X0301515Y0215944D01*
X0301464Y0216238D01*
X0301406Y0216531D01*
X0301341Y0216822D01*
X0301269Y0217111D01*
X0301190Y0217399D01*
X0301103Y0217685D01*
X0301010Y0217968D01*
X0300910Y0218249D01*
X0300803Y0218528D01*
X0300689Y0218803D01*
X0300569Y0219076D01*
X0300442Y0219346D01*
X0300308Y0219613D01*
X0300168Y0219876D01*
X0300021Y0220136D01*
X0299868Y0220392D01*
X0299709Y0220645D01*
X0299544Y0220893D01*
X0299373Y0221138D01*
X0299196Y0221378D01*
X0299013Y0221613D01*
X0298824Y0221844D01*
X0298630Y0222071D01*
X0298430Y0222293D01*
X0298225Y0222509D01*
X0298015Y0222721D01*
X0297799Y0222927D01*
X0297579Y0223128D01*
X0297354Y0223324D01*
X0297124Y0223514D01*
X0296889Y0223698D01*
X0296650Y0223877D01*
X0296407Y0224049D01*
X0296159Y0224216D01*
X0295908Y0224377D01*
X0295652Y0224531D01*
X0295393Y0224679D01*
X0295131Y0224821D01*
X0294865Y0224956D01*
X0294596Y0225085D01*
X0294324Y0225207D01*
X0294048Y0225322D01*
X0293771Y0225431D01*
X0293490Y0225533D01*
X0293207Y0225628D01*
X0209067Y0300213D02*
X0209067Y0303282D01*
X0209067Y0301747D02*
X0204463Y0301747D01*
X0205997Y0300213D01*
X0188984Y0284984D02*
X0188984Y0284117D01*
X0186430Y0278045D02*
X0185563Y0277178D01*
X0184695Y0277178D01*
X0170067Y0291080D02*
X0169299Y0290313D01*
X0166230Y0293382D01*
X0169299Y0293382D01*
X0170067Y0292615D01*
X0170067Y0291080D01*
X0169299Y0290313D02*
X0166230Y0290313D01*
X0165463Y0291080D01*
X0165463Y0292615D01*
X0166230Y0293382D01*
X0166997Y0300213D02*
X0165463Y0301747D01*
X0170067Y0301747D01*
X0170067Y0300213D02*
X0170067Y0303282D01*
X0149417Y0295924D02*
X0146348Y0295924D01*
X0146348Y0300528D01*
X0129732Y0299760D02*
X0129732Y0298226D01*
X0128965Y0297458D01*
X0126663Y0297458D01*
X0128197Y0297458D02*
X0129732Y0295924D01*
X0126663Y0295924D02*
X0126663Y0300528D01*
X0128965Y0300528D01*
X0129732Y0299760D01*
X0110017Y0295924D02*
X0106948Y0295924D01*
X0106948Y0300528D01*
X0090332Y0299760D02*
X0090332Y0298226D01*
X0089565Y0297458D01*
X0087263Y0297458D01*
X0088797Y0297458D02*
X0090332Y0295924D01*
X0087263Y0295924D02*
X0087263Y0300528D01*
X0089565Y0300528D01*
X0090332Y0299760D01*
X0024867Y0256882D02*
X0019662Y0256882D01*
X0019662Y0260351D01*
X0022264Y0258617D02*
X0022264Y0256882D01*
X0194762Y0220162D02*
X0194762Y0219295D01*
D11*
X0281161Y0288380D02*
X0281161Y0290515D01*
X0282229Y0291583D01*
X0284364Y0290515D02*
X0284364Y0288380D01*
X0283296Y0287313D01*
X0282229Y0287313D01*
X0281161Y0288380D01*
X0284364Y0290515D02*
X0285432Y0291583D01*
X0286499Y0291583D01*
X0287567Y0290515D01*
X0287567Y0288380D01*
X0286499Y0287313D01*
X0287567Y0293758D02*
X0281161Y0293758D01*
X0281161Y0298028D02*
X0287567Y0298028D01*
X0285432Y0295893D01*
X0287567Y0293758D01*
X0303964Y0266997D02*
X0303964Y0262726D01*
X0300761Y0265929D01*
X0307167Y0265929D01*
X0307167Y0260571D02*
X0307167Y0259504D01*
X0306099Y0259504D01*
X0306099Y0260571D01*
X0307167Y0260571D01*
X0306099Y0257328D02*
X0301829Y0257328D01*
X0306099Y0253058D01*
X0307167Y0254126D01*
X0307167Y0256261D01*
X0306099Y0257328D01*
X0301829Y0257328D02*
X0300761Y0256261D01*
X0300761Y0254126D01*
X0301829Y0253058D01*
X0306099Y0253058D01*
X0302896Y0250883D02*
X0307167Y0248748D01*
X0302896Y0246613D01*
X0331061Y0277613D02*
X0331061Y0280815D01*
X0332129Y0281883D01*
X0334264Y0281883D01*
X0335332Y0280815D01*
X0335332Y0277613D01*
X0337467Y0277613D02*
X0331061Y0277613D01*
X0335332Y0279748D02*
X0337467Y0281883D01*
X0337467Y0284058D02*
X0337467Y0288328D01*
X0336399Y0290504D02*
X0337467Y0291571D01*
X0337467Y0293706D01*
X0336399Y0294774D01*
X0335332Y0294774D01*
X0334264Y0293706D01*
X0334264Y0291571D01*
X0333196Y0290504D01*
X0332129Y0290504D01*
X0331061Y0291571D01*
X0331061Y0293706D01*
X0332129Y0294774D01*
X0331061Y0296949D02*
X0337467Y0296949D01*
X0337467Y0301219D01*
X0334264Y0299084D02*
X0334264Y0296949D01*
X0331061Y0296949D02*
X0331061Y0301219D01*
X0331061Y0303395D02*
X0331061Y0307665D01*
X0331061Y0305530D02*
X0337467Y0305530D01*
X0331061Y0288328D02*
X0331061Y0284058D01*
X0337467Y0284058D01*
X0334264Y0284058D02*
X0334264Y0286193D01*
X0352167Y0295613D02*
X0352170Y0295895D01*
X0352181Y0296177D01*
X0352198Y0296459D01*
X0352222Y0296740D01*
X0352253Y0297021D01*
X0352291Y0297300D01*
X0352336Y0297579D01*
X0352388Y0297857D01*
X0352446Y0298133D01*
X0352512Y0298407D01*
X0352584Y0298680D01*
X0352662Y0298951D01*
X0352747Y0299220D01*
X0352839Y0299487D01*
X0352938Y0299752D01*
X0353042Y0300014D01*
X0353154Y0300273D01*
X0353271Y0300530D01*
X0353395Y0300784D01*
X0353525Y0301034D01*
X0353661Y0301281D01*
X0353803Y0301525D01*
X0353951Y0301765D01*
X0354105Y0302002D01*
X0354265Y0302235D01*
X0354430Y0302464D01*
X0354601Y0302688D01*
X0354777Y0302909D01*
X0354959Y0303124D01*
X0355146Y0303336D01*
X0355338Y0303543D01*
X0355535Y0303745D01*
X0355737Y0303942D01*
X0355944Y0304134D01*
X0356156Y0304321D01*
X0356371Y0304503D01*
X0356592Y0304679D01*
X0356816Y0304850D01*
X0357045Y0305015D01*
X0357278Y0305175D01*
X0357515Y0305329D01*
X0357755Y0305477D01*
X0357999Y0305619D01*
X0358246Y0305755D01*
X0358496Y0305885D01*
X0358750Y0306009D01*
X0359007Y0306126D01*
X0359266Y0306238D01*
X0359528Y0306342D01*
X0359793Y0306441D01*
X0360060Y0306533D01*
X0360329Y0306618D01*
X0360600Y0306696D01*
X0360873Y0306768D01*
X0361147Y0306834D01*
X0361423Y0306892D01*
X0361701Y0306944D01*
X0361980Y0306989D01*
X0362259Y0307027D01*
X0362540Y0307058D01*
X0362821Y0307082D01*
X0363103Y0307099D01*
X0363385Y0307110D01*
X0363667Y0307113D01*
X0363949Y0307110D01*
X0364231Y0307099D01*
X0364513Y0307082D01*
X0364794Y0307058D01*
X0365075Y0307027D01*
X0365354Y0306989D01*
X0365633Y0306944D01*
X0365911Y0306892D01*
X0366187Y0306834D01*
X0366461Y0306768D01*
X0366734Y0306696D01*
X0367005Y0306618D01*
X0367274Y0306533D01*
X0367541Y0306441D01*
X0367806Y0306342D01*
X0368068Y0306238D01*
X0368327Y0306126D01*
X0368584Y0306009D01*
X0368838Y0305885D01*
X0369088Y0305755D01*
X0369335Y0305619D01*
X0369579Y0305477D01*
X0369819Y0305329D01*
X0370056Y0305175D01*
X0370289Y0305015D01*
X0370518Y0304850D01*
X0370742Y0304679D01*
X0370963Y0304503D01*
X0371178Y0304321D01*
X0371390Y0304134D01*
X0371597Y0303942D01*
X0371799Y0303745D01*
X0371996Y0303543D01*
X0372188Y0303336D01*
X0372375Y0303124D01*
X0372557Y0302909D01*
X0372733Y0302688D01*
X0372904Y0302464D01*
X0373069Y0302235D01*
X0373229Y0302002D01*
X0373383Y0301765D01*
X0373531Y0301525D01*
X0373673Y0301281D01*
X0373809Y0301034D01*
X0373939Y0300784D01*
X0374063Y0300530D01*
X0374180Y0300273D01*
X0374292Y0300014D01*
X0374396Y0299752D01*
X0374495Y0299487D01*
X0374587Y0299220D01*
X0374672Y0298951D01*
X0374750Y0298680D01*
X0374822Y0298407D01*
X0374888Y0298133D01*
X0374946Y0297857D01*
X0374998Y0297579D01*
X0375043Y0297300D01*
X0375081Y0297021D01*
X0375112Y0296740D01*
X0375136Y0296459D01*
X0375153Y0296177D01*
X0375164Y0295895D01*
X0375167Y0295613D01*
X0375164Y0295331D01*
X0375153Y0295049D01*
X0375136Y0294767D01*
X0375112Y0294486D01*
X0375081Y0294205D01*
X0375043Y0293926D01*
X0374998Y0293647D01*
X0374946Y0293369D01*
X0374888Y0293093D01*
X0374822Y0292819D01*
X0374750Y0292546D01*
X0374672Y0292275D01*
X0374587Y0292006D01*
X0374495Y0291739D01*
X0374396Y0291474D01*
X0374292Y0291212D01*
X0374180Y0290953D01*
X0374063Y0290696D01*
X0373939Y0290442D01*
X0373809Y0290192D01*
X0373673Y0289945D01*
X0373531Y0289701D01*
X0373383Y0289461D01*
X0373229Y0289224D01*
X0373069Y0288991D01*
X0372904Y0288762D01*
X0372733Y0288538D01*
X0372557Y0288317D01*
X0372375Y0288102D01*
X0372188Y0287890D01*
X0371996Y0287683D01*
X0371799Y0287481D01*
X0371597Y0287284D01*
X0371390Y0287092D01*
X0371178Y0286905D01*
X0370963Y0286723D01*
X0370742Y0286547D01*
X0370518Y0286376D01*
X0370289Y0286211D01*
X0370056Y0286051D01*
X0369819Y0285897D01*
X0369579Y0285749D01*
X0369335Y0285607D01*
X0369088Y0285471D01*
X0368838Y0285341D01*
X0368584Y0285217D01*
X0368327Y0285100D01*
X0368068Y0284988D01*
X0367806Y0284884D01*
X0367541Y0284785D01*
X0367274Y0284693D01*
X0367005Y0284608D01*
X0366734Y0284530D01*
X0366461Y0284458D01*
X0366187Y0284392D01*
X0365911Y0284334D01*
X0365633Y0284282D01*
X0365354Y0284237D01*
X0365075Y0284199D01*
X0364794Y0284168D01*
X0364513Y0284144D01*
X0364231Y0284127D01*
X0363949Y0284116D01*
X0363667Y0284113D01*
X0363385Y0284116D01*
X0363103Y0284127D01*
X0362821Y0284144D01*
X0362540Y0284168D01*
X0362259Y0284199D01*
X0361980Y0284237D01*
X0361701Y0284282D01*
X0361423Y0284334D01*
X0361147Y0284392D01*
X0360873Y0284458D01*
X0360600Y0284530D01*
X0360329Y0284608D01*
X0360060Y0284693D01*
X0359793Y0284785D01*
X0359528Y0284884D01*
X0359266Y0284988D01*
X0359007Y0285100D01*
X0358750Y0285217D01*
X0358496Y0285341D01*
X0358246Y0285471D01*
X0357999Y0285607D01*
X0357755Y0285749D01*
X0357515Y0285897D01*
X0357278Y0286051D01*
X0357045Y0286211D01*
X0356816Y0286376D01*
X0356592Y0286547D01*
X0356371Y0286723D01*
X0356156Y0286905D01*
X0355944Y0287092D01*
X0355737Y0287284D01*
X0355535Y0287481D01*
X0355338Y0287683D01*
X0355146Y0287890D01*
X0354959Y0288102D01*
X0354777Y0288317D01*
X0354601Y0288538D01*
X0354430Y0288762D01*
X0354265Y0288991D01*
X0354105Y0289224D01*
X0353951Y0289461D01*
X0353803Y0289701D01*
X0353661Y0289945D01*
X0353525Y0290192D01*
X0353395Y0290442D01*
X0353271Y0290696D01*
X0353154Y0290953D01*
X0353042Y0291212D01*
X0352938Y0291474D01*
X0352839Y0291739D01*
X0352747Y0292006D01*
X0352662Y0292275D01*
X0352584Y0292546D01*
X0352512Y0292819D01*
X0352446Y0293093D01*
X0352388Y0293369D01*
X0352336Y0293647D01*
X0352291Y0293926D01*
X0352253Y0294205D01*
X0352222Y0294486D01*
X0352198Y0294767D01*
X0352181Y0295049D01*
X0352170Y0295331D01*
X0352167Y0295613D01*
X0322867Y0194213D02*
X0319667Y0194213D01*
X0319667Y0192013D01*
X0319667Y0185213D02*
X0319667Y0183013D01*
X0322867Y0183013D01*
X0300967Y0169013D02*
X0300967Y0165813D01*
X0300967Y0169013D02*
X0298767Y0169013D01*
X0291967Y0169013D02*
X0289767Y0169013D01*
X0289767Y0165813D01*
X0296867Y0155713D02*
X0300067Y0155713D01*
X0300067Y0153513D01*
X0300067Y0146713D02*
X0300067Y0144513D01*
X0296867Y0144513D01*
X0314567Y0145214D02*
X0314567Y0159411D01*
X0333166Y0159411D02*
X0333166Y0145214D01*
X0329267Y0122313D02*
X0326067Y0122313D01*
X0329267Y0122313D02*
X0329267Y0120113D01*
X0329267Y0113313D02*
X0329267Y0111113D01*
X0326067Y0111113D01*
X0324368Y0109412D02*
X0338565Y0109412D01*
X0338565Y0090813D02*
X0324368Y0090813D01*
X0352167Y0025613D02*
X0352170Y0025895D01*
X0352181Y0026177D01*
X0352198Y0026459D01*
X0352222Y0026740D01*
X0352253Y0027021D01*
X0352291Y0027300D01*
X0352336Y0027579D01*
X0352388Y0027857D01*
X0352446Y0028133D01*
X0352512Y0028407D01*
X0352584Y0028680D01*
X0352662Y0028951D01*
X0352747Y0029220D01*
X0352839Y0029487D01*
X0352938Y0029752D01*
X0353042Y0030014D01*
X0353154Y0030273D01*
X0353271Y0030530D01*
X0353395Y0030784D01*
X0353525Y0031034D01*
X0353661Y0031281D01*
X0353803Y0031525D01*
X0353951Y0031765D01*
X0354105Y0032002D01*
X0354265Y0032235D01*
X0354430Y0032464D01*
X0354601Y0032688D01*
X0354777Y0032909D01*
X0354959Y0033124D01*
X0355146Y0033336D01*
X0355338Y0033543D01*
X0355535Y0033745D01*
X0355737Y0033942D01*
X0355944Y0034134D01*
X0356156Y0034321D01*
X0356371Y0034503D01*
X0356592Y0034679D01*
X0356816Y0034850D01*
X0357045Y0035015D01*
X0357278Y0035175D01*
X0357515Y0035329D01*
X0357755Y0035477D01*
X0357999Y0035619D01*
X0358246Y0035755D01*
X0358496Y0035885D01*
X0358750Y0036009D01*
X0359007Y0036126D01*
X0359266Y0036238D01*
X0359528Y0036342D01*
X0359793Y0036441D01*
X0360060Y0036533D01*
X0360329Y0036618D01*
X0360600Y0036696D01*
X0360873Y0036768D01*
X0361147Y0036834D01*
X0361423Y0036892D01*
X0361701Y0036944D01*
X0361980Y0036989D01*
X0362259Y0037027D01*
X0362540Y0037058D01*
X0362821Y0037082D01*
X0363103Y0037099D01*
X0363385Y0037110D01*
X0363667Y0037113D01*
X0363949Y0037110D01*
X0364231Y0037099D01*
X0364513Y0037082D01*
X0364794Y0037058D01*
X0365075Y0037027D01*
X0365354Y0036989D01*
X0365633Y0036944D01*
X0365911Y0036892D01*
X0366187Y0036834D01*
X0366461Y0036768D01*
X0366734Y0036696D01*
X0367005Y0036618D01*
X0367274Y0036533D01*
X0367541Y0036441D01*
X0367806Y0036342D01*
X0368068Y0036238D01*
X0368327Y0036126D01*
X0368584Y0036009D01*
X0368838Y0035885D01*
X0369088Y0035755D01*
X0369335Y0035619D01*
X0369579Y0035477D01*
X0369819Y0035329D01*
X0370056Y0035175D01*
X0370289Y0035015D01*
X0370518Y0034850D01*
X0370742Y0034679D01*
X0370963Y0034503D01*
X0371178Y0034321D01*
X0371390Y0034134D01*
X0371597Y0033942D01*
X0371799Y0033745D01*
X0371996Y0033543D01*
X0372188Y0033336D01*
X0372375Y0033124D01*
X0372557Y0032909D01*
X0372733Y0032688D01*
X0372904Y0032464D01*
X0373069Y0032235D01*
X0373229Y0032002D01*
X0373383Y0031765D01*
X0373531Y0031525D01*
X0373673Y0031281D01*
X0373809Y0031034D01*
X0373939Y0030784D01*
X0374063Y0030530D01*
X0374180Y0030273D01*
X0374292Y0030014D01*
X0374396Y0029752D01*
X0374495Y0029487D01*
X0374587Y0029220D01*
X0374672Y0028951D01*
X0374750Y0028680D01*
X0374822Y0028407D01*
X0374888Y0028133D01*
X0374946Y0027857D01*
X0374998Y0027579D01*
X0375043Y0027300D01*
X0375081Y0027021D01*
X0375112Y0026740D01*
X0375136Y0026459D01*
X0375153Y0026177D01*
X0375164Y0025895D01*
X0375167Y0025613D01*
X0375164Y0025331D01*
X0375153Y0025049D01*
X0375136Y0024767D01*
X0375112Y0024486D01*
X0375081Y0024205D01*
X0375043Y0023926D01*
X0374998Y0023647D01*
X0374946Y0023369D01*
X0374888Y0023093D01*
X0374822Y0022819D01*
X0374750Y0022546D01*
X0374672Y0022275D01*
X0374587Y0022006D01*
X0374495Y0021739D01*
X0374396Y0021474D01*
X0374292Y0021212D01*
X0374180Y0020953D01*
X0374063Y0020696D01*
X0373939Y0020442D01*
X0373809Y0020192D01*
X0373673Y0019945D01*
X0373531Y0019701D01*
X0373383Y0019461D01*
X0373229Y0019224D01*
X0373069Y0018991D01*
X0372904Y0018762D01*
X0372733Y0018538D01*
X0372557Y0018317D01*
X0372375Y0018102D01*
X0372188Y0017890D01*
X0371996Y0017683D01*
X0371799Y0017481D01*
X0371597Y0017284D01*
X0371390Y0017092D01*
X0371178Y0016905D01*
X0370963Y0016723D01*
X0370742Y0016547D01*
X0370518Y0016376D01*
X0370289Y0016211D01*
X0370056Y0016051D01*
X0369819Y0015897D01*
X0369579Y0015749D01*
X0369335Y0015607D01*
X0369088Y0015471D01*
X0368838Y0015341D01*
X0368584Y0015217D01*
X0368327Y0015100D01*
X0368068Y0014988D01*
X0367806Y0014884D01*
X0367541Y0014785D01*
X0367274Y0014693D01*
X0367005Y0014608D01*
X0366734Y0014530D01*
X0366461Y0014458D01*
X0366187Y0014392D01*
X0365911Y0014334D01*
X0365633Y0014282D01*
X0365354Y0014237D01*
X0365075Y0014199D01*
X0364794Y0014168D01*
X0364513Y0014144D01*
X0364231Y0014127D01*
X0363949Y0014116D01*
X0363667Y0014113D01*
X0363385Y0014116D01*
X0363103Y0014127D01*
X0362821Y0014144D01*
X0362540Y0014168D01*
X0362259Y0014199D01*
X0361980Y0014237D01*
X0361701Y0014282D01*
X0361423Y0014334D01*
X0361147Y0014392D01*
X0360873Y0014458D01*
X0360600Y0014530D01*
X0360329Y0014608D01*
X0360060Y0014693D01*
X0359793Y0014785D01*
X0359528Y0014884D01*
X0359266Y0014988D01*
X0359007Y0015100D01*
X0358750Y0015217D01*
X0358496Y0015341D01*
X0358246Y0015471D01*
X0357999Y0015607D01*
X0357755Y0015749D01*
X0357515Y0015897D01*
X0357278Y0016051D01*
X0357045Y0016211D01*
X0356816Y0016376D01*
X0356592Y0016547D01*
X0356371Y0016723D01*
X0356156Y0016905D01*
X0355944Y0017092D01*
X0355737Y0017284D01*
X0355535Y0017481D01*
X0355338Y0017683D01*
X0355146Y0017890D01*
X0354959Y0018102D01*
X0354777Y0018317D01*
X0354601Y0018538D01*
X0354430Y0018762D01*
X0354265Y0018991D01*
X0354105Y0019224D01*
X0353951Y0019461D01*
X0353803Y0019701D01*
X0353661Y0019945D01*
X0353525Y0020192D01*
X0353395Y0020442D01*
X0353271Y0020696D01*
X0353154Y0020953D01*
X0353042Y0021212D01*
X0352938Y0021474D01*
X0352839Y0021739D01*
X0352747Y0022006D01*
X0352662Y0022275D01*
X0352584Y0022546D01*
X0352512Y0022819D01*
X0352446Y0023093D01*
X0352388Y0023369D01*
X0352336Y0023647D01*
X0352291Y0023926D01*
X0352253Y0024205D01*
X0352222Y0024486D01*
X0352198Y0024767D01*
X0352181Y0025049D01*
X0352170Y0025331D01*
X0352167Y0025613D01*
X0244367Y0099313D02*
X0244367Y0102513D01*
X0242167Y0102513D01*
X0235367Y0102513D02*
X0233167Y0102513D01*
X0233167Y0099313D01*
X0211182Y0056085D02*
X0188151Y0056085D01*
X0188151Y0015140D01*
X0211182Y0015140D01*
X0211182Y0056085D01*
X0190180Y0052246D02*
X0190182Y0052331D01*
X0190188Y0052415D01*
X0190198Y0052500D01*
X0190212Y0052583D01*
X0190229Y0052666D01*
X0190251Y0052748D01*
X0190277Y0052829D01*
X0190306Y0052909D01*
X0190339Y0052987D01*
X0190375Y0053063D01*
X0190415Y0053138D01*
X0190459Y0053211D01*
X0190506Y0053282D01*
X0190556Y0053350D01*
X0190609Y0053416D01*
X0190666Y0053479D01*
X0190725Y0053540D01*
X0190787Y0053598D01*
X0190852Y0053653D01*
X0190919Y0053705D01*
X0190988Y0053753D01*
X0191060Y0053798D01*
X0191134Y0053840D01*
X0191210Y0053878D01*
X0191287Y0053913D01*
X0191366Y0053944D01*
X0191446Y0053972D01*
X0191528Y0053995D01*
X0191610Y0054015D01*
X0191693Y0054031D01*
X0191777Y0054043D01*
X0191862Y0054051D01*
X0191947Y0054055D01*
X0192031Y0054055D01*
X0192116Y0054051D01*
X0192201Y0054043D01*
X0192285Y0054031D01*
X0192368Y0054015D01*
X0192450Y0053995D01*
X0192532Y0053972D01*
X0192612Y0053944D01*
X0192691Y0053913D01*
X0192768Y0053878D01*
X0192844Y0053840D01*
X0192918Y0053798D01*
X0192990Y0053753D01*
X0193059Y0053705D01*
X0193126Y0053653D01*
X0193191Y0053598D01*
X0193253Y0053540D01*
X0193312Y0053479D01*
X0193369Y0053416D01*
X0193422Y0053350D01*
X0193472Y0053282D01*
X0193519Y0053211D01*
X0193563Y0053138D01*
X0193603Y0053063D01*
X0193639Y0052987D01*
X0193672Y0052909D01*
X0193701Y0052829D01*
X0193727Y0052748D01*
X0193749Y0052666D01*
X0193766Y0052583D01*
X0193780Y0052500D01*
X0193790Y0052415D01*
X0193796Y0052331D01*
X0193798Y0052246D01*
X0193796Y0052161D01*
X0193790Y0052077D01*
X0193780Y0051992D01*
X0193766Y0051909D01*
X0193749Y0051826D01*
X0193727Y0051744D01*
X0193701Y0051663D01*
X0193672Y0051583D01*
X0193639Y0051505D01*
X0193603Y0051429D01*
X0193563Y0051354D01*
X0193519Y0051281D01*
X0193472Y0051210D01*
X0193422Y0051142D01*
X0193369Y0051076D01*
X0193312Y0051013D01*
X0193253Y0050952D01*
X0193191Y0050894D01*
X0193126Y0050839D01*
X0193059Y0050787D01*
X0192990Y0050739D01*
X0192918Y0050694D01*
X0192844Y0050652D01*
X0192768Y0050614D01*
X0192691Y0050579D01*
X0192612Y0050548D01*
X0192532Y0050520D01*
X0192450Y0050497D01*
X0192368Y0050477D01*
X0192285Y0050461D01*
X0192201Y0050449D01*
X0192116Y0050441D01*
X0192031Y0050437D01*
X0191947Y0050437D01*
X0191862Y0050441D01*
X0191777Y0050449D01*
X0191693Y0050461D01*
X0191610Y0050477D01*
X0191528Y0050497D01*
X0191446Y0050520D01*
X0191366Y0050548D01*
X0191287Y0050579D01*
X0191210Y0050614D01*
X0191134Y0050652D01*
X0191060Y0050694D01*
X0190988Y0050739D01*
X0190919Y0050787D01*
X0190852Y0050839D01*
X0190787Y0050894D01*
X0190725Y0050952D01*
X0190666Y0051013D01*
X0190609Y0051076D01*
X0190556Y0051142D01*
X0190506Y0051210D01*
X0190459Y0051281D01*
X0190415Y0051354D01*
X0190375Y0051429D01*
X0190339Y0051505D01*
X0190306Y0051583D01*
X0190277Y0051663D01*
X0190251Y0051744D01*
X0190229Y0051826D01*
X0190212Y0051909D01*
X0190198Y0051992D01*
X0190188Y0052077D01*
X0190182Y0052161D01*
X0190180Y0052246D01*
X0125667Y0032313D02*
X0125667Y0017313D01*
X0123167Y0014813D01*
X0118167Y0014813D01*
X0115667Y0017313D01*
X0115667Y0032313D01*
X0113167Y0034813D01*
X0108167Y0034813D01*
X0105667Y0032313D01*
X0105667Y0017313D01*
X0103167Y0014813D01*
X0098167Y0014813D01*
X0095667Y0017313D01*
X0095667Y0032313D01*
X0093167Y0034813D01*
X0088167Y0034813D01*
X0085667Y0032313D01*
X0085667Y0017313D01*
X0083167Y0014813D01*
X0078167Y0014813D01*
X0075667Y0017313D01*
X0075667Y0032313D01*
X0073167Y0034813D01*
X0068167Y0034813D01*
X0065667Y0032313D01*
X0065667Y0017313D01*
X0063167Y0014813D01*
X0058167Y0014813D01*
X0055667Y0017313D01*
X0055667Y0032313D01*
X0058167Y0034813D01*
X0063167Y0034813D01*
X0065667Y0032313D01*
X0075667Y0032313D02*
X0078167Y0034813D01*
X0083167Y0034813D01*
X0085667Y0032313D01*
X0095667Y0032313D02*
X0098167Y0034813D01*
X0103167Y0034813D01*
X0105667Y0032313D01*
X0115667Y0032313D02*
X0118167Y0034813D01*
X0123167Y0034813D01*
X0125667Y0032313D01*
X0115667Y0017313D02*
X0113167Y0014813D01*
X0108167Y0014813D01*
X0105667Y0017313D01*
X0095667Y0017313D02*
X0093167Y0014813D01*
X0088167Y0014813D01*
X0085667Y0017313D01*
X0075667Y0017313D02*
X0073167Y0014813D01*
X0068167Y0014813D01*
X0065667Y0017313D01*
X0007167Y0025613D02*
X0007170Y0025895D01*
X0007181Y0026177D01*
X0007198Y0026459D01*
X0007222Y0026740D01*
X0007253Y0027021D01*
X0007291Y0027300D01*
X0007336Y0027579D01*
X0007388Y0027857D01*
X0007446Y0028133D01*
X0007512Y0028407D01*
X0007584Y0028680D01*
X0007662Y0028951D01*
X0007747Y0029220D01*
X0007839Y0029487D01*
X0007938Y0029752D01*
X0008042Y0030014D01*
X0008154Y0030273D01*
X0008271Y0030530D01*
X0008395Y0030784D01*
X0008525Y0031034D01*
X0008661Y0031281D01*
X0008803Y0031525D01*
X0008951Y0031765D01*
X0009105Y0032002D01*
X0009265Y0032235D01*
X0009430Y0032464D01*
X0009601Y0032688D01*
X0009777Y0032909D01*
X0009959Y0033124D01*
X0010146Y0033336D01*
X0010338Y0033543D01*
X0010535Y0033745D01*
X0010737Y0033942D01*
X0010944Y0034134D01*
X0011156Y0034321D01*
X0011371Y0034503D01*
X0011592Y0034679D01*
X0011816Y0034850D01*
X0012045Y0035015D01*
X0012278Y0035175D01*
X0012515Y0035329D01*
X0012755Y0035477D01*
X0012999Y0035619D01*
X0013246Y0035755D01*
X0013496Y0035885D01*
X0013750Y0036009D01*
X0014007Y0036126D01*
X0014266Y0036238D01*
X0014528Y0036342D01*
X0014793Y0036441D01*
X0015060Y0036533D01*
X0015329Y0036618D01*
X0015600Y0036696D01*
X0015873Y0036768D01*
X0016147Y0036834D01*
X0016423Y0036892D01*
X0016701Y0036944D01*
X0016980Y0036989D01*
X0017259Y0037027D01*
X0017540Y0037058D01*
X0017821Y0037082D01*
X0018103Y0037099D01*
X0018385Y0037110D01*
X0018667Y0037113D01*
X0018949Y0037110D01*
X0019231Y0037099D01*
X0019513Y0037082D01*
X0019794Y0037058D01*
X0020075Y0037027D01*
X0020354Y0036989D01*
X0020633Y0036944D01*
X0020911Y0036892D01*
X0021187Y0036834D01*
X0021461Y0036768D01*
X0021734Y0036696D01*
X0022005Y0036618D01*
X0022274Y0036533D01*
X0022541Y0036441D01*
X0022806Y0036342D01*
X0023068Y0036238D01*
X0023327Y0036126D01*
X0023584Y0036009D01*
X0023838Y0035885D01*
X0024088Y0035755D01*
X0024335Y0035619D01*
X0024579Y0035477D01*
X0024819Y0035329D01*
X0025056Y0035175D01*
X0025289Y0035015D01*
X0025518Y0034850D01*
X0025742Y0034679D01*
X0025963Y0034503D01*
X0026178Y0034321D01*
X0026390Y0034134D01*
X0026597Y0033942D01*
X0026799Y0033745D01*
X0026996Y0033543D01*
X0027188Y0033336D01*
X0027375Y0033124D01*
X0027557Y0032909D01*
X0027733Y0032688D01*
X0027904Y0032464D01*
X0028069Y0032235D01*
X0028229Y0032002D01*
X0028383Y0031765D01*
X0028531Y0031525D01*
X0028673Y0031281D01*
X0028809Y0031034D01*
X0028939Y0030784D01*
X0029063Y0030530D01*
X0029180Y0030273D01*
X0029292Y0030014D01*
X0029396Y0029752D01*
X0029495Y0029487D01*
X0029587Y0029220D01*
X0029672Y0028951D01*
X0029750Y0028680D01*
X0029822Y0028407D01*
X0029888Y0028133D01*
X0029946Y0027857D01*
X0029998Y0027579D01*
X0030043Y0027300D01*
X0030081Y0027021D01*
X0030112Y0026740D01*
X0030136Y0026459D01*
X0030153Y0026177D01*
X0030164Y0025895D01*
X0030167Y0025613D01*
X0030164Y0025331D01*
X0030153Y0025049D01*
X0030136Y0024767D01*
X0030112Y0024486D01*
X0030081Y0024205D01*
X0030043Y0023926D01*
X0029998Y0023647D01*
X0029946Y0023369D01*
X0029888Y0023093D01*
X0029822Y0022819D01*
X0029750Y0022546D01*
X0029672Y0022275D01*
X0029587Y0022006D01*
X0029495Y0021739D01*
X0029396Y0021474D01*
X0029292Y0021212D01*
X0029180Y0020953D01*
X0029063Y0020696D01*
X0028939Y0020442D01*
X0028809Y0020192D01*
X0028673Y0019945D01*
X0028531Y0019701D01*
X0028383Y0019461D01*
X0028229Y0019224D01*
X0028069Y0018991D01*
X0027904Y0018762D01*
X0027733Y0018538D01*
X0027557Y0018317D01*
X0027375Y0018102D01*
X0027188Y0017890D01*
X0026996Y0017683D01*
X0026799Y0017481D01*
X0026597Y0017284D01*
X0026390Y0017092D01*
X0026178Y0016905D01*
X0025963Y0016723D01*
X0025742Y0016547D01*
X0025518Y0016376D01*
X0025289Y0016211D01*
X0025056Y0016051D01*
X0024819Y0015897D01*
X0024579Y0015749D01*
X0024335Y0015607D01*
X0024088Y0015471D01*
X0023838Y0015341D01*
X0023584Y0015217D01*
X0023327Y0015100D01*
X0023068Y0014988D01*
X0022806Y0014884D01*
X0022541Y0014785D01*
X0022274Y0014693D01*
X0022005Y0014608D01*
X0021734Y0014530D01*
X0021461Y0014458D01*
X0021187Y0014392D01*
X0020911Y0014334D01*
X0020633Y0014282D01*
X0020354Y0014237D01*
X0020075Y0014199D01*
X0019794Y0014168D01*
X0019513Y0014144D01*
X0019231Y0014127D01*
X0018949Y0014116D01*
X0018667Y0014113D01*
X0018385Y0014116D01*
X0018103Y0014127D01*
X0017821Y0014144D01*
X0017540Y0014168D01*
X0017259Y0014199D01*
X0016980Y0014237D01*
X0016701Y0014282D01*
X0016423Y0014334D01*
X0016147Y0014392D01*
X0015873Y0014458D01*
X0015600Y0014530D01*
X0015329Y0014608D01*
X0015060Y0014693D01*
X0014793Y0014785D01*
X0014528Y0014884D01*
X0014266Y0014988D01*
X0014007Y0015100D01*
X0013750Y0015217D01*
X0013496Y0015341D01*
X0013246Y0015471D01*
X0012999Y0015607D01*
X0012755Y0015749D01*
X0012515Y0015897D01*
X0012278Y0016051D01*
X0012045Y0016211D01*
X0011816Y0016376D01*
X0011592Y0016547D01*
X0011371Y0016723D01*
X0011156Y0016905D01*
X0010944Y0017092D01*
X0010737Y0017284D01*
X0010535Y0017481D01*
X0010338Y0017683D01*
X0010146Y0017890D01*
X0009959Y0018102D01*
X0009777Y0018317D01*
X0009601Y0018538D01*
X0009430Y0018762D01*
X0009265Y0018991D01*
X0009105Y0019224D01*
X0008951Y0019461D01*
X0008803Y0019701D01*
X0008661Y0019945D01*
X0008525Y0020192D01*
X0008395Y0020442D01*
X0008271Y0020696D01*
X0008154Y0020953D01*
X0008042Y0021212D01*
X0007938Y0021474D01*
X0007839Y0021739D01*
X0007747Y0022006D01*
X0007662Y0022275D01*
X0007584Y0022546D01*
X0007512Y0022819D01*
X0007446Y0023093D01*
X0007388Y0023369D01*
X0007336Y0023647D01*
X0007291Y0023926D01*
X0007253Y0024205D01*
X0007222Y0024486D01*
X0007198Y0024767D01*
X0007181Y0025049D01*
X0007170Y0025331D01*
X0007167Y0025613D01*
X0048304Y0062731D02*
X0048304Y0065094D01*
X0053029Y0065094D02*
X0053029Y0062731D01*
X0052929Y0078231D02*
X0052929Y0080594D01*
X0048204Y0080594D02*
X0048204Y0078231D01*
X0043966Y0115912D02*
X0043966Y0171313D01*
X0097667Y0171313D01*
X0099367Y0169613D01*
X0099367Y0115912D01*
X0043966Y0115912D01*
X0105767Y0069013D02*
X0107967Y0069013D01*
X0105767Y0069013D02*
X0105767Y0065813D01*
X0114767Y0069013D02*
X0116967Y0069013D01*
X0116967Y0065813D01*
X0092617Y0166763D02*
X0092619Y0166856D01*
X0092625Y0166950D01*
X0092635Y0167042D01*
X0092649Y0167135D01*
X0092666Y0167226D01*
X0092688Y0167317D01*
X0092713Y0167407D01*
X0092743Y0167496D01*
X0092776Y0167583D01*
X0092812Y0167669D01*
X0092853Y0167753D01*
X0092896Y0167836D01*
X0092944Y0167916D01*
X0092994Y0167995D01*
X0093048Y0168071D01*
X0093105Y0168145D01*
X0093166Y0168216D01*
X0093229Y0168285D01*
X0093295Y0168351D01*
X0093364Y0168414D01*
X0093435Y0168475D01*
X0093509Y0168532D01*
X0093585Y0168586D01*
X0093664Y0168636D01*
X0093744Y0168684D01*
X0093827Y0168727D01*
X0093911Y0168768D01*
X0093997Y0168804D01*
X0094084Y0168837D01*
X0094173Y0168867D01*
X0094263Y0168892D01*
X0094354Y0168914D01*
X0094445Y0168931D01*
X0094538Y0168945D01*
X0094630Y0168955D01*
X0094724Y0168961D01*
X0094817Y0168963D01*
X0094910Y0168961D01*
X0095004Y0168955D01*
X0095096Y0168945D01*
X0095189Y0168931D01*
X0095280Y0168914D01*
X0095371Y0168892D01*
X0095461Y0168867D01*
X0095550Y0168837D01*
X0095637Y0168804D01*
X0095723Y0168768D01*
X0095807Y0168727D01*
X0095890Y0168684D01*
X0095970Y0168636D01*
X0096049Y0168586D01*
X0096125Y0168532D01*
X0096199Y0168475D01*
X0096270Y0168414D01*
X0096339Y0168351D01*
X0096405Y0168285D01*
X0096468Y0168216D01*
X0096529Y0168145D01*
X0096586Y0168071D01*
X0096640Y0167995D01*
X0096690Y0167916D01*
X0096738Y0167836D01*
X0096781Y0167753D01*
X0096822Y0167669D01*
X0096858Y0167583D01*
X0096891Y0167496D01*
X0096921Y0167407D01*
X0096946Y0167317D01*
X0096968Y0167226D01*
X0096985Y0167135D01*
X0096999Y0167042D01*
X0097009Y0166950D01*
X0097015Y0166856D01*
X0097017Y0166763D01*
X0097015Y0166670D01*
X0097009Y0166576D01*
X0096999Y0166484D01*
X0096985Y0166391D01*
X0096968Y0166300D01*
X0096946Y0166209D01*
X0096921Y0166119D01*
X0096891Y0166030D01*
X0096858Y0165943D01*
X0096822Y0165857D01*
X0096781Y0165773D01*
X0096738Y0165690D01*
X0096690Y0165610D01*
X0096640Y0165531D01*
X0096586Y0165455D01*
X0096529Y0165381D01*
X0096468Y0165310D01*
X0096405Y0165241D01*
X0096339Y0165175D01*
X0096270Y0165112D01*
X0096199Y0165051D01*
X0096125Y0164994D01*
X0096049Y0164940D01*
X0095970Y0164890D01*
X0095890Y0164842D01*
X0095807Y0164799D01*
X0095723Y0164758D01*
X0095637Y0164722D01*
X0095550Y0164689D01*
X0095461Y0164659D01*
X0095371Y0164634D01*
X0095280Y0164612D01*
X0095189Y0164595D01*
X0095096Y0164581D01*
X0095004Y0164571D01*
X0094910Y0164565D01*
X0094817Y0164563D01*
X0094724Y0164565D01*
X0094630Y0164571D01*
X0094538Y0164581D01*
X0094445Y0164595D01*
X0094354Y0164612D01*
X0094263Y0164634D01*
X0094173Y0164659D01*
X0094084Y0164689D01*
X0093997Y0164722D01*
X0093911Y0164758D01*
X0093827Y0164799D01*
X0093744Y0164842D01*
X0093664Y0164890D01*
X0093585Y0164940D01*
X0093509Y0164994D01*
X0093435Y0165051D01*
X0093364Y0165112D01*
X0093295Y0165175D01*
X0093229Y0165241D01*
X0093166Y0165310D01*
X0093105Y0165381D01*
X0093048Y0165455D01*
X0092994Y0165531D01*
X0092944Y0165610D01*
X0092896Y0165690D01*
X0092853Y0165773D01*
X0092812Y0165857D01*
X0092776Y0165943D01*
X0092743Y0166030D01*
X0092713Y0166119D01*
X0092688Y0166209D01*
X0092666Y0166300D01*
X0092649Y0166391D01*
X0092635Y0166484D01*
X0092625Y0166576D01*
X0092619Y0166670D01*
X0092617Y0166763D01*
X0038667Y0184213D02*
X0035467Y0184213D01*
X0035467Y0186413D01*
X0035467Y0193213D02*
X0035467Y0195413D01*
X0038667Y0195413D01*
X0040167Y0220413D02*
X0036967Y0220413D01*
X0036967Y0222613D01*
X0036967Y0229413D02*
X0036967Y0231613D01*
X0040167Y0231613D01*
X0007167Y0295613D02*
X0007170Y0295895D01*
X0007181Y0296177D01*
X0007198Y0296459D01*
X0007222Y0296740D01*
X0007253Y0297021D01*
X0007291Y0297300D01*
X0007336Y0297579D01*
X0007388Y0297857D01*
X0007446Y0298133D01*
X0007512Y0298407D01*
X0007584Y0298680D01*
X0007662Y0298951D01*
X0007747Y0299220D01*
X0007839Y0299487D01*
X0007938Y0299752D01*
X0008042Y0300014D01*
X0008154Y0300273D01*
X0008271Y0300530D01*
X0008395Y0300784D01*
X0008525Y0301034D01*
X0008661Y0301281D01*
X0008803Y0301525D01*
X0008951Y0301765D01*
X0009105Y0302002D01*
X0009265Y0302235D01*
X0009430Y0302464D01*
X0009601Y0302688D01*
X0009777Y0302909D01*
X0009959Y0303124D01*
X0010146Y0303336D01*
X0010338Y0303543D01*
X0010535Y0303745D01*
X0010737Y0303942D01*
X0010944Y0304134D01*
X0011156Y0304321D01*
X0011371Y0304503D01*
X0011592Y0304679D01*
X0011816Y0304850D01*
X0012045Y0305015D01*
X0012278Y0305175D01*
X0012515Y0305329D01*
X0012755Y0305477D01*
X0012999Y0305619D01*
X0013246Y0305755D01*
X0013496Y0305885D01*
X0013750Y0306009D01*
X0014007Y0306126D01*
X0014266Y0306238D01*
X0014528Y0306342D01*
X0014793Y0306441D01*
X0015060Y0306533D01*
X0015329Y0306618D01*
X0015600Y0306696D01*
X0015873Y0306768D01*
X0016147Y0306834D01*
X0016423Y0306892D01*
X0016701Y0306944D01*
X0016980Y0306989D01*
X0017259Y0307027D01*
X0017540Y0307058D01*
X0017821Y0307082D01*
X0018103Y0307099D01*
X0018385Y0307110D01*
X0018667Y0307113D01*
X0018949Y0307110D01*
X0019231Y0307099D01*
X0019513Y0307082D01*
X0019794Y0307058D01*
X0020075Y0307027D01*
X0020354Y0306989D01*
X0020633Y0306944D01*
X0020911Y0306892D01*
X0021187Y0306834D01*
X0021461Y0306768D01*
X0021734Y0306696D01*
X0022005Y0306618D01*
X0022274Y0306533D01*
X0022541Y0306441D01*
X0022806Y0306342D01*
X0023068Y0306238D01*
X0023327Y0306126D01*
X0023584Y0306009D01*
X0023838Y0305885D01*
X0024088Y0305755D01*
X0024335Y0305619D01*
X0024579Y0305477D01*
X0024819Y0305329D01*
X0025056Y0305175D01*
X0025289Y0305015D01*
X0025518Y0304850D01*
X0025742Y0304679D01*
X0025963Y0304503D01*
X0026178Y0304321D01*
X0026390Y0304134D01*
X0026597Y0303942D01*
X0026799Y0303745D01*
X0026996Y0303543D01*
X0027188Y0303336D01*
X0027375Y0303124D01*
X0027557Y0302909D01*
X0027733Y0302688D01*
X0027904Y0302464D01*
X0028069Y0302235D01*
X0028229Y0302002D01*
X0028383Y0301765D01*
X0028531Y0301525D01*
X0028673Y0301281D01*
X0028809Y0301034D01*
X0028939Y0300784D01*
X0029063Y0300530D01*
X0029180Y0300273D01*
X0029292Y0300014D01*
X0029396Y0299752D01*
X0029495Y0299487D01*
X0029587Y0299220D01*
X0029672Y0298951D01*
X0029750Y0298680D01*
X0029822Y0298407D01*
X0029888Y0298133D01*
X0029946Y0297857D01*
X0029998Y0297579D01*
X0030043Y0297300D01*
X0030081Y0297021D01*
X0030112Y0296740D01*
X0030136Y0296459D01*
X0030153Y0296177D01*
X0030164Y0295895D01*
X0030167Y0295613D01*
X0030164Y0295331D01*
X0030153Y0295049D01*
X0030136Y0294767D01*
X0030112Y0294486D01*
X0030081Y0294205D01*
X0030043Y0293926D01*
X0029998Y0293647D01*
X0029946Y0293369D01*
X0029888Y0293093D01*
X0029822Y0292819D01*
X0029750Y0292546D01*
X0029672Y0292275D01*
X0029587Y0292006D01*
X0029495Y0291739D01*
X0029396Y0291474D01*
X0029292Y0291212D01*
X0029180Y0290953D01*
X0029063Y0290696D01*
X0028939Y0290442D01*
X0028809Y0290192D01*
X0028673Y0289945D01*
X0028531Y0289701D01*
X0028383Y0289461D01*
X0028229Y0289224D01*
X0028069Y0288991D01*
X0027904Y0288762D01*
X0027733Y0288538D01*
X0027557Y0288317D01*
X0027375Y0288102D01*
X0027188Y0287890D01*
X0026996Y0287683D01*
X0026799Y0287481D01*
X0026597Y0287284D01*
X0026390Y0287092D01*
X0026178Y0286905D01*
X0025963Y0286723D01*
X0025742Y0286547D01*
X0025518Y0286376D01*
X0025289Y0286211D01*
X0025056Y0286051D01*
X0024819Y0285897D01*
X0024579Y0285749D01*
X0024335Y0285607D01*
X0024088Y0285471D01*
X0023838Y0285341D01*
X0023584Y0285217D01*
X0023327Y0285100D01*
X0023068Y0284988D01*
X0022806Y0284884D01*
X0022541Y0284785D01*
X0022274Y0284693D01*
X0022005Y0284608D01*
X0021734Y0284530D01*
X0021461Y0284458D01*
X0021187Y0284392D01*
X0020911Y0284334D01*
X0020633Y0284282D01*
X0020354Y0284237D01*
X0020075Y0284199D01*
X0019794Y0284168D01*
X0019513Y0284144D01*
X0019231Y0284127D01*
X0018949Y0284116D01*
X0018667Y0284113D01*
X0018385Y0284116D01*
X0018103Y0284127D01*
X0017821Y0284144D01*
X0017540Y0284168D01*
X0017259Y0284199D01*
X0016980Y0284237D01*
X0016701Y0284282D01*
X0016423Y0284334D01*
X0016147Y0284392D01*
X0015873Y0284458D01*
X0015600Y0284530D01*
X0015329Y0284608D01*
X0015060Y0284693D01*
X0014793Y0284785D01*
X0014528Y0284884D01*
X0014266Y0284988D01*
X0014007Y0285100D01*
X0013750Y0285217D01*
X0013496Y0285341D01*
X0013246Y0285471D01*
X0012999Y0285607D01*
X0012755Y0285749D01*
X0012515Y0285897D01*
X0012278Y0286051D01*
X0012045Y0286211D01*
X0011816Y0286376D01*
X0011592Y0286547D01*
X0011371Y0286723D01*
X0011156Y0286905D01*
X0010944Y0287092D01*
X0010737Y0287284D01*
X0010535Y0287481D01*
X0010338Y0287683D01*
X0010146Y0287890D01*
X0009959Y0288102D01*
X0009777Y0288317D01*
X0009601Y0288538D01*
X0009430Y0288762D01*
X0009265Y0288991D01*
X0009105Y0289224D01*
X0008951Y0289461D01*
X0008803Y0289701D01*
X0008661Y0289945D01*
X0008525Y0290192D01*
X0008395Y0290442D01*
X0008271Y0290696D01*
X0008154Y0290953D01*
X0008042Y0291212D01*
X0007938Y0291474D01*
X0007839Y0291739D01*
X0007747Y0292006D01*
X0007662Y0292275D01*
X0007584Y0292546D01*
X0007512Y0292819D01*
X0007446Y0293093D01*
X0007388Y0293369D01*
X0007336Y0293647D01*
X0007291Y0293926D01*
X0007253Y0294205D01*
X0007222Y0294486D01*
X0007198Y0294767D01*
X0007181Y0295049D01*
X0007170Y0295331D01*
X0007167Y0295613D01*
D12*
X0081824Y0306629D02*
X0081824Y0271196D01*
X0121194Y0271196D01*
X0121194Y0306629D01*
X0081824Y0306629D01*
X0121224Y0306629D02*
X0121224Y0271196D01*
X0160594Y0271196D01*
X0160594Y0306629D01*
X0121224Y0306629D01*
X0134084Y0260534D02*
X0134084Y0255770D01*
X0145029Y0255770D01*
X0145029Y0260534D01*
X0134084Y0260534D01*
X0143742Y0259589D02*
X0143744Y0259644D01*
X0143750Y0259699D01*
X0143760Y0259754D01*
X0143773Y0259807D01*
X0143791Y0259860D01*
X0143812Y0259911D01*
X0143837Y0259960D01*
X0143865Y0260008D01*
X0143897Y0260053D01*
X0143931Y0260097D01*
X0143969Y0260137D01*
X0144009Y0260175D01*
X0144053Y0260209D01*
X0144098Y0260241D01*
X0144146Y0260269D01*
X0144195Y0260294D01*
X0144246Y0260315D01*
X0144299Y0260333D01*
X0144352Y0260346D01*
X0144407Y0260356D01*
X0144462Y0260362D01*
X0144517Y0260364D01*
X0144572Y0260362D01*
X0144627Y0260356D01*
X0144682Y0260346D01*
X0144735Y0260333D01*
X0144788Y0260315D01*
X0144839Y0260294D01*
X0144888Y0260269D01*
X0144936Y0260241D01*
X0144981Y0260209D01*
X0145025Y0260175D01*
X0145065Y0260137D01*
X0145103Y0260097D01*
X0145137Y0260053D01*
X0145169Y0260008D01*
X0145197Y0259960D01*
X0145222Y0259911D01*
X0145243Y0259860D01*
X0145261Y0259807D01*
X0145274Y0259754D01*
X0145284Y0259699D01*
X0145290Y0259644D01*
X0145292Y0259589D01*
X0145290Y0259534D01*
X0145284Y0259479D01*
X0145274Y0259424D01*
X0145261Y0259371D01*
X0145243Y0259318D01*
X0145222Y0259267D01*
X0145197Y0259218D01*
X0145169Y0259170D01*
X0145137Y0259125D01*
X0145103Y0259081D01*
X0145065Y0259041D01*
X0145025Y0259003D01*
X0144981Y0258969D01*
X0144936Y0258937D01*
X0144888Y0258909D01*
X0144839Y0258884D01*
X0144788Y0258863D01*
X0144735Y0258845D01*
X0144682Y0258832D01*
X0144627Y0258822D01*
X0144572Y0258816D01*
X0144517Y0258814D01*
X0144462Y0258816D01*
X0144407Y0258822D01*
X0144352Y0258832D01*
X0144299Y0258845D01*
X0144246Y0258863D01*
X0144195Y0258884D01*
X0144146Y0258909D01*
X0144098Y0258937D01*
X0144053Y0258969D01*
X0144009Y0259003D01*
X0143969Y0259041D01*
X0143931Y0259081D01*
X0143897Y0259125D01*
X0143865Y0259170D01*
X0143837Y0259218D01*
X0143812Y0259267D01*
X0143791Y0259318D01*
X0143773Y0259371D01*
X0143760Y0259424D01*
X0143750Y0259479D01*
X0143744Y0259534D01*
X0143742Y0259589D01*
X0100029Y0261534D02*
X0100029Y0256770D01*
X0089084Y0256770D01*
X0089084Y0261534D01*
X0100029Y0261534D01*
X0098742Y0260589D02*
X0098744Y0260644D01*
X0098750Y0260699D01*
X0098760Y0260754D01*
X0098773Y0260807D01*
X0098791Y0260860D01*
X0098812Y0260911D01*
X0098837Y0260960D01*
X0098865Y0261008D01*
X0098897Y0261053D01*
X0098931Y0261097D01*
X0098969Y0261137D01*
X0099009Y0261175D01*
X0099053Y0261209D01*
X0099098Y0261241D01*
X0099146Y0261269D01*
X0099195Y0261294D01*
X0099246Y0261315D01*
X0099299Y0261333D01*
X0099352Y0261346D01*
X0099407Y0261356D01*
X0099462Y0261362D01*
X0099517Y0261364D01*
X0099572Y0261362D01*
X0099627Y0261356D01*
X0099682Y0261346D01*
X0099735Y0261333D01*
X0099788Y0261315D01*
X0099839Y0261294D01*
X0099888Y0261269D01*
X0099936Y0261241D01*
X0099981Y0261209D01*
X0100025Y0261175D01*
X0100065Y0261137D01*
X0100103Y0261097D01*
X0100137Y0261053D01*
X0100169Y0261008D01*
X0100197Y0260960D01*
X0100222Y0260911D01*
X0100243Y0260860D01*
X0100261Y0260807D01*
X0100274Y0260754D01*
X0100284Y0260699D01*
X0100290Y0260644D01*
X0100292Y0260589D01*
X0100290Y0260534D01*
X0100284Y0260479D01*
X0100274Y0260424D01*
X0100261Y0260371D01*
X0100243Y0260318D01*
X0100222Y0260267D01*
X0100197Y0260218D01*
X0100169Y0260170D01*
X0100137Y0260125D01*
X0100103Y0260081D01*
X0100065Y0260041D01*
X0100025Y0260003D01*
X0099981Y0259969D01*
X0099936Y0259937D01*
X0099888Y0259909D01*
X0099839Y0259884D01*
X0099788Y0259863D01*
X0099735Y0259845D01*
X0099682Y0259832D01*
X0099627Y0259822D01*
X0099572Y0259816D01*
X0099517Y0259814D01*
X0099462Y0259816D01*
X0099407Y0259822D01*
X0099352Y0259832D01*
X0099299Y0259845D01*
X0099246Y0259863D01*
X0099195Y0259884D01*
X0099146Y0259909D01*
X0099098Y0259937D01*
X0099053Y0259969D01*
X0099009Y0260003D01*
X0098969Y0260041D01*
X0098931Y0260081D01*
X0098897Y0260125D01*
X0098865Y0260170D01*
X0098837Y0260218D01*
X0098812Y0260267D01*
X0098791Y0260318D01*
X0098773Y0260371D01*
X0098760Y0260424D01*
X0098750Y0260479D01*
X0098744Y0260534D01*
X0098742Y0260589D01*
X0067420Y0226384D02*
X0067420Y0212880D01*
X0054192Y0212880D01*
X0054192Y0226384D01*
X0067420Y0226384D01*
X0064555Y0213510D02*
X0064557Y0213576D01*
X0064563Y0213642D01*
X0064573Y0213707D01*
X0064587Y0213772D01*
X0064605Y0213835D01*
X0064626Y0213898D01*
X0064651Y0213959D01*
X0064680Y0214018D01*
X0064713Y0214076D01*
X0064749Y0214131D01*
X0064788Y0214185D01*
X0064830Y0214235D01*
X0064875Y0214284D01*
X0064924Y0214329D01*
X0064974Y0214371D01*
X0065028Y0214410D01*
X0065083Y0214446D01*
X0065141Y0214479D01*
X0065200Y0214508D01*
X0065261Y0214533D01*
X0065324Y0214554D01*
X0065387Y0214572D01*
X0065452Y0214586D01*
X0065517Y0214596D01*
X0065583Y0214602D01*
X0065649Y0214604D01*
X0065715Y0214602D01*
X0065781Y0214596D01*
X0065846Y0214586D01*
X0065911Y0214572D01*
X0065974Y0214554D01*
X0066037Y0214533D01*
X0066098Y0214508D01*
X0066157Y0214479D01*
X0066215Y0214446D01*
X0066270Y0214410D01*
X0066324Y0214371D01*
X0066374Y0214329D01*
X0066423Y0214284D01*
X0066468Y0214235D01*
X0066510Y0214185D01*
X0066549Y0214131D01*
X0066585Y0214076D01*
X0066618Y0214018D01*
X0066647Y0213959D01*
X0066672Y0213898D01*
X0066693Y0213835D01*
X0066711Y0213772D01*
X0066725Y0213707D01*
X0066735Y0213642D01*
X0066741Y0213576D01*
X0066743Y0213510D01*
X0066741Y0213444D01*
X0066735Y0213378D01*
X0066725Y0213313D01*
X0066711Y0213248D01*
X0066693Y0213185D01*
X0066672Y0213122D01*
X0066647Y0213061D01*
X0066618Y0213002D01*
X0066585Y0212944D01*
X0066549Y0212889D01*
X0066510Y0212835D01*
X0066468Y0212785D01*
X0066423Y0212736D01*
X0066374Y0212691D01*
X0066324Y0212649D01*
X0066270Y0212610D01*
X0066215Y0212574D01*
X0066157Y0212541D01*
X0066098Y0212512D01*
X0066037Y0212487D01*
X0065974Y0212466D01*
X0065911Y0212448D01*
X0065846Y0212434D01*
X0065781Y0212424D01*
X0065715Y0212418D01*
X0065649Y0212416D01*
X0065583Y0212418D01*
X0065517Y0212424D01*
X0065452Y0212434D01*
X0065387Y0212448D01*
X0065324Y0212466D01*
X0065261Y0212487D01*
X0065200Y0212512D01*
X0065141Y0212541D01*
X0065083Y0212574D01*
X0065028Y0212610D01*
X0064974Y0212649D01*
X0064924Y0212691D01*
X0064875Y0212736D01*
X0064830Y0212785D01*
X0064788Y0212835D01*
X0064749Y0212889D01*
X0064713Y0212944D01*
X0064680Y0213002D01*
X0064651Y0213061D01*
X0064626Y0213122D01*
X0064605Y0213185D01*
X0064587Y0213248D01*
X0064573Y0213313D01*
X0064563Y0213378D01*
X0064557Y0213444D01*
X0064555Y0213510D01*
X0046015Y0094322D02*
X0042472Y0094322D01*
X0046015Y0094322D02*
X0046015Y0045503D01*
X0042472Y0045503D01*
X0030661Y0045503D02*
X0027118Y0045503D01*
X0027118Y0094322D01*
X0030661Y0094322D01*
X0132467Y0039513D02*
X0132467Y0021913D01*
X0158467Y0021913D01*
X0158467Y0039513D01*
X0132467Y0039513D01*
X0140467Y0021513D02*
X0140467Y0016513D01*
X0150467Y0016513D01*
X0150467Y0021513D01*
X0257283Y0090651D02*
X0262047Y0090651D01*
X0262086Y0090651D02*
X0262086Y0098053D01*
X0257283Y0098053D01*
X0257283Y0090651D01*
X0261636Y0089746D02*
X0261638Y0089800D01*
X0261644Y0089853D01*
X0261654Y0089906D01*
X0261668Y0089958D01*
X0261685Y0090008D01*
X0261706Y0090058D01*
X0261731Y0090105D01*
X0261759Y0090151D01*
X0261791Y0090194D01*
X0261825Y0090235D01*
X0261863Y0090273D01*
X0261903Y0090309D01*
X0261946Y0090341D01*
X0261991Y0090370D01*
X0262038Y0090396D01*
X0262087Y0090418D01*
X0262138Y0090436D01*
X0262189Y0090451D01*
X0262242Y0090462D01*
X0262295Y0090469D01*
X0262349Y0090472D01*
X0262402Y0090471D01*
X0262456Y0090466D01*
X0262509Y0090457D01*
X0262561Y0090444D01*
X0262612Y0090428D01*
X0262661Y0090407D01*
X0262709Y0090383D01*
X0262756Y0090356D01*
X0262800Y0090325D01*
X0262841Y0090291D01*
X0262880Y0090255D01*
X0262916Y0090215D01*
X0262949Y0090173D01*
X0262979Y0090128D01*
X0263006Y0090082D01*
X0263029Y0090033D01*
X0263048Y0089983D01*
X0263064Y0089932D01*
X0263076Y0089879D01*
X0263084Y0089826D01*
X0263088Y0089773D01*
X0263088Y0089719D01*
X0263084Y0089666D01*
X0263076Y0089613D01*
X0263064Y0089560D01*
X0263048Y0089509D01*
X0263029Y0089459D01*
X0263006Y0089410D01*
X0262979Y0089364D01*
X0262949Y0089319D01*
X0262916Y0089277D01*
X0262880Y0089237D01*
X0262841Y0089201D01*
X0262800Y0089167D01*
X0262756Y0089136D01*
X0262709Y0089109D01*
X0262661Y0089085D01*
X0262612Y0089064D01*
X0262561Y0089048D01*
X0262509Y0089035D01*
X0262456Y0089026D01*
X0262402Y0089021D01*
X0262349Y0089020D01*
X0262295Y0089023D01*
X0262242Y0089030D01*
X0262189Y0089041D01*
X0262138Y0089056D01*
X0262087Y0089074D01*
X0262038Y0089096D01*
X0261991Y0089122D01*
X0261946Y0089151D01*
X0261903Y0089183D01*
X0261863Y0089219D01*
X0261825Y0089257D01*
X0261791Y0089298D01*
X0261759Y0089341D01*
X0261731Y0089387D01*
X0261706Y0089434D01*
X0261685Y0089484D01*
X0261668Y0089534D01*
X0261654Y0089586D01*
X0261644Y0089639D01*
X0261638Y0089692D01*
X0261636Y0089746D01*
X0248904Y0127635D02*
X0233471Y0127635D01*
X0233471Y0143108D01*
X0248904Y0143108D01*
X0248904Y0127635D01*
X0251744Y0129980D02*
X0251746Y0130056D01*
X0251752Y0130131D01*
X0251762Y0130206D01*
X0251776Y0130280D01*
X0251794Y0130354D01*
X0251815Y0130426D01*
X0251841Y0130498D01*
X0251870Y0130567D01*
X0251903Y0130636D01*
X0251939Y0130702D01*
X0251979Y0130766D01*
X0252022Y0130828D01*
X0252069Y0130888D01*
X0252118Y0130945D01*
X0252170Y0131000D01*
X0252226Y0131052D01*
X0252284Y0131100D01*
X0252344Y0131146D01*
X0252407Y0131188D01*
X0252471Y0131227D01*
X0252538Y0131263D01*
X0252607Y0131295D01*
X0252677Y0131323D01*
X0252749Y0131347D01*
X0252821Y0131368D01*
X0252895Y0131385D01*
X0252970Y0131398D01*
X0253045Y0131407D01*
X0253120Y0131412D01*
X0253196Y0131413D01*
X0253272Y0131410D01*
X0253347Y0131403D01*
X0253422Y0131392D01*
X0253496Y0131377D01*
X0253569Y0131358D01*
X0253641Y0131336D01*
X0253712Y0131309D01*
X0253782Y0131279D01*
X0253849Y0131245D01*
X0253915Y0131208D01*
X0253979Y0131168D01*
X0254041Y0131124D01*
X0254100Y0131076D01*
X0254156Y0131026D01*
X0254210Y0130973D01*
X0254261Y0130917D01*
X0254309Y0130859D01*
X0254354Y0130798D01*
X0254395Y0130734D01*
X0254433Y0130669D01*
X0254468Y0130602D01*
X0254499Y0130533D01*
X0254526Y0130462D01*
X0254550Y0130390D01*
X0254570Y0130317D01*
X0254586Y0130243D01*
X0254598Y0130169D01*
X0254606Y0130093D01*
X0254610Y0130018D01*
X0254610Y0129942D01*
X0254606Y0129867D01*
X0254598Y0129791D01*
X0254586Y0129717D01*
X0254570Y0129643D01*
X0254550Y0129570D01*
X0254526Y0129498D01*
X0254499Y0129427D01*
X0254468Y0129358D01*
X0254433Y0129291D01*
X0254395Y0129226D01*
X0254354Y0129162D01*
X0254309Y0129101D01*
X0254261Y0129043D01*
X0254210Y0128987D01*
X0254156Y0128934D01*
X0254100Y0128884D01*
X0254041Y0128836D01*
X0253979Y0128792D01*
X0253915Y0128752D01*
X0253849Y0128715D01*
X0253782Y0128681D01*
X0253712Y0128651D01*
X0253641Y0128624D01*
X0253569Y0128602D01*
X0253496Y0128583D01*
X0253422Y0128568D01*
X0253347Y0128557D01*
X0253272Y0128550D01*
X0253196Y0128547D01*
X0253120Y0128548D01*
X0253045Y0128553D01*
X0252970Y0128562D01*
X0252895Y0128575D01*
X0252821Y0128592D01*
X0252749Y0128613D01*
X0252677Y0128637D01*
X0252607Y0128665D01*
X0252538Y0128697D01*
X0252471Y0128733D01*
X0252407Y0128772D01*
X0252344Y0128814D01*
X0252284Y0128860D01*
X0252226Y0128908D01*
X0252170Y0128960D01*
X0252118Y0129015D01*
X0252069Y0129072D01*
X0252022Y0129132D01*
X0251979Y0129194D01*
X0251939Y0129258D01*
X0251903Y0129324D01*
X0251870Y0129393D01*
X0251841Y0129462D01*
X0251815Y0129534D01*
X0251794Y0129606D01*
X0251776Y0129680D01*
X0251762Y0129754D01*
X0251752Y0129829D01*
X0251746Y0129904D01*
X0251744Y0129980D01*
X0254161Y0129507D02*
X0265972Y0129507D01*
X0265972Y0141318D01*
X0254161Y0141318D01*
X0254161Y0129507D01*
X0247315Y0174248D02*
X0242237Y0174248D01*
X0242197Y0174248D01*
X0242158Y0174248D01*
X0242158Y0183539D01*
X0247315Y0183539D01*
X0247315Y0174248D01*
X0245064Y0175547D02*
X0245066Y0175606D01*
X0245072Y0175665D01*
X0245082Y0175723D01*
X0245096Y0175780D01*
X0245113Y0175837D01*
X0245135Y0175892D01*
X0245160Y0175945D01*
X0245189Y0175997D01*
X0245221Y0176046D01*
X0245256Y0176094D01*
X0245294Y0176138D01*
X0245336Y0176180D01*
X0245380Y0176220D01*
X0245427Y0176256D01*
X0245476Y0176289D01*
X0245527Y0176318D01*
X0245580Y0176344D01*
X0245634Y0176367D01*
X0245690Y0176385D01*
X0245748Y0176400D01*
X0245806Y0176411D01*
X0245864Y0176418D01*
X0245923Y0176421D01*
X0245982Y0176420D01*
X0246041Y0176415D01*
X0246099Y0176406D01*
X0246157Y0176393D01*
X0246214Y0176376D01*
X0246269Y0176356D01*
X0246323Y0176332D01*
X0246375Y0176304D01*
X0246425Y0176273D01*
X0246473Y0176238D01*
X0246518Y0176200D01*
X0246561Y0176160D01*
X0246601Y0176116D01*
X0246638Y0176070D01*
X0246672Y0176022D01*
X0246702Y0175971D01*
X0246729Y0175919D01*
X0246752Y0175864D01*
X0246772Y0175809D01*
X0246788Y0175752D01*
X0246800Y0175694D01*
X0246808Y0175635D01*
X0246812Y0175577D01*
X0246812Y0175517D01*
X0246808Y0175459D01*
X0246800Y0175400D01*
X0246788Y0175342D01*
X0246772Y0175285D01*
X0246752Y0175230D01*
X0246729Y0175175D01*
X0246702Y0175123D01*
X0246672Y0175072D01*
X0246638Y0175024D01*
X0246601Y0174978D01*
X0246561Y0174934D01*
X0246518Y0174894D01*
X0246473Y0174856D01*
X0246425Y0174821D01*
X0246375Y0174790D01*
X0246323Y0174762D01*
X0246269Y0174738D01*
X0246214Y0174718D01*
X0246157Y0174701D01*
X0246099Y0174688D01*
X0246041Y0174679D01*
X0245982Y0174674D01*
X0245923Y0174673D01*
X0245864Y0174676D01*
X0245806Y0174683D01*
X0245748Y0174694D01*
X0245690Y0174709D01*
X0245634Y0174727D01*
X0245580Y0174750D01*
X0245527Y0174776D01*
X0245476Y0174805D01*
X0245427Y0174838D01*
X0245380Y0174874D01*
X0245336Y0174914D01*
X0245294Y0174956D01*
X0245256Y0175000D01*
X0245221Y0175048D01*
X0245189Y0175097D01*
X0245160Y0175149D01*
X0245135Y0175202D01*
X0245113Y0175257D01*
X0245096Y0175314D01*
X0245082Y0175371D01*
X0245072Y0175429D01*
X0245066Y0175488D01*
X0245064Y0175547D01*
X0289506Y0186437D02*
X0289506Y0191791D01*
X0299152Y0191791D01*
X0299152Y0186437D01*
X0289506Y0186437D01*
X0290056Y0187854D02*
X0290058Y0187902D01*
X0290064Y0187950D01*
X0290074Y0187997D01*
X0290087Y0188044D01*
X0290105Y0188089D01*
X0290126Y0188132D01*
X0290150Y0188174D01*
X0290178Y0188214D01*
X0290209Y0188251D01*
X0290242Y0188285D01*
X0290279Y0188317D01*
X0290318Y0188345D01*
X0290359Y0188371D01*
X0290402Y0188393D01*
X0290447Y0188411D01*
X0290493Y0188425D01*
X0290540Y0188436D01*
X0290588Y0188443D01*
X0290636Y0188446D01*
X0290684Y0188445D01*
X0290732Y0188440D01*
X0290780Y0188431D01*
X0290826Y0188418D01*
X0290872Y0188402D01*
X0290916Y0188382D01*
X0290958Y0188358D01*
X0290998Y0188332D01*
X0291036Y0188301D01*
X0291071Y0188268D01*
X0291103Y0188232D01*
X0291133Y0188194D01*
X0291159Y0188153D01*
X0291181Y0188111D01*
X0291201Y0188067D01*
X0291216Y0188021D01*
X0291228Y0187974D01*
X0291236Y0187926D01*
X0291240Y0187878D01*
X0291240Y0187830D01*
X0291236Y0187782D01*
X0291228Y0187734D01*
X0291216Y0187687D01*
X0291201Y0187641D01*
X0291181Y0187597D01*
X0291159Y0187555D01*
X0291133Y0187514D01*
X0291103Y0187476D01*
X0291071Y0187440D01*
X0291036Y0187407D01*
X0290998Y0187376D01*
X0290958Y0187350D01*
X0290916Y0187326D01*
X0290872Y0187306D01*
X0290826Y0187290D01*
X0290780Y0187277D01*
X0290732Y0187268D01*
X0290684Y0187263D01*
X0290636Y0187262D01*
X0290588Y0187265D01*
X0290540Y0187272D01*
X0290493Y0187283D01*
X0290447Y0187297D01*
X0290402Y0187315D01*
X0290359Y0187337D01*
X0290318Y0187363D01*
X0290279Y0187391D01*
X0290242Y0187423D01*
X0290209Y0187457D01*
X0290178Y0187494D01*
X0290150Y0187534D01*
X0290126Y0187576D01*
X0290105Y0187619D01*
X0290087Y0187664D01*
X0290074Y0187711D01*
X0290064Y0187758D01*
X0290058Y0187806D01*
X0290056Y0187854D01*
X0251017Y0259763D02*
X0251017Y0261798D01*
X0251017Y0260780D02*
X0244911Y0260780D01*
X0244911Y0259763D02*
X0244911Y0261798D01*
X0245929Y0263814D02*
X0246947Y0263814D01*
X0247964Y0264832D01*
X0247964Y0266867D01*
X0248982Y0267884D01*
X0249999Y0267884D01*
X0251017Y0266867D01*
X0251017Y0264832D01*
X0249999Y0263814D01*
X0245929Y0263814D02*
X0244911Y0264832D01*
X0244911Y0266867D01*
X0245929Y0267884D01*
X0244911Y0269891D02*
X0244911Y0272944D01*
X0245929Y0273961D01*
X0247964Y0273961D01*
X0248982Y0272944D01*
X0248982Y0269891D01*
X0251017Y0269891D02*
X0244911Y0269891D01*
X0359702Y0088742D02*
X0359702Y0054883D01*
X0376631Y0054883D01*
X0376631Y0088742D01*
X0359702Y0088742D01*
D13*
X0359335Y0138763D02*
X0356866Y0138763D01*
X0356866Y0142466D01*
X0359335Y0142466D01*
X0360549Y0142466D02*
X0363018Y0142466D01*
X0361784Y0142466D02*
X0361784Y0138763D01*
X0358100Y0140614D02*
X0356866Y0140614D01*
X0355652Y0139997D02*
X0355652Y0139380D01*
X0355035Y0138763D01*
X0353800Y0138763D01*
X0353183Y0139380D01*
X0351969Y0138763D02*
X0349500Y0138763D01*
X0349500Y0142466D01*
X0351969Y0142466D01*
X0353183Y0141849D02*
X0353183Y0141231D01*
X0353800Y0140614D01*
X0355035Y0140614D01*
X0355652Y0139997D01*
X0355652Y0141849D02*
X0355035Y0142466D01*
X0353800Y0142466D01*
X0353183Y0141849D01*
X0350734Y0140614D02*
X0349500Y0140614D01*
X0348285Y0140614D02*
X0347668Y0139997D01*
X0345817Y0139997D01*
X0347051Y0139997D02*
X0348285Y0138763D01*
X0348285Y0140614D02*
X0348285Y0141849D01*
X0347668Y0142466D01*
X0345817Y0142466D01*
X0345817Y0138763D01*
X0179917Y0050215D02*
X0176213Y0047746D01*
X0176213Y0046531D02*
X0176213Y0044063D01*
X0176213Y0045297D02*
X0179917Y0045297D01*
X0179917Y0047746D02*
X0176213Y0050215D01*
X0157177Y0049665D02*
X0155242Y0049665D01*
X0156210Y0049665D02*
X0156210Y0046763D01*
X0154231Y0047246D02*
X0153747Y0046763D01*
X0152780Y0046763D01*
X0152296Y0047246D01*
X0152780Y0048214D02*
X0153747Y0048214D01*
X0154231Y0047730D01*
X0154231Y0047246D01*
X0152780Y0048214D02*
X0152296Y0048698D01*
X0152296Y0049181D01*
X0152780Y0049665D01*
X0153747Y0049665D01*
X0154231Y0049181D01*
X0151284Y0048698D02*
X0151284Y0046763D01*
X0151284Y0048214D02*
X0149349Y0048214D01*
X0149349Y0048698D02*
X0150317Y0049665D01*
X0151284Y0048698D01*
X0149349Y0048698D02*
X0149349Y0046763D01*
X0148338Y0046763D02*
X0147370Y0047730D01*
X0147854Y0047730D02*
X0146403Y0047730D01*
X0146403Y0046763D02*
X0146403Y0049665D01*
X0147854Y0049665D01*
X0148338Y0049181D01*
X0148338Y0048214D01*
X0147854Y0047730D01*
X0145391Y0049665D02*
X0143456Y0049665D01*
X0144424Y0049665D02*
X0144424Y0046763D01*
X0142445Y0046763D02*
X0142445Y0049665D01*
X0140510Y0049665D02*
X0140510Y0046763D01*
X0139498Y0047246D02*
X0139498Y0049181D01*
X0139014Y0049665D01*
X0138047Y0049665D01*
X0137563Y0049181D01*
X0137563Y0047246D01*
X0138047Y0046763D01*
X0139014Y0046763D01*
X0139498Y0047246D01*
X0140510Y0049665D02*
X0142445Y0046763D01*
X0136552Y0047246D02*
X0136068Y0046763D01*
X0135100Y0046763D01*
X0134617Y0047246D01*
X0134617Y0049181D01*
X0135100Y0049665D01*
X0136068Y0049665D01*
X0136552Y0049181D01*
X0176213Y0028315D02*
X0179917Y0025846D01*
X0179917Y0024631D02*
X0178682Y0023397D01*
X0178682Y0024014D02*
X0178682Y0022163D01*
X0179917Y0022163D02*
X0176213Y0022163D01*
X0176213Y0024014D01*
X0176831Y0024631D01*
X0178065Y0024631D01*
X0178682Y0024014D01*
X0176213Y0025846D02*
X0179917Y0028315D01*
X0094302Y0037063D02*
X0093068Y0038297D01*
X0093685Y0038297D02*
X0091833Y0038297D01*
X0091833Y0037063D02*
X0091833Y0040766D01*
X0093685Y0040766D01*
X0094302Y0040149D01*
X0094302Y0038914D01*
X0093685Y0038297D01*
X0090619Y0037063D02*
X0088150Y0037063D01*
X0088150Y0040766D01*
X0090619Y0040766D01*
X0089385Y0038914D02*
X0088150Y0038914D01*
X0086936Y0037680D02*
X0086936Y0040149D01*
X0086319Y0040766D01*
X0084467Y0040766D01*
X0084467Y0037063D01*
X0086319Y0037063D01*
X0086936Y0037680D01*
X0083253Y0037063D02*
X0083253Y0039531D01*
X0082018Y0040766D01*
X0080784Y0039531D01*
X0080784Y0037063D01*
X0079570Y0037063D02*
X0077101Y0037063D01*
X0077101Y0040766D01*
X0079570Y0040766D01*
X0080784Y0038914D02*
X0083253Y0038914D01*
X0078335Y0038914D02*
X0077101Y0038914D01*
X0075887Y0038914D02*
X0073418Y0038914D01*
X0073418Y0037063D02*
X0073418Y0040766D01*
X0075887Y0040766D02*
X0075887Y0037063D01*
X0068520Y0037680D02*
X0068520Y0040149D01*
X0067903Y0040766D01*
X0066051Y0040766D01*
X0066051Y0037063D01*
X0067903Y0037063D01*
X0068520Y0037680D01*
X0064837Y0037680D02*
X0064220Y0037063D01*
X0062986Y0037063D01*
X0062368Y0037680D01*
X0062368Y0040149D01*
X0062986Y0040766D01*
X0064220Y0040766D01*
X0064837Y0040149D01*
X0061154Y0037063D02*
X0058685Y0037063D01*
X0058685Y0040766D01*
D14*
X0012761Y0025613D02*
X0012763Y0025766D01*
X0012769Y0025920D01*
X0012779Y0026073D01*
X0012793Y0026225D01*
X0012811Y0026378D01*
X0012833Y0026529D01*
X0012858Y0026680D01*
X0012888Y0026831D01*
X0012922Y0026981D01*
X0012959Y0027129D01*
X0013000Y0027277D01*
X0013045Y0027423D01*
X0013094Y0027569D01*
X0013147Y0027713D01*
X0013203Y0027855D01*
X0013263Y0027996D01*
X0013327Y0028136D01*
X0013394Y0028274D01*
X0013465Y0028410D01*
X0013540Y0028544D01*
X0013617Y0028676D01*
X0013699Y0028806D01*
X0013783Y0028934D01*
X0013871Y0029060D01*
X0013962Y0029183D01*
X0014056Y0029304D01*
X0014154Y0029422D01*
X0014254Y0029538D01*
X0014358Y0029651D01*
X0014464Y0029762D01*
X0014573Y0029870D01*
X0014685Y0029975D01*
X0014799Y0030076D01*
X0014917Y0030175D01*
X0015036Y0030271D01*
X0015158Y0030364D01*
X0015283Y0030453D01*
X0015410Y0030540D01*
X0015539Y0030622D01*
X0015670Y0030702D01*
X0015803Y0030778D01*
X0015938Y0030851D01*
X0016075Y0030920D01*
X0016214Y0030985D01*
X0016354Y0031047D01*
X0016496Y0031105D01*
X0016639Y0031160D01*
X0016784Y0031211D01*
X0016930Y0031258D01*
X0017077Y0031301D01*
X0017225Y0031340D01*
X0017374Y0031376D01*
X0017524Y0031407D01*
X0017675Y0031435D01*
X0017826Y0031459D01*
X0017979Y0031479D01*
X0018131Y0031495D01*
X0018284Y0031507D01*
X0018437Y0031515D01*
X0018590Y0031519D01*
X0018744Y0031519D01*
X0018897Y0031515D01*
X0019050Y0031507D01*
X0019203Y0031495D01*
X0019355Y0031479D01*
X0019508Y0031459D01*
X0019659Y0031435D01*
X0019810Y0031407D01*
X0019960Y0031376D01*
X0020109Y0031340D01*
X0020257Y0031301D01*
X0020404Y0031258D01*
X0020550Y0031211D01*
X0020695Y0031160D01*
X0020838Y0031105D01*
X0020980Y0031047D01*
X0021120Y0030985D01*
X0021259Y0030920D01*
X0021396Y0030851D01*
X0021531Y0030778D01*
X0021664Y0030702D01*
X0021795Y0030622D01*
X0021924Y0030540D01*
X0022051Y0030453D01*
X0022176Y0030364D01*
X0022298Y0030271D01*
X0022417Y0030175D01*
X0022535Y0030076D01*
X0022649Y0029975D01*
X0022761Y0029870D01*
X0022870Y0029762D01*
X0022976Y0029651D01*
X0023080Y0029538D01*
X0023180Y0029422D01*
X0023278Y0029304D01*
X0023372Y0029183D01*
X0023463Y0029060D01*
X0023551Y0028934D01*
X0023635Y0028806D01*
X0023717Y0028676D01*
X0023794Y0028544D01*
X0023869Y0028410D01*
X0023940Y0028274D01*
X0024007Y0028136D01*
X0024071Y0027996D01*
X0024131Y0027855D01*
X0024187Y0027713D01*
X0024240Y0027569D01*
X0024289Y0027423D01*
X0024334Y0027277D01*
X0024375Y0027129D01*
X0024412Y0026981D01*
X0024446Y0026831D01*
X0024476Y0026680D01*
X0024501Y0026529D01*
X0024523Y0026378D01*
X0024541Y0026225D01*
X0024555Y0026073D01*
X0024565Y0025920D01*
X0024571Y0025766D01*
X0024573Y0025613D01*
X0024571Y0025460D01*
X0024565Y0025306D01*
X0024555Y0025153D01*
X0024541Y0025001D01*
X0024523Y0024848D01*
X0024501Y0024697D01*
X0024476Y0024546D01*
X0024446Y0024395D01*
X0024412Y0024245D01*
X0024375Y0024097D01*
X0024334Y0023949D01*
X0024289Y0023803D01*
X0024240Y0023657D01*
X0024187Y0023513D01*
X0024131Y0023371D01*
X0024071Y0023230D01*
X0024007Y0023090D01*
X0023940Y0022952D01*
X0023869Y0022816D01*
X0023794Y0022682D01*
X0023717Y0022550D01*
X0023635Y0022420D01*
X0023551Y0022292D01*
X0023463Y0022166D01*
X0023372Y0022043D01*
X0023278Y0021922D01*
X0023180Y0021804D01*
X0023080Y0021688D01*
X0022976Y0021575D01*
X0022870Y0021464D01*
X0022761Y0021356D01*
X0022649Y0021251D01*
X0022535Y0021150D01*
X0022417Y0021051D01*
X0022298Y0020955D01*
X0022176Y0020862D01*
X0022051Y0020773D01*
X0021924Y0020686D01*
X0021795Y0020604D01*
X0021664Y0020524D01*
X0021531Y0020448D01*
X0021396Y0020375D01*
X0021259Y0020306D01*
X0021120Y0020241D01*
X0020980Y0020179D01*
X0020838Y0020121D01*
X0020695Y0020066D01*
X0020550Y0020015D01*
X0020404Y0019968D01*
X0020257Y0019925D01*
X0020109Y0019886D01*
X0019960Y0019850D01*
X0019810Y0019819D01*
X0019659Y0019791D01*
X0019508Y0019767D01*
X0019355Y0019747D01*
X0019203Y0019731D01*
X0019050Y0019719D01*
X0018897Y0019711D01*
X0018744Y0019707D01*
X0018590Y0019707D01*
X0018437Y0019711D01*
X0018284Y0019719D01*
X0018131Y0019731D01*
X0017979Y0019747D01*
X0017826Y0019767D01*
X0017675Y0019791D01*
X0017524Y0019819D01*
X0017374Y0019850D01*
X0017225Y0019886D01*
X0017077Y0019925D01*
X0016930Y0019968D01*
X0016784Y0020015D01*
X0016639Y0020066D01*
X0016496Y0020121D01*
X0016354Y0020179D01*
X0016214Y0020241D01*
X0016075Y0020306D01*
X0015938Y0020375D01*
X0015803Y0020448D01*
X0015670Y0020524D01*
X0015539Y0020604D01*
X0015410Y0020686D01*
X0015283Y0020773D01*
X0015158Y0020862D01*
X0015036Y0020955D01*
X0014917Y0021051D01*
X0014799Y0021150D01*
X0014685Y0021251D01*
X0014573Y0021356D01*
X0014464Y0021464D01*
X0014358Y0021575D01*
X0014254Y0021688D01*
X0014154Y0021804D01*
X0014056Y0021922D01*
X0013962Y0022043D01*
X0013871Y0022166D01*
X0013783Y0022292D01*
X0013699Y0022420D01*
X0013617Y0022550D01*
X0013540Y0022682D01*
X0013465Y0022816D01*
X0013394Y0022952D01*
X0013327Y0023090D01*
X0013263Y0023230D01*
X0013203Y0023371D01*
X0013147Y0023513D01*
X0013094Y0023657D01*
X0013045Y0023803D01*
X0013000Y0023949D01*
X0012959Y0024097D01*
X0012922Y0024245D01*
X0012888Y0024395D01*
X0012858Y0024546D01*
X0012833Y0024697D01*
X0012811Y0024848D01*
X0012793Y0025001D01*
X0012779Y0025153D01*
X0012769Y0025306D01*
X0012763Y0025460D01*
X0012761Y0025613D01*
X0016604Y0045164D02*
X0008730Y0045164D01*
X0008730Y0050676D01*
X0009911Y0053431D02*
X0012667Y0053431D01*
X0010304Y0055794D01*
X0015029Y0055794D01*
X0012667Y0053431D01*
X0015423Y0053431D01*
X0016604Y0050676D02*
X0016604Y0045164D01*
X0016604Y0058550D02*
X0016604Y0064061D01*
X0008730Y0064061D01*
X0008730Y0058550D01*
X0044630Y0037961D02*
X0044630Y0032450D01*
X0046204Y0029694D02*
X0048567Y0027331D01*
X0050929Y0029694D01*
X0046204Y0029694D01*
X0045811Y0027331D02*
X0048567Y0027331D01*
X0051323Y0027331D01*
X0052504Y0024576D02*
X0052504Y0019064D01*
X0044630Y0019064D01*
X0044630Y0024576D01*
X0052504Y0032450D02*
X0052504Y0037961D01*
X0044630Y0037961D01*
X0016604Y0094164D02*
X0008730Y0094164D01*
X0008730Y0099676D01*
X0009911Y0102431D02*
X0012667Y0102431D01*
X0010304Y0104794D01*
X0015029Y0104794D01*
X0012667Y0102431D01*
X0015423Y0102431D01*
X0016604Y0099676D02*
X0016604Y0094164D01*
X0016604Y0107550D02*
X0016604Y0113061D01*
X0008730Y0113061D01*
X0008730Y0107550D01*
X0011167Y0128613D02*
X0016167Y0128613D01*
X0018667Y0131113D01*
X0018667Y0136113D01*
X0016167Y0138613D01*
X0018667Y0141113D01*
X0018667Y0146113D01*
X0016167Y0148613D01*
X0018667Y0151113D01*
X0018667Y0156113D01*
X0016167Y0158613D01*
X0011167Y0158613D01*
X0008667Y0156113D01*
X0008667Y0151113D01*
X0011167Y0148613D01*
X0008667Y0146113D01*
X0008667Y0141113D01*
X0011167Y0138613D01*
X0008667Y0136113D01*
X0008667Y0131113D01*
X0011167Y0128613D01*
X0117767Y0185113D02*
X0117767Y0190113D01*
X0120267Y0192613D01*
X0117767Y0195113D01*
X0117767Y0200113D01*
X0120267Y0202613D01*
X0117767Y0205113D01*
X0117767Y0210113D01*
X0120267Y0212613D01*
X0117767Y0215113D01*
X0117767Y0220113D01*
X0120267Y0222613D01*
X0117767Y0225113D01*
X0117767Y0230113D01*
X0120267Y0232613D01*
X0117767Y0235113D01*
X0117767Y0240113D01*
X0120267Y0242613D01*
X0125267Y0242613D01*
X0127767Y0240113D01*
X0127767Y0235113D01*
X0125267Y0232613D01*
X0127767Y0230113D01*
X0127767Y0225113D01*
X0125267Y0222613D01*
X0127767Y0220113D01*
X0127767Y0215113D01*
X0125267Y0212613D01*
X0127767Y0210113D01*
X0127767Y0205113D01*
X0125267Y0202613D01*
X0127767Y0200113D01*
X0127767Y0195113D01*
X0125267Y0192613D01*
X0127767Y0190113D01*
X0127767Y0185113D01*
X0125267Y0182613D01*
X0120267Y0182613D01*
X0117767Y0185113D01*
X0130667Y0187313D02*
X0130667Y0182313D01*
X0133167Y0179813D01*
X0130667Y0177313D01*
X0130667Y0172313D01*
X0133167Y0169813D01*
X0138167Y0169813D01*
X0140667Y0172313D01*
X0140667Y0177313D01*
X0138167Y0179813D01*
X0140667Y0182313D01*
X0140667Y0187313D01*
X0138167Y0189813D01*
X0133167Y0189813D01*
X0130667Y0187313D01*
X0142873Y0191301D02*
X0146023Y0191301D01*
X0146023Y0193663D01*
X0146023Y0199962D02*
X0146023Y0202324D01*
X0142873Y0202324D01*
X0143873Y0204501D02*
X0147023Y0204501D01*
X0147023Y0206863D01*
X0147023Y0213162D02*
X0147023Y0215524D01*
X0143873Y0215524D01*
X0143873Y0216701D02*
X0147023Y0216701D01*
X0147023Y0219063D01*
X0147023Y0225362D02*
X0147023Y0227724D01*
X0143873Y0227724D01*
X0151855Y0231157D02*
X0151855Y0234306D01*
X0151855Y0231157D02*
X0154217Y0231157D01*
X0160516Y0231157D02*
X0162878Y0231157D01*
X0162878Y0234306D01*
X0173667Y0233113D02*
X0173667Y0228113D01*
X0176167Y0225613D01*
X0173667Y0223113D01*
X0173667Y0218113D01*
X0176167Y0215613D01*
X0173667Y0213113D01*
X0173667Y0208113D01*
X0176167Y0205613D01*
X0173667Y0203113D01*
X0173667Y0198113D01*
X0176167Y0195613D01*
X0173667Y0193113D01*
X0173667Y0188113D01*
X0176167Y0185613D01*
X0181167Y0185613D01*
X0183667Y0188113D01*
X0183667Y0193113D01*
X0181167Y0195613D01*
X0183667Y0198113D01*
X0183667Y0203113D01*
X0181167Y0205613D01*
X0183667Y0208113D01*
X0183667Y0213113D01*
X0181167Y0215613D01*
X0183667Y0218113D01*
X0183667Y0223113D01*
X0181167Y0225613D01*
X0183667Y0228113D01*
X0183667Y0233113D01*
X0181167Y0235613D01*
X0183667Y0238113D01*
X0183667Y0243113D01*
X0181167Y0245613D01*
X0183667Y0248113D01*
X0183667Y0253113D01*
X0181167Y0255613D01*
X0183667Y0258113D01*
X0183667Y0263113D01*
X0181167Y0265613D01*
X0176167Y0265613D01*
X0173667Y0263113D01*
X0173667Y0258113D01*
X0176167Y0255613D01*
X0173667Y0253113D01*
X0173667Y0248113D01*
X0176167Y0245613D01*
X0173667Y0243113D01*
X0173667Y0238113D01*
X0176167Y0235613D01*
X0173667Y0233113D01*
X0217911Y0233463D02*
X0217911Y0231101D01*
X0221060Y0231101D01*
X0221060Y0229124D02*
X0217911Y0229124D01*
X0217911Y0226762D01*
X0217911Y0220463D02*
X0217911Y0218101D01*
X0221060Y0218101D01*
X0217911Y0239762D02*
X0217911Y0242124D01*
X0221060Y0242124D01*
X0221060Y0244101D02*
X0217911Y0244101D01*
X0217911Y0246463D01*
X0217911Y0252762D02*
X0217911Y0255124D01*
X0221060Y0255124D01*
X0221060Y0257101D02*
X0217911Y0257101D01*
X0217911Y0259463D01*
X0217911Y0265762D02*
X0217911Y0268124D01*
X0221060Y0268124D01*
X0218867Y0285294D02*
X0213867Y0285294D01*
X0213867Y0286613D02*
X0218867Y0286613D01*
X0221367Y0289113D01*
X0221367Y0304113D01*
X0223867Y0306613D01*
X0228867Y0306613D01*
X0231367Y0304113D01*
X0231367Y0289113D01*
X0233867Y0286613D01*
X0238867Y0286613D01*
X0241367Y0289113D01*
X0241367Y0304113D01*
X0238867Y0306613D01*
X0233867Y0306613D01*
X0231367Y0304113D01*
X0221367Y0304113D02*
X0218867Y0306613D01*
X0213867Y0306613D01*
X0211367Y0304113D01*
X0211367Y0289113D01*
X0213867Y0286613D01*
X0221367Y0289113D02*
X0223867Y0286613D01*
X0228867Y0286613D01*
X0231367Y0289113D01*
X0250667Y0288613D02*
X0250667Y0296660D01*
X0254167Y0304613D02*
X0271167Y0304613D01*
X0274667Y0296542D02*
X0274667Y0288613D01*
X0271167Y0280613D02*
X0254167Y0280613D01*
X0256167Y0275613D02*
X0261167Y0275613D01*
X0263667Y0273113D01*
X0263667Y0258113D01*
X0266167Y0255613D01*
X0271167Y0255613D01*
X0273667Y0258113D01*
X0273667Y0273113D01*
X0276167Y0275613D01*
X0281167Y0275613D01*
X0283667Y0273113D01*
X0283667Y0258113D01*
X0281167Y0255613D01*
X0276167Y0255613D01*
X0273667Y0258113D01*
X0263667Y0258113D02*
X0261167Y0255613D01*
X0256167Y0255613D01*
X0253667Y0258113D01*
X0253667Y0273113D01*
X0256167Y0275613D01*
X0263667Y0273113D02*
X0266167Y0275613D01*
X0271167Y0275613D01*
X0273667Y0273113D01*
X0288693Y0275879D02*
X0294832Y0275879D01*
X0296367Y0277413D01*
X0303167Y0280613D02*
X0320167Y0280613D01*
X0323667Y0288613D02*
X0323667Y0296542D01*
X0320167Y0304613D02*
X0303167Y0304613D01*
X0299667Y0296660D02*
X0299667Y0288613D01*
X0304667Y0292613D02*
X0304669Y0292785D01*
X0304675Y0292956D01*
X0304686Y0293128D01*
X0304701Y0293299D01*
X0304720Y0293470D01*
X0304743Y0293640D01*
X0304770Y0293810D01*
X0304802Y0293979D01*
X0304837Y0294147D01*
X0304877Y0294314D01*
X0304921Y0294480D01*
X0304968Y0294645D01*
X0305020Y0294809D01*
X0305076Y0294971D01*
X0305136Y0295132D01*
X0305200Y0295292D01*
X0305268Y0295450D01*
X0305339Y0295606D01*
X0305414Y0295760D01*
X0305494Y0295913D01*
X0305576Y0296063D01*
X0305663Y0296212D01*
X0305753Y0296358D01*
X0305847Y0296502D01*
X0305944Y0296644D01*
X0306045Y0296783D01*
X0306149Y0296920D01*
X0306256Y0297054D01*
X0306367Y0297185D01*
X0306480Y0297314D01*
X0306597Y0297440D01*
X0306717Y0297563D01*
X0306840Y0297683D01*
X0306966Y0297800D01*
X0307095Y0297913D01*
X0307226Y0298024D01*
X0307360Y0298131D01*
X0307497Y0298235D01*
X0307636Y0298336D01*
X0307778Y0298433D01*
X0307922Y0298527D01*
X0308068Y0298617D01*
X0308217Y0298704D01*
X0308367Y0298786D01*
X0308520Y0298866D01*
X0308674Y0298941D01*
X0308830Y0299012D01*
X0308988Y0299080D01*
X0309148Y0299144D01*
X0309309Y0299204D01*
X0309471Y0299260D01*
X0309635Y0299312D01*
X0309800Y0299359D01*
X0309966Y0299403D01*
X0310133Y0299443D01*
X0310301Y0299478D01*
X0310470Y0299510D01*
X0310640Y0299537D01*
X0310810Y0299560D01*
X0310981Y0299579D01*
X0311152Y0299594D01*
X0311324Y0299605D01*
X0311495Y0299611D01*
X0311667Y0299613D01*
X0311839Y0299611D01*
X0312010Y0299605D01*
X0312182Y0299594D01*
X0312353Y0299579D01*
X0312524Y0299560D01*
X0312694Y0299537D01*
X0312864Y0299510D01*
X0313033Y0299478D01*
X0313201Y0299443D01*
X0313368Y0299403D01*
X0313534Y0299359D01*
X0313699Y0299312D01*
X0313863Y0299260D01*
X0314025Y0299204D01*
X0314186Y0299144D01*
X0314346Y0299080D01*
X0314504Y0299012D01*
X0314660Y0298941D01*
X0314814Y0298866D01*
X0314967Y0298786D01*
X0315117Y0298704D01*
X0315266Y0298617D01*
X0315412Y0298527D01*
X0315556Y0298433D01*
X0315698Y0298336D01*
X0315837Y0298235D01*
X0315974Y0298131D01*
X0316108Y0298024D01*
X0316239Y0297913D01*
X0316368Y0297800D01*
X0316494Y0297683D01*
X0316617Y0297563D01*
X0316737Y0297440D01*
X0316854Y0297314D01*
X0316967Y0297185D01*
X0317078Y0297054D01*
X0317185Y0296920D01*
X0317289Y0296783D01*
X0317390Y0296644D01*
X0317487Y0296502D01*
X0317581Y0296358D01*
X0317671Y0296212D01*
X0317758Y0296063D01*
X0317840Y0295913D01*
X0317920Y0295760D01*
X0317995Y0295606D01*
X0318066Y0295450D01*
X0318134Y0295292D01*
X0318198Y0295132D01*
X0318258Y0294971D01*
X0318314Y0294809D01*
X0318366Y0294645D01*
X0318413Y0294480D01*
X0318457Y0294314D01*
X0318497Y0294147D01*
X0318532Y0293979D01*
X0318564Y0293810D01*
X0318591Y0293640D01*
X0318614Y0293470D01*
X0318633Y0293299D01*
X0318648Y0293128D01*
X0318659Y0292956D01*
X0318665Y0292785D01*
X0318667Y0292613D01*
X0318665Y0292441D01*
X0318659Y0292270D01*
X0318648Y0292098D01*
X0318633Y0291927D01*
X0318614Y0291756D01*
X0318591Y0291586D01*
X0318564Y0291416D01*
X0318532Y0291247D01*
X0318497Y0291079D01*
X0318457Y0290912D01*
X0318413Y0290746D01*
X0318366Y0290581D01*
X0318314Y0290417D01*
X0318258Y0290255D01*
X0318198Y0290094D01*
X0318134Y0289934D01*
X0318066Y0289776D01*
X0317995Y0289620D01*
X0317920Y0289466D01*
X0317840Y0289313D01*
X0317758Y0289163D01*
X0317671Y0289014D01*
X0317581Y0288868D01*
X0317487Y0288724D01*
X0317390Y0288582D01*
X0317289Y0288443D01*
X0317185Y0288306D01*
X0317078Y0288172D01*
X0316967Y0288041D01*
X0316854Y0287912D01*
X0316737Y0287786D01*
X0316617Y0287663D01*
X0316494Y0287543D01*
X0316368Y0287426D01*
X0316239Y0287313D01*
X0316108Y0287202D01*
X0315974Y0287095D01*
X0315837Y0286991D01*
X0315698Y0286890D01*
X0315556Y0286793D01*
X0315412Y0286699D01*
X0315266Y0286609D01*
X0315117Y0286522D01*
X0314967Y0286440D01*
X0314814Y0286360D01*
X0314660Y0286285D01*
X0314504Y0286214D01*
X0314346Y0286146D01*
X0314186Y0286082D01*
X0314025Y0286022D01*
X0313863Y0285966D01*
X0313699Y0285914D01*
X0313534Y0285867D01*
X0313368Y0285823D01*
X0313201Y0285783D01*
X0313033Y0285748D01*
X0312864Y0285716D01*
X0312694Y0285689D01*
X0312524Y0285666D01*
X0312353Y0285647D01*
X0312182Y0285632D01*
X0312010Y0285621D01*
X0311839Y0285615D01*
X0311667Y0285613D01*
X0311495Y0285615D01*
X0311324Y0285621D01*
X0311152Y0285632D01*
X0310981Y0285647D01*
X0310810Y0285666D01*
X0310640Y0285689D01*
X0310470Y0285716D01*
X0310301Y0285748D01*
X0310133Y0285783D01*
X0309966Y0285823D01*
X0309800Y0285867D01*
X0309635Y0285914D01*
X0309471Y0285966D01*
X0309309Y0286022D01*
X0309148Y0286082D01*
X0308988Y0286146D01*
X0308830Y0286214D01*
X0308674Y0286285D01*
X0308520Y0286360D01*
X0308367Y0286440D01*
X0308217Y0286522D01*
X0308068Y0286609D01*
X0307922Y0286699D01*
X0307778Y0286793D01*
X0307636Y0286890D01*
X0307497Y0286991D01*
X0307360Y0287095D01*
X0307226Y0287202D01*
X0307095Y0287313D01*
X0306966Y0287426D01*
X0306840Y0287543D01*
X0306717Y0287663D01*
X0306597Y0287786D01*
X0306480Y0287912D01*
X0306367Y0288041D01*
X0306256Y0288172D01*
X0306149Y0288306D01*
X0306045Y0288443D01*
X0305944Y0288582D01*
X0305847Y0288724D01*
X0305753Y0288868D01*
X0305663Y0289014D01*
X0305576Y0289163D01*
X0305494Y0289313D01*
X0305414Y0289466D01*
X0305339Y0289620D01*
X0305268Y0289776D01*
X0305200Y0289934D01*
X0305136Y0290094D01*
X0305076Y0290255D01*
X0305020Y0290417D01*
X0304968Y0290581D01*
X0304921Y0290746D01*
X0304877Y0290912D01*
X0304837Y0291079D01*
X0304802Y0291247D01*
X0304770Y0291416D01*
X0304743Y0291586D01*
X0304720Y0291756D01*
X0304701Y0291927D01*
X0304686Y0292098D01*
X0304675Y0292270D01*
X0304669Y0292441D01*
X0304667Y0292613D01*
X0290228Y0277413D02*
X0290228Y0274344D01*
X0291763Y0271275D02*
X0290228Y0269740D01*
X0290228Y0266671D01*
X0291763Y0265136D01*
X0294832Y0265136D01*
X0296367Y0266671D01*
X0296367Y0269740D01*
X0294832Y0271275D01*
X0291763Y0271275D01*
X0291763Y0262067D02*
X0290228Y0260532D01*
X0290228Y0255928D01*
X0287159Y0255928D02*
X0296367Y0255928D01*
X0296367Y0260532D01*
X0294832Y0262067D01*
X0291763Y0262067D01*
X0291763Y0252859D02*
X0290228Y0251324D01*
X0290228Y0248255D01*
X0291763Y0246720D01*
X0294832Y0246720D01*
X0296367Y0248255D01*
X0296367Y0251324D01*
X0294832Y0252859D01*
X0291763Y0252859D01*
X0291763Y0243651D02*
X0293297Y0242117D01*
X0293297Y0237513D01*
X0293297Y0240582D02*
X0296367Y0243651D01*
X0291763Y0243651D02*
X0288693Y0243651D01*
X0287159Y0242117D01*
X0287159Y0237513D01*
X0296367Y0237513D01*
X0315973Y0240624D02*
X0319123Y0240624D01*
X0319123Y0238262D01*
X0319223Y0243501D02*
X0316073Y0243501D01*
X0319223Y0243501D02*
X0319223Y0245863D01*
X0319223Y0252162D02*
X0319223Y0254524D01*
X0316073Y0254524D01*
X0316073Y0257501D02*
X0319223Y0257501D01*
X0319223Y0259863D01*
X0319223Y0266162D02*
X0319223Y0268524D01*
X0316073Y0268524D01*
X0339455Y0268457D02*
X0339455Y0271606D01*
X0339455Y0268457D02*
X0341817Y0268457D01*
X0348116Y0268457D02*
X0350478Y0268457D01*
X0350478Y0271606D01*
X0363667Y0263113D02*
X0363667Y0258113D01*
X0366167Y0255613D01*
X0363667Y0253113D01*
X0363667Y0248113D01*
X0366167Y0245613D01*
X0363667Y0243113D01*
X0363667Y0238113D01*
X0366167Y0235613D01*
X0363667Y0233113D01*
X0363667Y0228113D01*
X0366167Y0225613D01*
X0363667Y0223113D01*
X0363667Y0218113D01*
X0366167Y0215613D01*
X0363667Y0213113D01*
X0363667Y0208113D01*
X0366167Y0205613D01*
X0371167Y0205613D01*
X0373667Y0208113D01*
X0373667Y0213113D01*
X0371167Y0215613D01*
X0373667Y0218113D01*
X0373667Y0223113D01*
X0371167Y0225613D01*
X0373667Y0228113D01*
X0373667Y0233113D01*
X0371167Y0235613D01*
X0373667Y0238113D01*
X0373667Y0243113D01*
X0371167Y0245613D01*
X0373667Y0248113D01*
X0373667Y0253113D01*
X0371167Y0255613D01*
X0373667Y0258113D01*
X0373667Y0263113D01*
X0371167Y0265613D01*
X0366167Y0265613D01*
X0363667Y0263113D01*
X0357761Y0295613D02*
X0357763Y0295766D01*
X0357769Y0295920D01*
X0357779Y0296073D01*
X0357793Y0296225D01*
X0357811Y0296378D01*
X0357833Y0296529D01*
X0357858Y0296680D01*
X0357888Y0296831D01*
X0357922Y0296981D01*
X0357959Y0297129D01*
X0358000Y0297277D01*
X0358045Y0297423D01*
X0358094Y0297569D01*
X0358147Y0297713D01*
X0358203Y0297855D01*
X0358263Y0297996D01*
X0358327Y0298136D01*
X0358394Y0298274D01*
X0358465Y0298410D01*
X0358540Y0298544D01*
X0358617Y0298676D01*
X0358699Y0298806D01*
X0358783Y0298934D01*
X0358871Y0299060D01*
X0358962Y0299183D01*
X0359056Y0299304D01*
X0359154Y0299422D01*
X0359254Y0299538D01*
X0359358Y0299651D01*
X0359464Y0299762D01*
X0359573Y0299870D01*
X0359685Y0299975D01*
X0359799Y0300076D01*
X0359917Y0300175D01*
X0360036Y0300271D01*
X0360158Y0300364D01*
X0360283Y0300453D01*
X0360410Y0300540D01*
X0360539Y0300622D01*
X0360670Y0300702D01*
X0360803Y0300778D01*
X0360938Y0300851D01*
X0361075Y0300920D01*
X0361214Y0300985D01*
X0361354Y0301047D01*
X0361496Y0301105D01*
X0361639Y0301160D01*
X0361784Y0301211D01*
X0361930Y0301258D01*
X0362077Y0301301D01*
X0362225Y0301340D01*
X0362374Y0301376D01*
X0362524Y0301407D01*
X0362675Y0301435D01*
X0362826Y0301459D01*
X0362979Y0301479D01*
X0363131Y0301495D01*
X0363284Y0301507D01*
X0363437Y0301515D01*
X0363590Y0301519D01*
X0363744Y0301519D01*
X0363897Y0301515D01*
X0364050Y0301507D01*
X0364203Y0301495D01*
X0364355Y0301479D01*
X0364508Y0301459D01*
X0364659Y0301435D01*
X0364810Y0301407D01*
X0364960Y0301376D01*
X0365109Y0301340D01*
X0365257Y0301301D01*
X0365404Y0301258D01*
X0365550Y0301211D01*
X0365695Y0301160D01*
X0365838Y0301105D01*
X0365980Y0301047D01*
X0366120Y0300985D01*
X0366259Y0300920D01*
X0366396Y0300851D01*
X0366531Y0300778D01*
X0366664Y0300702D01*
X0366795Y0300622D01*
X0366924Y0300540D01*
X0367051Y0300453D01*
X0367176Y0300364D01*
X0367298Y0300271D01*
X0367417Y0300175D01*
X0367535Y0300076D01*
X0367649Y0299975D01*
X0367761Y0299870D01*
X0367870Y0299762D01*
X0367976Y0299651D01*
X0368080Y0299538D01*
X0368180Y0299422D01*
X0368278Y0299304D01*
X0368372Y0299183D01*
X0368463Y0299060D01*
X0368551Y0298934D01*
X0368635Y0298806D01*
X0368717Y0298676D01*
X0368794Y0298544D01*
X0368869Y0298410D01*
X0368940Y0298274D01*
X0369007Y0298136D01*
X0369071Y0297996D01*
X0369131Y0297855D01*
X0369187Y0297713D01*
X0369240Y0297569D01*
X0369289Y0297423D01*
X0369334Y0297277D01*
X0369375Y0297129D01*
X0369412Y0296981D01*
X0369446Y0296831D01*
X0369476Y0296680D01*
X0369501Y0296529D01*
X0369523Y0296378D01*
X0369541Y0296225D01*
X0369555Y0296073D01*
X0369565Y0295920D01*
X0369571Y0295766D01*
X0369573Y0295613D01*
X0369571Y0295460D01*
X0369565Y0295306D01*
X0369555Y0295153D01*
X0369541Y0295001D01*
X0369523Y0294848D01*
X0369501Y0294697D01*
X0369476Y0294546D01*
X0369446Y0294395D01*
X0369412Y0294245D01*
X0369375Y0294097D01*
X0369334Y0293949D01*
X0369289Y0293803D01*
X0369240Y0293657D01*
X0369187Y0293513D01*
X0369131Y0293371D01*
X0369071Y0293230D01*
X0369007Y0293090D01*
X0368940Y0292952D01*
X0368869Y0292816D01*
X0368794Y0292682D01*
X0368717Y0292550D01*
X0368635Y0292420D01*
X0368551Y0292292D01*
X0368463Y0292166D01*
X0368372Y0292043D01*
X0368278Y0291922D01*
X0368180Y0291804D01*
X0368080Y0291688D01*
X0367976Y0291575D01*
X0367870Y0291464D01*
X0367761Y0291356D01*
X0367649Y0291251D01*
X0367535Y0291150D01*
X0367417Y0291051D01*
X0367298Y0290955D01*
X0367176Y0290862D01*
X0367051Y0290773D01*
X0366924Y0290686D01*
X0366795Y0290604D01*
X0366664Y0290524D01*
X0366531Y0290448D01*
X0366396Y0290375D01*
X0366259Y0290306D01*
X0366120Y0290241D01*
X0365980Y0290179D01*
X0365838Y0290121D01*
X0365695Y0290066D01*
X0365550Y0290015D01*
X0365404Y0289968D01*
X0365257Y0289925D01*
X0365109Y0289886D01*
X0364960Y0289850D01*
X0364810Y0289819D01*
X0364659Y0289791D01*
X0364508Y0289767D01*
X0364355Y0289747D01*
X0364203Y0289731D01*
X0364050Y0289719D01*
X0363897Y0289711D01*
X0363744Y0289707D01*
X0363590Y0289707D01*
X0363437Y0289711D01*
X0363284Y0289719D01*
X0363131Y0289731D01*
X0362979Y0289747D01*
X0362826Y0289767D01*
X0362675Y0289791D01*
X0362524Y0289819D01*
X0362374Y0289850D01*
X0362225Y0289886D01*
X0362077Y0289925D01*
X0361930Y0289968D01*
X0361784Y0290015D01*
X0361639Y0290066D01*
X0361496Y0290121D01*
X0361354Y0290179D01*
X0361214Y0290241D01*
X0361075Y0290306D01*
X0360938Y0290375D01*
X0360803Y0290448D01*
X0360670Y0290524D01*
X0360539Y0290604D01*
X0360410Y0290686D01*
X0360283Y0290773D01*
X0360158Y0290862D01*
X0360036Y0290955D01*
X0359917Y0291051D01*
X0359799Y0291150D01*
X0359685Y0291251D01*
X0359573Y0291356D01*
X0359464Y0291464D01*
X0359358Y0291575D01*
X0359254Y0291688D01*
X0359154Y0291804D01*
X0359056Y0291922D01*
X0358962Y0292043D01*
X0358871Y0292166D01*
X0358783Y0292292D01*
X0358699Y0292420D01*
X0358617Y0292550D01*
X0358540Y0292682D01*
X0358465Y0292816D01*
X0358394Y0292952D01*
X0358327Y0293090D01*
X0358263Y0293230D01*
X0358203Y0293371D01*
X0358147Y0293513D01*
X0358094Y0293657D01*
X0358045Y0293803D01*
X0358000Y0293949D01*
X0357959Y0294097D01*
X0357922Y0294245D01*
X0357888Y0294395D01*
X0357858Y0294546D01*
X0357833Y0294697D01*
X0357811Y0294848D01*
X0357793Y0295001D01*
X0357779Y0295153D01*
X0357769Y0295306D01*
X0357763Y0295460D01*
X0357761Y0295613D01*
X0319123Y0231963D02*
X0319123Y0229601D01*
X0315973Y0229601D01*
X0316073Y0226924D02*
X0319223Y0226924D01*
X0319223Y0224562D01*
X0319223Y0218263D02*
X0319223Y0215901D01*
X0316073Y0215901D01*
X0315973Y0213624D02*
X0319123Y0213624D01*
X0319123Y0211262D01*
X0319123Y0204963D02*
X0319123Y0202601D01*
X0315973Y0202601D01*
X0363667Y0193113D02*
X0363667Y0188113D01*
X0366167Y0185613D01*
X0363667Y0183113D01*
X0363667Y0178113D01*
X0366167Y0175613D01*
X0363667Y0173113D01*
X0363667Y0168113D01*
X0366167Y0165613D01*
X0363667Y0163113D01*
X0363667Y0158113D01*
X0366167Y0155613D01*
X0363667Y0153113D01*
X0363667Y0148113D01*
X0366167Y0145613D01*
X0363667Y0143113D01*
X0363667Y0138113D01*
X0366167Y0135613D01*
X0363667Y0133113D01*
X0363667Y0128113D01*
X0366167Y0125613D01*
X0363667Y0123113D01*
X0363667Y0118113D01*
X0366167Y0115613D01*
X0371167Y0115613D01*
X0373667Y0118113D01*
X0373667Y0123113D01*
X0371167Y0125613D01*
X0373667Y0128113D01*
X0373667Y0133113D01*
X0371167Y0135613D01*
X0373667Y0138113D01*
X0373667Y0143113D01*
X0371167Y0145613D01*
X0373667Y0148113D01*
X0373667Y0153113D01*
X0371167Y0155613D01*
X0373667Y0158113D01*
X0373667Y0163113D01*
X0371167Y0165613D01*
X0373667Y0168113D01*
X0373667Y0173113D01*
X0371167Y0175613D01*
X0373667Y0178113D01*
X0373667Y0183113D01*
X0371167Y0185613D01*
X0373667Y0188113D01*
X0373667Y0193113D01*
X0371167Y0195613D01*
X0366167Y0195613D01*
X0363667Y0193113D01*
X0316202Y0148413D02*
X0316204Y0148460D01*
X0316210Y0148507D01*
X0316220Y0148554D01*
X0316233Y0148599D01*
X0316251Y0148643D01*
X0316272Y0148685D01*
X0316296Y0148726D01*
X0316324Y0148764D01*
X0316355Y0148800D01*
X0316389Y0148833D01*
X0316425Y0148863D01*
X0316464Y0148890D01*
X0316505Y0148914D01*
X0316548Y0148934D01*
X0316592Y0148950D01*
X0316638Y0148963D01*
X0316684Y0148972D01*
X0316732Y0148977D01*
X0316779Y0148978D01*
X0316826Y0148975D01*
X0316873Y0148968D01*
X0316919Y0148957D01*
X0316964Y0148943D01*
X0317008Y0148924D01*
X0317049Y0148902D01*
X0317089Y0148877D01*
X0317127Y0148848D01*
X0317162Y0148817D01*
X0317195Y0148782D01*
X0317224Y0148745D01*
X0317250Y0148706D01*
X0317273Y0148664D01*
X0317292Y0148621D01*
X0317308Y0148576D01*
X0317320Y0148530D01*
X0317328Y0148484D01*
X0317332Y0148437D01*
X0317332Y0148389D01*
X0317328Y0148342D01*
X0317320Y0148296D01*
X0317308Y0148250D01*
X0317292Y0148205D01*
X0317273Y0148162D01*
X0317250Y0148120D01*
X0317224Y0148081D01*
X0317195Y0148044D01*
X0317162Y0148009D01*
X0317127Y0147978D01*
X0317089Y0147949D01*
X0317050Y0147924D01*
X0317008Y0147902D01*
X0316964Y0147883D01*
X0316919Y0147869D01*
X0316873Y0147858D01*
X0316826Y0147851D01*
X0316779Y0147848D01*
X0316732Y0147849D01*
X0316684Y0147854D01*
X0316638Y0147863D01*
X0316592Y0147876D01*
X0316548Y0147892D01*
X0316505Y0147912D01*
X0316464Y0147936D01*
X0316425Y0147963D01*
X0316389Y0147993D01*
X0316355Y0148026D01*
X0316324Y0148062D01*
X0316296Y0148100D01*
X0316272Y0148141D01*
X0316251Y0148183D01*
X0316233Y0148227D01*
X0316220Y0148272D01*
X0316210Y0148319D01*
X0316204Y0148366D01*
X0316202Y0148413D01*
X0327002Y0107213D02*
X0327004Y0107260D01*
X0327010Y0107307D01*
X0327020Y0107354D01*
X0327033Y0107399D01*
X0327051Y0107443D01*
X0327072Y0107485D01*
X0327096Y0107526D01*
X0327124Y0107564D01*
X0327155Y0107600D01*
X0327189Y0107633D01*
X0327225Y0107663D01*
X0327264Y0107690D01*
X0327305Y0107714D01*
X0327348Y0107734D01*
X0327392Y0107750D01*
X0327438Y0107763D01*
X0327484Y0107772D01*
X0327532Y0107777D01*
X0327579Y0107778D01*
X0327626Y0107775D01*
X0327673Y0107768D01*
X0327719Y0107757D01*
X0327764Y0107743D01*
X0327808Y0107724D01*
X0327849Y0107702D01*
X0327889Y0107677D01*
X0327927Y0107648D01*
X0327962Y0107617D01*
X0327995Y0107582D01*
X0328024Y0107545D01*
X0328050Y0107506D01*
X0328073Y0107464D01*
X0328092Y0107421D01*
X0328108Y0107376D01*
X0328120Y0107330D01*
X0328128Y0107284D01*
X0328132Y0107237D01*
X0328132Y0107189D01*
X0328128Y0107142D01*
X0328120Y0107096D01*
X0328108Y0107050D01*
X0328092Y0107005D01*
X0328073Y0106962D01*
X0328050Y0106920D01*
X0328024Y0106881D01*
X0327995Y0106844D01*
X0327962Y0106809D01*
X0327927Y0106778D01*
X0327889Y0106749D01*
X0327850Y0106724D01*
X0327808Y0106702D01*
X0327764Y0106683D01*
X0327719Y0106669D01*
X0327673Y0106658D01*
X0327626Y0106651D01*
X0327579Y0106648D01*
X0327532Y0106649D01*
X0327484Y0106654D01*
X0327438Y0106663D01*
X0327392Y0106676D01*
X0327348Y0106692D01*
X0327305Y0106712D01*
X0327264Y0106736D01*
X0327225Y0106763D01*
X0327189Y0106793D01*
X0327155Y0106826D01*
X0327124Y0106862D01*
X0327096Y0106900D01*
X0327072Y0106941D01*
X0327051Y0106983D01*
X0327033Y0107027D01*
X0327020Y0107072D01*
X0327010Y0107119D01*
X0327004Y0107166D01*
X0327002Y0107213D01*
X0277289Y0063605D02*
X0230045Y0063605D01*
X0230045Y0048250D01*
X0230045Y0031715D02*
X0230045Y0016754D01*
X0277289Y0016754D02*
X0277289Y0031715D01*
X0298250Y0017424D02*
X0333683Y0017424D01*
X0333683Y0038290D01*
X0333683Y0056794D02*
X0333683Y0059550D01*
X0325415Y0059550D01*
X0306518Y0059550D02*
X0298250Y0059550D01*
X0298250Y0017424D01*
X0277289Y0048250D02*
X0277289Y0063605D01*
X0242922Y0078204D02*
X0224812Y0078204D01*
X0224812Y0079976D01*
X0224812Y0087850D02*
X0224812Y0089621D01*
X0242922Y0089621D01*
X0242922Y0087850D01*
X0237804Y0087850D02*
X0237804Y0079976D01*
X0242922Y0079976D02*
X0242922Y0078204D01*
X0183667Y0082113D02*
X0181167Y0079613D01*
X0176167Y0079613D01*
X0173667Y0082113D01*
X0173667Y0087113D01*
X0176167Y0089613D01*
X0173667Y0092113D01*
X0173667Y0097113D01*
X0176167Y0099613D01*
X0173667Y0102113D01*
X0173667Y0107113D01*
X0176167Y0109613D01*
X0173667Y0112113D01*
X0173667Y0117113D01*
X0176167Y0119613D01*
X0173667Y0122113D01*
X0173667Y0127113D01*
X0176167Y0129613D01*
X0173667Y0132113D01*
X0173667Y0137113D01*
X0176167Y0139613D01*
X0173667Y0142113D01*
X0173667Y0147113D01*
X0176167Y0149613D01*
X0173667Y0152113D01*
X0173667Y0157113D01*
X0176167Y0159613D01*
X0173667Y0162113D01*
X0173667Y0167113D01*
X0176167Y0169613D01*
X0173667Y0172113D01*
X0173667Y0177113D01*
X0176167Y0179613D01*
X0181167Y0179613D01*
X0183667Y0177113D01*
X0183667Y0172113D01*
X0181167Y0169613D01*
X0183667Y0167113D01*
X0183667Y0162113D01*
X0181167Y0159613D01*
X0183667Y0157113D01*
X0183667Y0152113D01*
X0181167Y0149613D01*
X0183667Y0147113D01*
X0183667Y0142113D01*
X0181167Y0139613D01*
X0183667Y0137113D01*
X0183667Y0132113D01*
X0181167Y0129613D01*
X0183667Y0127113D01*
X0183667Y0122113D01*
X0181167Y0119613D01*
X0183667Y0117113D01*
X0183667Y0112113D01*
X0181167Y0109613D01*
X0183667Y0107113D01*
X0183667Y0102113D01*
X0181167Y0099613D01*
X0183667Y0097113D01*
X0183667Y0092113D01*
X0181167Y0089613D01*
X0183667Y0087113D01*
X0183667Y0082113D01*
X0165023Y0078324D02*
X0165023Y0075962D01*
X0165023Y0078324D02*
X0161873Y0078324D01*
X0153978Y0075269D02*
X0153978Y0072119D01*
X0153978Y0075269D02*
X0151616Y0075269D01*
X0145317Y0075269D02*
X0142955Y0075269D01*
X0142955Y0072119D01*
X0140223Y0083001D02*
X0137073Y0083001D01*
X0140223Y0083001D02*
X0140223Y0085363D01*
X0140223Y0091662D02*
X0140223Y0094024D01*
X0137073Y0094024D01*
X0138273Y0096001D02*
X0141423Y0096001D01*
X0141423Y0098363D01*
X0141423Y0104662D02*
X0141423Y0107024D01*
X0138273Y0107024D01*
X0138373Y0109901D02*
X0141523Y0109901D01*
X0141523Y0112263D01*
X0141523Y0118562D02*
X0141523Y0120924D01*
X0138373Y0120924D01*
X0143073Y0125001D02*
X0146223Y0125001D01*
X0146223Y0127363D01*
X0146223Y0133662D02*
X0146223Y0136024D01*
X0143073Y0136024D01*
X0143073Y0140001D02*
X0146223Y0140001D01*
X0146223Y0142363D01*
X0146223Y0148662D02*
X0146223Y0151024D01*
X0143073Y0151024D01*
X0143173Y0155301D02*
X0146323Y0155301D01*
X0146323Y0157663D01*
X0146323Y0163962D02*
X0146323Y0166324D01*
X0143173Y0166324D01*
X0143355Y0177657D02*
X0143355Y0180806D01*
X0143355Y0177657D02*
X0145717Y0177657D01*
X0152016Y0177657D02*
X0154378Y0177657D01*
X0154378Y0180806D01*
X0077660Y0236201D02*
X0074511Y0236201D01*
X0074511Y0238563D01*
X0074511Y0244862D02*
X0074511Y0247224D01*
X0077660Y0247224D01*
X0064660Y0247324D02*
X0061511Y0247324D01*
X0061511Y0244962D01*
X0061511Y0238663D02*
X0061511Y0236301D01*
X0064660Y0236301D01*
X0051460Y0236501D02*
X0048311Y0236501D01*
X0048311Y0238863D01*
X0048311Y0245162D02*
X0048311Y0247524D01*
X0051460Y0247524D01*
X0038060Y0247324D02*
X0034911Y0247324D01*
X0034911Y0244962D01*
X0034911Y0238663D02*
X0034911Y0236301D01*
X0038060Y0236301D01*
X0017504Y0244164D02*
X0017504Y0249676D01*
X0015929Y0252431D02*
X0013567Y0254794D01*
X0011204Y0252431D01*
X0015929Y0252431D01*
X0016323Y0254794D02*
X0013567Y0254794D01*
X0010811Y0254794D01*
X0009630Y0257550D02*
X0009630Y0263061D01*
X0017504Y0263061D01*
X0017504Y0257550D01*
X0009630Y0249676D02*
X0009630Y0244164D01*
X0017504Y0244164D01*
X0038167Y0277613D02*
X0043167Y0277613D01*
X0045667Y0280113D01*
X0048167Y0277613D01*
X0053167Y0277613D01*
X0055667Y0280113D01*
X0058167Y0277613D01*
X0063167Y0277613D01*
X0065667Y0280113D01*
X0068167Y0277613D01*
X0073167Y0277613D01*
X0075667Y0280113D01*
X0075667Y0285113D01*
X0073167Y0287613D01*
X0068167Y0287613D01*
X0065667Y0290113D01*
X0063167Y0287613D01*
X0058167Y0287613D01*
X0055667Y0290113D01*
X0053167Y0287613D01*
X0048167Y0287613D01*
X0045667Y0290113D01*
X0043167Y0287613D01*
X0038167Y0287613D01*
X0035667Y0290113D01*
X0035667Y0295113D01*
X0038167Y0297613D01*
X0043167Y0297613D01*
X0045667Y0300113D01*
X0048167Y0297613D01*
X0053167Y0297613D01*
X0055667Y0300113D01*
X0058167Y0297613D01*
X0063167Y0297613D01*
X0065667Y0300113D01*
X0068167Y0297613D01*
X0073167Y0297613D01*
X0075667Y0300113D01*
X0075667Y0305113D01*
X0073167Y0307613D01*
X0068167Y0307613D01*
X0065667Y0305113D01*
X0063167Y0307613D01*
X0058167Y0307613D01*
X0055667Y0305113D01*
X0053167Y0307613D01*
X0048167Y0307613D01*
X0045667Y0305113D01*
X0043167Y0307613D01*
X0038167Y0307613D01*
X0035667Y0305113D01*
X0035667Y0300113D01*
X0038167Y0297613D01*
X0043167Y0297613D01*
X0045667Y0295113D01*
X0048167Y0297613D01*
X0053167Y0297613D01*
X0055667Y0295113D01*
X0058167Y0297613D01*
X0063167Y0297613D01*
X0065667Y0295113D01*
X0068167Y0297613D01*
X0073167Y0297613D01*
X0075667Y0295113D01*
X0075667Y0290113D01*
X0073167Y0287613D01*
X0068167Y0287613D01*
X0065667Y0285113D01*
X0063167Y0287613D01*
X0058167Y0287613D01*
X0055667Y0285113D01*
X0053167Y0287613D01*
X0048167Y0287613D01*
X0045667Y0285113D01*
X0043167Y0287613D01*
X0038167Y0287613D01*
X0035667Y0285113D01*
X0035667Y0280113D01*
X0038167Y0277613D01*
X0012761Y0295613D02*
X0012763Y0295766D01*
X0012769Y0295920D01*
X0012779Y0296073D01*
X0012793Y0296225D01*
X0012811Y0296378D01*
X0012833Y0296529D01*
X0012858Y0296680D01*
X0012888Y0296831D01*
X0012922Y0296981D01*
X0012959Y0297129D01*
X0013000Y0297277D01*
X0013045Y0297423D01*
X0013094Y0297569D01*
X0013147Y0297713D01*
X0013203Y0297855D01*
X0013263Y0297996D01*
X0013327Y0298136D01*
X0013394Y0298274D01*
X0013465Y0298410D01*
X0013540Y0298544D01*
X0013617Y0298676D01*
X0013699Y0298806D01*
X0013783Y0298934D01*
X0013871Y0299060D01*
X0013962Y0299183D01*
X0014056Y0299304D01*
X0014154Y0299422D01*
X0014254Y0299538D01*
X0014358Y0299651D01*
X0014464Y0299762D01*
X0014573Y0299870D01*
X0014685Y0299975D01*
X0014799Y0300076D01*
X0014917Y0300175D01*
X0015036Y0300271D01*
X0015158Y0300364D01*
X0015283Y0300453D01*
X0015410Y0300540D01*
X0015539Y0300622D01*
X0015670Y0300702D01*
X0015803Y0300778D01*
X0015938Y0300851D01*
X0016075Y0300920D01*
X0016214Y0300985D01*
X0016354Y0301047D01*
X0016496Y0301105D01*
X0016639Y0301160D01*
X0016784Y0301211D01*
X0016930Y0301258D01*
X0017077Y0301301D01*
X0017225Y0301340D01*
X0017374Y0301376D01*
X0017524Y0301407D01*
X0017675Y0301435D01*
X0017826Y0301459D01*
X0017979Y0301479D01*
X0018131Y0301495D01*
X0018284Y0301507D01*
X0018437Y0301515D01*
X0018590Y0301519D01*
X0018744Y0301519D01*
X0018897Y0301515D01*
X0019050Y0301507D01*
X0019203Y0301495D01*
X0019355Y0301479D01*
X0019508Y0301459D01*
X0019659Y0301435D01*
X0019810Y0301407D01*
X0019960Y0301376D01*
X0020109Y0301340D01*
X0020257Y0301301D01*
X0020404Y0301258D01*
X0020550Y0301211D01*
X0020695Y0301160D01*
X0020838Y0301105D01*
X0020980Y0301047D01*
X0021120Y0300985D01*
X0021259Y0300920D01*
X0021396Y0300851D01*
X0021531Y0300778D01*
X0021664Y0300702D01*
X0021795Y0300622D01*
X0021924Y0300540D01*
X0022051Y0300453D01*
X0022176Y0300364D01*
X0022298Y0300271D01*
X0022417Y0300175D01*
X0022535Y0300076D01*
X0022649Y0299975D01*
X0022761Y0299870D01*
X0022870Y0299762D01*
X0022976Y0299651D01*
X0023080Y0299538D01*
X0023180Y0299422D01*
X0023278Y0299304D01*
X0023372Y0299183D01*
X0023463Y0299060D01*
X0023551Y0298934D01*
X0023635Y0298806D01*
X0023717Y0298676D01*
X0023794Y0298544D01*
X0023869Y0298410D01*
X0023940Y0298274D01*
X0024007Y0298136D01*
X0024071Y0297996D01*
X0024131Y0297855D01*
X0024187Y0297713D01*
X0024240Y0297569D01*
X0024289Y0297423D01*
X0024334Y0297277D01*
X0024375Y0297129D01*
X0024412Y0296981D01*
X0024446Y0296831D01*
X0024476Y0296680D01*
X0024501Y0296529D01*
X0024523Y0296378D01*
X0024541Y0296225D01*
X0024555Y0296073D01*
X0024565Y0295920D01*
X0024571Y0295766D01*
X0024573Y0295613D01*
X0024571Y0295460D01*
X0024565Y0295306D01*
X0024555Y0295153D01*
X0024541Y0295001D01*
X0024523Y0294848D01*
X0024501Y0294697D01*
X0024476Y0294546D01*
X0024446Y0294395D01*
X0024412Y0294245D01*
X0024375Y0294097D01*
X0024334Y0293949D01*
X0024289Y0293803D01*
X0024240Y0293657D01*
X0024187Y0293513D01*
X0024131Y0293371D01*
X0024071Y0293230D01*
X0024007Y0293090D01*
X0023940Y0292952D01*
X0023869Y0292816D01*
X0023794Y0292682D01*
X0023717Y0292550D01*
X0023635Y0292420D01*
X0023551Y0292292D01*
X0023463Y0292166D01*
X0023372Y0292043D01*
X0023278Y0291922D01*
X0023180Y0291804D01*
X0023080Y0291688D01*
X0022976Y0291575D01*
X0022870Y0291464D01*
X0022761Y0291356D01*
X0022649Y0291251D01*
X0022535Y0291150D01*
X0022417Y0291051D01*
X0022298Y0290955D01*
X0022176Y0290862D01*
X0022051Y0290773D01*
X0021924Y0290686D01*
X0021795Y0290604D01*
X0021664Y0290524D01*
X0021531Y0290448D01*
X0021396Y0290375D01*
X0021259Y0290306D01*
X0021120Y0290241D01*
X0020980Y0290179D01*
X0020838Y0290121D01*
X0020695Y0290066D01*
X0020550Y0290015D01*
X0020404Y0289968D01*
X0020257Y0289925D01*
X0020109Y0289886D01*
X0019960Y0289850D01*
X0019810Y0289819D01*
X0019659Y0289791D01*
X0019508Y0289767D01*
X0019355Y0289747D01*
X0019203Y0289731D01*
X0019050Y0289719D01*
X0018897Y0289711D01*
X0018744Y0289707D01*
X0018590Y0289707D01*
X0018437Y0289711D01*
X0018284Y0289719D01*
X0018131Y0289731D01*
X0017979Y0289747D01*
X0017826Y0289767D01*
X0017675Y0289791D01*
X0017524Y0289819D01*
X0017374Y0289850D01*
X0017225Y0289886D01*
X0017077Y0289925D01*
X0016930Y0289968D01*
X0016784Y0290015D01*
X0016639Y0290066D01*
X0016496Y0290121D01*
X0016354Y0290179D01*
X0016214Y0290241D01*
X0016075Y0290306D01*
X0015938Y0290375D01*
X0015803Y0290448D01*
X0015670Y0290524D01*
X0015539Y0290604D01*
X0015410Y0290686D01*
X0015283Y0290773D01*
X0015158Y0290862D01*
X0015036Y0290955D01*
X0014917Y0291051D01*
X0014799Y0291150D01*
X0014685Y0291251D01*
X0014573Y0291356D01*
X0014464Y0291464D01*
X0014358Y0291575D01*
X0014254Y0291688D01*
X0014154Y0291804D01*
X0014056Y0291922D01*
X0013962Y0292043D01*
X0013871Y0292166D01*
X0013783Y0292292D01*
X0013699Y0292420D01*
X0013617Y0292550D01*
X0013540Y0292682D01*
X0013465Y0292816D01*
X0013394Y0292952D01*
X0013327Y0293090D01*
X0013263Y0293230D01*
X0013203Y0293371D01*
X0013147Y0293513D01*
X0013094Y0293657D01*
X0013045Y0293803D01*
X0013000Y0293949D01*
X0012959Y0294097D01*
X0012922Y0294245D01*
X0012888Y0294395D01*
X0012858Y0294546D01*
X0012833Y0294697D01*
X0012811Y0294848D01*
X0012793Y0295001D01*
X0012779Y0295153D01*
X0012769Y0295306D01*
X0012763Y0295460D01*
X0012761Y0295613D01*
X0171667Y0289113D02*
X0171667Y0304113D01*
X0174167Y0306613D01*
X0179167Y0306613D01*
X0181667Y0304113D01*
X0181667Y0289113D01*
X0184167Y0286613D01*
X0189167Y0286613D01*
X0191667Y0289113D01*
X0191667Y0304113D01*
X0194167Y0306613D01*
X0199167Y0306613D01*
X0201667Y0304113D01*
X0201667Y0289113D01*
X0199167Y0286613D01*
X0194167Y0286613D01*
X0191667Y0289113D01*
X0181667Y0289113D02*
X0179167Y0286613D01*
X0174167Y0286613D01*
X0171667Y0289113D01*
X0174167Y0285294D02*
X0179167Y0285294D01*
X0181667Y0304113D02*
X0184167Y0306613D01*
X0189167Y0306613D01*
X0191667Y0304113D01*
X0256167Y0254294D02*
X0261167Y0254294D01*
X0255667Y0292613D02*
X0255669Y0292785D01*
X0255675Y0292956D01*
X0255686Y0293128D01*
X0255701Y0293299D01*
X0255720Y0293470D01*
X0255743Y0293640D01*
X0255770Y0293810D01*
X0255802Y0293979D01*
X0255837Y0294147D01*
X0255877Y0294314D01*
X0255921Y0294480D01*
X0255968Y0294645D01*
X0256020Y0294809D01*
X0256076Y0294971D01*
X0256136Y0295132D01*
X0256200Y0295292D01*
X0256268Y0295450D01*
X0256339Y0295606D01*
X0256414Y0295760D01*
X0256494Y0295913D01*
X0256576Y0296063D01*
X0256663Y0296212D01*
X0256753Y0296358D01*
X0256847Y0296502D01*
X0256944Y0296644D01*
X0257045Y0296783D01*
X0257149Y0296920D01*
X0257256Y0297054D01*
X0257367Y0297185D01*
X0257480Y0297314D01*
X0257597Y0297440D01*
X0257717Y0297563D01*
X0257840Y0297683D01*
X0257966Y0297800D01*
X0258095Y0297913D01*
X0258226Y0298024D01*
X0258360Y0298131D01*
X0258497Y0298235D01*
X0258636Y0298336D01*
X0258778Y0298433D01*
X0258922Y0298527D01*
X0259068Y0298617D01*
X0259217Y0298704D01*
X0259367Y0298786D01*
X0259520Y0298866D01*
X0259674Y0298941D01*
X0259830Y0299012D01*
X0259988Y0299080D01*
X0260148Y0299144D01*
X0260309Y0299204D01*
X0260471Y0299260D01*
X0260635Y0299312D01*
X0260800Y0299359D01*
X0260966Y0299403D01*
X0261133Y0299443D01*
X0261301Y0299478D01*
X0261470Y0299510D01*
X0261640Y0299537D01*
X0261810Y0299560D01*
X0261981Y0299579D01*
X0262152Y0299594D01*
X0262324Y0299605D01*
X0262495Y0299611D01*
X0262667Y0299613D01*
X0262839Y0299611D01*
X0263010Y0299605D01*
X0263182Y0299594D01*
X0263353Y0299579D01*
X0263524Y0299560D01*
X0263694Y0299537D01*
X0263864Y0299510D01*
X0264033Y0299478D01*
X0264201Y0299443D01*
X0264368Y0299403D01*
X0264534Y0299359D01*
X0264699Y0299312D01*
X0264863Y0299260D01*
X0265025Y0299204D01*
X0265186Y0299144D01*
X0265346Y0299080D01*
X0265504Y0299012D01*
X0265660Y0298941D01*
X0265814Y0298866D01*
X0265967Y0298786D01*
X0266117Y0298704D01*
X0266266Y0298617D01*
X0266412Y0298527D01*
X0266556Y0298433D01*
X0266698Y0298336D01*
X0266837Y0298235D01*
X0266974Y0298131D01*
X0267108Y0298024D01*
X0267239Y0297913D01*
X0267368Y0297800D01*
X0267494Y0297683D01*
X0267617Y0297563D01*
X0267737Y0297440D01*
X0267854Y0297314D01*
X0267967Y0297185D01*
X0268078Y0297054D01*
X0268185Y0296920D01*
X0268289Y0296783D01*
X0268390Y0296644D01*
X0268487Y0296502D01*
X0268581Y0296358D01*
X0268671Y0296212D01*
X0268758Y0296063D01*
X0268840Y0295913D01*
X0268920Y0295760D01*
X0268995Y0295606D01*
X0269066Y0295450D01*
X0269134Y0295292D01*
X0269198Y0295132D01*
X0269258Y0294971D01*
X0269314Y0294809D01*
X0269366Y0294645D01*
X0269413Y0294480D01*
X0269457Y0294314D01*
X0269497Y0294147D01*
X0269532Y0293979D01*
X0269564Y0293810D01*
X0269591Y0293640D01*
X0269614Y0293470D01*
X0269633Y0293299D01*
X0269648Y0293128D01*
X0269659Y0292956D01*
X0269665Y0292785D01*
X0269667Y0292613D01*
X0269665Y0292441D01*
X0269659Y0292270D01*
X0269648Y0292098D01*
X0269633Y0291927D01*
X0269614Y0291756D01*
X0269591Y0291586D01*
X0269564Y0291416D01*
X0269532Y0291247D01*
X0269497Y0291079D01*
X0269457Y0290912D01*
X0269413Y0290746D01*
X0269366Y0290581D01*
X0269314Y0290417D01*
X0269258Y0290255D01*
X0269198Y0290094D01*
X0269134Y0289934D01*
X0269066Y0289776D01*
X0268995Y0289620D01*
X0268920Y0289466D01*
X0268840Y0289313D01*
X0268758Y0289163D01*
X0268671Y0289014D01*
X0268581Y0288868D01*
X0268487Y0288724D01*
X0268390Y0288582D01*
X0268289Y0288443D01*
X0268185Y0288306D01*
X0268078Y0288172D01*
X0267967Y0288041D01*
X0267854Y0287912D01*
X0267737Y0287786D01*
X0267617Y0287663D01*
X0267494Y0287543D01*
X0267368Y0287426D01*
X0267239Y0287313D01*
X0267108Y0287202D01*
X0266974Y0287095D01*
X0266837Y0286991D01*
X0266698Y0286890D01*
X0266556Y0286793D01*
X0266412Y0286699D01*
X0266266Y0286609D01*
X0266117Y0286522D01*
X0265967Y0286440D01*
X0265814Y0286360D01*
X0265660Y0286285D01*
X0265504Y0286214D01*
X0265346Y0286146D01*
X0265186Y0286082D01*
X0265025Y0286022D01*
X0264863Y0285966D01*
X0264699Y0285914D01*
X0264534Y0285867D01*
X0264368Y0285823D01*
X0264201Y0285783D01*
X0264033Y0285748D01*
X0263864Y0285716D01*
X0263694Y0285689D01*
X0263524Y0285666D01*
X0263353Y0285647D01*
X0263182Y0285632D01*
X0263010Y0285621D01*
X0262839Y0285615D01*
X0262667Y0285613D01*
X0262495Y0285615D01*
X0262324Y0285621D01*
X0262152Y0285632D01*
X0261981Y0285647D01*
X0261810Y0285666D01*
X0261640Y0285689D01*
X0261470Y0285716D01*
X0261301Y0285748D01*
X0261133Y0285783D01*
X0260966Y0285823D01*
X0260800Y0285867D01*
X0260635Y0285914D01*
X0260471Y0285966D01*
X0260309Y0286022D01*
X0260148Y0286082D01*
X0259988Y0286146D01*
X0259830Y0286214D01*
X0259674Y0286285D01*
X0259520Y0286360D01*
X0259367Y0286440D01*
X0259217Y0286522D01*
X0259068Y0286609D01*
X0258922Y0286699D01*
X0258778Y0286793D01*
X0258636Y0286890D01*
X0258497Y0286991D01*
X0258360Y0287095D01*
X0258226Y0287202D01*
X0258095Y0287313D01*
X0257966Y0287426D01*
X0257840Y0287543D01*
X0257717Y0287663D01*
X0257597Y0287786D01*
X0257480Y0287912D01*
X0257367Y0288041D01*
X0257256Y0288172D01*
X0257149Y0288306D01*
X0257045Y0288443D01*
X0256944Y0288582D01*
X0256847Y0288724D01*
X0256753Y0288868D01*
X0256663Y0289014D01*
X0256576Y0289163D01*
X0256494Y0289313D01*
X0256414Y0289466D01*
X0256339Y0289620D01*
X0256268Y0289776D01*
X0256200Y0289934D01*
X0256136Y0290094D01*
X0256076Y0290255D01*
X0256020Y0290417D01*
X0255968Y0290581D01*
X0255921Y0290746D01*
X0255877Y0290912D01*
X0255837Y0291079D01*
X0255802Y0291247D01*
X0255770Y0291416D01*
X0255743Y0291586D01*
X0255720Y0291756D01*
X0255701Y0291927D01*
X0255686Y0292098D01*
X0255675Y0292270D01*
X0255669Y0292441D01*
X0255667Y0292613D01*
X0165023Y0069663D02*
X0165023Y0067301D01*
X0161873Y0067301D01*
X0166830Y0056661D02*
X0166830Y0051150D01*
X0168404Y0048394D02*
X0170767Y0046031D01*
X0173129Y0048394D01*
X0168404Y0048394D01*
X0168011Y0046031D02*
X0170767Y0046031D01*
X0173523Y0046031D01*
X0174704Y0043276D02*
X0174704Y0037764D01*
X0166830Y0037764D01*
X0166830Y0043276D01*
X0166830Y0034961D02*
X0166830Y0029450D01*
X0168404Y0026694D02*
X0170767Y0024331D01*
X0173129Y0026694D01*
X0168404Y0026694D01*
X0168011Y0024331D02*
X0170767Y0024331D01*
X0173523Y0024331D01*
X0174704Y0021576D02*
X0174704Y0016064D01*
X0166830Y0016064D01*
X0166830Y0021576D01*
X0174704Y0029450D02*
X0174704Y0034961D01*
X0166830Y0034961D01*
X0174704Y0051150D02*
X0174704Y0056661D01*
X0166830Y0056661D01*
X0357761Y0025613D02*
X0357763Y0025766D01*
X0357769Y0025920D01*
X0357779Y0026073D01*
X0357793Y0026225D01*
X0357811Y0026378D01*
X0357833Y0026529D01*
X0357858Y0026680D01*
X0357888Y0026831D01*
X0357922Y0026981D01*
X0357959Y0027129D01*
X0358000Y0027277D01*
X0358045Y0027423D01*
X0358094Y0027569D01*
X0358147Y0027713D01*
X0358203Y0027855D01*
X0358263Y0027996D01*
X0358327Y0028136D01*
X0358394Y0028274D01*
X0358465Y0028410D01*
X0358540Y0028544D01*
X0358617Y0028676D01*
X0358699Y0028806D01*
X0358783Y0028934D01*
X0358871Y0029060D01*
X0358962Y0029183D01*
X0359056Y0029304D01*
X0359154Y0029422D01*
X0359254Y0029538D01*
X0359358Y0029651D01*
X0359464Y0029762D01*
X0359573Y0029870D01*
X0359685Y0029975D01*
X0359799Y0030076D01*
X0359917Y0030175D01*
X0360036Y0030271D01*
X0360158Y0030364D01*
X0360283Y0030453D01*
X0360410Y0030540D01*
X0360539Y0030622D01*
X0360670Y0030702D01*
X0360803Y0030778D01*
X0360938Y0030851D01*
X0361075Y0030920D01*
X0361214Y0030985D01*
X0361354Y0031047D01*
X0361496Y0031105D01*
X0361639Y0031160D01*
X0361784Y0031211D01*
X0361930Y0031258D01*
X0362077Y0031301D01*
X0362225Y0031340D01*
X0362374Y0031376D01*
X0362524Y0031407D01*
X0362675Y0031435D01*
X0362826Y0031459D01*
X0362979Y0031479D01*
X0363131Y0031495D01*
X0363284Y0031507D01*
X0363437Y0031515D01*
X0363590Y0031519D01*
X0363744Y0031519D01*
X0363897Y0031515D01*
X0364050Y0031507D01*
X0364203Y0031495D01*
X0364355Y0031479D01*
X0364508Y0031459D01*
X0364659Y0031435D01*
X0364810Y0031407D01*
X0364960Y0031376D01*
X0365109Y0031340D01*
X0365257Y0031301D01*
X0365404Y0031258D01*
X0365550Y0031211D01*
X0365695Y0031160D01*
X0365838Y0031105D01*
X0365980Y0031047D01*
X0366120Y0030985D01*
X0366259Y0030920D01*
X0366396Y0030851D01*
X0366531Y0030778D01*
X0366664Y0030702D01*
X0366795Y0030622D01*
X0366924Y0030540D01*
X0367051Y0030453D01*
X0367176Y0030364D01*
X0367298Y0030271D01*
X0367417Y0030175D01*
X0367535Y0030076D01*
X0367649Y0029975D01*
X0367761Y0029870D01*
X0367870Y0029762D01*
X0367976Y0029651D01*
X0368080Y0029538D01*
X0368180Y0029422D01*
X0368278Y0029304D01*
X0368372Y0029183D01*
X0368463Y0029060D01*
X0368551Y0028934D01*
X0368635Y0028806D01*
X0368717Y0028676D01*
X0368794Y0028544D01*
X0368869Y0028410D01*
X0368940Y0028274D01*
X0369007Y0028136D01*
X0369071Y0027996D01*
X0369131Y0027855D01*
X0369187Y0027713D01*
X0369240Y0027569D01*
X0369289Y0027423D01*
X0369334Y0027277D01*
X0369375Y0027129D01*
X0369412Y0026981D01*
X0369446Y0026831D01*
X0369476Y0026680D01*
X0369501Y0026529D01*
X0369523Y0026378D01*
X0369541Y0026225D01*
X0369555Y0026073D01*
X0369565Y0025920D01*
X0369571Y0025766D01*
X0369573Y0025613D01*
X0369571Y0025460D01*
X0369565Y0025306D01*
X0369555Y0025153D01*
X0369541Y0025001D01*
X0369523Y0024848D01*
X0369501Y0024697D01*
X0369476Y0024546D01*
X0369446Y0024395D01*
X0369412Y0024245D01*
X0369375Y0024097D01*
X0369334Y0023949D01*
X0369289Y0023803D01*
X0369240Y0023657D01*
X0369187Y0023513D01*
X0369131Y0023371D01*
X0369071Y0023230D01*
X0369007Y0023090D01*
X0368940Y0022952D01*
X0368869Y0022816D01*
X0368794Y0022682D01*
X0368717Y0022550D01*
X0368635Y0022420D01*
X0368551Y0022292D01*
X0368463Y0022166D01*
X0368372Y0022043D01*
X0368278Y0021922D01*
X0368180Y0021804D01*
X0368080Y0021688D01*
X0367976Y0021575D01*
X0367870Y0021464D01*
X0367761Y0021356D01*
X0367649Y0021251D01*
X0367535Y0021150D01*
X0367417Y0021051D01*
X0367298Y0020955D01*
X0367176Y0020862D01*
X0367051Y0020773D01*
X0366924Y0020686D01*
X0366795Y0020604D01*
X0366664Y0020524D01*
X0366531Y0020448D01*
X0366396Y0020375D01*
X0366259Y0020306D01*
X0366120Y0020241D01*
X0365980Y0020179D01*
X0365838Y0020121D01*
X0365695Y0020066D01*
X0365550Y0020015D01*
X0365404Y0019968D01*
X0365257Y0019925D01*
X0365109Y0019886D01*
X0364960Y0019850D01*
X0364810Y0019819D01*
X0364659Y0019791D01*
X0364508Y0019767D01*
X0364355Y0019747D01*
X0364203Y0019731D01*
X0364050Y0019719D01*
X0363897Y0019711D01*
X0363744Y0019707D01*
X0363590Y0019707D01*
X0363437Y0019711D01*
X0363284Y0019719D01*
X0363131Y0019731D01*
X0362979Y0019747D01*
X0362826Y0019767D01*
X0362675Y0019791D01*
X0362524Y0019819D01*
X0362374Y0019850D01*
X0362225Y0019886D01*
X0362077Y0019925D01*
X0361930Y0019968D01*
X0361784Y0020015D01*
X0361639Y0020066D01*
X0361496Y0020121D01*
X0361354Y0020179D01*
X0361214Y0020241D01*
X0361075Y0020306D01*
X0360938Y0020375D01*
X0360803Y0020448D01*
X0360670Y0020524D01*
X0360539Y0020604D01*
X0360410Y0020686D01*
X0360283Y0020773D01*
X0360158Y0020862D01*
X0360036Y0020955D01*
X0359917Y0021051D01*
X0359799Y0021150D01*
X0359685Y0021251D01*
X0359573Y0021356D01*
X0359464Y0021464D01*
X0359358Y0021575D01*
X0359254Y0021688D01*
X0359154Y0021804D01*
X0359056Y0021922D01*
X0358962Y0022043D01*
X0358871Y0022166D01*
X0358783Y0022292D01*
X0358699Y0022420D01*
X0358617Y0022550D01*
X0358540Y0022682D01*
X0358465Y0022816D01*
X0358394Y0022952D01*
X0358327Y0023090D01*
X0358263Y0023230D01*
X0358203Y0023371D01*
X0358147Y0023513D01*
X0358094Y0023657D01*
X0358045Y0023803D01*
X0358000Y0023949D01*
X0357959Y0024097D01*
X0357922Y0024245D01*
X0357888Y0024395D01*
X0357858Y0024546D01*
X0357833Y0024697D01*
X0357811Y0024848D01*
X0357793Y0025001D01*
X0357779Y0025153D01*
X0357769Y0025306D01*
X0357763Y0025460D01*
X0357761Y0025613D01*
D15*
X0298992Y0088313D03*
X0345592Y0114613D03*
X0361042Y0098513D03*
D16*
X0289867Y0117438D03*
M02*
