G75*
%MOIN*%
%OFA0B0*%
%FSLAX25Y25*%
%IPPOS*%
%LPD*%
%AMOC8*
5,1,8,0,0,1.08239X$1,22.5*
%
%ADD10C,0.17800*%
%ADD11R,0.06706X0.22454*%
%ADD12R,0.05524X0.03950*%
%ADD13R,0.08200X0.08200*%
%ADD14C,0.08200*%
%ADD15R,0.03950X0.04343*%
%ADD16R,0.04343X0.03950*%
%ADD17R,0.06312X0.04737*%
%ADD18R,0.04737X0.06312*%
%ADD19C,0.11824*%
%ADD20R,0.07099X0.07898*%
%ADD21R,0.03200X0.09500*%
%ADD22R,0.06312X0.12611*%
%ADD23R,0.09500X0.03200*%
%ADD24R,0.07898X0.07099*%
%ADD25OC8,0.08200*%
%ADD26R,0.06312X0.05524*%
%ADD27R,0.05500X0.03000*%
%ADD28R,0.03000X0.05500*%
%ADD29R,0.05950X0.05950*%
%ADD30C,0.06706*%
%ADD31R,0.08477X0.08477*%
%ADD32R,0.06300X0.02170*%
%ADD33R,0.01902X0.02769*%
%ADD34R,0.08674X0.04343*%
%ADD35R,0.03556X0.02375*%
%ADD36R,0.03162X0.04934*%
%ADD37R,0.03438X0.01784*%
%ADD38R,0.01784X0.03438*%
%ADD39R,0.07099X0.07887*%
%ADD40C,0.07400*%
%ADD41C,0.13800*%
%ADD42R,0.07887X0.07099*%
%ADD43R,0.05500X0.13800*%
%ADD44R,0.15367X0.05524*%
%ADD45R,0.01784X0.03556*%
%ADD46R,0.03556X0.01784*%
%ADD47R,0.09304X0.07493*%
%ADD48R,0.02178X0.01981*%
%ADD49R,0.04540X0.03162*%
%ADD50R,0.14186X0.08280*%
%ADD51R,0.08280X0.14186*%
%ADD52R,0.05800X0.06587*%
%ADD53R,0.02769X0.03556*%
%ADD54R,0.03556X0.02769*%
%ADD55C,0.04369*%
D10*
X0315967Y0035928D03*
X0334471Y0047739D03*
X0315967Y0059550D03*
D11*
X0036567Y0052983D03*
X0036567Y0086842D03*
D12*
X0050567Y0082956D03*
X0050567Y0075869D03*
X0050667Y0067456D03*
X0050667Y0060369D03*
D13*
X0178667Y0260613D03*
X0040667Y0282613D03*
X0040667Y0292613D03*
X0040667Y0302613D03*
X0368667Y0120613D03*
D14*
X0368667Y0130613D03*
X0368667Y0140613D03*
X0368667Y0150613D03*
X0368667Y0160613D03*
X0368667Y0170613D03*
X0368667Y0180613D03*
X0368667Y0190613D03*
X0368667Y0210613D03*
X0368667Y0220613D03*
X0368667Y0230613D03*
X0368667Y0240613D03*
X0368667Y0250613D03*
X0368667Y0260613D03*
X0324467Y0283713D03*
X0324467Y0301513D03*
X0298867Y0301513D03*
X0298867Y0283713D03*
X0275467Y0283713D03*
X0275467Y0301513D03*
X0249867Y0301513D03*
X0249867Y0283713D03*
X0178667Y0250613D03*
X0178667Y0240613D03*
X0178667Y0230613D03*
X0178667Y0220613D03*
X0178667Y0210613D03*
X0178667Y0200613D03*
X0178667Y0190613D03*
X0178667Y0174613D03*
X0178667Y0164613D03*
X0178667Y0154613D03*
X0178667Y0144613D03*
X0178667Y0134613D03*
X0178667Y0124613D03*
X0178667Y0114613D03*
X0178667Y0104613D03*
X0178667Y0094613D03*
X0178667Y0084613D03*
X0135667Y0174813D03*
X0135667Y0184813D03*
X0122767Y0187613D03*
X0122767Y0197613D03*
X0122767Y0207613D03*
X0122767Y0217613D03*
X0122767Y0227613D03*
X0122767Y0237613D03*
X0070667Y0282613D03*
X0060667Y0282613D03*
X0060667Y0292613D03*
X0070667Y0292613D03*
X0070667Y0302613D03*
X0060667Y0302613D03*
X0050667Y0302613D03*
X0050667Y0292613D03*
X0050667Y0282613D03*
X0013667Y0153613D03*
X0013667Y0143613D03*
X0013667Y0133613D03*
D15*
X0145127Y0184350D03*
X0152607Y0184350D03*
X0148867Y0176082D03*
X0157367Y0229582D03*
X0161107Y0237850D03*
X0153627Y0237850D03*
X0341227Y0275150D03*
X0348707Y0275150D03*
X0344967Y0266882D03*
X0148467Y0076843D03*
X0152207Y0068576D03*
X0144727Y0068576D03*
D16*
X0158330Y0069072D03*
X0166597Y0072813D03*
X0158330Y0076553D03*
X0141797Y0088513D03*
X0133530Y0092253D03*
X0134730Y0097772D03*
X0142997Y0101513D03*
X0134730Y0105253D03*
X0134830Y0111672D03*
X0134830Y0119153D03*
X0139530Y0126772D03*
X0147797Y0130513D03*
X0139530Y0134253D03*
X0139530Y0141772D03*
X0147797Y0145513D03*
X0139530Y0149253D03*
X0139630Y0157072D03*
X0139630Y0164553D03*
X0147897Y0160813D03*
X0139330Y0193072D03*
X0147597Y0196813D03*
X0139330Y0200553D03*
X0140330Y0206272D03*
X0148597Y0210013D03*
X0140330Y0213753D03*
X0140330Y0218472D03*
X0148597Y0222213D03*
X0140330Y0225953D03*
X0081204Y0237972D03*
X0072936Y0241713D03*
X0068204Y0245553D03*
X0059936Y0241813D03*
X0055004Y0238272D03*
X0055004Y0245753D03*
X0046736Y0242013D03*
X0041604Y0245553D03*
X0033336Y0241813D03*
X0041604Y0238072D03*
X0068204Y0238072D03*
X0081204Y0245453D03*
X0216336Y0249613D03*
X0224604Y0253353D03*
X0224604Y0258872D03*
X0224604Y0266353D03*
X0216336Y0262613D03*
X0224604Y0245872D03*
X0224604Y0240353D03*
X0224604Y0232872D03*
X0224604Y0227353D03*
X0224604Y0219872D03*
X0216336Y0223613D03*
X0216336Y0236613D03*
X0312430Y0238853D03*
X0312530Y0245272D03*
X0312530Y0252753D03*
X0312530Y0259272D03*
X0320797Y0263013D03*
X0312530Y0266753D03*
X0320797Y0249013D03*
X0320697Y0235113D03*
X0312430Y0231372D03*
X0312530Y0225153D03*
X0312530Y0217672D03*
X0312430Y0211853D03*
X0312430Y0204372D03*
X0320697Y0208113D03*
X0320797Y0221413D03*
X0143097Y0115413D03*
X0133530Y0084772D03*
D17*
X0042397Y0186072D03*
X0042397Y0193553D03*
X0033736Y0189813D03*
X0043897Y0222272D03*
X0043897Y0229753D03*
X0035236Y0226013D03*
X0293136Y0153853D03*
X0293136Y0146372D03*
X0301797Y0150113D03*
X0322336Y0120453D03*
X0322336Y0112972D03*
X0330997Y0116713D03*
X0326597Y0184872D03*
X0326597Y0192353D03*
X0317936Y0188613D03*
D18*
X0295367Y0170743D03*
X0299107Y0162082D03*
X0291627Y0162082D03*
X0238767Y0104243D03*
X0242507Y0095582D03*
X0235027Y0095582D03*
X0115107Y0062082D03*
X0107627Y0062082D03*
X0111367Y0070743D03*
D19*
X0018667Y0025613D03*
X0018667Y0295613D03*
X0363667Y0295613D03*
X0363667Y0025613D03*
D20*
X0310765Y0116513D03*
X0310765Y0125313D03*
X0299568Y0125313D03*
X0299568Y0116513D03*
X0304765Y0135313D03*
X0293568Y0135313D03*
X0322968Y0127513D03*
X0334165Y0127513D03*
X0325265Y0172713D03*
X0314068Y0172713D03*
X0269165Y0199113D03*
X0257968Y0199113D03*
X0207765Y0230613D03*
X0207765Y0240713D03*
X0207765Y0250613D03*
X0196568Y0250613D03*
X0196568Y0240713D03*
X0196568Y0230613D03*
X0167265Y0220513D03*
X0167265Y0210813D03*
X0156068Y0210813D03*
X0156068Y0220513D03*
X0156168Y0199713D03*
X0156268Y0190813D03*
X0167465Y0190813D03*
X0167365Y0199713D03*
X0167465Y0172713D03*
X0156268Y0172713D03*
X0156068Y0161513D03*
X0156168Y0152213D03*
X0167365Y0152213D03*
X0167265Y0161513D03*
X0167365Y0129713D03*
X0167465Y0120613D03*
X0167465Y0110613D03*
X0156268Y0110613D03*
X0156268Y0120613D03*
X0156168Y0129713D03*
X0156068Y0096013D03*
X0156068Y0087113D03*
X0167265Y0087113D03*
X0167265Y0096013D03*
X0174068Y0073613D03*
X0185265Y0073613D03*
X0185265Y0061713D03*
X0174068Y0061713D03*
X0161565Y0056213D03*
X0150368Y0056213D03*
X0204268Y0062913D03*
X0215465Y0062913D03*
X0227368Y0071513D03*
X0238565Y0071513D03*
X0215365Y0080713D03*
X0204168Y0080713D03*
X0206068Y0116513D03*
X0217265Y0116513D03*
X0328668Y0216613D03*
X0328668Y0225113D03*
X0328668Y0233913D03*
X0328768Y0242613D03*
X0328668Y0251413D03*
X0328568Y0260213D03*
X0339765Y0260213D03*
X0339865Y0251413D03*
X0339965Y0242613D03*
X0339865Y0233913D03*
X0339865Y0225113D03*
X0339865Y0216613D03*
X0207765Y0260613D03*
X0196568Y0260613D03*
X0030465Y0209513D03*
X0030565Y0201213D03*
X0019368Y0201213D03*
X0019268Y0209513D03*
X0024265Y0271213D03*
X0013068Y0271213D03*
D21*
X0316367Y0162613D03*
X0321367Y0162613D03*
X0326367Y0162613D03*
X0331367Y0162613D03*
X0331367Y0142013D03*
X0326367Y0142013D03*
X0321367Y0142013D03*
X0316367Y0142013D03*
D22*
X0289467Y0204564D03*
X0289467Y0223461D03*
D23*
X0321167Y0107613D03*
X0321167Y0102613D03*
X0321167Y0097613D03*
X0321167Y0092613D03*
X0341767Y0092613D03*
X0341767Y0097613D03*
X0341767Y0102613D03*
X0341767Y0107613D03*
D24*
X0357567Y0109214D03*
X0357567Y0120411D03*
X0341267Y0136114D03*
X0341267Y0147311D03*
X0341167Y0157414D03*
X0341167Y0168611D03*
X0310467Y0185514D03*
X0310467Y0196711D03*
X0274367Y0186711D03*
X0274367Y0175514D03*
X0284467Y0164111D03*
X0284467Y0152914D03*
X0263567Y0153114D03*
X0263567Y0164311D03*
X0237167Y0164511D03*
X0237167Y0153314D03*
X0289667Y0110711D03*
X0289667Y0099514D03*
X0305367Y0098911D03*
X0305367Y0087714D03*
X0314967Y0085111D03*
X0323867Y0085111D03*
X0332867Y0085011D03*
X0341667Y0085011D03*
X0341667Y0073814D03*
X0332867Y0073814D03*
X0323867Y0073914D03*
X0314967Y0073914D03*
X0349667Y0058411D03*
X0349667Y0047214D03*
X0352767Y0075914D03*
X0352767Y0087111D03*
X0207667Y0095714D03*
X0207667Y0106911D03*
X0109667Y0096311D03*
X0109667Y0085114D03*
X0096367Y0061811D03*
X0104767Y0053711D03*
X0096367Y0050614D03*
X0104767Y0042514D03*
X0063567Y0089914D03*
X0054967Y0090014D03*
X0054967Y0101211D03*
X0063567Y0101111D03*
X0012667Y0088211D03*
X0012667Y0077014D03*
X0039667Y0034211D03*
X0039667Y0023014D03*
X0014567Y0164414D03*
X0014567Y0175611D03*
X0047067Y0203014D03*
X0047067Y0214211D03*
X0027867Y0223014D03*
X0027867Y0234211D03*
X0040667Y0254014D03*
X0050667Y0254014D03*
X0060667Y0254014D03*
X0070667Y0254014D03*
X0070667Y0265211D03*
X0060667Y0265211D03*
X0050667Y0265211D03*
X0040667Y0265211D03*
X0073467Y0224711D03*
X0073467Y0213514D03*
X0109167Y0210114D03*
X0109667Y0200811D03*
X0109667Y0189614D03*
X0109167Y0221311D03*
X0277767Y0238214D03*
X0277767Y0249411D03*
D25*
X0278667Y0260613D03*
X0268667Y0260613D03*
X0268667Y0270613D03*
X0278667Y0270613D03*
X0258667Y0270613D03*
X0258667Y0260613D03*
X0236367Y0291613D03*
X0226367Y0291613D03*
X0216367Y0291613D03*
X0216367Y0301613D03*
X0226367Y0301613D03*
X0236367Y0301613D03*
X0196667Y0301613D03*
X0186667Y0301613D03*
X0176667Y0301613D03*
X0176667Y0291613D03*
X0186667Y0291613D03*
X0196667Y0291613D03*
X0120667Y0029813D03*
X0110667Y0029813D03*
X0100667Y0029813D03*
X0090667Y0029813D03*
X0080667Y0029813D03*
X0070667Y0029813D03*
X0060667Y0029813D03*
X0060667Y0019813D03*
X0070667Y0019813D03*
X0080667Y0019813D03*
X0090667Y0019813D03*
X0100667Y0019813D03*
X0110667Y0019813D03*
X0120667Y0019813D03*
D26*
X0170767Y0019607D03*
X0170767Y0031418D03*
X0170767Y0041307D03*
X0170767Y0053118D03*
X0048567Y0034418D03*
X0048567Y0022607D03*
X0012667Y0048707D03*
X0012667Y0060518D03*
X0012667Y0097707D03*
X0012667Y0109518D03*
X0013567Y0247707D03*
X0013567Y0259518D03*
D27*
X0040958Y0167235D03*
X0040958Y0164085D03*
X0040958Y0160935D03*
X0040958Y0157786D03*
X0040958Y0154636D03*
X0040958Y0151487D03*
X0040958Y0148337D03*
X0040958Y0145187D03*
X0040958Y0142038D03*
X0040958Y0138888D03*
X0040958Y0135739D03*
X0040958Y0132589D03*
X0040958Y0129439D03*
X0040958Y0126290D03*
X0040958Y0123140D03*
X0040958Y0119991D03*
X0102375Y0119991D03*
X0102375Y0123140D03*
X0102375Y0126290D03*
X0102375Y0129439D03*
X0102375Y0132589D03*
X0102375Y0135739D03*
X0102375Y0138888D03*
X0102375Y0142038D03*
X0102375Y0145187D03*
X0102375Y0148337D03*
X0102375Y0151487D03*
X0102375Y0154636D03*
X0102375Y0157786D03*
X0102375Y0160935D03*
X0102375Y0164085D03*
X0102375Y0167235D03*
D28*
X0095289Y0174321D03*
X0092139Y0174321D03*
X0088989Y0174321D03*
X0085840Y0174321D03*
X0082690Y0174321D03*
X0079541Y0174321D03*
X0076391Y0174321D03*
X0073241Y0174321D03*
X0070092Y0174321D03*
X0066942Y0174321D03*
X0063793Y0174321D03*
X0060643Y0174321D03*
X0057493Y0174321D03*
X0054344Y0174321D03*
X0051194Y0174321D03*
X0048045Y0174321D03*
X0048045Y0112904D03*
X0051194Y0112904D03*
X0054344Y0112904D03*
X0057493Y0112904D03*
X0060643Y0112904D03*
X0063793Y0112904D03*
X0066942Y0112904D03*
X0070092Y0112904D03*
X0073241Y0112904D03*
X0076391Y0112904D03*
X0079541Y0112904D03*
X0082690Y0112904D03*
X0085840Y0112904D03*
X0088989Y0112904D03*
X0092139Y0112904D03*
X0095289Y0112904D03*
D29*
X0368167Y0079687D03*
X0368167Y0071813D03*
X0368167Y0063939D03*
D30*
X0368324Y0055671D03*
X0368324Y0087954D03*
D31*
X0150752Y0288913D03*
X0131067Y0288913D03*
X0111352Y0288913D03*
X0091667Y0288913D03*
D32*
X0185273Y0052246D03*
X0185273Y0049687D03*
X0185273Y0047128D03*
X0185273Y0044569D03*
X0185273Y0042010D03*
X0185273Y0039451D03*
X0185273Y0036892D03*
X0185273Y0034333D03*
X0185273Y0031774D03*
X0185273Y0029215D03*
X0185273Y0026656D03*
X0185273Y0024097D03*
X0185273Y0021538D03*
X0185273Y0018979D03*
X0214060Y0018979D03*
X0214060Y0021538D03*
X0214060Y0024097D03*
X0214060Y0026656D03*
X0214060Y0029215D03*
X0214060Y0031774D03*
X0214060Y0034333D03*
X0214060Y0036892D03*
X0214060Y0039451D03*
X0214060Y0042010D03*
X0214060Y0044569D03*
X0214060Y0047128D03*
X0214060Y0049687D03*
X0214060Y0052246D03*
D33*
X0144478Y0254392D03*
X0142509Y0254392D03*
X0140541Y0254392D03*
X0138572Y0254392D03*
X0136604Y0254392D03*
X0134635Y0254392D03*
X0134635Y0261872D03*
X0136604Y0261872D03*
X0138572Y0261872D03*
X0140541Y0261872D03*
X0142509Y0261872D03*
X0144478Y0261872D03*
X0099478Y0262872D03*
X0097509Y0262872D03*
X0095541Y0262872D03*
X0093572Y0262872D03*
X0091604Y0262872D03*
X0089635Y0262872D03*
X0089635Y0255392D03*
X0091604Y0255392D03*
X0093572Y0255392D03*
X0095541Y0255392D03*
X0097509Y0255392D03*
X0099478Y0255392D03*
D34*
X0094438Y0259132D03*
X0139438Y0258132D03*
D35*
X0240229Y0182752D03*
X0240229Y0179012D03*
X0240229Y0175272D03*
X0249245Y0175272D03*
X0249245Y0179012D03*
X0249245Y0182752D03*
D36*
X0290648Y0183799D03*
X0294388Y0183799D03*
X0298128Y0183799D03*
X0298089Y0194429D03*
X0290648Y0194429D03*
D37*
X0065373Y0215715D03*
X0065373Y0217683D03*
X0065373Y0219652D03*
X0065373Y0221620D03*
X0065373Y0223589D03*
X0056160Y0223550D03*
X0056160Y0221581D03*
X0056160Y0219613D03*
X0056160Y0217644D03*
X0056160Y0215676D03*
D38*
X0058798Y0214652D03*
X0060767Y0214652D03*
X0062735Y0214652D03*
X0062735Y0224573D03*
X0060767Y0224573D03*
X0058798Y0224573D03*
D39*
X0056755Y0203013D03*
X0067778Y0203013D03*
X0204255Y0071713D03*
X0215278Y0071713D03*
X0245455Y0116713D03*
X0256478Y0116713D03*
D40*
X0258588Y0058413D03*
X0248745Y0058413D03*
X0248745Y0050613D03*
X0258588Y0050613D03*
D41*
X0277367Y0039913D03*
X0229967Y0039913D03*
D42*
X0217467Y0091601D03*
X0217467Y0102624D03*
X0245967Y0153301D03*
X0254667Y0153201D03*
X0254667Y0164224D03*
X0245967Y0164324D03*
X0258067Y0176601D03*
X0258067Y0187624D03*
X0274367Y0164124D03*
X0274367Y0153101D03*
X0199867Y0162101D03*
X0199867Y0173124D03*
X0255067Y0222901D03*
X0263667Y0222801D03*
X0263667Y0233824D03*
X0255067Y0233924D03*
X0118667Y0248101D03*
X0118667Y0259124D03*
D43*
X0145467Y0038513D03*
X0155467Y0021513D03*
X0135467Y0021513D03*
D44*
X0241267Y0129801D03*
X0241267Y0140824D03*
D45*
X0256130Y0141082D03*
X0258098Y0141082D03*
X0260067Y0141082D03*
X0262035Y0141082D03*
X0264004Y0141082D03*
X0264004Y0129783D03*
X0262035Y0129743D03*
X0260067Y0129743D03*
X0258098Y0129743D03*
X0256130Y0129743D03*
D46*
X0254437Y0133050D03*
X0254437Y0134625D03*
X0254437Y0136200D03*
X0254437Y0137775D03*
X0265697Y0137775D03*
X0265697Y0136200D03*
X0265697Y0134625D03*
X0265697Y0133050D03*
D47*
X0260067Y0135413D03*
D48*
X0263267Y0096872D03*
X0263267Y0094313D03*
X0263267Y0091754D03*
X0256063Y0091754D03*
X0256063Y0094313D03*
X0256063Y0096872D03*
D49*
X0259645Y0096124D03*
X0259645Y0092462D03*
D50*
X0288967Y0083190D03*
X0288967Y0067835D03*
D51*
X0337189Y0203613D03*
X0352544Y0203613D03*
D52*
X0242331Y0083913D03*
X0225402Y0083913D03*
D53*
X0298967Y0086250D03*
X0298967Y0091369D03*
X0345567Y0112550D03*
X0345567Y0117669D03*
X0361067Y0100575D03*
X0361067Y0095457D03*
D54*
X0291929Y0117413D03*
X0286811Y0117413D03*
D55*
X0284567Y0105313D03*
X0297867Y0104813D03*
X0307367Y0109513D03*
X0313467Y0109613D03*
X0317167Y0116813D03*
X0312767Y0098913D03*
X0296067Y0095413D03*
X0300667Y0079913D03*
X0306367Y0078813D03*
X0326267Y0066713D03*
X0337567Y0060913D03*
X0349767Y0065011D03*
X0355967Y0102413D03*
X0365067Y0108713D03*
X0348167Y0130113D03*
X0341767Y0127113D03*
X0332667Y0133913D03*
X0320367Y0149313D03*
X0312067Y0141013D03*
X0311267Y0133913D03*
X0301867Y0141913D03*
X0293267Y0141613D03*
X0285467Y0135813D03*
X0276967Y0139613D03*
X0271967Y0133613D03*
X0277067Y0128013D03*
X0270867Y0124213D03*
X0264067Y0120013D03*
X0263167Y0114913D03*
X0249967Y0102413D03*
X0247967Y0093213D03*
X0234467Y0078813D03*
X0222367Y0063713D03*
X0207267Y0053713D03*
X0200767Y0045013D03*
X0200467Y0038913D03*
X0193467Y0039213D03*
X0191967Y0046813D03*
X0178567Y0039813D03*
X0178767Y0034813D03*
X0163567Y0043413D03*
X0178567Y0054613D03*
X0194667Y0063013D03*
X0170967Y0080313D03*
X0148967Y0100613D03*
X0165567Y0102613D03*
X0148867Y0116513D03*
X0149567Y0122613D03*
X0150267Y0135813D03*
X0151667Y0141613D03*
X0149267Y0152813D03*
X0146167Y0165813D03*
X0131167Y0166413D03*
X0127467Y0173913D03*
X0115267Y0182613D03*
X0110267Y0183113D03*
X0101667Y0179713D03*
X0102267Y0172413D03*
X0108967Y0165213D03*
X0112167Y0169713D03*
X0116567Y0162313D03*
X0113367Y0153713D03*
X0122667Y0149613D03*
X0119367Y0144413D03*
X0132467Y0131813D03*
X0122567Y0127713D03*
X0116767Y0126513D03*
X0120667Y0117813D03*
X0110567Y0106613D03*
X0116467Y0101613D03*
X0122567Y0095113D03*
X0113667Y0077113D03*
X0137267Y0078413D03*
X0143967Y0077613D03*
X0140167Y0068513D03*
X0143167Y0054113D03*
X0136667Y0054213D03*
X0118867Y0055413D03*
X0112067Y0042213D03*
X0129467Y0032613D03*
X0132067Y0040013D03*
X0162767Y0023813D03*
X0162167Y0018013D03*
X0220867Y0049113D03*
X0223067Y0029113D03*
X0224067Y0018313D03*
X0287167Y0022813D03*
X0288667Y0049913D03*
X0216867Y0110213D03*
X0199967Y0123313D03*
X0211267Y0129213D03*
X0214367Y0134713D03*
X0205067Y0144813D03*
X0200467Y0139713D03*
X0200167Y0149613D03*
X0200467Y0155213D03*
X0208267Y0169613D03*
X0201567Y0180313D03*
X0193467Y0174413D03*
X0189567Y0183313D03*
X0171667Y0179913D03*
X0167467Y0183313D03*
X0148667Y0191713D03*
X0134767Y0193613D03*
X0135467Y0198813D03*
X0134467Y0210313D03*
X0135967Y0214613D03*
X0130967Y0218413D03*
X0130267Y0229413D03*
X0129767Y0236313D03*
X0115867Y0226613D03*
X0115367Y0217713D03*
X0115767Y0207313D03*
X0097367Y0196813D03*
X0089067Y0193813D03*
X0079267Y0190513D03*
X0073167Y0193613D03*
X0068167Y0193613D03*
X0059467Y0196613D03*
X0053967Y0196713D03*
X0047667Y0193813D03*
X0051467Y0185113D03*
X0042967Y0175613D03*
X0037167Y0175513D03*
X0034967Y0185013D03*
X0035267Y0194413D03*
X0037367Y0204513D03*
X0032767Y0216413D03*
X0049267Y0222713D03*
X0057367Y0230813D03*
X0061667Y0233413D03*
X0066667Y0232913D03*
X0079867Y0222713D03*
X0084867Y0228113D03*
X0088567Y0222613D03*
X0079967Y0216713D03*
X0081267Y0209013D03*
X0087367Y0207413D03*
X0076167Y0201813D03*
X0062667Y0209513D03*
X0054667Y0209713D03*
X0035367Y0233813D03*
X0046167Y0236113D03*
X0027767Y0249513D03*
X0031167Y0254313D03*
X0028367Y0260913D03*
X0017367Y0238713D03*
X0011167Y0235113D03*
X0012667Y0228013D03*
X0010667Y0187813D03*
X0014667Y0183113D03*
X0023367Y0188913D03*
X0025067Y0177513D03*
X0020667Y0159613D03*
X0032667Y0143613D03*
X0032767Y0137413D03*
X0032167Y0129213D03*
X0034567Y0122713D03*
X0035067Y0116713D03*
X0047267Y0124413D03*
X0047167Y0129713D03*
X0047367Y0135613D03*
X0060867Y0138213D03*
X0061967Y0146813D03*
X0063867Y0154113D03*
X0072267Y0152613D03*
X0077767Y0149013D03*
X0084067Y0146113D03*
X0070767Y0146213D03*
X0084867Y0161713D03*
X0079867Y0164713D03*
X0071567Y0168513D03*
X0063367Y0164813D03*
X0054967Y0165613D03*
X0050267Y0168213D03*
X0046767Y0156713D03*
X0046567Y0151513D03*
X0021667Y0137013D03*
X0017667Y0126613D03*
X0012667Y0122613D03*
X0008767Y0118013D03*
X0018667Y0116913D03*
X0028667Y0104413D03*
X0037767Y0101613D03*
X0048267Y0101213D03*
X0070267Y0085113D03*
X0069867Y0080013D03*
X0078767Y0106313D03*
X0087167Y0118713D03*
X0068867Y0119413D03*
X0060867Y0122513D03*
X0095767Y0134913D03*
X0094167Y0162113D03*
X0094267Y0182513D03*
X0089067Y0186213D03*
X0082467Y0182213D03*
X0085567Y0235213D03*
X0088467Y0241313D03*
X0088967Y0249313D03*
X0085667Y0255313D03*
X0081467Y0262613D03*
X0084667Y0272613D03*
X0104667Y0256613D03*
X0099667Y0249813D03*
X0098967Y0244713D03*
X0109867Y0246113D03*
X0114067Y0236213D03*
X0104067Y0236213D03*
X0127467Y0248213D03*
X0126667Y0253613D03*
X0137467Y0249113D03*
X0144367Y0249913D03*
X0151767Y0259113D03*
X0157567Y0248113D03*
X0169667Y0245613D03*
X0170267Y0240513D03*
X0169967Y0235813D03*
X0169767Y0253613D03*
X0149167Y0232713D03*
X0145367Y0236313D03*
X0149867Y0226513D03*
X0149667Y0214513D03*
X0150267Y0205113D03*
X0203467Y0209813D03*
X0214367Y0204413D03*
X0211267Y0194313D03*
X0205067Y0199113D03*
X0208267Y0222113D03*
X0230067Y0243213D03*
X0230067Y0255113D03*
X0229367Y0262613D03*
X0243367Y0255913D03*
X0254467Y0248313D03*
X0257167Y0240213D03*
X0268467Y0248613D03*
X0274267Y0227913D03*
X0261567Y0215613D03*
X0269267Y0205513D03*
X0285167Y0188313D03*
X0289767Y0178013D03*
X0282967Y0176213D03*
X0267767Y0175513D03*
X0242967Y0198913D03*
X0239467Y0204313D03*
X0232867Y0194213D03*
X0234367Y0175413D03*
X0170967Y0137013D03*
X0166467Y0143513D03*
X0233667Y0119613D03*
X0240867Y0123613D03*
X0210567Y0088113D03*
X0204267Y0088113D03*
X0306667Y0172213D03*
X0303067Y0186513D03*
X0303567Y0194613D03*
X0303567Y0215113D03*
X0299667Y0231213D03*
X0321667Y0228213D03*
X0322167Y0215213D03*
X0323867Y0203313D03*
X0342067Y0189813D03*
X0342467Y0182813D03*
X0339867Y0176113D03*
X0346767Y0175413D03*
X0348167Y0217713D03*
X0321667Y0241713D03*
X0324267Y0268513D03*
X0324667Y0273913D03*
X0245767Y0292213D03*
X0241467Y0274313D03*
X0172667Y0276513D03*
X0126667Y0273613D03*
X0129167Y0260613D03*
X0338167Y0117013D03*
X0048667Y0041613D03*
X0038667Y0016613D03*
M02*
