%
M48
M72
T01C0.01969
T02C0.03150
T03C0.03600
T04C0.04000
T05C0.05118
T06C0.05906
T07C0.09000
T08C0.11024
T09C0.11800
%
T01
X38667Y16613
X48667Y41613
X69867Y80013
X70267Y85113
X48267Y101213
X37767Y101613
X28667Y104413
X35067Y116713
X34567Y122713
X32167Y129213
X32767Y137413
X32667Y143613
X21667Y137013
X17667Y126613
X12667Y122613
X8767Y118013
X18667Y116913
X47267Y124413
X47167Y129713
X47367Y135613
X60867Y138213
X61967Y146813
X63867Y154113
X72267Y152613
X77767Y149013
X84067Y146113
X70767Y146213
X84867Y161713
X79867Y164713
X71567Y168513
X63367Y164813
X54967Y165613
X50267Y168213
X42967Y175613
X37167Y175513
X34967Y185013
X35267Y194413
X37367Y204513
X47667Y193813
X53967Y196713
X59467Y196613
X68167Y193613
X73167Y193613
X79267Y190513
X89067Y193813
X97367Y196813
X89067Y186213
X94267Y182513
X101667Y179713
X102267Y172413
X108967Y165213
X112167Y169713
X116567Y162313
X113367Y153713
X122667Y149613
X119367Y144413
X132467Y131813
X122567Y127713
X116767Y126513
X120667Y117813
X110567Y106613
X116467Y101613
X122567Y95113
X113667Y77113
X137267Y78413
X143967Y77613
X140167Y68513
X143167Y54113
X136667Y54213
X118867Y55413
X112067Y42213
X129467Y32613
X132067Y40013
X163567Y43413
X178567Y39813
X178767Y34813
X193467Y39213
X200467Y38913
X200767Y45013
X191967Y46813
X178567Y54613
X194667Y63013
X207267Y53713
X220867Y49113
X222367Y63713
X234467Y78813
X247967Y93213
X249967Y102413
X263167Y114913
X264067Y120013
X270867Y124213
X277067Y128013
X271967Y133613
X276967Y139613
X285467Y135813
X293267Y141613
X301867Y141913
X311267Y133913
X312067Y141013
X320367Y149313
X332667Y133913
X341767Y127113
X348167Y130113
X338167Y117013
X317167Y116813
X313467Y109613
X307367Y109513
X297867Y104813
X296067Y95413
X284567Y105313
X312767Y98913
X300667Y79913
X306367Y78813
X326267Y66713
X337567Y60913
X349767Y65011
X355967Y102413
X365067Y108713
X288667Y49913
X287167Y22813
X224067Y18313
X223067Y29113
X162767Y23813
X162167Y18013
X170967Y80313
X148967Y100613
X165567Y102613
X148867Y116513
X149567Y122613
X150267Y135813
X151667Y141613
X149267Y152813
X146167Y165813
X131167Y166413
X127467Y173913
X115267Y182613
X110267Y183113
X94167Y162113
X82467Y182213
X76167Y201813
X81267Y209013
X87367Y207413
X79967Y216713
X79867Y222713
X84867Y228113
X88567Y222613
X85567Y235213
X88467Y241313
X88967Y249313
X85667Y255313
X81467Y262613
X84667Y272613
X104667Y256613
X99667Y249813
X98967Y244713
X109867Y246113
X114067Y236213
X104067Y236213
X115867Y226613
X115367Y217713
X115767Y207313
X130967Y218413
X135967Y214613
X134467Y210313
X149667Y214513
X150267Y205113
X148667Y191713
X134767Y193613
X135467Y198813
X167467Y183313
X171667Y179913
X189567Y183313
X193467Y174413
X201567Y180313
X208267Y169613
X200467Y155213
X200167Y149613
X205067Y144813
X200467Y139713
X214367Y134713
X211267Y129213
X199967Y123313
X216867Y110213
X233667Y119613
X240867Y123613
X210567Y88113
X204267Y88113
X170967Y137013
X166467Y143513
X211267Y194313
X205067Y199113
X214367Y204413
X203467Y209813
X208267Y222113
X230067Y243213
X230067Y255113
X229367Y262613
X243367Y255913
X254467Y248313
X257167Y240213
X268467Y248613
X274267Y227913
X261567Y215613
X269267Y205513
X285167Y188313
X289767Y178013
X282967Y176213
X267767Y175513
X242967Y198913
X239467Y204313
X232867Y194213
X234367Y175413
X303067Y186513
X303567Y194613
X303567Y215113
X299667Y231213
X321667Y228213
X322167Y215213
X323867Y203313
X342067Y189813
X342467Y182813
X339867Y176113
X346767Y175413
X306667Y172213
X348167Y217713
X321667Y241713
X324267Y268513
X324667Y273913
X245767Y292213
X241467Y274313
X172667Y276513
X151767Y259113
X144367Y249913
X137467Y249113
X127467Y248213
X126667Y253613
X129167Y260613
X126667Y273613
X157567Y248113
X169667Y245613
X170267Y240513
X169967Y235813
X169767Y253613
X149167Y232713
X145367Y236313
X149867Y226513
X130267Y229413
X129767Y236313
X66667Y232913
X61667Y233413
X57367Y230813
X49267Y222713
X46167Y236113
X35367Y233813
X17367Y238713
X11167Y235113
X12667Y228013
X32767Y216413
X54667Y209713
X62667Y209513
X51467Y185113
X25067Y177513
X14667Y183113
X10667Y187813
X23367Y188913
X20667Y159613
X46767Y156713
X46567Y151513
X60867Y122513
X68867Y119413
X78767Y106313
X87167Y118713
X95767Y134913
X27767Y249513
X31167Y254313
X28367Y260913
T02
X368167Y79687
X368167Y71813
X368167Y63939
T03
X258588Y58413
X248745Y58413
X248745Y50613
X258588Y50613
T04
X178667Y84613
X178667Y94613
X178667Y104613
X178667Y114613
X178667Y124613
X178667Y134613
X178667Y144613
X178667Y154613
X178667Y164613
X178667Y174613
X178667Y190613
X178667Y200613
X178667Y210613
X178667Y220613
X178667Y230613
X178667Y240613
X178667Y250613
X178667Y260613
X176667Y291613
X186667Y291613
X196667Y291613
X196667Y301613
X186667Y301613
X176667Y301613
X216367Y301613
X226367Y301613
X236367Y301613
X236367Y291613
X226367Y291613
X216367Y291613
X249867Y283713
X258667Y270613
X268667Y270613
X278667Y270613
X278667Y260613
X268667Y260613
X258667Y260613
X275467Y283713
X275467Y301513
X298867Y301513
X298867Y283713
X324467Y283713
X324467Y301513
X368667Y260613
X368667Y250613
X368667Y240613
X368667Y230613
X368667Y220613
X368667Y210613
X368667Y190613
X368667Y180613
X368667Y170613
X368667Y160613
X368667Y150613
X368667Y140613
X368667Y130613
X368667Y120613
X249867Y301513
X122767Y237613
X122767Y227613
X122767Y217613
X122767Y207613
X122767Y197613
X122767Y187613
X135667Y184813
X135667Y174813
X13667Y153613
X13667Y143613
X13667Y133613
X60667Y29813
X70667Y29813
X80667Y29813
X90667Y29813
X100667Y29813
X110667Y29813
X120667Y29813
X120667Y19813
X110667Y19813
X100667Y19813
X90667Y19813
X80667Y19813
X70667Y19813
X60667Y19813
X60667Y282613
X70667Y282613
X70667Y292613
X60667Y292613
X60667Y302613
X70667Y302613
X50667Y302613
X40667Y302613
X40667Y292613
X50667Y292613
X50667Y282613
X40667Y282613
T05
X91667Y288913
X111352Y288913
X131067Y288913
X150752Y288913
T06
X368324Y87954
X368324Y55671
T07
X277367Y39913
X229967Y39913
T08
X18667Y25613
X18667Y295613
X363667Y295613
X363667Y25613
T09
X334471Y47739
X315967Y59550
X315967Y35928
M30
