G75*
%MOIN*%
%OFA0B0*%
%FSLAX25Y25*%
%IPPOS*%
%LPD*%
%AMOC8*
5,1,8,0,0,1.08239X$1,22.5*
%
%ADD10C,0.17800*%
%ADD11R,0.08200X0.08200*%
%ADD12C,0.08200*%
%ADD13C,0.11824*%
%ADD14OC8,0.08200*%
%ADD15R,0.05950X0.05950*%
%ADD16C,0.06706*%
%ADD17R,0.08477X0.08477*%
%ADD18C,0.07400*%
%ADD19C,0.13800*%
%ADD20R,0.07898X0.07099*%
%ADD21R,0.01784X0.02769*%
%ADD22R,0.02769X0.01784*%
%ADD23R,0.07099X0.07887*%
%ADD24R,0.03950X0.06706*%
%ADD25R,0.06706X0.03950*%
%ADD26R,0.03300X0.03950*%
%ADD27R,0.01981X0.03950*%
%ADD28R,0.03950X0.01981*%
%ADD29R,0.07099X0.07898*%
%ADD30R,0.02178X0.06312*%
%ADD31R,0.07887X0.08280*%
%ADD32R,0.08280X0.08280*%
%ADD33R,0.05800X0.10800*%
%ADD34C,0.04369*%
D10*
X0315967Y0035928D03*
X0334471Y0047739D03*
X0315967Y0059550D03*
D11*
X0368667Y0120613D03*
X0178667Y0260613D03*
X0040667Y0282613D03*
X0040667Y0292613D03*
X0040667Y0302613D03*
D12*
X0050667Y0302613D03*
X0060667Y0302613D03*
X0070667Y0302613D03*
X0070667Y0292613D03*
X0060667Y0292613D03*
X0050667Y0292613D03*
X0050667Y0282613D03*
X0060667Y0282613D03*
X0070667Y0282613D03*
X0122767Y0237613D03*
X0122767Y0227613D03*
X0122767Y0217613D03*
X0122767Y0207613D03*
X0122767Y0197613D03*
X0122767Y0187613D03*
X0135667Y0184813D03*
X0135667Y0174813D03*
X0178667Y0174613D03*
X0178667Y0164613D03*
X0178667Y0154613D03*
X0178667Y0144613D03*
X0178667Y0134613D03*
X0178667Y0124613D03*
X0178667Y0114613D03*
X0178667Y0104613D03*
X0178667Y0094613D03*
X0178667Y0084613D03*
X0178667Y0190613D03*
X0178667Y0200613D03*
X0178667Y0210613D03*
X0178667Y0220613D03*
X0178667Y0230613D03*
X0178667Y0240613D03*
X0178667Y0250613D03*
X0249867Y0283713D03*
X0249867Y0301513D03*
X0275467Y0301513D03*
X0275467Y0283713D03*
X0298867Y0283713D03*
X0298867Y0301513D03*
X0324467Y0301513D03*
X0324467Y0283713D03*
X0368667Y0260613D03*
X0368667Y0250613D03*
X0368667Y0240613D03*
X0368667Y0230613D03*
X0368667Y0220613D03*
X0368667Y0210613D03*
X0368667Y0190613D03*
X0368667Y0180613D03*
X0368667Y0170613D03*
X0368667Y0160613D03*
X0368667Y0150613D03*
X0368667Y0140613D03*
X0368667Y0130613D03*
X0013667Y0133613D03*
X0013667Y0143613D03*
X0013667Y0153613D03*
D13*
X0018667Y0025613D03*
X0018667Y0295613D03*
X0363667Y0295613D03*
X0363667Y0025613D03*
D14*
X0120667Y0029813D03*
X0110667Y0029813D03*
X0100667Y0029813D03*
X0090667Y0029813D03*
X0080667Y0029813D03*
X0070667Y0029813D03*
X0060667Y0029813D03*
X0060667Y0019813D03*
X0070667Y0019813D03*
X0080667Y0019813D03*
X0090667Y0019813D03*
X0100667Y0019813D03*
X0110667Y0019813D03*
X0120667Y0019813D03*
X0258667Y0260613D03*
X0258667Y0270613D03*
X0268667Y0270613D03*
X0278667Y0270613D03*
X0278667Y0260613D03*
X0268667Y0260613D03*
X0236367Y0291613D03*
X0226367Y0291613D03*
X0216367Y0291613D03*
X0216367Y0301613D03*
X0226367Y0301613D03*
X0236367Y0301613D03*
X0196667Y0301613D03*
X0186667Y0301613D03*
X0176667Y0301613D03*
X0176667Y0291613D03*
X0186667Y0291613D03*
X0196667Y0291613D03*
D15*
X0368167Y0079687D03*
X0368167Y0071813D03*
X0368167Y0063939D03*
D16*
X0368324Y0055671D03*
X0368324Y0087954D03*
D17*
X0150752Y0288913D03*
X0131067Y0288913D03*
X0111352Y0288913D03*
X0091667Y0288913D03*
D18*
X0248745Y0058413D03*
X0258588Y0058413D03*
X0258588Y0050613D03*
X0248745Y0050613D03*
D19*
X0229967Y0039913D03*
X0277367Y0039913D03*
D20*
X0073067Y0059914D03*
X0073067Y0071111D03*
D21*
X0157630Y0086728D03*
X0159598Y0086728D03*
X0161567Y0086728D03*
X0163535Y0086728D03*
X0165504Y0086728D03*
X0165504Y0096098D03*
X0163535Y0096098D03*
X0161567Y0096098D03*
X0159598Y0096098D03*
X0157630Y0096098D03*
D22*
X0156882Y0093381D03*
X0156882Y0091413D03*
X0156882Y0089444D03*
X0166252Y0089444D03*
X0166252Y0091413D03*
X0166252Y0093381D03*
D23*
X0164178Y0078013D03*
X0153155Y0078013D03*
X0142878Y0085413D03*
X0142978Y0094413D03*
X0131955Y0094413D03*
X0131855Y0085413D03*
X0120678Y0084613D03*
X0109655Y0084613D03*
X0105278Y0070113D03*
X0094255Y0070113D03*
X0150755Y0066913D03*
X0161778Y0066913D03*
D24*
X0052424Y0048821D03*
X0047700Y0048821D03*
X0042975Y0048821D03*
X0038251Y0048821D03*
X0033527Y0048821D03*
X0028802Y0048821D03*
X0024078Y0048821D03*
X0019353Y0048821D03*
X0019353Y0092128D03*
X0024078Y0092128D03*
X0028802Y0092128D03*
X0033527Y0092128D03*
X0038251Y0092128D03*
X0042975Y0092128D03*
X0047700Y0092128D03*
X0052424Y0092128D03*
D25*
X0061282Y0082286D03*
X0061282Y0077561D03*
X0061282Y0072837D03*
X0061282Y0068113D03*
X0061282Y0063388D03*
X0061282Y0058664D03*
D26*
X0062345Y0047443D03*
X0062345Y0093506D03*
D27*
X0121630Y0072052D03*
X0123598Y0072052D03*
X0125567Y0072052D03*
X0127535Y0072052D03*
X0129504Y0072052D03*
X0129504Y0061973D03*
X0127535Y0061973D03*
X0125567Y0061973D03*
X0123598Y0061973D03*
X0121630Y0061973D03*
D28*
X0120527Y0065044D03*
X0120527Y0067013D03*
X0120527Y0068981D03*
X0130606Y0068981D03*
X0130606Y0067013D03*
X0130606Y0065044D03*
D29*
X0100065Y0094713D03*
X0088868Y0094713D03*
D30*
X0182449Y0030246D03*
X0185008Y0030246D03*
X0187567Y0030246D03*
X0190126Y0030246D03*
X0192685Y0030246D03*
D31*
X0203315Y0019813D03*
X0171819Y0019813D03*
D32*
X0182567Y0019813D03*
X0192567Y0019813D03*
D33*
X0326667Y0100113D03*
X0336667Y0100113D03*
D34*
X0338167Y0117013D03*
X0341767Y0127113D03*
X0348167Y0130113D03*
X0332667Y0133913D03*
X0320367Y0149313D03*
X0312067Y0141013D03*
X0311267Y0133913D03*
X0301867Y0141913D03*
X0293267Y0141613D03*
X0285467Y0135813D03*
X0276967Y0139613D03*
X0271967Y0133613D03*
X0277067Y0128013D03*
X0270867Y0124213D03*
X0264067Y0120013D03*
X0263167Y0114913D03*
X0249967Y0102413D03*
X0247967Y0093213D03*
X0234467Y0078813D03*
X0222367Y0063713D03*
X0207267Y0053713D03*
X0200767Y0045013D03*
X0200467Y0038913D03*
X0193467Y0039213D03*
X0191967Y0046813D03*
X0178567Y0039813D03*
X0178767Y0034813D03*
X0163567Y0043413D03*
X0178567Y0054613D03*
X0194667Y0063013D03*
X0170967Y0080313D03*
X0148967Y0100613D03*
X0165567Y0102613D03*
X0148867Y0116513D03*
X0149567Y0122613D03*
X0150267Y0135813D03*
X0151667Y0141613D03*
X0149267Y0152813D03*
X0146167Y0165813D03*
X0131167Y0166413D03*
X0127467Y0173913D03*
X0115267Y0182613D03*
X0110267Y0183113D03*
X0101667Y0179713D03*
X0102267Y0172413D03*
X0108967Y0165213D03*
X0112167Y0169713D03*
X0116567Y0162313D03*
X0113367Y0153713D03*
X0122667Y0149613D03*
X0119367Y0144413D03*
X0132467Y0131813D03*
X0122567Y0127713D03*
X0116767Y0126513D03*
X0120667Y0117813D03*
X0110567Y0106613D03*
X0116467Y0101613D03*
X0122567Y0095113D03*
X0113667Y0077113D03*
X0137267Y0078413D03*
X0143967Y0077613D03*
X0140167Y0068513D03*
X0143167Y0054113D03*
X0136667Y0054213D03*
X0118867Y0055413D03*
X0112067Y0042213D03*
X0129467Y0032613D03*
X0132067Y0040013D03*
X0162767Y0023813D03*
X0162167Y0018013D03*
X0220867Y0049113D03*
X0223067Y0029113D03*
X0224067Y0018313D03*
X0287167Y0022813D03*
X0288667Y0049913D03*
X0306367Y0078813D03*
X0300667Y0079913D03*
X0296067Y0095413D03*
X0297867Y0104813D03*
X0307367Y0109513D03*
X0313467Y0109613D03*
X0317167Y0116813D03*
X0312767Y0098913D03*
X0284567Y0105313D03*
X0240867Y0123613D03*
X0233667Y0119613D03*
X0216867Y0110213D03*
X0199967Y0123313D03*
X0211267Y0129213D03*
X0214367Y0134713D03*
X0205067Y0144813D03*
X0200467Y0139713D03*
X0200167Y0149613D03*
X0200467Y0155213D03*
X0208267Y0169613D03*
X0201567Y0180313D03*
X0193467Y0174413D03*
X0189567Y0183313D03*
X0171667Y0179913D03*
X0167467Y0183313D03*
X0148667Y0191713D03*
X0134767Y0193613D03*
X0135467Y0198813D03*
X0134467Y0210313D03*
X0135967Y0214613D03*
X0130967Y0218413D03*
X0130267Y0229413D03*
X0129767Y0236313D03*
X0115867Y0226613D03*
X0115367Y0217713D03*
X0115767Y0207313D03*
X0097367Y0196813D03*
X0089067Y0193813D03*
X0079267Y0190513D03*
X0073167Y0193613D03*
X0068167Y0193613D03*
X0059467Y0196613D03*
X0053967Y0196713D03*
X0047667Y0193813D03*
X0051467Y0185113D03*
X0042967Y0175613D03*
X0037167Y0175513D03*
X0034967Y0185013D03*
X0035267Y0194413D03*
X0037367Y0204513D03*
X0032767Y0216413D03*
X0049267Y0222713D03*
X0057367Y0230813D03*
X0061667Y0233413D03*
X0066667Y0232913D03*
X0079867Y0222713D03*
X0084867Y0228113D03*
X0088567Y0222613D03*
X0079967Y0216713D03*
X0081267Y0209013D03*
X0087367Y0207413D03*
X0076167Y0201813D03*
X0062667Y0209513D03*
X0054667Y0209713D03*
X0035367Y0233813D03*
X0046167Y0236113D03*
X0027767Y0249513D03*
X0031167Y0254313D03*
X0028367Y0260913D03*
X0017367Y0238713D03*
X0011167Y0235113D03*
X0012667Y0228013D03*
X0010667Y0187813D03*
X0014667Y0183113D03*
X0023367Y0188913D03*
X0025067Y0177513D03*
X0020667Y0159613D03*
X0032667Y0143613D03*
X0032767Y0137413D03*
X0032167Y0129213D03*
X0034567Y0122713D03*
X0035067Y0116713D03*
X0047267Y0124413D03*
X0047167Y0129713D03*
X0047367Y0135613D03*
X0060867Y0138213D03*
X0061967Y0146813D03*
X0063867Y0154113D03*
X0072267Y0152613D03*
X0077767Y0149013D03*
X0084067Y0146113D03*
X0070767Y0146213D03*
X0084867Y0161713D03*
X0079867Y0164713D03*
X0071567Y0168513D03*
X0063367Y0164813D03*
X0054967Y0165613D03*
X0050267Y0168213D03*
X0046767Y0156713D03*
X0046567Y0151513D03*
X0021667Y0137013D03*
X0017667Y0126613D03*
X0012667Y0122613D03*
X0008767Y0118013D03*
X0018667Y0116913D03*
X0028667Y0104413D03*
X0037767Y0101613D03*
X0048267Y0101213D03*
X0070267Y0085113D03*
X0069867Y0080013D03*
X0078767Y0106313D03*
X0087167Y0118713D03*
X0068867Y0119413D03*
X0060867Y0122513D03*
X0095767Y0134913D03*
X0094167Y0162113D03*
X0094267Y0182513D03*
X0089067Y0186213D03*
X0082467Y0182213D03*
X0085567Y0235213D03*
X0088467Y0241313D03*
X0088967Y0249313D03*
X0085667Y0255313D03*
X0081467Y0262613D03*
X0084667Y0272613D03*
X0104667Y0256613D03*
X0099667Y0249813D03*
X0098967Y0244713D03*
X0109867Y0246113D03*
X0114067Y0236213D03*
X0104067Y0236213D03*
X0127467Y0248213D03*
X0126667Y0253613D03*
X0137467Y0249113D03*
X0144367Y0249913D03*
X0151767Y0259113D03*
X0157567Y0248113D03*
X0169667Y0245613D03*
X0170267Y0240513D03*
X0169967Y0235813D03*
X0169767Y0253613D03*
X0149167Y0232713D03*
X0145367Y0236313D03*
X0149867Y0226513D03*
X0149667Y0214513D03*
X0150267Y0205113D03*
X0203467Y0209813D03*
X0214367Y0204413D03*
X0211267Y0194313D03*
X0205067Y0199113D03*
X0208267Y0222113D03*
X0230067Y0243213D03*
X0230067Y0255113D03*
X0229367Y0262613D03*
X0243367Y0255913D03*
X0254467Y0248313D03*
X0257167Y0240213D03*
X0268467Y0248613D03*
X0274267Y0227913D03*
X0261567Y0215613D03*
X0269267Y0205513D03*
X0285167Y0188313D03*
X0289767Y0178013D03*
X0282967Y0176213D03*
X0267767Y0175513D03*
X0242967Y0198913D03*
X0239467Y0204313D03*
X0232867Y0194213D03*
X0234367Y0175413D03*
X0170967Y0137013D03*
X0166467Y0143513D03*
X0204267Y0088113D03*
X0210567Y0088113D03*
X0306667Y0172213D03*
X0303067Y0186513D03*
X0303567Y0194613D03*
X0303567Y0215113D03*
X0299667Y0231213D03*
X0321667Y0228213D03*
X0322167Y0215213D03*
X0323867Y0203313D03*
X0342067Y0189813D03*
X0342467Y0182813D03*
X0339867Y0176113D03*
X0346767Y0175413D03*
X0348167Y0217713D03*
X0321667Y0241713D03*
X0324267Y0268513D03*
X0324667Y0273913D03*
X0245767Y0292213D03*
X0241467Y0274313D03*
X0172667Y0276513D03*
X0126667Y0273613D03*
X0129167Y0260613D03*
X0355967Y0102413D03*
X0365067Y0108713D03*
X0326267Y0066713D03*
X0337567Y0060913D03*
X0349767Y0065011D03*
X0048667Y0041613D03*
X0038667Y0016613D03*
M02*
