G75*
%MOIN*%
%OFA0B0*%
%FSLAX25Y25*%
%IPPOS*%
%LPD*%
%AMOC8*
5,1,8,0,0,1.08239X$1,22.5*
%
%ADD10R,0.05906X0.21654*%
%ADD11R,0.04724X0.03150*%
%ADD12R,0.03150X0.03543*%
%ADD13R,0.03543X0.03150*%
%ADD14R,0.05512X0.03937*%
%ADD15R,0.03937X0.05512*%
%ADD16R,0.06299X0.07098*%
%ADD17R,0.02400X0.08700*%
%ADD18R,0.05512X0.11811*%
%ADD19R,0.08700X0.02400*%
%ADD20R,0.07098X0.06299*%
%ADD21R,0.05512X0.04724*%
%ADD22R,0.04700X0.02200*%
%ADD23R,0.02200X0.04700*%
%ADD24R,0.05500X0.01370*%
%ADD25R,0.01102X0.01969*%
%ADD26R,0.07874X0.03543*%
%ADD27R,0.02756X0.01575*%
%ADD28R,0.02362X0.04134*%
%ADD29R,0.02638X0.00984*%
%ADD30R,0.00984X0.02638*%
%ADD31R,0.06299X0.07087*%
%ADD32R,0.07087X0.06299*%
%ADD33R,0.04700X0.13000*%
%ADD34R,0.14567X0.04724*%
%ADD35R,0.00984X0.02756*%
%ADD36R,0.02756X0.00984*%
%ADD37R,0.08504X0.06693*%
%ADD38R,0.01378X0.01181*%
%ADD39R,0.03740X0.02362*%
%ADD40R,0.13386X0.07480*%
%ADD41R,0.07480X0.13386*%
%ADD42R,0.05000X0.05787*%
%ADD43R,0.01969X0.02756*%
%ADD44R,0.02756X0.01969*%
D10*
X0036567Y0052983D03*
X0036567Y0086842D03*
D11*
X0050567Y0082956D03*
X0050567Y0075869D03*
X0050667Y0067456D03*
X0050667Y0060369D03*
D12*
X0144727Y0068576D03*
X0152207Y0068576D03*
X0148467Y0076843D03*
X0148867Y0176082D03*
X0152607Y0184350D03*
X0145127Y0184350D03*
X0157367Y0229582D03*
X0161107Y0237850D03*
X0153627Y0237850D03*
X0341227Y0275150D03*
X0348707Y0275150D03*
X0344967Y0266882D03*
D13*
X0320797Y0263013D03*
X0312530Y0266753D03*
X0312530Y0259272D03*
X0312530Y0252753D03*
X0312530Y0245272D03*
X0312430Y0238853D03*
X0320697Y0235113D03*
X0312430Y0231372D03*
X0312530Y0225153D03*
X0312530Y0217672D03*
X0312430Y0211853D03*
X0312430Y0204372D03*
X0320697Y0208113D03*
X0320797Y0221413D03*
X0320797Y0249013D03*
X0224604Y0245872D03*
X0224604Y0240353D03*
X0224604Y0232872D03*
X0224604Y0227353D03*
X0224604Y0219872D03*
X0216336Y0223613D03*
X0216336Y0236613D03*
X0216336Y0249613D03*
X0224604Y0253353D03*
X0224604Y0258872D03*
X0224604Y0266353D03*
X0216336Y0262613D03*
X0148597Y0222213D03*
X0140330Y0225953D03*
X0140330Y0218472D03*
X0140330Y0213753D03*
X0148597Y0210013D03*
X0140330Y0206272D03*
X0139330Y0200553D03*
X0147597Y0196813D03*
X0139330Y0193072D03*
X0139630Y0164553D03*
X0139630Y0157072D03*
X0139530Y0149253D03*
X0147797Y0145513D03*
X0139530Y0141772D03*
X0139530Y0134253D03*
X0147797Y0130513D03*
X0139530Y0126772D03*
X0134830Y0119153D03*
X0134830Y0111672D03*
X0134730Y0105253D03*
X0142997Y0101513D03*
X0134730Y0097772D03*
X0133530Y0092253D03*
X0141797Y0088513D03*
X0133530Y0084772D03*
X0158330Y0076553D03*
X0166597Y0072813D03*
X0158330Y0069072D03*
X0143097Y0115413D03*
X0147897Y0160813D03*
X0081204Y0237972D03*
X0072936Y0241713D03*
X0068204Y0245553D03*
X0059936Y0241813D03*
X0055004Y0238272D03*
X0055004Y0245753D03*
X0046736Y0242013D03*
X0041604Y0245553D03*
X0033336Y0241813D03*
X0041604Y0238072D03*
X0068204Y0238072D03*
X0081204Y0245453D03*
D14*
X0043897Y0229753D03*
X0043897Y0222272D03*
X0035236Y0226013D03*
X0042397Y0193553D03*
X0042397Y0186072D03*
X0033736Y0189813D03*
X0293136Y0153853D03*
X0293136Y0146372D03*
X0301797Y0150113D03*
X0322336Y0120453D03*
X0322336Y0112972D03*
X0330997Y0116713D03*
X0326597Y0184872D03*
X0326597Y0192353D03*
X0317936Y0188613D03*
D15*
X0295367Y0170743D03*
X0299107Y0162082D03*
X0291627Y0162082D03*
X0238767Y0104243D03*
X0242507Y0095582D03*
X0235027Y0095582D03*
X0115107Y0062082D03*
X0107627Y0062082D03*
X0111367Y0070743D03*
D16*
X0150368Y0056213D03*
X0161565Y0056213D03*
X0174068Y0061713D03*
X0185265Y0061713D03*
X0185265Y0073613D03*
X0174068Y0073613D03*
X0167265Y0087113D03*
X0167265Y0096013D03*
X0156068Y0096013D03*
X0156068Y0087113D03*
X0156268Y0110613D03*
X0156268Y0120613D03*
X0156168Y0129713D03*
X0167365Y0129713D03*
X0167465Y0120613D03*
X0167465Y0110613D03*
X0204168Y0080713D03*
X0215365Y0080713D03*
X0227368Y0071513D03*
X0238565Y0071513D03*
X0215465Y0062913D03*
X0204268Y0062913D03*
X0206068Y0116513D03*
X0217265Y0116513D03*
X0167365Y0152213D03*
X0167265Y0161513D03*
X0156068Y0161513D03*
X0156168Y0152213D03*
X0156268Y0172713D03*
X0167465Y0172713D03*
X0167465Y0190813D03*
X0167365Y0199713D03*
X0156168Y0199713D03*
X0156268Y0190813D03*
X0156068Y0210813D03*
X0156068Y0220513D03*
X0167265Y0220513D03*
X0167265Y0210813D03*
X0196568Y0230613D03*
X0196568Y0240713D03*
X0196568Y0250613D03*
X0207765Y0250613D03*
X0207765Y0240713D03*
X0207765Y0230613D03*
X0207765Y0260613D03*
X0196568Y0260613D03*
X0257968Y0199113D03*
X0269165Y0199113D03*
X0314068Y0172713D03*
X0325265Y0172713D03*
X0304765Y0135313D03*
X0293568Y0135313D03*
X0299568Y0125313D03*
X0299568Y0116513D03*
X0310765Y0116513D03*
X0310765Y0125313D03*
X0322968Y0127513D03*
X0334165Y0127513D03*
X0328668Y0216613D03*
X0328668Y0225113D03*
X0328668Y0233913D03*
X0328768Y0242613D03*
X0328668Y0251413D03*
X0328568Y0260213D03*
X0339765Y0260213D03*
X0339865Y0251413D03*
X0339965Y0242613D03*
X0339865Y0233913D03*
X0339865Y0225113D03*
X0339865Y0216613D03*
X0030465Y0209513D03*
X0030565Y0201213D03*
X0019368Y0201213D03*
X0019268Y0209513D03*
X0024265Y0271213D03*
X0013068Y0271213D03*
D17*
X0316367Y0162613D03*
X0321367Y0162613D03*
X0326367Y0162613D03*
X0331367Y0162613D03*
X0331367Y0142013D03*
X0326367Y0142013D03*
X0321367Y0142013D03*
X0316367Y0142013D03*
D18*
X0289467Y0204564D03*
X0289467Y0223461D03*
D19*
X0321167Y0107613D03*
X0321167Y0102613D03*
X0321167Y0097613D03*
X0321167Y0092613D03*
X0341767Y0092613D03*
X0341767Y0097613D03*
X0341767Y0102613D03*
X0341767Y0107613D03*
D20*
X0039667Y0023014D03*
X0039667Y0034211D03*
X0012667Y0077014D03*
X0012667Y0088211D03*
X0054967Y0090014D03*
X0063567Y0089914D03*
X0063567Y0101111D03*
X0054967Y0101211D03*
X0096367Y0061811D03*
X0104767Y0053711D03*
X0096367Y0050614D03*
X0104767Y0042514D03*
X0109667Y0085114D03*
X0109667Y0096311D03*
X0014567Y0164414D03*
X0014567Y0175611D03*
X0047067Y0203014D03*
X0047067Y0214211D03*
X0027867Y0223014D03*
X0027867Y0234211D03*
X0040667Y0254014D03*
X0050667Y0254014D03*
X0060667Y0254014D03*
X0070667Y0254014D03*
X0070667Y0265211D03*
X0060667Y0265211D03*
X0050667Y0265211D03*
X0040667Y0265211D03*
X0073467Y0224711D03*
X0073467Y0213514D03*
X0109167Y0210114D03*
X0109667Y0200811D03*
X0109667Y0189614D03*
X0109167Y0221311D03*
X0237167Y0164511D03*
X0237167Y0153314D03*
X0263567Y0153114D03*
X0263567Y0164311D03*
X0274367Y0175514D03*
X0274367Y0186711D03*
X0284467Y0164111D03*
X0284467Y0152914D03*
X0310467Y0185514D03*
X0310467Y0196711D03*
X0341167Y0168611D03*
X0341167Y0157414D03*
X0341267Y0147311D03*
X0341267Y0136114D03*
X0357567Y0120411D03*
X0357567Y0109214D03*
X0352767Y0087111D03*
X0341667Y0085011D03*
X0332867Y0085011D03*
X0323867Y0085111D03*
X0314967Y0085111D03*
X0305367Y0087714D03*
X0305367Y0098911D03*
X0289667Y0099514D03*
X0289667Y0110711D03*
X0314967Y0073914D03*
X0323867Y0073914D03*
X0332867Y0073814D03*
X0341667Y0073814D03*
X0352767Y0075914D03*
X0349667Y0058411D03*
X0349667Y0047214D03*
X0207667Y0095714D03*
X0207667Y0106911D03*
X0277767Y0238214D03*
X0277767Y0249411D03*
D21*
X0170767Y0053118D03*
X0170767Y0041307D03*
X0170767Y0031418D03*
X0170767Y0019607D03*
X0048567Y0022607D03*
X0048567Y0034418D03*
X0012667Y0048707D03*
X0012667Y0060518D03*
X0012667Y0097707D03*
X0012667Y0109518D03*
X0013567Y0247707D03*
X0013567Y0259518D03*
D22*
X0040958Y0167235D03*
X0040958Y0164085D03*
X0040958Y0160935D03*
X0040958Y0157786D03*
X0040958Y0154636D03*
X0040958Y0151487D03*
X0040958Y0148337D03*
X0040958Y0145187D03*
X0040958Y0142038D03*
X0040958Y0138888D03*
X0040958Y0135739D03*
X0040958Y0132589D03*
X0040958Y0129439D03*
X0040958Y0126290D03*
X0040958Y0123140D03*
X0040958Y0119991D03*
X0102375Y0119991D03*
X0102375Y0123140D03*
X0102375Y0126290D03*
X0102375Y0129439D03*
X0102375Y0132589D03*
X0102375Y0135739D03*
X0102375Y0138888D03*
X0102375Y0142038D03*
X0102375Y0145187D03*
X0102375Y0148337D03*
X0102375Y0151487D03*
X0102375Y0154636D03*
X0102375Y0157786D03*
X0102375Y0160935D03*
X0102375Y0164085D03*
X0102375Y0167235D03*
D23*
X0095289Y0174321D03*
X0092139Y0174321D03*
X0088989Y0174321D03*
X0085840Y0174321D03*
X0082690Y0174321D03*
X0079541Y0174321D03*
X0076391Y0174321D03*
X0073241Y0174321D03*
X0070092Y0174321D03*
X0066942Y0174321D03*
X0063793Y0174321D03*
X0060643Y0174321D03*
X0057493Y0174321D03*
X0054344Y0174321D03*
X0051194Y0174321D03*
X0048045Y0174321D03*
X0048045Y0112904D03*
X0051194Y0112904D03*
X0054344Y0112904D03*
X0057493Y0112904D03*
X0060643Y0112904D03*
X0063793Y0112904D03*
X0066942Y0112904D03*
X0070092Y0112904D03*
X0073241Y0112904D03*
X0076391Y0112904D03*
X0079541Y0112904D03*
X0082690Y0112904D03*
X0085840Y0112904D03*
X0088989Y0112904D03*
X0092139Y0112904D03*
X0095289Y0112904D03*
D24*
X0185273Y0052246D03*
X0185273Y0049687D03*
X0185273Y0047128D03*
X0185273Y0044569D03*
X0185273Y0042010D03*
X0185273Y0039451D03*
X0185273Y0036892D03*
X0185273Y0034333D03*
X0185273Y0031774D03*
X0185273Y0029215D03*
X0185273Y0026656D03*
X0185273Y0024097D03*
X0185273Y0021538D03*
X0185273Y0018979D03*
X0214060Y0018979D03*
X0214060Y0021538D03*
X0214060Y0024097D03*
X0214060Y0026656D03*
X0214060Y0029215D03*
X0214060Y0031774D03*
X0214060Y0034333D03*
X0214060Y0036892D03*
X0214060Y0039451D03*
X0214060Y0042010D03*
X0214060Y0044569D03*
X0214060Y0047128D03*
X0214060Y0049687D03*
X0214060Y0052246D03*
D25*
X0144478Y0254392D03*
X0142509Y0254392D03*
X0140541Y0254392D03*
X0138572Y0254392D03*
X0136604Y0254392D03*
X0134635Y0254392D03*
X0134635Y0261872D03*
X0136604Y0261872D03*
X0138572Y0261872D03*
X0140541Y0261872D03*
X0142509Y0261872D03*
X0144478Y0261872D03*
X0099478Y0262872D03*
X0097509Y0262872D03*
X0095541Y0262872D03*
X0093572Y0262872D03*
X0091604Y0262872D03*
X0089635Y0262872D03*
X0089635Y0255392D03*
X0091604Y0255392D03*
X0093572Y0255392D03*
X0095541Y0255392D03*
X0097509Y0255392D03*
X0099478Y0255392D03*
D26*
X0094438Y0259132D03*
X0139438Y0258132D03*
D27*
X0240229Y0182752D03*
X0240229Y0179012D03*
X0240229Y0175272D03*
X0249245Y0175272D03*
X0249245Y0179012D03*
X0249245Y0182752D03*
D28*
X0290648Y0183799D03*
X0294388Y0183799D03*
X0298128Y0183799D03*
X0298089Y0194429D03*
X0290648Y0194429D03*
D29*
X0065373Y0215715D03*
X0065373Y0217683D03*
X0065373Y0219652D03*
X0065373Y0221620D03*
X0065373Y0223589D03*
X0056160Y0223550D03*
X0056160Y0221581D03*
X0056160Y0219613D03*
X0056160Y0217644D03*
X0056160Y0215676D03*
D30*
X0058798Y0214652D03*
X0060767Y0214652D03*
X0062735Y0214652D03*
X0062735Y0224573D03*
X0060767Y0224573D03*
X0058798Y0224573D03*
D31*
X0056755Y0203013D03*
X0067778Y0203013D03*
X0204255Y0071713D03*
X0215278Y0071713D03*
X0245455Y0116713D03*
X0256478Y0116713D03*
D32*
X0217467Y0102624D03*
X0217467Y0091601D03*
X0245967Y0153301D03*
X0254667Y0153201D03*
X0254667Y0164224D03*
X0245967Y0164324D03*
X0258067Y0176601D03*
X0258067Y0187624D03*
X0274367Y0164124D03*
X0274367Y0153101D03*
X0199867Y0162101D03*
X0199867Y0173124D03*
X0255067Y0222901D03*
X0263667Y0222801D03*
X0263667Y0233824D03*
X0255067Y0233924D03*
X0118667Y0248101D03*
X0118667Y0259124D03*
D33*
X0145467Y0038513D03*
X0155467Y0021513D03*
X0135467Y0021513D03*
D34*
X0241267Y0129801D03*
X0241267Y0140824D03*
D35*
X0256130Y0141082D03*
X0258098Y0141082D03*
X0260067Y0141082D03*
X0262035Y0141082D03*
X0264004Y0141082D03*
X0264004Y0129783D03*
X0262035Y0129743D03*
X0260067Y0129743D03*
X0258098Y0129743D03*
X0256130Y0129743D03*
D36*
X0254437Y0133050D03*
X0254437Y0134625D03*
X0254437Y0136200D03*
X0254437Y0137775D03*
X0265697Y0137775D03*
X0265697Y0136200D03*
X0265697Y0134625D03*
X0265697Y0133050D03*
D37*
X0260067Y0135413D03*
D38*
X0263267Y0096872D03*
X0263267Y0094313D03*
X0263267Y0091754D03*
X0256063Y0091754D03*
X0256063Y0094313D03*
X0256063Y0096872D03*
D39*
X0259645Y0096124D03*
X0259645Y0092462D03*
D40*
X0288967Y0083190D03*
X0288967Y0067835D03*
D41*
X0337189Y0203613D03*
X0352544Y0203613D03*
D42*
X0242331Y0083913D03*
X0225402Y0083913D03*
D43*
X0298967Y0086250D03*
X0298967Y0091369D03*
X0345567Y0112550D03*
X0345567Y0117669D03*
X0361067Y0100575D03*
X0361067Y0095457D03*
D44*
X0291929Y0117413D03*
X0286811Y0117413D03*
M02*
