G75*
%MOIN*%
%OFA0B0*%
%FSLAX24Y24*%
%IPPOS*%
%LPD*%
%AMOC8*
5,1,8,0,0,1.08239X$1,22.5*
%
%ADD10C,0.0040*%
%ADD11C,0.0060*%
%ADD12C,0.0050*%
%ADD13C,0.0030*%
%ADD14C,0.0080*%
%ADD15C,0.0010*%
D10*
X001786Y004611D02*
X002247Y004611D01*
X002247Y004918D01*
X002247Y005072D02*
X002247Y005379D01*
X002247Y005532D02*
X001786Y005532D01*
X001786Y005762D01*
X001863Y005839D01*
X002170Y005839D01*
X002247Y005762D01*
X002247Y005532D01*
X002016Y005225D02*
X002016Y005072D01*
X001786Y005072D02*
X002247Y005072D01*
X001786Y005072D02*
X001786Y005379D01*
X001863Y005992D02*
X001786Y006069D01*
X001786Y006223D01*
X001863Y006299D01*
X002170Y005992D01*
X002247Y006069D01*
X002247Y006223D01*
X002170Y006299D01*
X001863Y006299D01*
X001863Y005992D02*
X002170Y005992D01*
X002227Y009551D02*
X001766Y009551D01*
X001766Y010012D02*
X002227Y010012D01*
X002227Y010319D01*
X002227Y010472D02*
X002227Y010702D01*
X002150Y010779D01*
X001843Y010779D01*
X001766Y010702D01*
X001766Y010472D01*
X002227Y010472D01*
X001996Y010165D02*
X001996Y010012D01*
X001766Y010012D02*
X001766Y010319D01*
X002227Y009858D02*
X002227Y009551D01*
X002227Y010932D02*
X002227Y011239D01*
X002227Y011086D02*
X001766Y011086D01*
X001920Y010932D01*
X001926Y014761D02*
X001926Y014915D01*
X001926Y014838D02*
X002387Y014838D01*
X002387Y014761D02*
X002387Y014915D01*
X002387Y015068D02*
X001926Y015068D01*
X001926Y015298D01*
X002003Y015375D01*
X002156Y015375D01*
X002233Y015298D01*
X002233Y015068D01*
X002233Y015222D02*
X002387Y015375D01*
X002327Y024321D02*
X001866Y024321D01*
X001866Y024551D01*
X001943Y024628D01*
X002096Y024628D01*
X002173Y024551D01*
X002173Y024321D01*
X002250Y024782D02*
X002327Y024858D01*
X002327Y025012D01*
X002250Y025089D01*
X001943Y025089D01*
X001866Y025012D01*
X001866Y024858D01*
X001943Y024782D01*
X002250Y024782D01*
X002327Y025242D02*
X001866Y025242D01*
X001866Y025549D02*
X002327Y025549D01*
X002173Y025396D01*
X002327Y025242D01*
X002327Y025702D02*
X002327Y026009D01*
X002327Y026163D02*
X001866Y026163D01*
X001866Y026393D01*
X001943Y026470D01*
X002096Y026470D01*
X002173Y026393D01*
X002173Y026163D01*
X002173Y026316D02*
X002327Y026470D01*
X002936Y026618D02*
X002936Y026771D01*
X003013Y026848D01*
X003166Y026771D02*
X003166Y026618D01*
X003090Y026541D01*
X003013Y026541D01*
X002936Y026618D01*
X003166Y026771D02*
X003243Y026848D01*
X003320Y026848D01*
X003397Y026771D01*
X003397Y026618D01*
X003320Y026541D01*
X003397Y027002D02*
X002936Y027002D01*
X002936Y027309D01*
X002936Y027462D02*
X002936Y027692D01*
X003013Y027769D01*
X003166Y027769D01*
X003243Y027692D01*
X003243Y027462D01*
X003243Y027616D02*
X003397Y027769D01*
X003243Y027922D02*
X003397Y028076D01*
X003243Y028229D01*
X002936Y028229D01*
X003013Y028383D02*
X003320Y028383D01*
X003397Y028460D01*
X003397Y028613D01*
X003320Y028690D01*
X003013Y028690D01*
X002936Y028613D01*
X002936Y028460D01*
X003013Y028383D01*
X002936Y027922D02*
X003243Y027922D01*
X003397Y027462D02*
X002936Y027462D01*
X003166Y027155D02*
X003166Y027002D01*
X003397Y027002D02*
X003397Y027309D01*
X003766Y027248D02*
X003766Y027401D01*
X003843Y027478D01*
X004150Y027171D01*
X004227Y027248D01*
X004227Y027401D01*
X004150Y027478D01*
X003843Y027478D01*
X003766Y027248D02*
X003843Y027171D01*
X004150Y027171D01*
X004766Y027374D02*
X004920Y027221D01*
X004766Y027374D02*
X005227Y027374D01*
X005227Y027221D02*
X005227Y027528D01*
X005796Y027411D02*
X005796Y027258D01*
X005873Y027181D01*
X005796Y027411D02*
X005873Y027488D01*
X005950Y027488D01*
X006257Y027181D01*
X006257Y027488D01*
X006826Y027421D02*
X006826Y027268D01*
X006903Y027191D01*
X007056Y027344D02*
X007056Y027421D01*
X007133Y027498D01*
X007210Y027498D01*
X007287Y027421D01*
X007287Y027268D01*
X007210Y027191D01*
X007056Y027421D02*
X006980Y027498D01*
X006903Y027498D01*
X006826Y027421D01*
X008376Y029062D02*
X008376Y029523D01*
X008606Y029523D01*
X008683Y029446D01*
X008683Y029293D01*
X008606Y029216D01*
X008376Y029216D01*
X008530Y029216D02*
X008683Y029062D01*
X010345Y029062D02*
X010652Y029062D01*
X010345Y029062D02*
X010345Y029523D01*
X012776Y029523D02*
X012776Y029062D01*
X012776Y029216D02*
X013006Y029216D01*
X013083Y029293D01*
X013083Y029446D01*
X013006Y029523D01*
X012776Y029523D01*
X012930Y029216D02*
X013083Y029062D01*
X014745Y029062D02*
X015052Y029062D01*
X014745Y029062D02*
X014745Y029523D01*
X016496Y029261D02*
X016496Y029108D01*
X016573Y029031D01*
X016880Y029031D01*
X016573Y029338D01*
X016880Y029338D01*
X016957Y029261D01*
X016957Y029108D01*
X016880Y029031D01*
X016573Y029338D02*
X016496Y029261D01*
X016650Y030021D02*
X016496Y030175D01*
X016957Y030175D01*
X016957Y030328D02*
X016957Y030021D01*
X017387Y028412D02*
X017647Y028412D01*
X017734Y028325D01*
X017734Y027978D01*
X017647Y027891D01*
X017387Y027891D01*
X017387Y028412D01*
X017902Y028238D02*
X017989Y028238D01*
X017989Y027891D01*
X017902Y027891D02*
X018076Y027891D01*
X018246Y027978D02*
X018333Y027891D01*
X018593Y027891D01*
X018593Y027805D02*
X018593Y028238D01*
X018333Y028238D01*
X018246Y028151D01*
X018246Y027978D01*
X018420Y027718D02*
X018506Y027718D01*
X018593Y027805D01*
X018762Y027891D02*
X018935Y027891D01*
X018848Y027891D02*
X018848Y028238D01*
X018762Y028238D01*
X018848Y028412D02*
X018848Y028498D01*
X019105Y028238D02*
X019279Y028238D01*
X019192Y028325D02*
X019192Y027978D01*
X019279Y027891D01*
X019449Y027978D02*
X019536Y028065D01*
X019796Y028065D01*
X019796Y028151D02*
X019796Y027891D01*
X019536Y027891D01*
X019449Y027978D01*
X019536Y028238D02*
X019709Y028238D01*
X019796Y028151D01*
X019965Y027891D02*
X020138Y027891D01*
X020052Y027891D02*
X020052Y028412D01*
X019965Y028412D01*
X020493Y029031D02*
X020416Y029108D01*
X020416Y029261D01*
X020493Y029338D01*
X020800Y029031D01*
X020877Y029108D01*
X020877Y029261D01*
X020800Y029338D01*
X020493Y029338D01*
X020493Y029031D02*
X020800Y029031D01*
X021290Y028392D02*
X021464Y028218D01*
X021464Y027871D01*
X021632Y027871D02*
X021632Y028218D01*
X021893Y028218D01*
X021979Y028131D01*
X021979Y027871D01*
X022148Y027958D02*
X022235Y028045D01*
X022495Y028045D01*
X022495Y028131D02*
X022495Y027871D01*
X022235Y027871D01*
X022148Y027958D01*
X022235Y028218D02*
X022408Y028218D01*
X022495Y028131D01*
X022664Y027871D02*
X022837Y027871D01*
X022750Y027871D02*
X022750Y028392D01*
X022664Y028392D01*
X023007Y028131D02*
X023007Y027958D01*
X023094Y027871D01*
X023268Y027871D01*
X023354Y027958D01*
X023354Y028131D01*
X023268Y028218D01*
X023094Y028218D01*
X023007Y028131D01*
X023523Y028131D02*
X023523Y027958D01*
X023610Y027871D01*
X023870Y027871D01*
X023870Y027785D02*
X023870Y028218D01*
X023610Y028218D01*
X023523Y028131D01*
X023696Y027698D02*
X023783Y027698D01*
X023870Y027785D01*
X021464Y028131D02*
X021117Y028131D01*
X021117Y028218D02*
X021290Y028392D01*
X021117Y028218D02*
X021117Y027871D01*
X018987Y026141D02*
X018987Y025988D01*
X018910Y025911D01*
X018603Y026218D01*
X018910Y026218D01*
X018987Y026141D01*
X018910Y025911D02*
X018603Y025911D01*
X018526Y025988D01*
X018526Y026141D01*
X018603Y026218D01*
X018997Y025238D02*
X018997Y024931D01*
X018997Y025085D02*
X018536Y025085D01*
X018690Y024931D01*
X018690Y024208D02*
X018613Y024208D01*
X018536Y024131D01*
X018536Y023978D01*
X018613Y023901D01*
X018690Y024208D02*
X018997Y023901D01*
X018997Y024208D01*
X018930Y023218D02*
X019007Y023141D01*
X019007Y022988D01*
X018930Y022911D01*
X018776Y023065D02*
X018776Y023141D01*
X018853Y023218D01*
X018930Y023218D01*
X018776Y023141D02*
X018700Y023218D01*
X018623Y023218D01*
X018546Y023141D01*
X018546Y022988D01*
X018623Y022911D01*
X018786Y022228D02*
X018786Y021921D01*
X018556Y022151D01*
X019017Y022151D01*
X019426Y022016D02*
X019947Y022016D01*
X019947Y021929D02*
X019947Y022103D01*
X019947Y021761D02*
X019686Y021761D01*
X019600Y021674D01*
X019600Y021501D01*
X019773Y021501D02*
X019773Y021761D01*
X019947Y021761D02*
X019947Y021501D01*
X019860Y021414D01*
X019773Y021501D01*
X019600Y021244D02*
X019600Y021070D01*
X019513Y021157D02*
X019860Y021157D01*
X019947Y021244D01*
X019947Y020900D02*
X019947Y020726D01*
X019947Y020813D02*
X019600Y020813D01*
X019600Y020726D01*
X019600Y020558D02*
X019600Y020297D01*
X019686Y020211D01*
X019860Y020211D01*
X019947Y020297D01*
X019947Y020558D01*
X020033Y020558D02*
X019600Y020558D01*
X019426Y020813D02*
X019339Y020813D01*
X019017Y020988D02*
X018940Y020911D01*
X019017Y020988D02*
X019017Y021141D01*
X018940Y021218D01*
X018786Y021218D01*
X018710Y021141D01*
X018710Y021065D01*
X018786Y020911D01*
X018556Y020911D01*
X018556Y021218D01*
X018536Y020188D02*
X018613Y020035D01*
X018766Y019881D01*
X018766Y020111D01*
X018843Y020188D01*
X018920Y020188D01*
X018997Y020111D01*
X018997Y019958D01*
X018920Y019881D01*
X018766Y019881D01*
X019339Y019954D02*
X019426Y019954D01*
X019600Y019954D02*
X019947Y019954D01*
X019947Y020040D02*
X019947Y019867D01*
X019860Y019698D02*
X019513Y019698D01*
X019426Y019611D01*
X019426Y019351D01*
X019947Y019351D01*
X019947Y019611D01*
X019860Y019698D01*
X019600Y019867D02*
X019600Y019954D01*
X020120Y020384D02*
X020120Y020471D01*
X020033Y020558D01*
X018623Y019228D02*
X018546Y019228D01*
X018546Y018921D01*
X018623Y019228D02*
X018930Y018921D01*
X019007Y018921D01*
X018870Y017628D02*
X018947Y017551D01*
X018947Y017398D01*
X018870Y017321D01*
X018793Y017321D01*
X018716Y017398D01*
X018716Y017551D01*
X018793Y017628D01*
X018870Y017628D01*
X018716Y017551D02*
X018640Y017628D01*
X018563Y017628D01*
X018486Y017551D01*
X018486Y017398D01*
X018563Y017321D01*
X018640Y017321D01*
X018716Y017398D01*
X018726Y016618D02*
X018726Y016388D01*
X018650Y016311D01*
X018573Y016311D01*
X018496Y016388D01*
X018496Y016541D01*
X018573Y016618D01*
X018880Y016618D01*
X018957Y016541D01*
X018957Y016388D01*
X018880Y016311D01*
X019053Y015742D02*
X018976Y015665D01*
X018976Y015358D01*
X019283Y015665D01*
X019283Y015358D01*
X019206Y015281D01*
X019053Y015281D01*
X018976Y015358D01*
X018823Y015281D02*
X018516Y015281D01*
X018669Y015281D02*
X018669Y015742D01*
X018516Y015588D01*
X019053Y015742D02*
X019206Y015742D01*
X019283Y015665D01*
X019130Y014742D02*
X019130Y014281D01*
X019283Y014281D02*
X018976Y014281D01*
X018823Y014281D02*
X018516Y014281D01*
X018669Y014281D02*
X018669Y014742D01*
X018516Y014588D01*
X018976Y014588D02*
X019130Y014742D01*
X019206Y013742D02*
X019053Y013742D01*
X018976Y013665D01*
X019206Y013742D02*
X019283Y013665D01*
X019283Y013588D01*
X018976Y013281D01*
X019283Y013281D01*
X018823Y013281D02*
X018516Y013281D01*
X018669Y013281D02*
X018669Y013742D01*
X018516Y013588D01*
X018669Y012742D02*
X018669Y012281D01*
X018516Y012281D02*
X018823Y012281D01*
X018976Y012358D02*
X019053Y012281D01*
X019206Y012281D01*
X019283Y012358D01*
X019283Y012435D01*
X019206Y012511D01*
X019130Y012511D01*
X019206Y012511D02*
X019283Y012588D01*
X019283Y012665D01*
X019206Y012742D01*
X019053Y012742D01*
X018976Y012665D01*
X018669Y012742D02*
X018516Y012588D01*
X018632Y011642D02*
X018555Y011565D01*
X018555Y011258D01*
X018632Y011181D01*
X018786Y011181D01*
X018862Y011258D01*
X018862Y011411D01*
X018709Y011411D01*
X018862Y011565D02*
X018786Y011642D01*
X018632Y011642D01*
X019016Y011642D02*
X019323Y011181D01*
X019323Y011642D01*
X019476Y011642D02*
X019476Y011181D01*
X019706Y011181D01*
X019783Y011258D01*
X019783Y011565D01*
X019706Y011642D01*
X019476Y011642D01*
X019016Y011642D02*
X019016Y011181D01*
X018997Y010642D02*
X019227Y010642D01*
X019304Y010565D01*
X019304Y010411D01*
X019227Y010335D01*
X018997Y010335D01*
X019151Y010335D02*
X019304Y010181D01*
X019457Y010181D02*
X019457Y010642D01*
X019764Y010642D01*
X019918Y010642D02*
X020225Y010642D01*
X020071Y010411D02*
X019918Y010411D01*
X019918Y010181D02*
X019918Y010642D01*
X019611Y010411D02*
X019457Y010411D01*
X019457Y010181D02*
X019764Y010181D01*
X019457Y009742D02*
X019457Y009281D01*
X019764Y009281D01*
X019304Y009358D02*
X019227Y009281D01*
X019074Y009281D01*
X018997Y009358D01*
X018997Y009665D01*
X019074Y009742D01*
X019227Y009742D01*
X019304Y009665D01*
X018844Y009665D02*
X018767Y009742D01*
X018613Y009742D01*
X018537Y009665D01*
X018537Y009588D01*
X018613Y009511D01*
X018767Y009511D01*
X018844Y009435D01*
X018844Y009358D01*
X018767Y009281D01*
X018613Y009281D01*
X018537Y009358D01*
X018613Y008742D02*
X018537Y008665D01*
X018537Y008588D01*
X018613Y008511D01*
X018767Y008511D01*
X018844Y008435D01*
X018844Y008358D01*
X018767Y008281D01*
X018613Y008281D01*
X018537Y008358D01*
X018613Y008742D02*
X018767Y008742D01*
X018844Y008665D01*
X018997Y008742D02*
X019227Y008742D01*
X019304Y008665D01*
X019304Y008358D01*
X019227Y008281D01*
X018997Y008281D01*
X018997Y008742D01*
X019457Y008588D02*
X019457Y008281D01*
X019457Y008511D02*
X019764Y008511D01*
X019764Y008588D02*
X019764Y008281D01*
X019764Y008588D02*
X019611Y008742D01*
X019457Y008588D01*
X018997Y010181D02*
X018997Y010642D01*
X018844Y010488D02*
X018844Y010181D01*
X018844Y010411D02*
X018537Y010411D01*
X018537Y010488D02*
X018537Y010181D01*
X018537Y010488D02*
X018690Y010642D01*
X018844Y010488D01*
X029087Y020661D02*
X029756Y019992D01*
X029993Y019992D01*
X030741Y019992D02*
X030977Y019992D01*
X031646Y020661D01*
X031646Y022551D01*
X030741Y022551D01*
X029993Y022551D02*
X029087Y022551D01*
X029087Y020661D01*
X030741Y020110D02*
X030805Y020132D01*
X030868Y020159D01*
X030930Y020189D01*
X030989Y020222D01*
X031047Y020258D01*
X031103Y020298D01*
X031156Y020341D01*
X031207Y020386D01*
X031255Y020434D01*
X031300Y020485D01*
X031343Y020539D01*
X031382Y020595D01*
X031419Y020652D01*
X031452Y020712D01*
X031481Y020774D01*
X031507Y020837D01*
X031530Y020901D01*
X031549Y020967D01*
X031564Y021034D01*
X031575Y021101D01*
X031583Y021169D01*
X031587Y021237D01*
X031587Y021305D01*
X031583Y021373D01*
X031575Y021441D01*
X031564Y021508D01*
X031549Y021575D01*
X031530Y021641D01*
X031507Y021705D01*
X031481Y021768D01*
X031452Y021830D01*
X031419Y021890D01*
X031382Y021947D01*
X031343Y022003D01*
X031300Y022057D01*
X031255Y022108D01*
X031207Y022156D01*
X031156Y022201D01*
X031103Y022244D01*
X031047Y022284D01*
X030989Y022320D01*
X030930Y022353D01*
X030868Y022383D01*
X030805Y022410D01*
X030741Y022432D01*
X029993Y022432D02*
X029929Y022410D01*
X029866Y022383D01*
X029804Y022353D01*
X029745Y022320D01*
X029687Y022284D01*
X029631Y022244D01*
X029578Y022201D01*
X029527Y022156D01*
X029479Y022108D01*
X029434Y022057D01*
X029391Y022003D01*
X029352Y021947D01*
X029315Y021890D01*
X029282Y021830D01*
X029253Y021768D01*
X029227Y021705D01*
X029204Y021641D01*
X029185Y021575D01*
X029170Y021508D01*
X029159Y021441D01*
X029151Y021373D01*
X029147Y021305D01*
X029147Y021237D01*
X029151Y021169D01*
X029159Y021101D01*
X029170Y021034D01*
X029185Y020967D01*
X029204Y020901D01*
X029227Y020837D01*
X029253Y020774D01*
X029282Y020712D01*
X029315Y020652D01*
X029352Y020595D01*
X029391Y020539D01*
X029434Y020485D01*
X029479Y020434D01*
X029527Y020386D01*
X029578Y020341D01*
X029631Y020298D01*
X029687Y020258D01*
X029745Y020222D01*
X029804Y020189D01*
X029866Y020159D01*
X029929Y020132D01*
X029993Y020110D01*
X034485Y019981D02*
X034485Y020328D01*
X034658Y020502D01*
X034832Y020328D01*
X034832Y019981D01*
X035000Y019981D02*
X035000Y020328D01*
X035261Y020328D01*
X035347Y020241D01*
X035347Y019981D01*
X035516Y020068D02*
X035603Y019981D01*
X035863Y019981D01*
X035863Y020241D01*
X035776Y020328D01*
X035603Y020328D01*
X035603Y020155D02*
X035863Y020155D01*
X036032Y019981D02*
X036205Y019981D01*
X036118Y019981D02*
X036118Y020502D01*
X036032Y020502D01*
X036100Y020901D02*
X035793Y020901D01*
X035716Y020978D01*
X035716Y021131D01*
X035793Y021208D01*
X036100Y020901D01*
X036177Y020978D01*
X036177Y021131D01*
X036100Y021208D01*
X035793Y021208D01*
X035860Y021901D02*
X035706Y022055D01*
X036167Y022055D01*
X036167Y022208D02*
X036167Y021901D01*
X036197Y022951D02*
X035890Y023258D01*
X035813Y023258D01*
X035736Y023181D01*
X035736Y023028D01*
X035813Y022951D01*
X036197Y022951D02*
X036197Y023258D01*
X036120Y023971D02*
X036197Y024048D01*
X036197Y024201D01*
X036120Y024278D01*
X036043Y024278D01*
X035966Y024201D01*
X035966Y024125D01*
X035966Y024201D02*
X035890Y024278D01*
X035813Y024278D01*
X035736Y024201D01*
X035736Y024048D01*
X035813Y023971D01*
X035936Y024911D02*
X035936Y025218D01*
X035706Y025141D02*
X035936Y024911D01*
X036167Y025141D02*
X035706Y025141D01*
X035726Y025951D02*
X035956Y025951D01*
X035880Y026105D01*
X035880Y026181D01*
X035956Y026258D01*
X036110Y026258D01*
X036187Y026181D01*
X036187Y026028D01*
X036110Y025951D01*
X035726Y025951D02*
X035726Y026258D01*
X030697Y026232D02*
X030697Y026539D01*
X030697Y026386D02*
X030236Y026386D01*
X030390Y026232D01*
X030620Y026079D02*
X030620Y026002D01*
X030697Y026002D01*
X030697Y026079D01*
X030620Y026079D01*
X030620Y025849D02*
X030313Y025849D01*
X030620Y025542D01*
X030697Y025618D01*
X030697Y025772D01*
X030620Y025849D01*
X030313Y025849D02*
X030236Y025772D01*
X030236Y025618D01*
X030313Y025542D01*
X030620Y025542D01*
X030390Y025388D02*
X030697Y025235D01*
X030390Y025081D01*
X034485Y020241D02*
X034832Y020241D01*
X035516Y020068D02*
X035603Y020155D01*
X035516Y019438D02*
X035516Y019362D01*
X035516Y019208D02*
X035516Y018901D01*
X035439Y018901D02*
X035593Y018901D01*
X035746Y018901D02*
X035746Y019208D01*
X035976Y019208D01*
X036053Y019131D01*
X036053Y018901D01*
X035516Y019208D02*
X035439Y019208D01*
X035286Y019055D02*
X035132Y018901D01*
X034979Y019055D01*
X034979Y019362D01*
X035286Y019362D02*
X035286Y019055D01*
X035177Y018292D02*
X035023Y018292D01*
X034947Y018215D01*
X034947Y017908D01*
X035023Y017831D01*
X035177Y017831D01*
X035254Y017908D01*
X035254Y018061D01*
X035100Y018061D01*
X035254Y018215D02*
X035177Y018292D01*
X035407Y018292D02*
X035714Y017831D01*
X035714Y018292D01*
X035867Y018292D02*
X035867Y017831D01*
X036098Y017831D01*
X036174Y017908D01*
X036174Y018215D01*
X036098Y018292D01*
X035867Y018292D01*
X035407Y018292D02*
X035407Y017831D01*
X035437Y017342D02*
X035744Y016881D01*
X035744Y017342D01*
X035897Y017342D02*
X036128Y017342D01*
X036204Y017265D01*
X036204Y016958D01*
X036128Y016881D01*
X035897Y016881D01*
X035897Y017342D01*
X035437Y017342D02*
X035437Y016881D01*
X035284Y016958D02*
X035284Y017111D01*
X035130Y017111D01*
X034977Y016958D02*
X035053Y016881D01*
X035207Y016881D01*
X035284Y016958D01*
X035284Y017265D02*
X035207Y017342D01*
X035053Y017342D01*
X034977Y017265D01*
X034977Y016958D01*
X035447Y016392D02*
X035447Y016161D01*
X035600Y016238D01*
X035677Y016238D01*
X035754Y016161D01*
X035754Y016008D01*
X035677Y015931D01*
X035523Y015931D01*
X035447Y016008D01*
X035447Y016392D02*
X035754Y016392D01*
X035907Y016392D02*
X035907Y016085D01*
X036061Y015931D01*
X036214Y016085D01*
X036214Y016392D01*
X036113Y015252D02*
X036113Y014945D01*
X035960Y014791D01*
X035806Y014945D01*
X035806Y015252D01*
X035653Y015175D02*
X035653Y015098D01*
X035576Y015021D01*
X035653Y014945D01*
X035653Y014868D01*
X035576Y014791D01*
X035423Y014791D01*
X035346Y014868D01*
X035192Y014868D02*
X035192Y014791D01*
X035116Y014791D01*
X035116Y014868D01*
X035192Y014868D01*
X034962Y014868D02*
X034885Y014791D01*
X034732Y014791D01*
X034655Y014868D01*
X034809Y015021D02*
X034885Y015021D01*
X034962Y014945D01*
X034962Y014868D01*
X034885Y015021D02*
X034962Y015098D01*
X034962Y015175D01*
X034885Y015252D01*
X034732Y015252D01*
X034655Y015175D01*
X035346Y015175D02*
X035423Y015252D01*
X035576Y015252D01*
X035653Y015175D01*
X035576Y015021D02*
X035499Y015021D01*
X037126Y010518D02*
X037126Y010211D01*
X037587Y010211D01*
X037356Y010211D02*
X037356Y010364D01*
X037126Y010057D02*
X037126Y009750D01*
X037587Y009750D01*
X037510Y009597D02*
X037203Y009597D01*
X037126Y009520D01*
X037126Y009367D01*
X037203Y009290D01*
X037510Y009290D01*
X037587Y009367D01*
X037587Y009520D01*
X037510Y009597D01*
X037356Y009750D02*
X037356Y009904D01*
X037577Y004979D02*
X037116Y004979D01*
X037116Y004672D02*
X037577Y004979D01*
X037577Y004672D02*
X037116Y004672D01*
X037193Y004518D02*
X037116Y004441D01*
X037116Y004288D01*
X037193Y004211D01*
X037500Y004211D01*
X037577Y004288D01*
X037577Y004441D01*
X037500Y004518D01*
X037193Y004518D01*
X033847Y003406D02*
X033693Y003560D01*
X033386Y003560D01*
X033386Y003253D02*
X033693Y003253D01*
X033847Y003406D01*
X033847Y003099D02*
X033847Y002792D01*
X033847Y002639D02*
X033847Y002332D01*
X033847Y002486D02*
X033386Y002486D01*
X033540Y002332D01*
X033616Y002179D02*
X033616Y001872D01*
X033540Y001718D02*
X033616Y001641D01*
X033693Y001718D01*
X033770Y001718D01*
X033847Y001641D01*
X033847Y001488D01*
X033770Y001411D01*
X033616Y001565D02*
X033616Y001641D01*
X033540Y001718D02*
X033463Y001718D01*
X033386Y001641D01*
X033386Y001488D01*
X033463Y001411D01*
X033540Y002792D02*
X033386Y002946D01*
X033847Y002946D01*
X037065Y019808D02*
X037151Y019808D01*
X037238Y019895D01*
X037238Y020328D01*
X036978Y020328D01*
X036891Y020241D01*
X036891Y020068D01*
X036978Y019981D01*
X037238Y019981D01*
X036722Y020068D02*
X036636Y019981D01*
X036462Y019981D01*
X036375Y020068D01*
X036375Y020241D01*
X036462Y020328D01*
X036636Y020328D01*
X036722Y020241D01*
X036722Y020068D01*
X020857Y030031D02*
X020857Y030338D01*
X020857Y030185D02*
X020396Y030185D01*
X020550Y030031D01*
X017989Y028498D02*
X017989Y028412D01*
X019426Y022016D02*
X019426Y021929D01*
X002327Y025702D02*
X001866Y025702D01*
X001866Y026009D01*
X002096Y025856D02*
X002096Y025702D01*
D11*
X000667Y029561D02*
X000669Y029628D01*
X000675Y029696D01*
X000685Y029763D01*
X000699Y029829D01*
X000716Y029894D01*
X000738Y029958D01*
X000763Y030021D01*
X000792Y030082D01*
X000824Y030141D01*
X000860Y030198D01*
X000899Y030253D01*
X000941Y030306D01*
X000986Y030356D01*
X001034Y030403D01*
X001085Y030448D01*
X001138Y030489D01*
X001194Y030528D01*
X001252Y030563D01*
X001312Y030594D01*
X001373Y030622D01*
X001436Y030646D01*
X001500Y030667D01*
X001566Y030683D01*
X001632Y030696D01*
X001699Y030705D01*
X001766Y030710D01*
X001834Y030711D01*
X001901Y030708D01*
X001968Y030701D01*
X002035Y030690D01*
X002101Y030675D01*
X002166Y030657D01*
X002230Y030634D01*
X002292Y030608D01*
X002353Y030579D01*
X002411Y030545D01*
X002468Y030509D01*
X002523Y030469D01*
X002575Y030426D01*
X002624Y030380D01*
X002671Y030331D01*
X002715Y030280D01*
X002755Y030226D01*
X002793Y030170D01*
X002827Y030111D01*
X002857Y030051D01*
X002884Y029989D01*
X002908Y029926D01*
X002927Y029861D01*
X002943Y029796D01*
X002955Y029729D01*
X002963Y029662D01*
X002967Y029595D01*
X002967Y029527D01*
X002963Y029460D01*
X002955Y029393D01*
X002943Y029326D01*
X002927Y029261D01*
X002908Y029196D01*
X002884Y029133D01*
X002857Y029071D01*
X002827Y029011D01*
X002793Y028952D01*
X002755Y028896D01*
X002715Y028842D01*
X002671Y028791D01*
X002624Y028742D01*
X002575Y028696D01*
X002523Y028653D01*
X002468Y028613D01*
X002411Y028577D01*
X002353Y028543D01*
X002292Y028514D01*
X002230Y028488D01*
X002166Y028465D01*
X002101Y028447D01*
X002035Y028432D01*
X001968Y028421D01*
X001901Y028414D01*
X001834Y028411D01*
X001766Y028412D01*
X001699Y028417D01*
X001632Y028426D01*
X001566Y028439D01*
X001500Y028455D01*
X001436Y028476D01*
X001373Y028500D01*
X001312Y028528D01*
X001252Y028559D01*
X001194Y028594D01*
X001138Y028633D01*
X001085Y028674D01*
X001034Y028719D01*
X000986Y028766D01*
X000941Y028816D01*
X000899Y028869D01*
X000860Y028924D01*
X000824Y028981D01*
X000792Y029040D01*
X000763Y029101D01*
X000738Y029164D01*
X000716Y029228D01*
X000699Y029293D01*
X000685Y029359D01*
X000675Y029426D01*
X000669Y029494D01*
X000667Y029561D01*
X004347Y017131D02*
X009717Y017131D01*
X009887Y016961D01*
X009887Y011591D01*
X004347Y011591D01*
X004347Y017131D01*
X009212Y016676D02*
X009214Y016705D01*
X009220Y016734D01*
X009229Y016762D01*
X009243Y016788D01*
X009259Y016812D01*
X009279Y016834D01*
X009302Y016853D01*
X009326Y016869D01*
X009353Y016881D01*
X009381Y016890D01*
X009410Y016895D01*
X009439Y016896D01*
X009469Y016893D01*
X009497Y016886D01*
X009525Y016876D01*
X009550Y016861D01*
X009574Y016844D01*
X009595Y016824D01*
X009613Y016801D01*
X009628Y016775D01*
X009640Y016748D01*
X009648Y016720D01*
X009652Y016691D01*
X009652Y016661D01*
X009648Y016632D01*
X009640Y016604D01*
X009628Y016577D01*
X009613Y016551D01*
X009595Y016528D01*
X009574Y016508D01*
X009550Y016491D01*
X009525Y016476D01*
X009497Y016466D01*
X009469Y016459D01*
X009439Y016456D01*
X009410Y016457D01*
X009381Y016462D01*
X009353Y016471D01*
X009326Y016483D01*
X009302Y016499D01*
X009279Y016518D01*
X009259Y016540D01*
X009243Y016564D01*
X009229Y016590D01*
X009220Y016618D01*
X009214Y016647D01*
X009212Y016676D01*
X005253Y008179D02*
X005253Y007943D01*
X004780Y007943D02*
X004780Y008179D01*
X004780Y005979D02*
X004780Y005743D01*
X005253Y005743D02*
X005253Y005979D01*
X005771Y003475D02*
X005521Y003225D01*
X005521Y001725D01*
X005771Y001475D01*
X006271Y001475D01*
X006521Y001725D01*
X006521Y003225D01*
X006771Y003475D01*
X007271Y003475D01*
X007521Y003225D01*
X007521Y001725D01*
X007271Y001475D01*
X006771Y001475D01*
X006521Y001725D01*
X007521Y001725D02*
X007771Y001475D01*
X008271Y001475D01*
X008521Y001725D01*
X008521Y003225D01*
X008271Y003475D01*
X007771Y003475D01*
X007521Y003225D01*
X006521Y003225D02*
X006271Y003475D01*
X005771Y003475D01*
X008521Y003225D02*
X008771Y003475D01*
X009271Y003475D01*
X009521Y003225D01*
X009521Y001725D01*
X009271Y001475D01*
X008771Y001475D01*
X008521Y001725D01*
X009521Y001725D02*
X009771Y001475D01*
X010271Y001475D01*
X010521Y001725D01*
X010521Y003225D01*
X010271Y003475D01*
X009771Y003475D01*
X009521Y003225D01*
X010521Y003225D02*
X010771Y003475D01*
X011271Y003475D01*
X011521Y003225D01*
X011521Y001725D01*
X011271Y001475D01*
X010771Y001475D01*
X010521Y001725D01*
X011521Y001725D02*
X011771Y001475D01*
X012271Y001475D01*
X012521Y001725D01*
X012521Y003225D01*
X012271Y003475D01*
X011771Y003475D01*
X011521Y003225D01*
X012521Y003225D02*
X012771Y003475D01*
X013271Y003475D01*
X013521Y003225D01*
X013521Y001725D01*
X013271Y001475D01*
X012771Y001475D01*
X012521Y001725D01*
X018765Y001514D02*
X018765Y005609D01*
X021068Y005609D01*
X021068Y001514D01*
X018765Y001514D01*
X018968Y005225D02*
X018970Y005251D01*
X018976Y005277D01*
X018985Y005302D01*
X018998Y005325D01*
X019014Y005346D01*
X019033Y005364D01*
X019055Y005380D01*
X019078Y005392D01*
X019103Y005400D01*
X019129Y005405D01*
X019156Y005406D01*
X019182Y005403D01*
X019207Y005396D01*
X019232Y005386D01*
X019254Y005372D01*
X019275Y005355D01*
X019292Y005336D01*
X019307Y005314D01*
X019318Y005290D01*
X019326Y005264D01*
X019330Y005238D01*
X019330Y005212D01*
X019326Y005186D01*
X019318Y005160D01*
X019307Y005136D01*
X019292Y005114D01*
X019275Y005095D01*
X019254Y005078D01*
X019232Y005064D01*
X019207Y005054D01*
X019182Y005047D01*
X019156Y005044D01*
X019129Y005045D01*
X019103Y005050D01*
X019078Y005058D01*
X019055Y005070D01*
X019033Y005086D01*
X019014Y005104D01*
X018998Y005125D01*
X018985Y005148D01*
X018976Y005173D01*
X018970Y005199D01*
X018968Y005225D01*
X023687Y007451D02*
X023687Y008871D01*
X025547Y008871D02*
X025547Y007451D01*
X028657Y009601D02*
X028657Y009821D01*
X028657Y009601D02*
X028977Y009601D01*
X028657Y010501D02*
X028657Y010721D01*
X028977Y010721D01*
X032027Y009811D02*
X032027Y009491D01*
X032027Y009811D02*
X032247Y009811D01*
X032927Y009811D02*
X033147Y009811D01*
X033147Y009491D01*
X034717Y010421D02*
X034717Y010741D01*
X034717Y010421D02*
X034937Y010421D01*
X035617Y010421D02*
X035837Y010421D01*
X035837Y010741D01*
X034177Y007321D02*
X034177Y007001D01*
X033957Y007001D01*
X033277Y007001D02*
X033057Y007001D01*
X033057Y007321D01*
X035167Y002561D02*
X035169Y002628D01*
X035175Y002696D01*
X035185Y002763D01*
X035199Y002829D01*
X035216Y002894D01*
X035238Y002958D01*
X035263Y003021D01*
X035292Y003082D01*
X035324Y003141D01*
X035360Y003198D01*
X035399Y003253D01*
X035441Y003306D01*
X035486Y003356D01*
X035534Y003403D01*
X035585Y003448D01*
X035638Y003489D01*
X035694Y003528D01*
X035752Y003563D01*
X035812Y003594D01*
X035873Y003622D01*
X035936Y003646D01*
X036000Y003667D01*
X036066Y003683D01*
X036132Y003696D01*
X036199Y003705D01*
X036266Y003710D01*
X036334Y003711D01*
X036401Y003708D01*
X036468Y003701D01*
X036535Y003690D01*
X036601Y003675D01*
X036666Y003657D01*
X036730Y003634D01*
X036792Y003608D01*
X036853Y003579D01*
X036911Y003545D01*
X036968Y003509D01*
X037023Y003469D01*
X037075Y003426D01*
X037124Y003380D01*
X037171Y003331D01*
X037215Y003280D01*
X037255Y003226D01*
X037293Y003170D01*
X037327Y003111D01*
X037357Y003051D01*
X037384Y002989D01*
X037408Y002926D01*
X037427Y002861D01*
X037443Y002796D01*
X037455Y002729D01*
X037463Y002662D01*
X037467Y002595D01*
X037467Y002527D01*
X037463Y002460D01*
X037455Y002393D01*
X037443Y002326D01*
X037427Y002261D01*
X037408Y002196D01*
X037384Y002133D01*
X037357Y002071D01*
X037327Y002011D01*
X037293Y001952D01*
X037255Y001896D01*
X037215Y001842D01*
X037171Y001791D01*
X037124Y001742D01*
X037075Y001696D01*
X037023Y001653D01*
X036968Y001613D01*
X036911Y001577D01*
X036853Y001543D01*
X036792Y001514D01*
X036730Y001488D01*
X036666Y001465D01*
X036601Y001447D01*
X036535Y001432D01*
X036468Y001421D01*
X036401Y001414D01*
X036334Y001411D01*
X036266Y001412D01*
X036199Y001417D01*
X036132Y001426D01*
X036066Y001439D01*
X036000Y001455D01*
X035936Y001476D01*
X035873Y001500D01*
X035812Y001528D01*
X035752Y001559D01*
X035694Y001594D01*
X035638Y001633D01*
X035585Y001674D01*
X035534Y001719D01*
X035486Y001766D01*
X035441Y001816D01*
X035399Y001869D01*
X035360Y001924D01*
X035324Y001981D01*
X035292Y002040D01*
X035263Y002101D01*
X035238Y002164D01*
X035216Y002228D01*
X035199Y002293D01*
X035185Y002359D01*
X035175Y002426D01*
X035169Y002494D01*
X035167Y002561D01*
X033447Y013951D02*
X033447Y015371D01*
X031587Y015371D02*
X031587Y013951D01*
X033657Y017901D02*
X033657Y018221D01*
X033877Y018221D01*
X034557Y018221D02*
X034777Y018221D01*
X034777Y017901D01*
X025847Y017571D02*
X025847Y016151D01*
X023987Y016151D02*
X023987Y017571D01*
X033056Y027761D02*
X033056Y028082D01*
X033163Y028188D01*
X033376Y028188D01*
X033483Y028082D01*
X033483Y027761D01*
X033697Y027761D02*
X033056Y027761D01*
X033483Y027975D02*
X033697Y028188D01*
X033697Y028406D02*
X033697Y028833D01*
X033590Y029050D02*
X033697Y029157D01*
X033697Y029371D01*
X033590Y029477D01*
X033483Y029477D01*
X033376Y029371D01*
X033376Y029157D01*
X033270Y029050D01*
X033163Y029050D01*
X033056Y029157D01*
X033056Y029371D01*
X033163Y029477D01*
X033056Y029695D02*
X033697Y029695D01*
X033697Y030122D01*
X033376Y029908D02*
X033376Y029695D01*
X033056Y029695D02*
X033056Y030122D01*
X033056Y030339D02*
X033056Y030766D01*
X033056Y030553D02*
X033697Y030553D01*
X033056Y028833D02*
X033056Y028406D01*
X033697Y028406D01*
X033376Y028406D02*
X033376Y028619D01*
X035167Y029561D02*
X035169Y029628D01*
X035175Y029696D01*
X035185Y029763D01*
X035199Y029829D01*
X035216Y029894D01*
X035238Y029958D01*
X035263Y030021D01*
X035292Y030082D01*
X035324Y030141D01*
X035360Y030198D01*
X035399Y030253D01*
X035441Y030306D01*
X035486Y030356D01*
X035534Y030403D01*
X035585Y030448D01*
X035638Y030489D01*
X035694Y030528D01*
X035752Y030563D01*
X035812Y030594D01*
X035873Y030622D01*
X035936Y030646D01*
X036000Y030667D01*
X036066Y030683D01*
X036132Y030696D01*
X036199Y030705D01*
X036266Y030710D01*
X036334Y030711D01*
X036401Y030708D01*
X036468Y030701D01*
X036535Y030690D01*
X036601Y030675D01*
X036666Y030657D01*
X036730Y030634D01*
X036792Y030608D01*
X036853Y030579D01*
X036911Y030545D01*
X036968Y030509D01*
X037023Y030469D01*
X037075Y030426D01*
X037124Y030380D01*
X037171Y030331D01*
X037215Y030280D01*
X037255Y030226D01*
X037293Y030170D01*
X037327Y030111D01*
X037357Y030051D01*
X037384Y029989D01*
X037408Y029926D01*
X037427Y029861D01*
X037443Y029796D01*
X037455Y029729D01*
X037463Y029662D01*
X037467Y029595D01*
X037467Y029527D01*
X037463Y029460D01*
X037455Y029393D01*
X037443Y029326D01*
X037427Y029261D01*
X037408Y029196D01*
X037384Y029133D01*
X037357Y029071D01*
X037327Y029011D01*
X037293Y028952D01*
X037255Y028896D01*
X037215Y028842D01*
X037171Y028791D01*
X037124Y028742D01*
X037075Y028696D01*
X037023Y028653D01*
X036968Y028613D01*
X036911Y028577D01*
X036853Y028543D01*
X036792Y028514D01*
X036730Y028488D01*
X036666Y028465D01*
X036601Y028447D01*
X036535Y028432D01*
X036468Y028421D01*
X036401Y028414D01*
X036334Y028411D01*
X036266Y028412D01*
X036199Y028417D01*
X036132Y028426D01*
X036066Y028439D01*
X036000Y028455D01*
X035936Y028476D01*
X035873Y028500D01*
X035812Y028528D01*
X035752Y028559D01*
X035694Y028594D01*
X035638Y028633D01*
X035585Y028674D01*
X035534Y028719D01*
X035486Y028766D01*
X035441Y028816D01*
X035399Y028869D01*
X035360Y028924D01*
X035324Y028981D01*
X035292Y029040D01*
X035263Y029101D01*
X035238Y029164D01*
X035216Y029228D01*
X035199Y029293D01*
X035185Y029359D01*
X035175Y029426D01*
X035169Y029494D01*
X035167Y029561D01*
X028727Y029533D02*
X028513Y029319D01*
X028727Y029106D01*
X028086Y029106D01*
X028193Y028888D02*
X028086Y028782D01*
X028086Y028568D01*
X028193Y028461D01*
X028300Y028461D01*
X028406Y028568D01*
X028406Y028782D01*
X028513Y028888D01*
X028620Y028888D01*
X028727Y028782D01*
X028727Y028568D01*
X028620Y028461D01*
X028727Y029533D02*
X028086Y029533D01*
X028300Y029750D02*
X028086Y029964D01*
X028727Y029964D01*
X028727Y030177D02*
X028727Y029750D01*
X000667Y002561D02*
X000669Y002628D01*
X000675Y002696D01*
X000685Y002763D01*
X000699Y002829D01*
X000716Y002894D01*
X000738Y002958D01*
X000763Y003021D01*
X000792Y003082D01*
X000824Y003141D01*
X000860Y003198D01*
X000899Y003253D01*
X000941Y003306D01*
X000986Y003356D01*
X001034Y003403D01*
X001085Y003448D01*
X001138Y003489D01*
X001194Y003528D01*
X001252Y003563D01*
X001312Y003594D01*
X001373Y003622D01*
X001436Y003646D01*
X001500Y003667D01*
X001566Y003683D01*
X001632Y003696D01*
X001699Y003705D01*
X001766Y003710D01*
X001834Y003711D01*
X001901Y003708D01*
X001968Y003701D01*
X002035Y003690D01*
X002101Y003675D01*
X002166Y003657D01*
X002230Y003634D01*
X002292Y003608D01*
X002353Y003579D01*
X002411Y003545D01*
X002468Y003509D01*
X002523Y003469D01*
X002575Y003426D01*
X002624Y003380D01*
X002671Y003331D01*
X002715Y003280D01*
X002755Y003226D01*
X002793Y003170D01*
X002827Y003111D01*
X002857Y003051D01*
X002884Y002989D01*
X002908Y002926D01*
X002927Y002861D01*
X002943Y002796D01*
X002955Y002729D01*
X002963Y002662D01*
X002967Y002595D01*
X002967Y002527D01*
X002963Y002460D01*
X002955Y002393D01*
X002943Y002326D01*
X002927Y002261D01*
X002908Y002196D01*
X002884Y002133D01*
X002857Y002071D01*
X002827Y002011D01*
X002793Y001952D01*
X002755Y001896D01*
X002715Y001842D01*
X002671Y001791D01*
X002624Y001742D01*
X002575Y001696D01*
X002523Y001653D01*
X002468Y001613D01*
X002411Y001577D01*
X002353Y001543D01*
X002292Y001514D01*
X002230Y001488D01*
X002166Y001465D01*
X002101Y001447D01*
X002035Y001432D01*
X001968Y001421D01*
X001901Y001414D01*
X001834Y001411D01*
X001766Y001412D01*
X001699Y001417D01*
X001632Y001426D01*
X001566Y001439D01*
X001500Y001455D01*
X001436Y001476D01*
X001373Y001500D01*
X001312Y001528D01*
X001252Y001559D01*
X001194Y001594D01*
X001138Y001633D01*
X001085Y001674D01*
X001034Y001719D01*
X000986Y001766D01*
X000941Y001816D01*
X000899Y001869D01*
X000860Y001924D01*
X000824Y001981D01*
X000792Y002040D01*
X000763Y002101D01*
X000738Y002164D01*
X000716Y002228D01*
X000699Y002293D01*
X000685Y002359D01*
X000675Y002426D01*
X000669Y002494D01*
X000667Y002561D01*
D12*
X002672Y004920D02*
X003026Y004920D01*
X002672Y004920D02*
X002672Y009802D01*
X003026Y009802D01*
X004207Y009802D02*
X004562Y009802D01*
X004562Y004920D01*
X004207Y004920D01*
X013817Y003961D02*
X013817Y002201D01*
X016417Y002201D01*
X016417Y003961D01*
X013817Y003961D01*
X014617Y002161D02*
X014617Y001661D01*
X015617Y001661D01*
X015617Y002161D01*
X026187Y008182D02*
X026189Y008199D01*
X026195Y008215D01*
X026204Y008229D01*
X026216Y008241D01*
X026231Y008249D01*
X026247Y008254D01*
X026264Y008255D01*
X026281Y008252D01*
X026296Y008245D01*
X026310Y008235D01*
X026321Y008222D01*
X026329Y008207D01*
X026333Y008190D01*
X026333Y008174D01*
X026329Y008157D01*
X026321Y008142D01*
X026310Y008129D01*
X026297Y008119D01*
X026281Y008112D01*
X026264Y008109D01*
X026247Y008110D01*
X026231Y008115D01*
X026216Y008123D01*
X026204Y008135D01*
X026195Y008149D01*
X026189Y008165D01*
X026187Y008182D01*
X026351Y008209D02*
X027091Y008209D01*
X027091Y008690D01*
X026351Y008690D01*
X026351Y008213D01*
X028723Y013605D02*
X028725Y013622D01*
X028731Y013638D01*
X028740Y013652D01*
X028752Y013664D01*
X028767Y013672D01*
X028783Y013677D01*
X028800Y013678D01*
X028817Y013675D01*
X028832Y013668D01*
X028846Y013658D01*
X028857Y013645D01*
X028865Y013630D01*
X028869Y013613D01*
X028869Y013597D01*
X028865Y013580D01*
X028857Y013565D01*
X028846Y013552D01*
X028833Y013542D01*
X028817Y013535D01*
X028800Y013532D01*
X028783Y013533D01*
X028767Y013538D01*
X028752Y013546D01*
X028740Y013558D01*
X028731Y013572D01*
X028725Y013588D01*
X028723Y013605D01*
X028765Y013695D02*
X028288Y013695D01*
X028288Y014435D01*
X028769Y014435D01*
X028769Y013695D01*
X028391Y016109D02*
X027651Y016109D01*
X027651Y016113D02*
X027651Y016590D01*
X028391Y016590D01*
X028391Y016109D01*
X027487Y016082D02*
X027489Y016099D01*
X027495Y016115D01*
X027504Y016129D01*
X027516Y016141D01*
X027531Y016149D01*
X027547Y016154D01*
X027564Y016155D01*
X027581Y016152D01*
X027596Y016145D01*
X027610Y016135D01*
X027621Y016122D01*
X027629Y016107D01*
X027633Y016090D01*
X027633Y016074D01*
X027629Y016057D01*
X027621Y016042D01*
X027610Y016029D01*
X027597Y016019D01*
X027581Y016012D01*
X027564Y016009D01*
X027547Y016010D01*
X027531Y016015D01*
X027516Y016023D01*
X027504Y016035D01*
X027495Y016049D01*
X027489Y016065D01*
X027487Y016082D01*
X027646Y018615D02*
X027650Y018615D01*
X027654Y018615D01*
X028162Y018615D01*
X028162Y019544D01*
X027646Y019544D01*
X027646Y018615D01*
X027937Y018745D02*
X027939Y018763D01*
X027945Y018780D01*
X027954Y018796D01*
X027966Y018810D01*
X027980Y018820D01*
X027997Y018828D01*
X028015Y018832D01*
X028033Y018832D01*
X028051Y018828D01*
X028067Y018820D01*
X028082Y018810D01*
X028094Y018796D01*
X028103Y018780D01*
X028109Y018763D01*
X028111Y018745D01*
X028109Y018727D01*
X028103Y018710D01*
X028094Y018694D01*
X028082Y018680D01*
X028068Y018670D01*
X028051Y018662D01*
X028033Y018658D01*
X028015Y018658D01*
X027997Y018662D01*
X027981Y018670D01*
X027966Y018680D01*
X027954Y018694D01*
X027945Y018710D01*
X027939Y018727D01*
X027937Y018745D01*
X030809Y018365D02*
X031344Y018365D01*
X031344Y019330D01*
X030809Y019330D01*
X030809Y018365D01*
X031143Y018479D02*
X031145Y018494D01*
X031150Y018507D01*
X031159Y018519D01*
X031170Y018529D01*
X031184Y018535D01*
X031198Y018538D01*
X031213Y018537D01*
X031227Y018532D01*
X031240Y018524D01*
X031250Y018514D01*
X031257Y018501D01*
X031261Y018486D01*
X031261Y018472D01*
X031257Y018457D01*
X031250Y018444D01*
X031240Y018434D01*
X031227Y018426D01*
X031213Y018421D01*
X031198Y018420D01*
X031184Y018423D01*
X031170Y018429D01*
X031159Y018439D01*
X031150Y018451D01*
X031145Y018464D01*
X031143Y018479D01*
X026455Y024586D02*
X026455Y025197D01*
X026760Y025197D01*
X026862Y025095D01*
X026862Y024892D01*
X026760Y024790D01*
X026455Y024790D01*
X026254Y024790D02*
X026254Y024688D01*
X026152Y024586D01*
X025949Y024586D01*
X025847Y024688D01*
X025645Y024586D02*
X025442Y024586D01*
X025543Y024586D02*
X025543Y025197D01*
X025442Y025197D02*
X025645Y025197D01*
X025847Y025095D02*
X025847Y024993D01*
X025949Y024892D01*
X026152Y024892D01*
X026254Y024790D01*
X026254Y025095D02*
X026152Y025197D01*
X025949Y025197D01*
X025847Y025095D01*
X016169Y026590D02*
X012232Y026590D01*
X012232Y030133D01*
X016169Y030133D01*
X016169Y026590D01*
X014453Y026053D02*
X014453Y025577D01*
X013358Y025577D01*
X013358Y026053D01*
X014453Y026053D01*
X014324Y025959D02*
X014326Y025976D01*
X014332Y025993D01*
X014341Y026008D01*
X014353Y026020D01*
X014368Y026029D01*
X014385Y026035D01*
X014402Y026037D01*
X014419Y026035D01*
X014436Y026029D01*
X014451Y026020D01*
X014463Y026008D01*
X014472Y025993D01*
X014478Y025976D01*
X014480Y025959D01*
X014478Y025942D01*
X014472Y025925D01*
X014463Y025910D01*
X014451Y025898D01*
X014436Y025889D01*
X014419Y025883D01*
X014402Y025881D01*
X014385Y025883D01*
X014368Y025889D01*
X014353Y025898D01*
X014341Y025910D01*
X014332Y025925D01*
X014326Y025942D01*
X014324Y025959D01*
X011769Y026590D02*
X007832Y026590D01*
X007832Y030133D01*
X011769Y030133D01*
X011769Y026590D01*
X009953Y026153D02*
X009953Y025677D01*
X008858Y025677D01*
X008858Y026153D01*
X009953Y026153D01*
X009824Y026059D02*
X009826Y026076D01*
X009832Y026093D01*
X009841Y026108D01*
X009853Y026120D01*
X009868Y026129D01*
X009885Y026135D01*
X009902Y026137D01*
X009919Y026135D01*
X009936Y026129D01*
X009951Y026120D01*
X009963Y026108D01*
X009972Y026093D01*
X009978Y026076D01*
X009980Y026059D01*
X009978Y026042D01*
X009972Y026025D01*
X009963Y026010D01*
X009951Y025998D01*
X009936Y025989D01*
X009919Y025983D01*
X009902Y025981D01*
X009885Y025983D01*
X009868Y025989D01*
X009853Y025998D01*
X009841Y026010D01*
X009832Y026025D01*
X009826Y026042D01*
X009824Y026059D01*
X007994Y022519D02*
X006643Y022519D01*
X006643Y021196D01*
X007994Y021196D01*
X007994Y022519D01*
X006597Y021373D02*
X006599Y021394D01*
X006605Y021414D01*
X006614Y021432D01*
X006627Y021448D01*
X006643Y021462D01*
X006661Y021472D01*
X006680Y021479D01*
X006701Y021482D01*
X006722Y021481D01*
X006742Y021476D01*
X006760Y021467D01*
X006777Y021455D01*
X006792Y021440D01*
X006803Y021423D01*
X006811Y021404D01*
X006815Y021383D01*
X006815Y021363D01*
X006811Y021342D01*
X006803Y021323D01*
X006792Y021306D01*
X006777Y021291D01*
X006761Y021279D01*
X006742Y021270D01*
X006722Y021265D01*
X006701Y021264D01*
X006680Y021267D01*
X006661Y021274D01*
X006643Y021284D01*
X006627Y021298D01*
X006614Y021314D01*
X006605Y021332D01*
X006599Y021352D01*
X006597Y021373D01*
X035970Y008854D02*
X035970Y005468D01*
X037663Y005468D01*
X037663Y008854D01*
X035970Y008854D01*
D13*
X035883Y013876D02*
X035637Y013876D01*
X035637Y014247D01*
X035883Y014247D01*
X036005Y014247D02*
X036252Y014247D01*
X036128Y014247D02*
X036128Y013876D01*
X035760Y014061D02*
X035637Y014061D01*
X035515Y014000D02*
X035515Y013938D01*
X035453Y013876D01*
X035330Y013876D01*
X035268Y013938D01*
X035147Y013876D02*
X034900Y013876D01*
X034900Y014247D01*
X035147Y014247D01*
X035268Y014185D02*
X035268Y014123D01*
X035330Y014061D01*
X035453Y014061D01*
X035515Y014000D01*
X035515Y014185D02*
X035453Y014247D01*
X035330Y014247D01*
X035268Y014185D01*
X035023Y014061D02*
X034900Y014061D01*
X034779Y014061D02*
X034717Y014000D01*
X034532Y014000D01*
X034655Y014000D02*
X034779Y013876D01*
X034779Y014061D02*
X034779Y014185D01*
X034717Y014247D01*
X034532Y014247D01*
X034532Y013876D01*
X018092Y002951D02*
X017721Y002705D01*
X017783Y002583D02*
X017907Y002583D01*
X017968Y002521D01*
X017968Y002336D01*
X018092Y002336D02*
X017721Y002336D01*
X017721Y002521D01*
X017783Y002583D01*
X017968Y002460D02*
X018092Y002583D01*
X018092Y002705D02*
X017721Y002951D01*
X016521Y004686D02*
X016521Y004977D01*
X016424Y004977D02*
X016618Y004977D01*
X016323Y004928D02*
X016275Y004977D01*
X016178Y004977D01*
X016130Y004928D01*
X016130Y004880D01*
X016178Y004831D01*
X016275Y004831D01*
X016323Y004783D01*
X016323Y004735D01*
X016275Y004686D01*
X016178Y004686D01*
X016130Y004735D01*
X016028Y004686D02*
X016028Y004880D01*
X015932Y004977D01*
X015835Y004880D01*
X015835Y004686D01*
X015734Y004686D02*
X015637Y004783D01*
X015685Y004783D02*
X015540Y004783D01*
X015540Y004686D02*
X015540Y004977D01*
X015685Y004977D01*
X015734Y004928D01*
X015734Y004831D01*
X015685Y004783D01*
X015835Y004831D02*
X016028Y004831D01*
X015439Y004977D02*
X015246Y004977D01*
X015342Y004977D02*
X015342Y004686D01*
X015144Y004686D02*
X015144Y004977D01*
X014951Y004977D02*
X015144Y004686D01*
X014951Y004686D02*
X014951Y004977D01*
X014850Y004928D02*
X014801Y004977D01*
X014705Y004977D01*
X014656Y004928D01*
X014656Y004735D01*
X014705Y004686D01*
X014801Y004686D01*
X014850Y004735D01*
X014850Y004928D01*
X014555Y004928D02*
X014507Y004977D01*
X014410Y004977D01*
X014362Y004928D01*
X014362Y004735D01*
X014410Y004686D01*
X014507Y004686D01*
X014555Y004735D01*
X009380Y004015D02*
X009380Y003891D01*
X009319Y003830D01*
X009133Y003830D01*
X009133Y003706D02*
X009133Y004077D01*
X009319Y004077D01*
X009380Y004015D01*
X009257Y003830D02*
X009380Y003706D01*
X009012Y003706D02*
X008765Y003706D01*
X008765Y004077D01*
X009012Y004077D01*
X008888Y003891D02*
X008765Y003891D01*
X008644Y003768D02*
X008644Y004015D01*
X008582Y004077D01*
X008397Y004077D01*
X008397Y003706D01*
X008582Y003706D01*
X008644Y003768D01*
X008275Y003706D02*
X008275Y003953D01*
X008152Y004077D01*
X008028Y003953D01*
X008028Y003706D01*
X007907Y003706D02*
X007660Y003706D01*
X007660Y004077D01*
X007907Y004077D01*
X008028Y003891D02*
X008275Y003891D01*
X007784Y003891D02*
X007660Y003891D01*
X007539Y003891D02*
X007292Y003891D01*
X007292Y003706D02*
X007292Y004077D01*
X007539Y004077D02*
X007539Y003706D01*
X006802Y003768D02*
X006802Y004015D01*
X006740Y004077D01*
X006555Y004077D01*
X006555Y003706D01*
X006740Y003706D01*
X006802Y003768D01*
X006434Y003768D02*
X006372Y003706D01*
X006249Y003706D01*
X006187Y003768D01*
X006187Y004015D01*
X006249Y004077D01*
X006372Y004077D01*
X006434Y004015D01*
X006065Y003706D02*
X005819Y003706D01*
X005819Y004077D01*
D14*
X001226Y002561D02*
X001228Y002609D01*
X001234Y002657D01*
X001244Y002704D01*
X001257Y002750D01*
X001275Y002795D01*
X001295Y002839D01*
X001320Y002881D01*
X001348Y002920D01*
X001378Y002957D01*
X001412Y002991D01*
X001449Y003023D01*
X001487Y003052D01*
X001528Y003077D01*
X001571Y003099D01*
X001616Y003117D01*
X001662Y003131D01*
X001709Y003142D01*
X001757Y003149D01*
X001805Y003152D01*
X001853Y003151D01*
X001901Y003146D01*
X001949Y003137D01*
X001995Y003125D01*
X002040Y003108D01*
X002084Y003088D01*
X002126Y003065D01*
X002166Y003038D01*
X002204Y003008D01*
X002239Y002975D01*
X002271Y002939D01*
X002301Y002901D01*
X002327Y002860D01*
X002349Y002817D01*
X002369Y002773D01*
X002384Y002728D01*
X002396Y002681D01*
X002404Y002633D01*
X002408Y002585D01*
X002408Y002537D01*
X002404Y002489D01*
X002396Y002441D01*
X002384Y002394D01*
X002369Y002349D01*
X002349Y002305D01*
X002327Y002262D01*
X002301Y002221D01*
X002271Y002183D01*
X002239Y002147D01*
X002204Y002114D01*
X002166Y002084D01*
X002126Y002057D01*
X002084Y002034D01*
X002040Y002014D01*
X001995Y001997D01*
X001949Y001985D01*
X001901Y001976D01*
X001853Y001971D01*
X001805Y001970D01*
X001757Y001973D01*
X001709Y001980D01*
X001662Y001991D01*
X001616Y002005D01*
X001571Y002023D01*
X001528Y002045D01*
X001487Y002070D01*
X001449Y002099D01*
X001412Y002131D01*
X001378Y002165D01*
X001348Y002202D01*
X001320Y002241D01*
X001295Y002283D01*
X001275Y002327D01*
X001257Y002372D01*
X001244Y002418D01*
X001234Y002465D01*
X001228Y002513D01*
X001226Y002561D01*
X001610Y004516D02*
X000823Y004516D01*
X000823Y005068D01*
X000941Y005343D02*
X001217Y005343D01*
X000980Y005579D01*
X001453Y005579D01*
X001217Y005343D01*
X001492Y005343D01*
X001610Y005068D02*
X001610Y004516D01*
X001610Y005855D02*
X001610Y006406D01*
X000823Y006406D01*
X000823Y005855D01*
X000823Y009416D02*
X000823Y009968D01*
X000941Y010243D02*
X001217Y010243D01*
X000980Y010479D01*
X001453Y010479D01*
X001217Y010243D01*
X001492Y010243D01*
X001610Y009968D02*
X001610Y009416D01*
X000823Y009416D01*
X000823Y010755D02*
X000823Y011306D01*
X001610Y011306D01*
X001610Y010755D01*
X001567Y012861D02*
X001067Y012861D01*
X000817Y013111D01*
X000817Y013611D01*
X001067Y013861D01*
X000817Y014111D01*
X000817Y014611D01*
X001067Y014861D01*
X000817Y015111D01*
X000817Y015611D01*
X001067Y015861D01*
X001567Y015861D01*
X001817Y015611D01*
X001817Y015111D01*
X001567Y014861D01*
X001817Y014611D01*
X001817Y014111D01*
X001567Y013861D01*
X001817Y013611D01*
X001817Y013111D01*
X001567Y012861D01*
X013777Y012510D02*
X014092Y012510D01*
X014092Y012746D01*
X014092Y013376D02*
X014092Y013612D01*
X013777Y013612D01*
X013777Y014010D02*
X014092Y014010D01*
X014092Y014246D01*
X014092Y014876D02*
X014092Y015112D01*
X013777Y015112D01*
X013777Y015510D02*
X014092Y015510D01*
X014092Y015746D01*
X014092Y016376D02*
X014092Y016612D01*
X013777Y016612D01*
X013777Y017010D02*
X014092Y017010D01*
X014092Y017246D01*
X014092Y017876D02*
X014092Y018112D01*
X013777Y018112D01*
X013777Y018510D02*
X014092Y018510D01*
X014092Y018746D01*
X014092Y019376D02*
X014092Y019612D01*
X013777Y019612D01*
X013777Y019810D02*
X014092Y019810D01*
X014092Y020046D01*
X014092Y020676D02*
X014092Y020912D01*
X013777Y020912D01*
X013777Y021210D02*
X014092Y021210D01*
X014092Y021446D01*
X014092Y022076D02*
X014092Y022312D01*
X013777Y022312D01*
X015265Y023186D02*
X015265Y023501D01*
X015265Y023186D02*
X015502Y023186D01*
X016132Y023186D02*
X016368Y023186D01*
X016368Y023501D01*
X017317Y023311D02*
X017317Y022811D01*
X017567Y022561D01*
X017317Y022311D01*
X017317Y021811D01*
X017567Y021561D01*
X017317Y021311D01*
X017317Y020811D01*
X017567Y020561D01*
X017317Y020311D01*
X017317Y019811D01*
X017567Y019561D01*
X017317Y019311D01*
X017317Y018811D01*
X017567Y018561D01*
X018067Y018561D01*
X018317Y018811D01*
X018317Y019311D01*
X018067Y019561D01*
X018317Y019811D01*
X018317Y020311D01*
X018067Y020561D01*
X018317Y020811D01*
X018317Y021311D01*
X018067Y021561D01*
X018317Y021811D01*
X018317Y022311D01*
X018067Y022561D01*
X018317Y022811D01*
X018317Y023311D01*
X018067Y023561D01*
X018317Y023811D01*
X018317Y024311D01*
X018067Y024561D01*
X018317Y024811D01*
X018317Y025311D01*
X018067Y025561D01*
X018317Y025811D01*
X018317Y026311D01*
X018067Y026561D01*
X017567Y026561D01*
X017317Y026311D01*
X017317Y025811D01*
X017567Y025561D01*
X017317Y025311D01*
X017317Y024811D01*
X017567Y024561D01*
X017317Y024311D01*
X017317Y023811D01*
X017567Y023561D01*
X017317Y023311D01*
X021741Y023346D02*
X021741Y023110D01*
X022056Y023110D01*
X022056Y022912D02*
X021741Y022912D01*
X021741Y022676D01*
X021741Y022046D02*
X021741Y021810D01*
X022056Y021810D01*
X021741Y023976D02*
X021741Y024212D01*
X022056Y024212D01*
X022056Y024410D02*
X021741Y024410D01*
X021741Y024646D01*
X021741Y025276D02*
X021741Y025512D01*
X022056Y025512D01*
X022056Y025710D02*
X021741Y025710D01*
X021741Y025946D01*
X021741Y026576D02*
X021741Y026812D01*
X022056Y026812D01*
X021837Y028539D02*
X021337Y028539D01*
X021337Y028671D02*
X021837Y028671D01*
X022087Y028921D01*
X022087Y030421D01*
X022337Y030671D01*
X022837Y030671D01*
X023087Y030421D01*
X023087Y028921D01*
X023337Y028671D01*
X023837Y028671D01*
X024087Y028921D01*
X024087Y030421D01*
X023837Y030671D01*
X023337Y030671D01*
X023087Y030421D01*
X022087Y030421D02*
X021837Y030671D01*
X021337Y030671D01*
X021087Y030421D01*
X021087Y028921D01*
X021337Y028671D01*
X022087Y028921D02*
X022337Y028671D01*
X022837Y028671D01*
X023087Y028921D01*
X025017Y028861D02*
X025017Y029666D01*
X025367Y030461D02*
X027067Y030461D01*
X027417Y029654D02*
X027417Y028861D01*
X027067Y028061D02*
X025367Y028061D01*
X025567Y027561D02*
X025317Y027311D01*
X025317Y025811D01*
X025567Y025561D01*
X026067Y025561D01*
X026317Y025811D01*
X026317Y027311D01*
X026567Y027561D01*
X027067Y027561D01*
X027317Y027311D01*
X027317Y025811D01*
X027567Y025561D01*
X028067Y025561D01*
X028317Y025811D01*
X028317Y027311D01*
X028067Y027561D01*
X027567Y027561D01*
X027317Y027311D01*
X026317Y027311D02*
X026067Y027561D01*
X025567Y027561D01*
X026317Y025811D02*
X026567Y025561D01*
X027067Y025561D01*
X027317Y025811D01*
X026067Y025429D02*
X025567Y025429D01*
X029917Y028861D02*
X029917Y029666D01*
X030267Y030461D02*
X031967Y030461D01*
X032317Y029654D02*
X032317Y028861D01*
X031967Y028061D02*
X030267Y028061D01*
X030417Y029261D02*
X030419Y029313D01*
X030425Y029365D01*
X030435Y029417D01*
X030448Y029467D01*
X030465Y029517D01*
X030486Y029565D01*
X030511Y029611D01*
X030539Y029655D01*
X030570Y029697D01*
X030604Y029737D01*
X030641Y029774D01*
X030681Y029808D01*
X030723Y029839D01*
X030767Y029867D01*
X030813Y029892D01*
X030861Y029913D01*
X030911Y029930D01*
X030961Y029943D01*
X031013Y029953D01*
X031065Y029959D01*
X031117Y029961D01*
X031169Y029959D01*
X031221Y029953D01*
X031273Y029943D01*
X031323Y029930D01*
X031373Y029913D01*
X031421Y029892D01*
X031467Y029867D01*
X031511Y029839D01*
X031553Y029808D01*
X031593Y029774D01*
X031630Y029737D01*
X031664Y029697D01*
X031695Y029655D01*
X031723Y029611D01*
X031748Y029565D01*
X031769Y029517D01*
X031786Y029467D01*
X031799Y029417D01*
X031809Y029365D01*
X031815Y029313D01*
X031817Y029261D01*
X031815Y029209D01*
X031809Y029157D01*
X031799Y029105D01*
X031786Y029055D01*
X031769Y029005D01*
X031748Y028957D01*
X031723Y028911D01*
X031695Y028867D01*
X031664Y028825D01*
X031630Y028785D01*
X031593Y028748D01*
X031553Y028714D01*
X031511Y028683D01*
X031467Y028655D01*
X031421Y028630D01*
X031373Y028609D01*
X031323Y028592D01*
X031273Y028579D01*
X031221Y028569D01*
X031169Y028563D01*
X031117Y028561D01*
X031065Y028563D01*
X031013Y028569D01*
X030961Y028579D01*
X030911Y028592D01*
X030861Y028609D01*
X030813Y028630D01*
X030767Y028655D01*
X030723Y028683D01*
X030681Y028714D01*
X030641Y028748D01*
X030604Y028785D01*
X030570Y028825D01*
X030539Y028867D01*
X030511Y028911D01*
X030486Y028957D01*
X030465Y029005D01*
X030448Y029055D01*
X030435Y029105D01*
X030425Y029157D01*
X030419Y029209D01*
X030417Y029261D01*
X032827Y026852D02*
X033142Y026852D01*
X033142Y026616D01*
X033142Y025986D02*
X033142Y025750D01*
X032827Y025750D01*
X032827Y025452D02*
X033142Y025452D01*
X033142Y025216D01*
X033142Y024586D02*
X033142Y024350D01*
X032827Y024350D01*
X032817Y024062D02*
X033132Y024062D01*
X033132Y023826D01*
X033132Y023196D02*
X033132Y022960D01*
X032817Y022960D01*
X032827Y022692D02*
X033142Y022692D01*
X033142Y022456D01*
X033142Y021826D02*
X033142Y021590D01*
X032827Y021590D01*
X032817Y021362D02*
X033132Y021362D01*
X033132Y021126D01*
X033132Y020496D02*
X033132Y020260D01*
X032817Y020260D01*
X036317Y020811D02*
X036567Y020561D01*
X037067Y020561D01*
X037317Y020811D01*
X037317Y021311D01*
X037067Y021561D01*
X037317Y021811D01*
X037317Y022311D01*
X037067Y022561D01*
X037317Y022811D01*
X037317Y023311D01*
X037067Y023561D01*
X037317Y023811D01*
X037317Y024311D01*
X037067Y024561D01*
X037317Y024811D01*
X037317Y025311D01*
X037067Y025561D01*
X037317Y025811D01*
X037317Y026311D01*
X037067Y026561D01*
X036567Y026561D01*
X036317Y026311D01*
X036317Y025811D01*
X036567Y025561D01*
X036317Y025311D01*
X036317Y024811D01*
X036567Y024561D01*
X036317Y024311D01*
X036317Y023811D01*
X036567Y023561D01*
X036317Y023311D01*
X036317Y022811D01*
X036567Y022561D01*
X036317Y022311D01*
X036317Y021811D01*
X036567Y021561D01*
X036317Y021311D01*
X036317Y020811D01*
X036567Y019561D02*
X037067Y019561D01*
X037317Y019311D01*
X037317Y018811D01*
X037067Y018561D01*
X037317Y018311D01*
X037317Y017811D01*
X037067Y017561D01*
X037317Y017311D01*
X037317Y016811D01*
X037067Y016561D01*
X037317Y016311D01*
X037317Y015811D01*
X037067Y015561D01*
X037317Y015311D01*
X037317Y014811D01*
X037067Y014561D01*
X037317Y014311D01*
X037317Y013811D01*
X037067Y013561D01*
X036567Y013561D01*
X036317Y013811D01*
X036317Y014311D01*
X036567Y014561D01*
X036317Y014811D01*
X036317Y015311D01*
X036567Y015561D01*
X036317Y015811D01*
X036317Y016311D01*
X036567Y016561D01*
X036317Y016811D01*
X036317Y017311D01*
X036567Y017561D01*
X036317Y017811D01*
X036317Y018311D01*
X036567Y018561D01*
X036317Y018811D01*
X036317Y019311D01*
X036567Y019561D01*
X031468Y016001D02*
X031468Y015686D01*
X031232Y015686D01*
X030602Y015686D02*
X030365Y015686D01*
X030365Y016001D01*
X031750Y014271D02*
X031752Y014286D01*
X031758Y014299D01*
X031767Y014311D01*
X031778Y014320D01*
X031792Y014326D01*
X031807Y014328D01*
X031822Y014326D01*
X031835Y014320D01*
X031847Y014311D01*
X031856Y014300D01*
X031862Y014286D01*
X031864Y014271D01*
X031862Y014256D01*
X031856Y014243D01*
X031847Y014231D01*
X031836Y014222D01*
X031822Y014216D01*
X031807Y014214D01*
X031792Y014216D01*
X031779Y014222D01*
X031767Y014231D01*
X031758Y014242D01*
X031752Y014256D01*
X031750Y014271D01*
X027877Y013930D02*
X027877Y013592D01*
X027422Y014080D02*
X027211Y014080D01*
X026757Y013930D02*
X026757Y013592D01*
X025570Y017251D02*
X025572Y017266D01*
X025578Y017279D01*
X025587Y017291D01*
X025598Y017300D01*
X025612Y017306D01*
X025627Y017308D01*
X025642Y017306D01*
X025655Y017300D01*
X025667Y017291D01*
X025676Y017280D01*
X025682Y017266D01*
X025684Y017251D01*
X025682Y017236D01*
X025676Y017223D01*
X025667Y017211D01*
X025656Y017202D01*
X025642Y017196D01*
X025627Y017194D01*
X025612Y017196D01*
X025599Y017202D01*
X025587Y017211D01*
X025578Y017222D01*
X025572Y017236D01*
X025570Y017251D01*
X018317Y017211D02*
X018067Y016961D01*
X018317Y016711D01*
X018317Y016211D01*
X018067Y015961D01*
X018317Y015711D01*
X018317Y015211D01*
X018067Y014961D01*
X018317Y014711D01*
X018317Y014211D01*
X018067Y013961D01*
X018317Y013711D01*
X018317Y013211D01*
X018067Y012961D01*
X018317Y012711D01*
X018317Y012211D01*
X018067Y011961D01*
X018317Y011711D01*
X018317Y011211D01*
X018067Y010961D01*
X018317Y010711D01*
X018317Y010211D01*
X018067Y009961D01*
X018317Y009711D01*
X018317Y009211D01*
X018067Y008961D01*
X018317Y008711D01*
X018317Y008211D01*
X018067Y007961D01*
X017567Y007961D01*
X017317Y008211D01*
X017317Y008711D01*
X017567Y008961D01*
X017317Y009211D01*
X017317Y009711D01*
X017567Y009961D01*
X017317Y010211D01*
X017317Y010711D01*
X017567Y010961D01*
X017317Y011211D01*
X017317Y011711D01*
X017567Y011961D01*
X017317Y012211D01*
X017317Y012711D01*
X017567Y012961D01*
X017317Y013211D01*
X017317Y013711D01*
X017567Y013961D01*
X017317Y014211D01*
X017317Y014711D01*
X017567Y014961D01*
X017317Y015211D01*
X017317Y015711D01*
X017567Y015961D01*
X017317Y016211D01*
X017317Y016711D01*
X017567Y016961D01*
X017317Y017211D01*
X017317Y017711D01*
X017567Y017961D01*
X018067Y017961D01*
X018317Y017711D01*
X018317Y017211D01*
X014092Y012112D02*
X013777Y012112D01*
X014092Y012112D02*
X014092Y011876D01*
X014092Y011246D02*
X014092Y011010D01*
X013777Y011010D01*
X013777Y010712D02*
X014092Y010712D01*
X014092Y010476D01*
X014092Y009846D02*
X014092Y009610D01*
X013777Y009610D01*
X013777Y009312D02*
X014092Y009312D01*
X014092Y009076D01*
X014092Y008446D02*
X014092Y008210D01*
X013777Y008210D01*
X014265Y008037D02*
X014265Y007722D01*
X014265Y008037D02*
X014502Y008037D01*
X015132Y008037D02*
X015368Y008037D01*
X015368Y007722D01*
X016077Y007712D02*
X016392Y007712D01*
X016392Y007476D01*
X016392Y006846D02*
X016392Y006610D01*
X016077Y006610D01*
X016833Y003476D02*
X016833Y002925D01*
X016990Y002649D02*
X017227Y002413D01*
X017463Y002649D01*
X016990Y002649D01*
X016951Y002413D02*
X017227Y002413D01*
X017502Y002413D01*
X017620Y002138D02*
X017620Y001586D01*
X016833Y001586D01*
X016833Y002138D01*
X017620Y002925D02*
X017620Y003476D01*
X016833Y003476D01*
X022954Y003171D02*
X022954Y001675D01*
X022954Y004825D02*
X022954Y006360D01*
X027679Y006360D01*
X027679Y004825D01*
X029545Y005955D02*
X030372Y005955D01*
X029545Y005955D02*
X029545Y001742D01*
X033088Y001742D01*
X033088Y003829D01*
X033088Y005679D02*
X033088Y005955D01*
X032262Y005955D01*
X030565Y007228D02*
X029069Y007228D01*
X029069Y009295D02*
X030565Y009295D01*
X025270Y008551D02*
X025272Y008566D01*
X025278Y008579D01*
X025287Y008591D01*
X025298Y008600D01*
X025312Y008606D01*
X025327Y008608D01*
X025342Y008606D01*
X025355Y008600D01*
X025367Y008591D01*
X025376Y008580D01*
X025382Y008566D01*
X025384Y008551D01*
X025382Y008536D01*
X025376Y008523D01*
X025367Y008511D01*
X025356Y008502D01*
X025342Y008496D01*
X025327Y008494D01*
X025312Y008496D01*
X025299Y008502D01*
X025287Y008511D01*
X025278Y008522D01*
X025272Y008536D01*
X025270Y008551D01*
X027679Y003171D02*
X027679Y001675D01*
X035726Y002561D02*
X035728Y002609D01*
X035734Y002657D01*
X035744Y002704D01*
X035757Y002750D01*
X035775Y002795D01*
X035795Y002839D01*
X035820Y002881D01*
X035848Y002920D01*
X035878Y002957D01*
X035912Y002991D01*
X035949Y003023D01*
X035987Y003052D01*
X036028Y003077D01*
X036071Y003099D01*
X036116Y003117D01*
X036162Y003131D01*
X036209Y003142D01*
X036257Y003149D01*
X036305Y003152D01*
X036353Y003151D01*
X036401Y003146D01*
X036449Y003137D01*
X036495Y003125D01*
X036540Y003108D01*
X036584Y003088D01*
X036626Y003065D01*
X036666Y003038D01*
X036704Y003008D01*
X036739Y002975D01*
X036771Y002939D01*
X036801Y002901D01*
X036827Y002860D01*
X036849Y002817D01*
X036869Y002773D01*
X036884Y002728D01*
X036896Y002681D01*
X036904Y002633D01*
X036908Y002585D01*
X036908Y002537D01*
X036904Y002489D01*
X036896Y002441D01*
X036884Y002394D01*
X036869Y002349D01*
X036849Y002305D01*
X036827Y002262D01*
X036801Y002221D01*
X036771Y002183D01*
X036739Y002147D01*
X036704Y002114D01*
X036666Y002084D01*
X036626Y002057D01*
X036584Y002034D01*
X036540Y002014D01*
X036495Y001997D01*
X036449Y001985D01*
X036401Y001976D01*
X036353Y001971D01*
X036305Y001970D01*
X036257Y001973D01*
X036209Y001980D01*
X036162Y001991D01*
X036116Y002005D01*
X036071Y002023D01*
X036028Y002045D01*
X035987Y002070D01*
X035949Y002099D01*
X035912Y002131D01*
X035878Y002165D01*
X035848Y002202D01*
X035820Y002241D01*
X035795Y002283D01*
X035775Y002327D01*
X035757Y002372D01*
X035744Y002418D01*
X035734Y002465D01*
X035728Y002513D01*
X035726Y002561D01*
X008156Y023610D02*
X007841Y023610D01*
X007841Y023846D01*
X007841Y024476D02*
X007841Y024712D01*
X008156Y024712D01*
X006656Y024712D02*
X006341Y024712D01*
X006341Y024476D01*
X006341Y023846D02*
X006341Y023610D01*
X006656Y023610D01*
X005156Y023610D02*
X004841Y023610D01*
X004841Y023846D01*
X004841Y024476D02*
X004841Y024712D01*
X005156Y024712D01*
X003756Y024712D02*
X003441Y024712D01*
X003441Y024476D01*
X003441Y023846D02*
X003441Y023610D01*
X003756Y023610D01*
X001700Y024416D02*
X001700Y024968D01*
X001543Y025243D02*
X001307Y025479D01*
X001070Y025243D01*
X001543Y025243D01*
X001582Y025479D02*
X001307Y025479D01*
X001031Y025479D01*
X000913Y025755D02*
X000913Y026306D01*
X001700Y026306D01*
X001700Y025755D01*
X000913Y024968D02*
X000913Y024416D01*
X001700Y024416D01*
X003767Y027761D02*
X004267Y027761D01*
X004517Y028011D01*
X004767Y027761D01*
X005267Y027761D01*
X005517Y028011D01*
X005767Y027761D01*
X006267Y027761D01*
X006517Y028011D01*
X006767Y027761D01*
X007267Y027761D01*
X007517Y028011D01*
X007517Y028511D01*
X007267Y028761D01*
X006767Y028761D01*
X006517Y029011D01*
X006267Y028761D01*
X005767Y028761D01*
X005517Y029011D01*
X005267Y028761D01*
X004767Y028761D01*
X004517Y029011D01*
X004267Y028761D01*
X003767Y028761D01*
X003517Y029011D01*
X003517Y029511D01*
X003767Y029761D01*
X004267Y029761D01*
X004517Y030011D01*
X004767Y029761D01*
X005267Y029761D01*
X005517Y030011D01*
X005767Y029761D01*
X006267Y029761D01*
X006517Y030011D01*
X006767Y029761D01*
X007267Y029761D01*
X007517Y030011D01*
X007517Y030511D01*
X007267Y030761D01*
X006767Y030761D01*
X006517Y030511D01*
X006267Y030761D01*
X005767Y030761D01*
X005517Y030511D01*
X005267Y030761D01*
X004767Y030761D01*
X004517Y030511D01*
X004267Y030761D01*
X003767Y030761D01*
X003517Y030511D01*
X003517Y030011D01*
X003767Y029761D01*
X004267Y029761D01*
X004517Y029511D01*
X004767Y029761D01*
X005267Y029761D01*
X005517Y029511D01*
X005767Y029761D01*
X006267Y029761D01*
X006517Y029511D01*
X006767Y029761D01*
X007267Y029761D01*
X007517Y029511D01*
X007517Y029011D01*
X007267Y028761D01*
X006767Y028761D01*
X006517Y028511D01*
X006267Y028761D01*
X005767Y028761D01*
X005517Y028511D01*
X005267Y028761D01*
X004767Y028761D01*
X004517Y028511D01*
X004267Y028761D01*
X003767Y028761D01*
X003517Y028511D01*
X003517Y028011D01*
X003767Y027761D01*
X001226Y029561D02*
X001228Y029609D01*
X001234Y029657D01*
X001244Y029704D01*
X001257Y029750D01*
X001275Y029795D01*
X001295Y029839D01*
X001320Y029881D01*
X001348Y029920D01*
X001378Y029957D01*
X001412Y029991D01*
X001449Y030023D01*
X001487Y030052D01*
X001528Y030077D01*
X001571Y030099D01*
X001616Y030117D01*
X001662Y030131D01*
X001709Y030142D01*
X001757Y030149D01*
X001805Y030152D01*
X001853Y030151D01*
X001901Y030146D01*
X001949Y030137D01*
X001995Y030125D01*
X002040Y030108D01*
X002084Y030088D01*
X002126Y030065D01*
X002166Y030038D01*
X002204Y030008D01*
X002239Y029975D01*
X002271Y029939D01*
X002301Y029901D01*
X002327Y029860D01*
X002349Y029817D01*
X002369Y029773D01*
X002384Y029728D01*
X002396Y029681D01*
X002404Y029633D01*
X002408Y029585D01*
X002408Y029537D01*
X002404Y029489D01*
X002396Y029441D01*
X002384Y029394D01*
X002369Y029349D01*
X002349Y029305D01*
X002327Y029262D01*
X002301Y029221D01*
X002271Y029183D01*
X002239Y029147D01*
X002204Y029114D01*
X002166Y029084D01*
X002126Y029057D01*
X002084Y029034D01*
X002040Y029014D01*
X001995Y028997D01*
X001949Y028985D01*
X001901Y028976D01*
X001853Y028971D01*
X001805Y028970D01*
X001757Y028973D01*
X001709Y028980D01*
X001662Y028991D01*
X001616Y029005D01*
X001571Y029023D01*
X001528Y029045D01*
X001487Y029070D01*
X001449Y029099D01*
X001412Y029131D01*
X001378Y029165D01*
X001348Y029202D01*
X001320Y029241D01*
X001295Y029283D01*
X001275Y029327D01*
X001257Y029372D01*
X001244Y029418D01*
X001234Y029465D01*
X001228Y029513D01*
X001226Y029561D01*
X017117Y028911D02*
X017367Y028661D01*
X017867Y028661D01*
X018117Y028911D01*
X018117Y030411D01*
X018367Y030661D01*
X018867Y030661D01*
X019117Y030411D01*
X019117Y028911D01*
X019367Y028661D01*
X019867Y028661D01*
X020117Y028911D01*
X020117Y030411D01*
X019867Y030661D01*
X019367Y030661D01*
X019117Y030411D01*
X018117Y030411D02*
X017867Y030661D01*
X017367Y030661D01*
X017117Y030411D01*
X017117Y028911D01*
X017367Y028529D02*
X017867Y028529D01*
X018117Y028911D02*
X018367Y028661D01*
X018867Y028661D01*
X019117Y028911D01*
X025517Y029261D02*
X025519Y029313D01*
X025525Y029365D01*
X025535Y029417D01*
X025548Y029467D01*
X025565Y029517D01*
X025586Y029565D01*
X025611Y029611D01*
X025639Y029655D01*
X025670Y029697D01*
X025704Y029737D01*
X025741Y029774D01*
X025781Y029808D01*
X025823Y029839D01*
X025867Y029867D01*
X025913Y029892D01*
X025961Y029913D01*
X026011Y029930D01*
X026061Y029943D01*
X026113Y029953D01*
X026165Y029959D01*
X026217Y029961D01*
X026269Y029959D01*
X026321Y029953D01*
X026373Y029943D01*
X026423Y029930D01*
X026473Y029913D01*
X026521Y029892D01*
X026567Y029867D01*
X026611Y029839D01*
X026653Y029808D01*
X026693Y029774D01*
X026730Y029737D01*
X026764Y029697D01*
X026795Y029655D01*
X026823Y029611D01*
X026848Y029565D01*
X026869Y029517D01*
X026886Y029467D01*
X026899Y029417D01*
X026909Y029365D01*
X026915Y029313D01*
X026917Y029261D01*
X026915Y029209D01*
X026909Y029157D01*
X026899Y029105D01*
X026886Y029055D01*
X026869Y029005D01*
X026848Y028957D01*
X026823Y028911D01*
X026795Y028867D01*
X026764Y028825D01*
X026730Y028785D01*
X026693Y028748D01*
X026653Y028714D01*
X026611Y028683D01*
X026567Y028655D01*
X026521Y028630D01*
X026473Y028609D01*
X026423Y028592D01*
X026373Y028579D01*
X026321Y028569D01*
X026269Y028563D01*
X026217Y028561D01*
X026165Y028563D01*
X026113Y028569D01*
X026061Y028579D01*
X026011Y028592D01*
X025961Y028609D01*
X025913Y028630D01*
X025867Y028655D01*
X025823Y028683D01*
X025781Y028714D01*
X025741Y028748D01*
X025704Y028785D01*
X025670Y028825D01*
X025639Y028867D01*
X025611Y028911D01*
X025586Y028957D01*
X025565Y029005D01*
X025548Y029055D01*
X025535Y029105D01*
X025525Y029157D01*
X025519Y029209D01*
X025517Y029261D01*
X033875Y027631D02*
X033875Y027316D01*
X034112Y027316D01*
X034742Y027316D02*
X034978Y027316D01*
X034978Y027631D01*
X035726Y029561D02*
X035728Y029609D01*
X035734Y029657D01*
X035744Y029704D01*
X035757Y029750D01*
X035775Y029795D01*
X035795Y029839D01*
X035820Y029881D01*
X035848Y029920D01*
X035878Y029957D01*
X035912Y029991D01*
X035949Y030023D01*
X035987Y030052D01*
X036028Y030077D01*
X036071Y030099D01*
X036116Y030117D01*
X036162Y030131D01*
X036209Y030142D01*
X036257Y030149D01*
X036305Y030152D01*
X036353Y030151D01*
X036401Y030146D01*
X036449Y030137D01*
X036495Y030125D01*
X036540Y030108D01*
X036584Y030088D01*
X036626Y030065D01*
X036666Y030038D01*
X036704Y030008D01*
X036739Y029975D01*
X036771Y029939D01*
X036801Y029901D01*
X036827Y029860D01*
X036849Y029817D01*
X036869Y029773D01*
X036884Y029728D01*
X036896Y029681D01*
X036904Y029633D01*
X036908Y029585D01*
X036908Y029537D01*
X036904Y029489D01*
X036896Y029441D01*
X036884Y029394D01*
X036869Y029349D01*
X036849Y029305D01*
X036827Y029262D01*
X036801Y029221D01*
X036771Y029183D01*
X036739Y029147D01*
X036704Y029114D01*
X036666Y029084D01*
X036626Y029057D01*
X036584Y029034D01*
X036540Y029014D01*
X036495Y028997D01*
X036449Y028985D01*
X036401Y028976D01*
X036353Y028971D01*
X036305Y028970D01*
X036257Y028973D01*
X036209Y028980D01*
X036162Y028991D01*
X036116Y029005D01*
X036071Y029023D01*
X036028Y029045D01*
X035987Y029070D01*
X035949Y029099D01*
X035912Y029131D01*
X035878Y029165D01*
X035848Y029202D01*
X035820Y029241D01*
X035795Y029283D01*
X035775Y029327D01*
X035757Y029372D01*
X035744Y029418D01*
X035734Y029465D01*
X035728Y029513D01*
X035726Y029561D01*
D15*
X028171Y019748D02*
X028208Y019711D01*
X028208Y019638D01*
X028208Y019693D02*
X028135Y019693D01*
X028135Y019711D02*
X028171Y019748D01*
X028135Y019711D02*
X028135Y019638D01*
X028098Y019656D02*
X028098Y019729D01*
X028079Y019748D01*
X028043Y019748D01*
X028024Y019729D01*
X028024Y019711D01*
X028043Y019693D01*
X028098Y019693D01*
X028098Y019656D02*
X028079Y019638D01*
X028043Y019638D01*
X028024Y019656D01*
X027987Y019656D02*
X027969Y019638D01*
X027932Y019638D01*
X027914Y019656D01*
X027987Y019729D01*
X027987Y019656D01*
X027914Y019656D02*
X027914Y019729D01*
X027932Y019748D01*
X027969Y019748D01*
X027987Y019729D01*
X027877Y019729D02*
X027803Y019656D01*
X027822Y019638D01*
X027858Y019638D01*
X027877Y019656D01*
X027877Y019729D01*
X027858Y019748D01*
X027822Y019748D01*
X027803Y019729D01*
X027803Y019656D01*
X027766Y019638D02*
X027693Y019638D01*
X027766Y019711D01*
X027766Y019729D01*
X027748Y019748D01*
X027711Y019748D01*
X027693Y019729D01*
X027656Y019729D02*
X027637Y019748D01*
X027601Y019748D01*
X027582Y019729D01*
X027582Y019656D01*
X027601Y019638D01*
X027637Y019638D01*
X027656Y019656D01*
X027545Y019638D02*
X027509Y019638D01*
X027527Y019638D02*
X027527Y019748D01*
X027509Y019748D02*
X027545Y019748D01*
X027472Y019748D02*
X027472Y019638D01*
X027398Y019638D02*
X027398Y019748D01*
X027435Y019711D01*
X027472Y019748D01*
X027957Y018472D02*
X027957Y018380D01*
X027976Y018362D01*
X028012Y018362D01*
X028031Y018380D01*
X028031Y018472D01*
X028068Y018454D02*
X028068Y018435D01*
X028086Y018417D01*
X028123Y018417D01*
X028141Y018399D01*
X028141Y018380D01*
X028123Y018362D01*
X028086Y018362D01*
X028068Y018380D01*
X028068Y018399D01*
X028086Y018417D01*
X028123Y018417D02*
X028141Y018435D01*
X028141Y018454D01*
X028123Y018472D01*
X028086Y018472D01*
X028068Y018454D01*
X028640Y013462D02*
X028640Y013337D01*
X028665Y013312D01*
X028715Y013312D01*
X028740Y013337D01*
X028740Y013462D01*
X028788Y013462D02*
X028788Y013387D01*
X028838Y013412D01*
X028863Y013412D01*
X028888Y013387D01*
X028888Y013337D01*
X028863Y013312D01*
X028813Y013312D01*
X028788Y013337D01*
X028788Y013462D02*
X028888Y013462D01*
X026117Y008300D02*
X026117Y008200D01*
X026017Y008300D01*
X025992Y008300D01*
X025967Y008275D01*
X025967Y008225D01*
X025992Y008200D01*
X025967Y008153D02*
X026092Y008153D01*
X026117Y008128D01*
X026117Y008078D01*
X026092Y008053D01*
X025967Y008053D01*
M02*
