%
M48
M72
T01C0.0197
T02C0.0315
T03C0.0360
T04C0.0400
T05C0.0512
T06C0.0591
T07C0.0900
T08C0.1102
T09C0.1180
%
T01
X3817Y1661
X5217Y2471
X5517Y3961
X5017Y6961
X5917Y7561
X5117Y9161
X4517Y9161
X2817Y10441
X1837Y11571
X1217Y12261
X1717Y12661
X3167Y12921
X3407Y12271
X4007Y11541
X4317Y10661
X6297Y12251
X6837Y11941
X8537Y11931
X9917Y11461
X11317Y11931
X11627Y12651
X12207Y12851
X12697Y12541
X12717Y10941
X14417Y10761
X14417Y9461
X12717Y9461
X10617Y9261
X12617Y7161
X13617Y6661
X12717Y6161
X13187Y5251
X12797Y4681
X12577Y4121
X12107Y4581
X13607Y3661
X14297Y3671
X14767Y2841
X15617Y2561
X15797Y4161
X17017Y4981
X17017Y5461
X16397Y5461
X15517Y6061
X14637Y5561
X17117Y4161
X17617Y4681
X17817Y3861
X19137Y3561
X19617Y2961
X20187Y2291
X20667Y3931
X20417Y4761
X19417Y4761
X22217Y4661
X22317Y5461
X22217Y2961
X25357Y2951
X28367Y5261
X29527Y8171
X29817Y8761
X27917Y10161
X26837Y9401
X27517Y8701
X25817Y8861
X25817Y9461
X24917Y8161
X21717Y10161
X21017Y10261
X21117Y8361
X20517Y8161
X15817Y8161
X11117Y6161
X14517Y12361
X14617Y13661
X15117Y14161
X16137Y13811
X16747Y14311
X14617Y15431
X14567Y16581
X14617Y17961
X14417Y18561
X14517Y19561
X14417Y20861
X12817Y19761
X12827Y19131
X11917Y18461
X12827Y17381
X12937Y16781
X11937Y16301
X11137Y16781
X10177Y17241
X10177Y17841
X10417Y18531
X10817Y19961
X11927Y20291
X12817Y22361
X13817Y22661
X14417Y22261
X14717Y22861
X16347Y22911
X16867Y22761
X16947Y23581
X16917Y24561
X16017Y25161
X15317Y26261
X16717Y27661
X17217Y27661
X15287Y29901
X12617Y27361
X12917Y26161
X12617Y25361
X12467Y24851
X11117Y24191
X10267Y23751
X9817Y22901
X9217Y22661
X8957Y23281
X8317Y23261
X7517Y23461
X5867Y22321
X5817Y21401
X4997Y21211
X4827Y20501
X5137Y19821
X5927Y19561
X6617Y19251
X6677Y20021
X7977Y20861
X8297Y20041
X8917Y19251
X8797Y18331
X8107Y18301
X8097Y16641
X8227Y16041
X8857Y15941
X9367Y16211
X8217Y14761
X7727Y14901
X7407Y15411
X7017Y14761
X6317Y14561
X6087Y13931
X4687Y13561
X4667Y12971
X4677Y12441
X3227Y13741
X3217Y14361
X2117Y14361
X2017Y15961
X3667Y17551
X4287Y17701
X4977Y16821
X5447Y16441
X6327Y16341
X7197Y16791
X4627Y15671
X4607Y15151
X2557Y18011
X2015Y18550
X2197Y20341
X2177Y20951
X2487Y21621
X2207Y22221
X3167Y22681
X2217Y23301
X2607Y23851
X2617Y24461
X3017Y25261
X2787Y26091
X3977Y21411
X5097Y18801
X10117Y22361
X11437Y23361
X10117Y24461
X9417Y24961
X8517Y25461
X8417Y26261
X8417Y27261
X10417Y25661
X9187Y23911
X13717Y24761
X20617Y22211
X21247Y20661
X21617Y20161
X20917Y19161
X19317Y18561
X19117Y17861
X20617Y16961
X19217Y16461
X19967Y14961
X19997Y13971
X21247Y13461
X20917Y12961
X20477Y12181
X21617Y14461
X23617Y15221
X24327Y14611
X24917Y14861
X26417Y14861
X27317Y15861
X28407Y15471
X29717Y14861
X30917Y14761
X32277Y14761
X33197Y14411
X33857Y13011
X35647Y11971
X36377Y10971
X35837Y9671
X35777Y8521
X34617Y7061
X34007Y8351
X32597Y7821
X31827Y10561
X33147Y11421
X31527Y12861
X30117Y12711
X29317Y13461
X29117Y12161
X27517Y12661
X27717Y13761
X26017Y12461
X28917Y17161
X28617Y17761
X27717Y17961
X26817Y19161
X26417Y20161
X26017Y20661
X25317Y21551
X24817Y23961
X25017Y25261
X25017Y26561
X26337Y27681
X29117Y29211
X33577Y27141
X33557Y25711
X33457Y24151
X33457Y22901
X33497Y21581
X33607Y20331
X34067Y19841
X33717Y18861
X32317Y19161
X31317Y19761
X29817Y21461
X31187Y21671
X31417Y22761
X29687Y23661
X28967Y24851
X27217Y25261
X22917Y25961
X21417Y25561
X22917Y24261
X29017Y19761
X30017Y17761
X30617Y17161
X32117Y17861
X23417Y18161
X15817Y18261
X12217Y14961
X11887Y14441
X11417Y15361
X9277Y13581
X2017Y8761
X1217Y6861
X35627Y27041
T02
X36817Y7949
X36817Y7161
X36817Y6374
T03
X25809Y5841
X24825Y5841
X24825Y5061
X25809Y5061
T04
X17817Y8461
X17817Y9461
X17817Y10461
X17817Y11461
X17817Y12461
X17817Y13461
X17817Y14461
X17817Y15461
X17817Y16461
X17817Y17461
X17817Y19061
X17817Y20061
X17817Y21061
X17817Y22061
X17817Y23061
X17817Y24061
X17817Y25061
X17817Y26061
X17617Y29161
X18617Y29161
X19617Y29161
X19617Y30161
X18617Y30161
X17617Y30161
X21587Y30171
X22587Y30171
X23587Y30171
X24937Y30151
X23587Y29171
X22587Y29171
X21587Y29171
X24937Y28371
X25817Y27061
X26817Y27061
X27817Y27061
X27817Y26061
X26817Y26061
X25817Y26061
X27497Y28371
X27497Y30151
X29837Y30151
X29837Y28371
X32397Y28371
X32397Y30151
X36817Y26061
X36817Y25061
X36817Y24061
X36817Y23061
X36817Y22061
X36817Y21061
X36817Y19061
X36817Y18061
X36817Y17061
X36817Y16061
X36817Y15061
X36817Y14061
X13021Y2975
X12021Y2975
X11021Y2975
X10021Y2975
X9021Y2975
X8021Y2975
X7021Y2975
X6021Y2975
X6021Y1975
X7021Y1975
X8021Y1975
X9021Y1975
X10021Y1975
X11021Y1975
X12021Y1975
X13021Y1975
X1317Y13361
X1317Y14361
X1317Y15361
X4017Y28261
X5017Y28261
X6017Y28261
X7017Y28261
X7017Y29261
X7017Y30261
X6017Y30261
X5017Y30261
X5017Y29261
X6017Y29261
X4017Y29261
X4017Y30261
T05
X8817Y28361
X10785Y28361
X13217Y28361
X15185Y28361
T06
X36801Y8775
X36801Y5547
T07
X27687Y3991
X22947Y3991
T08
X1817Y2561
X1817Y29561
X36317Y29561
X36317Y2561
T09
X33167Y4774
X31317Y5955
X31317Y3593
M30
