G75*
%MOIN*%
%OFA0B0*%
%FSLAX24Y24*%
%IPPOS*%
%LPD*%
%AMOC8*
5,1,8,0,0,1.08239X$1,22.5*
%
%ADD10C,0.0040*%
%ADD11C,0.0060*%
%ADD12C,0.0050*%
%ADD13C,0.0030*%
%ADD14C,0.0080*%
%ADD15R,0.0200X0.0200*%
%ADD16R,0.0230X0.0180*%
%ADD17C,0.0090*%
%ADD18C,0.0180*%
%ADD19R,0.0290X0.0690*%
%ADD20R,0.0140X0.0400*%
%ADD21R,0.0276X0.0236*%
%ADD22R,0.0400X0.0140*%
%ADD23R,0.0690X0.0290*%
%ADD24R,0.0180X0.0430*%
%ADD25R,0.0430X0.0180*%
%ADD26R,0.0180X0.0230*%
%ADD27R,0.0368X0.0128*%
%ADD28R,0.0669X0.0295*%
%ADD29R,0.0374X0.1299*%
D10*
X001806Y004561D02*
X002327Y004561D01*
X002327Y004908D01*
X002327Y005077D02*
X002327Y005424D01*
X002327Y005593D02*
X002327Y005853D01*
X002240Y005940D01*
X001893Y005940D01*
X001806Y005853D01*
X001806Y005593D01*
X002327Y005593D01*
X002066Y005250D02*
X002066Y005077D01*
X001806Y005077D02*
X002327Y005077D01*
X001806Y005077D02*
X001806Y005424D01*
X001893Y006108D02*
X001806Y006195D01*
X001806Y006368D01*
X001893Y006455D01*
X002240Y006108D01*
X002327Y006195D01*
X002327Y006368D01*
X002240Y006455D01*
X001893Y006455D01*
X001893Y006108D02*
X002240Y006108D01*
X002357Y009431D02*
X001836Y009431D01*
X001836Y009947D02*
X002357Y009947D01*
X002357Y010294D01*
X002357Y010463D02*
X002357Y010723D01*
X002270Y010810D01*
X001923Y010810D01*
X001836Y010723D01*
X001836Y010463D01*
X002357Y010463D01*
X002096Y010120D02*
X002096Y009947D01*
X001836Y009947D02*
X001836Y010294D01*
X002010Y010978D02*
X001836Y011152D01*
X002357Y011152D01*
X002357Y011325D02*
X002357Y010978D01*
X002357Y009778D02*
X002357Y009431D01*
X002547Y014061D02*
X002547Y014235D01*
X002547Y014148D02*
X002026Y014148D01*
X002026Y014061D02*
X002026Y014235D01*
X002026Y014405D02*
X002026Y014665D01*
X002113Y014752D01*
X002286Y014752D01*
X002373Y014665D01*
X002373Y014405D01*
X002373Y014579D02*
X002547Y014752D01*
X002547Y014405D02*
X002026Y014405D01*
X008357Y020571D02*
X008357Y021331D01*
X008977Y021331D02*
X008977Y020571D01*
X011507Y024981D02*
X011507Y025741D01*
X012127Y025741D02*
X012127Y024981D01*
X012757Y026461D02*
X012757Y026922D01*
X012910Y026768D01*
X013064Y026922D01*
X013064Y026461D01*
X013217Y026538D02*
X013294Y026461D01*
X013447Y026461D01*
X013524Y026538D01*
X013524Y026691D01*
X013447Y026768D01*
X013294Y026768D01*
X013217Y026691D01*
X013217Y026538D01*
X013677Y026768D02*
X013831Y026768D01*
X013754Y026845D02*
X013754Y026538D01*
X013831Y026461D01*
X013984Y026538D02*
X014061Y026461D01*
X014215Y026461D01*
X014291Y026538D01*
X014291Y026691D01*
X014215Y026768D01*
X014061Y026768D01*
X013984Y026691D01*
X013984Y026538D01*
X014445Y026615D02*
X014598Y026768D01*
X014675Y026768D01*
X014445Y026768D02*
X014445Y026461D01*
X015289Y026461D02*
X015596Y026461D01*
X015442Y026461D02*
X015442Y026922D01*
X015289Y026768D01*
X017387Y027891D02*
X017387Y028412D01*
X017647Y028412D01*
X017734Y028325D01*
X017734Y027978D01*
X017647Y027891D01*
X017387Y027891D01*
X017902Y027891D02*
X018076Y027891D01*
X017989Y027891D02*
X017989Y028238D01*
X017902Y028238D01*
X017989Y028412D02*
X017989Y028498D01*
X018333Y028238D02*
X018246Y028151D01*
X018246Y027978D01*
X018333Y027891D01*
X018593Y027891D01*
X018593Y027805D02*
X018593Y028238D01*
X018333Y028238D01*
X018762Y028238D02*
X018848Y028238D01*
X018848Y027891D01*
X018762Y027891D02*
X018935Y027891D01*
X019192Y027978D02*
X019279Y027891D01*
X019192Y027978D02*
X019192Y028325D01*
X019105Y028238D02*
X019279Y028238D01*
X019536Y028238D02*
X019709Y028238D01*
X019796Y028151D01*
X019796Y027891D01*
X019536Y027891D01*
X019449Y027978D01*
X019536Y028065D01*
X019796Y028065D01*
X019965Y027891D02*
X020138Y027891D01*
X020052Y027891D02*
X020052Y028412D01*
X019965Y028412D01*
X020493Y029031D02*
X020416Y029108D01*
X020416Y029261D01*
X020493Y029338D01*
X020800Y029031D01*
X020877Y029108D01*
X020877Y029261D01*
X020800Y029338D01*
X020493Y029338D01*
X020493Y029031D02*
X020800Y029031D01*
X021290Y028392D02*
X021464Y028218D01*
X021464Y027871D01*
X021632Y027871D02*
X021632Y028218D01*
X021893Y028218D01*
X021979Y028131D01*
X021979Y027871D01*
X022148Y027958D02*
X022235Y028045D01*
X022495Y028045D01*
X022495Y028131D02*
X022495Y027871D01*
X022235Y027871D01*
X022148Y027958D01*
X022235Y028218D02*
X022408Y028218D01*
X022495Y028131D01*
X022664Y027871D02*
X022837Y027871D01*
X022750Y027871D02*
X022750Y028392D01*
X022664Y028392D01*
X023007Y028131D02*
X023007Y027958D01*
X023094Y027871D01*
X023268Y027871D01*
X023354Y027958D01*
X023354Y028131D01*
X023268Y028218D01*
X023094Y028218D01*
X023007Y028131D01*
X023523Y028131D02*
X023523Y027958D01*
X023610Y027871D01*
X023870Y027871D01*
X023870Y027785D02*
X023870Y028218D01*
X023610Y028218D01*
X023523Y028131D01*
X023696Y027698D02*
X023783Y027698D01*
X023870Y027785D01*
X021464Y028131D02*
X021117Y028131D01*
X021117Y028218D02*
X021290Y028392D01*
X021117Y028218D02*
X021117Y027871D01*
X018848Y028412D02*
X018848Y028498D01*
X018593Y027805D02*
X018506Y027718D01*
X018420Y027718D01*
X016957Y029108D02*
X016880Y029031D01*
X016573Y029338D01*
X016880Y029338D01*
X016957Y029261D01*
X016957Y029108D01*
X016880Y029031D02*
X016573Y029031D01*
X016496Y029108D01*
X016496Y029261D01*
X016573Y029338D01*
X016650Y030021D02*
X016496Y030175D01*
X016957Y030175D01*
X016957Y030328D02*
X016957Y030021D01*
X014892Y029592D02*
X014585Y029592D01*
X014585Y030053D01*
X012923Y029976D02*
X012923Y029823D01*
X012846Y029746D01*
X012616Y029746D01*
X012616Y029592D02*
X012616Y030053D01*
X012846Y030053D01*
X012923Y029976D01*
X012770Y029746D02*
X012923Y029592D01*
X010952Y029592D02*
X010645Y029592D01*
X010645Y030053D01*
X008983Y029976D02*
X008983Y029823D01*
X008906Y029746D01*
X008676Y029746D01*
X008676Y029592D02*
X008676Y030053D01*
X008906Y030053D01*
X008983Y029976D01*
X008830Y029746D02*
X008983Y029592D01*
X007210Y027498D02*
X007287Y027421D01*
X007287Y027268D01*
X007210Y027191D01*
X007056Y027344D02*
X007056Y027421D01*
X007133Y027498D01*
X007210Y027498D01*
X007056Y027421D02*
X006980Y027498D01*
X006903Y027498D01*
X006826Y027421D01*
X006826Y027268D01*
X006903Y027191D01*
X006257Y027181D02*
X005950Y027488D01*
X005873Y027488D01*
X005796Y027411D01*
X005796Y027258D01*
X005873Y027181D01*
X006257Y027181D02*
X006257Y027488D01*
X005227Y027528D02*
X005227Y027221D01*
X005227Y027374D02*
X004766Y027374D01*
X004920Y027221D01*
X004227Y027248D02*
X004227Y027401D01*
X004150Y027478D01*
X003843Y027478D01*
X004150Y027171D01*
X004227Y027248D01*
X004150Y027171D02*
X003843Y027171D01*
X003766Y027248D01*
X003766Y027401D01*
X003843Y027478D01*
X003397Y027462D02*
X002936Y027462D01*
X002936Y027692D01*
X003013Y027769D01*
X003166Y027769D01*
X003243Y027692D01*
X003243Y027462D01*
X003243Y027616D02*
X003397Y027769D01*
X003243Y027922D02*
X003397Y028076D01*
X003243Y028229D01*
X002936Y028229D01*
X003013Y028383D02*
X003320Y028383D01*
X003397Y028460D01*
X003397Y028613D01*
X003320Y028690D01*
X003013Y028690D01*
X002936Y028613D01*
X002936Y028460D01*
X003013Y028383D01*
X002936Y027922D02*
X003243Y027922D01*
X003397Y027309D02*
X003397Y027002D01*
X002936Y027002D01*
X002936Y027309D01*
X003166Y027155D02*
X003166Y027002D01*
X003243Y026848D02*
X003320Y026848D01*
X003397Y026771D01*
X003397Y026618D01*
X003320Y026541D01*
X003166Y026618D02*
X003166Y026771D01*
X003243Y026848D01*
X003013Y026848D02*
X002936Y026771D01*
X002936Y026618D01*
X003013Y026541D01*
X003090Y026541D01*
X003166Y026618D01*
X002437Y026551D02*
X002263Y026377D01*
X002263Y026464D02*
X002263Y026204D01*
X002437Y026204D02*
X001916Y026204D01*
X001916Y026464D01*
X002003Y026551D01*
X002176Y026551D01*
X002263Y026464D01*
X002437Y026035D02*
X002437Y025688D01*
X001916Y025688D01*
X001916Y026035D01*
X002176Y025862D02*
X002176Y025688D01*
X001916Y025520D02*
X002437Y025520D01*
X002263Y025346D01*
X002437Y025173D01*
X001916Y025173D01*
X002003Y025004D02*
X001916Y024917D01*
X001916Y024744D01*
X002003Y024657D01*
X002350Y024657D01*
X002437Y024744D01*
X002437Y024917D01*
X002350Y025004D01*
X002003Y025004D01*
X002003Y024488D02*
X002176Y024488D01*
X002263Y024401D01*
X002263Y024141D01*
X002437Y024141D02*
X001916Y024141D01*
X001916Y024401D01*
X002003Y024488D01*
X008617Y026461D02*
X008617Y026922D01*
X008770Y026768D01*
X008924Y026922D01*
X008924Y026461D01*
X009077Y026538D02*
X009154Y026461D01*
X009307Y026461D01*
X009384Y026538D01*
X009384Y026691D01*
X009307Y026768D01*
X009154Y026768D01*
X009077Y026691D01*
X009077Y026538D01*
X009537Y026768D02*
X009691Y026768D01*
X009614Y026845D02*
X009614Y026538D01*
X009691Y026461D01*
X009844Y026538D02*
X009921Y026461D01*
X010075Y026461D01*
X010151Y026538D01*
X010151Y026691D01*
X010075Y026768D01*
X009921Y026768D01*
X009844Y026691D01*
X009844Y026538D01*
X010305Y026615D02*
X010458Y026768D01*
X010535Y026768D01*
X010305Y026768D02*
X010305Y026461D01*
X011149Y026538D02*
X011456Y026845D01*
X011456Y026538D01*
X011379Y026461D01*
X011226Y026461D01*
X011149Y026538D01*
X011149Y026845D01*
X011226Y026922D01*
X011379Y026922D01*
X011456Y026845D01*
X018526Y026141D02*
X018526Y025988D01*
X018603Y025911D01*
X018910Y025911D01*
X018603Y026218D01*
X018910Y026218D01*
X018987Y026141D01*
X018987Y025988D01*
X018910Y025911D01*
X018603Y026218D02*
X018526Y026141D01*
X018997Y025238D02*
X018997Y024931D01*
X018997Y025085D02*
X018536Y025085D01*
X018690Y024931D01*
X018690Y024208D02*
X018613Y024208D01*
X018536Y024131D01*
X018536Y023978D01*
X018613Y023901D01*
X018690Y024208D02*
X018997Y023901D01*
X018997Y024208D01*
X018930Y023218D02*
X019007Y023141D01*
X019007Y022988D01*
X018930Y022911D01*
X018776Y023065D02*
X018776Y023141D01*
X018853Y023218D01*
X018930Y023218D01*
X018776Y023141D02*
X018700Y023218D01*
X018623Y023218D01*
X018546Y023141D01*
X018546Y022988D01*
X018623Y022911D01*
X018786Y022228D02*
X018786Y021921D01*
X018556Y022151D01*
X019017Y022151D01*
X019426Y022016D02*
X019947Y022016D01*
X019947Y021929D02*
X019947Y022103D01*
X019947Y021761D02*
X019686Y021761D01*
X019600Y021674D01*
X019600Y021501D01*
X019773Y021501D02*
X019773Y021761D01*
X019947Y021761D02*
X019947Y021501D01*
X019860Y021414D01*
X019773Y021501D01*
X019600Y021244D02*
X019600Y021070D01*
X019513Y021157D02*
X019860Y021157D01*
X019947Y021244D01*
X019947Y020900D02*
X019947Y020726D01*
X019947Y020813D02*
X019600Y020813D01*
X019600Y020726D01*
X019600Y020558D02*
X019600Y020297D01*
X019686Y020211D01*
X019860Y020211D01*
X019947Y020297D01*
X019947Y020558D01*
X020033Y020558D02*
X019600Y020558D01*
X019426Y020813D02*
X019339Y020813D01*
X019017Y020988D02*
X018940Y020911D01*
X019017Y020988D02*
X019017Y021141D01*
X018940Y021218D01*
X018786Y021218D01*
X018710Y021141D01*
X018710Y021065D01*
X018786Y020911D01*
X018556Y020911D01*
X018556Y021218D01*
X018536Y020188D02*
X018613Y020035D01*
X018766Y019881D01*
X018766Y020111D01*
X018843Y020188D01*
X018920Y020188D01*
X018997Y020111D01*
X018997Y019958D01*
X018920Y019881D01*
X018766Y019881D01*
X019339Y019954D02*
X019426Y019954D01*
X019600Y019954D02*
X019947Y019954D01*
X019947Y020040D02*
X019947Y019867D01*
X019860Y019698D02*
X019513Y019698D01*
X019426Y019611D01*
X019426Y019351D01*
X019947Y019351D01*
X019947Y019611D01*
X019860Y019698D01*
X019600Y019867D02*
X019600Y019954D01*
X020120Y020384D02*
X020120Y020471D01*
X020033Y020558D01*
X018623Y019228D02*
X018930Y018921D01*
X019007Y018921D01*
X018546Y018921D02*
X018546Y019228D01*
X018623Y019228D01*
X018640Y017628D02*
X018716Y017551D01*
X018716Y017398D01*
X018640Y017321D01*
X018563Y017321D01*
X018486Y017398D01*
X018486Y017551D01*
X018563Y017628D01*
X018640Y017628D01*
X018716Y017551D02*
X018793Y017628D01*
X018870Y017628D01*
X018947Y017551D01*
X018947Y017398D01*
X018870Y017321D01*
X018793Y017321D01*
X018716Y017398D01*
X018726Y016618D02*
X018726Y016388D01*
X018650Y016311D01*
X018573Y016311D01*
X018496Y016388D01*
X018496Y016541D01*
X018573Y016618D01*
X018880Y016618D01*
X018957Y016541D01*
X018957Y016388D01*
X018880Y016311D01*
X019053Y015742D02*
X019206Y015742D01*
X019283Y015665D01*
X018976Y015358D01*
X019053Y015281D01*
X019206Y015281D01*
X019283Y015358D01*
X019283Y015665D01*
X019053Y015742D02*
X018976Y015665D01*
X018976Y015358D01*
X018823Y015281D02*
X018516Y015281D01*
X018669Y015281D02*
X018669Y015742D01*
X018516Y015588D01*
X018669Y014742D02*
X018669Y014281D01*
X018516Y014281D02*
X018823Y014281D01*
X018976Y014281D02*
X019283Y014281D01*
X019130Y014281D02*
X019130Y014742D01*
X018976Y014588D01*
X018669Y014742D02*
X018516Y014588D01*
X018669Y013742D02*
X018669Y013281D01*
X018516Y013281D02*
X018823Y013281D01*
X018976Y013281D02*
X019283Y013588D01*
X019283Y013665D01*
X019206Y013742D01*
X019053Y013742D01*
X018976Y013665D01*
X018669Y013742D02*
X018516Y013588D01*
X018976Y013281D02*
X019283Y013281D01*
X019206Y012742D02*
X019053Y012742D01*
X018976Y012665D01*
X019130Y012511D02*
X019206Y012511D01*
X019283Y012435D01*
X019283Y012358D01*
X019206Y012281D01*
X019053Y012281D01*
X018976Y012358D01*
X018823Y012281D02*
X018516Y012281D01*
X018669Y012281D02*
X018669Y012742D01*
X018516Y012588D01*
X019206Y012511D02*
X019283Y012588D01*
X019283Y012665D01*
X019206Y012742D01*
X019323Y011642D02*
X019323Y011181D01*
X019016Y011642D01*
X019016Y011181D01*
X018862Y011258D02*
X018862Y011411D01*
X018709Y011411D01*
X018862Y011258D02*
X018786Y011181D01*
X018632Y011181D01*
X018555Y011258D01*
X018555Y011565D01*
X018632Y011642D01*
X018786Y011642D01*
X018862Y011565D01*
X019476Y011642D02*
X019476Y011181D01*
X019706Y011181D01*
X019783Y011258D01*
X019783Y011565D01*
X019706Y011642D01*
X019476Y011642D01*
X019457Y010642D02*
X019457Y010181D01*
X019764Y010181D01*
X019918Y010181D02*
X019918Y010642D01*
X020225Y010642D01*
X020071Y010411D02*
X019918Y010411D01*
X019764Y010642D02*
X019457Y010642D01*
X019304Y010565D02*
X019304Y010411D01*
X019227Y010335D01*
X018997Y010335D01*
X019151Y010335D02*
X019304Y010181D01*
X019457Y010411D02*
X019611Y010411D01*
X019304Y010565D02*
X019227Y010642D01*
X018997Y010642D01*
X018997Y010181D01*
X018844Y010181D02*
X018844Y010488D01*
X018690Y010642D01*
X018537Y010488D01*
X018537Y010181D01*
X018537Y010411D02*
X018844Y010411D01*
X018767Y009742D02*
X018613Y009742D01*
X018537Y009665D01*
X018537Y009588D01*
X018613Y009511D01*
X018767Y009511D01*
X018844Y009435D01*
X018844Y009358D01*
X018767Y009281D01*
X018613Y009281D01*
X018537Y009358D01*
X018844Y009665D02*
X018767Y009742D01*
X018997Y009665D02*
X018997Y009358D01*
X019074Y009281D01*
X019227Y009281D01*
X019304Y009358D01*
X019457Y009281D02*
X019457Y009742D01*
X019304Y009665D02*
X019227Y009742D01*
X019074Y009742D01*
X018997Y009665D01*
X019457Y009281D02*
X019764Y009281D01*
X019611Y008742D02*
X019764Y008588D01*
X019764Y008281D01*
X019764Y008511D02*
X019457Y008511D01*
X019457Y008588D02*
X019457Y008281D01*
X019304Y008358D02*
X019304Y008665D01*
X019227Y008742D01*
X018997Y008742D01*
X018997Y008281D01*
X019227Y008281D01*
X019304Y008358D01*
X019457Y008588D02*
X019611Y008742D01*
X018844Y008665D02*
X018767Y008742D01*
X018613Y008742D01*
X018537Y008665D01*
X018537Y008588D01*
X018613Y008511D01*
X018767Y008511D01*
X018844Y008435D01*
X018844Y008358D01*
X018767Y008281D01*
X018613Y008281D01*
X018537Y008358D01*
X021887Y006691D02*
X021887Y005931D01*
X022507Y005931D02*
X022507Y006691D01*
X024637Y010571D02*
X024637Y011331D01*
X025257Y011331D02*
X025257Y010571D01*
X027547Y008181D02*
X028697Y008181D01*
X028707Y006921D02*
X027547Y006921D01*
X033386Y003560D02*
X033693Y003560D01*
X033847Y003406D01*
X033693Y003253D01*
X033386Y003253D01*
X033386Y002946D02*
X033847Y002946D01*
X033847Y003099D02*
X033847Y002792D01*
X033847Y002639D02*
X033847Y002332D01*
X033847Y002486D02*
X033386Y002486D01*
X033540Y002332D01*
X033616Y002179D02*
X033616Y001872D01*
X033540Y001718D02*
X033616Y001641D01*
X033693Y001718D01*
X033770Y001718D01*
X033847Y001641D01*
X033847Y001488D01*
X033770Y001411D01*
X033616Y001565D02*
X033616Y001641D01*
X033540Y001718D02*
X033463Y001718D01*
X033386Y001641D01*
X033386Y001488D01*
X033463Y001411D01*
X033540Y002792D02*
X033386Y002946D01*
X037256Y003897D02*
X037333Y003820D01*
X037640Y003820D01*
X037717Y003897D01*
X037717Y004050D01*
X037640Y004127D01*
X037333Y004127D01*
X037256Y004050D01*
X037256Y003897D01*
X037256Y004280D02*
X037256Y004587D01*
X037256Y004741D02*
X037256Y005048D01*
X037486Y004894D02*
X037486Y004741D01*
X037256Y004741D02*
X037717Y004741D01*
X037486Y004434D02*
X037486Y004280D01*
X037256Y004280D02*
X037717Y004280D01*
X037540Y009291D02*
X037233Y009291D01*
X037156Y009368D01*
X037156Y009521D01*
X037233Y009598D01*
X037540Y009598D01*
X037617Y009521D01*
X037617Y009368D01*
X037540Y009291D01*
X037617Y009752D02*
X037156Y009752D01*
X037617Y010059D01*
X037156Y010059D01*
X035960Y014791D02*
X036113Y014945D01*
X036113Y015252D01*
X035806Y015252D02*
X035806Y014945D01*
X035960Y014791D01*
X035653Y014868D02*
X035653Y014945D01*
X035576Y015021D01*
X035499Y015021D01*
X035576Y015021D02*
X035653Y015098D01*
X035653Y015175D01*
X035576Y015252D01*
X035423Y015252D01*
X035346Y015175D01*
X035346Y014868D02*
X035423Y014791D01*
X035576Y014791D01*
X035653Y014868D01*
X035192Y014868D02*
X035192Y014791D01*
X035116Y014791D01*
X035116Y014868D01*
X035192Y014868D01*
X034962Y014868D02*
X034962Y014945D01*
X034885Y015021D01*
X034809Y015021D01*
X034885Y015021D02*
X034962Y015098D01*
X034962Y015175D01*
X034885Y015252D01*
X034732Y015252D01*
X034655Y015175D01*
X034655Y014868D02*
X034732Y014791D01*
X034885Y014791D01*
X034962Y014868D01*
X035523Y015931D02*
X035447Y016008D01*
X035523Y015931D02*
X035677Y015931D01*
X035754Y016008D01*
X035754Y016161D01*
X035677Y016238D01*
X035600Y016238D01*
X035447Y016161D01*
X035447Y016392D01*
X035754Y016392D01*
X035907Y016392D02*
X035907Y016085D01*
X036061Y015931D01*
X036214Y016085D01*
X036214Y016392D01*
X036128Y016881D02*
X036204Y016958D01*
X036204Y017265D01*
X036128Y017342D01*
X035897Y017342D01*
X035897Y016881D01*
X036128Y016881D01*
X035744Y016881D02*
X035744Y017342D01*
X035437Y017342D02*
X035437Y016881D01*
X035284Y016958D02*
X035284Y017111D01*
X035130Y017111D01*
X034977Y016958D02*
X034977Y017265D01*
X035053Y017342D01*
X035207Y017342D01*
X035284Y017265D01*
X035437Y017342D02*
X035744Y016881D01*
X035284Y016958D02*
X035207Y016881D01*
X035053Y016881D01*
X034977Y016958D01*
X035023Y017831D02*
X035177Y017831D01*
X035254Y017908D01*
X035254Y018061D01*
X035100Y018061D01*
X034947Y017908D02*
X034947Y018215D01*
X035023Y018292D01*
X035177Y018292D01*
X035254Y018215D01*
X035407Y018292D02*
X035714Y017831D01*
X035714Y018292D01*
X035867Y018292D02*
X035867Y017831D01*
X036098Y017831D01*
X036174Y017908D01*
X036174Y018215D01*
X036098Y018292D01*
X035867Y018292D01*
X035407Y018292D02*
X035407Y017831D01*
X035023Y017831D02*
X034947Y017908D01*
X035132Y018901D02*
X035286Y019055D01*
X035286Y019362D01*
X035439Y019208D02*
X035516Y019208D01*
X035516Y018901D01*
X035439Y018901D02*
X035593Y018901D01*
X035746Y018901D02*
X035746Y019208D01*
X035976Y019208D01*
X036053Y019131D01*
X036053Y018901D01*
X035516Y019362D02*
X035516Y019438D01*
X034979Y019362D02*
X034979Y019055D01*
X035132Y018901D01*
X035793Y020901D02*
X035716Y020978D01*
X035716Y021131D01*
X035793Y021208D01*
X036100Y020901D01*
X036177Y020978D01*
X036177Y021131D01*
X036100Y021208D01*
X035793Y021208D01*
X035793Y020901D02*
X036100Y020901D01*
X036167Y021901D02*
X036167Y022208D01*
X036167Y022055D02*
X035706Y022055D01*
X035860Y021901D01*
X035227Y022199D02*
X034880Y022199D01*
X034706Y022373D01*
X034880Y022546D01*
X035227Y022546D01*
X035227Y022715D02*
X034880Y022715D01*
X034880Y022975D01*
X034966Y023062D01*
X035227Y023062D01*
X035140Y023231D02*
X035053Y023317D01*
X035053Y023578D01*
X034966Y023578D02*
X035227Y023578D01*
X035227Y023317D01*
X035140Y023231D01*
X034880Y023317D02*
X034880Y023491D01*
X034966Y023578D01*
X034706Y023746D02*
X034706Y023833D01*
X035227Y023833D01*
X035227Y023746D02*
X035227Y023920D01*
X035140Y024090D02*
X035227Y024177D01*
X035227Y024350D01*
X035140Y024437D01*
X034966Y024437D01*
X034880Y024350D01*
X034880Y024177D01*
X034966Y024090D01*
X035140Y024090D01*
X035736Y024048D02*
X035736Y024201D01*
X035813Y024278D01*
X035890Y024278D01*
X035966Y024201D01*
X036043Y024278D01*
X036120Y024278D01*
X036197Y024201D01*
X036197Y024048D01*
X036120Y023971D01*
X035966Y024125D02*
X035966Y024201D01*
X035813Y023971D02*
X035736Y024048D01*
X035813Y023258D02*
X035736Y023181D01*
X035736Y023028D01*
X035813Y022951D01*
X035813Y023258D02*
X035890Y023258D01*
X036197Y022951D01*
X036197Y023258D01*
X034966Y022546D02*
X034966Y022199D01*
X034966Y024606D02*
X035140Y024606D01*
X035227Y024692D01*
X035227Y024953D01*
X035313Y024953D02*
X034880Y024953D01*
X034880Y024692D01*
X034966Y024606D01*
X035400Y024779D02*
X035400Y024866D01*
X035313Y024953D01*
X035706Y025141D02*
X035936Y024911D01*
X035936Y025218D01*
X035706Y025141D02*
X036167Y025141D01*
X036110Y025951D02*
X036187Y026028D01*
X036187Y026181D01*
X036110Y026258D01*
X035956Y026258D01*
X035880Y026181D01*
X035880Y026105D01*
X035956Y025951D01*
X035726Y025951D01*
X035726Y026258D01*
X030176Y022681D02*
X030176Y020791D01*
X029507Y020122D01*
X029271Y020122D01*
X029507Y020122D02*
X028286Y020122D01*
X027617Y020791D01*
X027617Y022681D01*
X028523Y022681D01*
X028532Y022544D02*
X029243Y022544D01*
X029251Y022543D02*
X028897Y022602D01*
X028523Y022543D01*
X028247Y022405D01*
X028050Y022248D01*
X029723Y022248D01*
X029743Y022248D01*
X029527Y022425D01*
X029251Y022543D01*
X029338Y022506D02*
X028448Y022506D01*
X028371Y022467D02*
X029427Y022467D01*
X029517Y022429D02*
X028294Y022429D01*
X028229Y022390D02*
X029569Y022390D01*
X029616Y022352D02*
X028180Y022352D01*
X028132Y022313D02*
X029663Y022313D01*
X029710Y022275D02*
X028084Y022275D01*
X028031Y022228D02*
X029782Y022228D01*
X030176Y022681D02*
X029271Y022681D01*
X029012Y022583D02*
X028775Y022583D01*
X027617Y022681D02*
X030176Y022681D01*
X030176Y020791D01*
X029507Y020122D01*
X028523Y020122D02*
X028286Y020122D01*
X027617Y020791D01*
X027617Y022681D01*
X026627Y022451D02*
X026627Y023211D01*
X026007Y023211D02*
X026007Y022451D01*
X025767Y022461D02*
X025767Y023221D01*
X025147Y023221D02*
X025147Y022461D01*
X029271Y022562D02*
X029335Y022540D01*
X029398Y022513D01*
X029460Y022483D01*
X029519Y022450D01*
X029577Y022414D01*
X029633Y022374D01*
X029686Y022331D01*
X029737Y022286D01*
X029785Y022238D01*
X029830Y022187D01*
X029873Y022133D01*
X029912Y022077D01*
X029949Y022020D01*
X029982Y021960D01*
X030011Y021898D01*
X030037Y021835D01*
X030060Y021771D01*
X030079Y021705D01*
X030094Y021638D01*
X030105Y021571D01*
X030113Y021503D01*
X030117Y021435D01*
X030117Y021367D01*
X030113Y021299D01*
X030105Y021231D01*
X030094Y021164D01*
X030079Y021097D01*
X030060Y021031D01*
X030037Y020967D01*
X030011Y020904D01*
X029982Y020842D01*
X029949Y020782D01*
X029912Y020725D01*
X029873Y020669D01*
X029830Y020615D01*
X029785Y020564D01*
X029737Y020516D01*
X029686Y020471D01*
X029633Y020428D01*
X029577Y020388D01*
X029519Y020352D01*
X029460Y020319D01*
X029398Y020289D01*
X029335Y020262D01*
X029271Y020240D01*
X027677Y021401D02*
X027679Y021471D01*
X027685Y021540D01*
X027695Y021609D01*
X027709Y021677D01*
X027726Y021745D01*
X027748Y021811D01*
X027773Y021876D01*
X027802Y021939D01*
X027835Y022001D01*
X027871Y022061D01*
X027910Y022118D01*
X027953Y022173D01*
X027998Y022226D01*
X028047Y022276D01*
X028098Y022323D01*
X028152Y022367D01*
X028208Y022408D01*
X028267Y022446D01*
X028328Y022480D01*
X028390Y022511D01*
X028454Y022538D01*
X028520Y022561D01*
X028587Y022581D01*
X028655Y022597D01*
X028723Y022609D01*
X028793Y022617D01*
X028862Y022621D01*
X028932Y022621D01*
X029001Y022617D01*
X029071Y022609D01*
X029139Y022597D01*
X029207Y022581D01*
X029274Y022561D01*
X029340Y022538D01*
X029404Y022511D01*
X029466Y022480D01*
X029527Y022446D01*
X029586Y022408D01*
X029642Y022367D01*
X029696Y022323D01*
X029747Y022276D01*
X029796Y022226D01*
X029841Y022173D01*
X029884Y022118D01*
X029923Y022061D01*
X029959Y022001D01*
X029992Y021939D01*
X030021Y021876D01*
X030046Y021811D01*
X030068Y021745D01*
X030085Y021677D01*
X030099Y021609D01*
X030109Y021540D01*
X030115Y021471D01*
X030117Y021401D01*
X030115Y021331D01*
X030109Y021262D01*
X030099Y021193D01*
X030085Y021125D01*
X030068Y021057D01*
X030046Y020991D01*
X030021Y020926D01*
X029992Y020863D01*
X029959Y020801D01*
X029923Y020741D01*
X029884Y020684D01*
X029841Y020629D01*
X029796Y020576D01*
X029747Y020526D01*
X029696Y020479D01*
X029642Y020435D01*
X029586Y020394D01*
X029527Y020356D01*
X029466Y020322D01*
X029404Y020291D01*
X029340Y020264D01*
X029274Y020241D01*
X029207Y020221D01*
X029139Y020205D01*
X029071Y020193D01*
X029001Y020185D01*
X028932Y020181D01*
X028862Y020181D01*
X028793Y020185D01*
X028723Y020193D01*
X028655Y020205D01*
X028587Y020221D01*
X028520Y020241D01*
X028454Y020264D01*
X028390Y020291D01*
X028328Y020322D01*
X028267Y020356D01*
X028208Y020394D01*
X028152Y020435D01*
X028098Y020479D01*
X028047Y020526D01*
X027998Y020576D01*
X027953Y020629D01*
X027910Y020684D01*
X027871Y020741D01*
X027835Y020801D01*
X027802Y020863D01*
X027773Y020926D01*
X027748Y020991D01*
X027726Y021057D01*
X027709Y021125D01*
X027695Y021193D01*
X027685Y021262D01*
X027679Y021331D01*
X027677Y021401D01*
X028523Y022562D02*
X028459Y022540D01*
X028396Y022513D01*
X028334Y022483D01*
X028275Y022450D01*
X028217Y022414D01*
X028161Y022374D01*
X028108Y022331D01*
X028057Y022286D01*
X028009Y022238D01*
X027964Y022187D01*
X027921Y022133D01*
X027882Y022077D01*
X027845Y022020D01*
X027812Y021960D01*
X027783Y021898D01*
X027757Y021835D01*
X027734Y021771D01*
X027715Y021705D01*
X027700Y021638D01*
X027689Y021571D01*
X027681Y021503D01*
X027677Y021435D01*
X027677Y021367D01*
X027681Y021299D01*
X027689Y021231D01*
X027700Y021164D01*
X027715Y021097D01*
X027734Y021031D01*
X027757Y020967D01*
X027783Y020904D01*
X027812Y020842D01*
X027845Y020782D01*
X027882Y020725D01*
X027921Y020669D01*
X027964Y020615D01*
X028009Y020564D01*
X028057Y020516D01*
X028108Y020471D01*
X028161Y020428D01*
X028217Y020388D01*
X028275Y020352D01*
X028334Y020319D01*
X028396Y020289D01*
X028459Y020262D01*
X028523Y020240D01*
X026067Y018591D02*
X026067Y017831D01*
X025447Y017831D02*
X025447Y018591D01*
X025727Y016251D02*
X025727Y015491D01*
X025107Y015491D02*
X025107Y016251D01*
X024857Y016261D02*
X024857Y015501D01*
X024237Y015501D02*
X024237Y016261D01*
X027077Y016241D02*
X027077Y015481D01*
X027697Y015481D02*
X027697Y016241D01*
X020127Y016581D02*
X020127Y017341D01*
X019507Y017341D02*
X019507Y016581D01*
X019426Y021929D02*
X019426Y022016D01*
X020550Y030021D02*
X020396Y030175D01*
X020857Y030175D01*
X020857Y030328D02*
X020857Y030021D01*
X029096Y026502D02*
X029096Y026349D01*
X029173Y026272D01*
X029326Y026426D02*
X029326Y026502D01*
X029403Y026579D01*
X029480Y026579D01*
X029557Y026502D01*
X029557Y026349D01*
X029480Y026272D01*
X029480Y026119D02*
X029557Y026119D01*
X029557Y026042D01*
X029480Y026042D01*
X029480Y026119D01*
X029480Y025889D02*
X029173Y025889D01*
X029480Y025582D01*
X029557Y025658D01*
X029557Y025812D01*
X029480Y025889D01*
X029173Y025889D02*
X029096Y025812D01*
X029096Y025658D01*
X029173Y025582D01*
X029480Y025582D01*
X029250Y025428D02*
X029557Y025275D01*
X029250Y025121D01*
X029326Y026502D02*
X029250Y026579D01*
X029173Y026579D01*
X029096Y026502D01*
D11*
X028047Y024596D02*
X028047Y023841D01*
X027407Y023841D02*
X027407Y024596D01*
X031337Y024341D02*
X031337Y025461D01*
X031857Y025461D01*
X031857Y024341D01*
X031337Y024341D01*
X031327Y024071D02*
X031847Y024071D01*
X031847Y022951D01*
X031327Y022951D01*
X031327Y024071D01*
X031337Y022701D02*
X031857Y022701D01*
X031857Y021581D01*
X031337Y021581D01*
X031337Y022701D01*
X031327Y021371D02*
X031847Y021371D01*
X031847Y020251D01*
X031327Y020251D01*
X031327Y021371D01*
X032987Y021361D02*
X033742Y021361D01*
X033732Y021741D02*
X032977Y021741D01*
X032977Y022381D02*
X033732Y022381D01*
X033742Y022761D02*
X032987Y022761D01*
X032987Y023401D02*
X033742Y023401D01*
X033742Y023701D02*
X032987Y023701D01*
X032987Y024341D02*
X033742Y024341D01*
X033742Y024681D02*
X032987Y024681D01*
X032987Y025321D02*
X033742Y025321D01*
X033742Y025701D02*
X032987Y025701D01*
X032987Y026341D02*
X033742Y026341D01*
X033887Y026861D02*
X035007Y026861D01*
X035007Y027381D01*
X033887Y027381D01*
X033887Y026861D01*
X033697Y027761D02*
X033056Y027761D01*
X033056Y028082D01*
X033163Y028188D01*
X033376Y028188D01*
X033483Y028082D01*
X033483Y027761D01*
X033483Y027975D02*
X033697Y028188D01*
X033697Y028406D02*
X033697Y028833D01*
X033590Y029050D02*
X033697Y029157D01*
X033697Y029371D01*
X033590Y029477D01*
X033483Y029477D01*
X033376Y029371D01*
X033376Y029157D01*
X033270Y029050D01*
X033163Y029050D01*
X033056Y029157D01*
X033056Y029371D01*
X033163Y029477D01*
X033056Y029695D02*
X033697Y029695D01*
X033697Y030122D01*
X033376Y029908D02*
X033376Y029695D01*
X033056Y029695D02*
X033056Y030122D01*
X033056Y030339D02*
X033056Y030766D01*
X033056Y030553D02*
X033697Y030553D01*
X033056Y028833D02*
X033056Y028406D01*
X033697Y028406D01*
X033376Y028406D02*
X033376Y028619D01*
X031857Y026861D02*
X031337Y026861D01*
X031337Y025741D01*
X031857Y025741D01*
X031857Y026861D01*
X028707Y028838D02*
X028600Y028731D01*
X028707Y028838D02*
X028707Y029052D01*
X028600Y029158D01*
X028493Y029158D01*
X028386Y029052D01*
X028386Y028838D01*
X028280Y028731D01*
X028173Y028731D01*
X028066Y028838D01*
X028066Y029052D01*
X028173Y029158D01*
X028066Y029376D02*
X028707Y029376D01*
X028493Y029589D01*
X028707Y029803D01*
X028066Y029803D01*
X022277Y026821D02*
X022277Y025701D01*
X021757Y025701D01*
X021757Y026821D01*
X022277Y026821D01*
X022277Y025521D02*
X021757Y025521D01*
X021757Y024401D01*
X022277Y024401D01*
X022277Y025521D01*
X022277Y024221D02*
X021757Y024221D01*
X021757Y023101D01*
X022277Y023101D01*
X022277Y024221D01*
X022277Y022921D02*
X021757Y022921D01*
X021757Y021801D01*
X022277Y021801D01*
X022277Y022921D01*
X020547Y022741D02*
X019792Y022741D01*
X019792Y023381D02*
X020547Y023381D01*
X020547Y023751D02*
X019792Y023751D01*
X019792Y024391D02*
X020547Y024391D01*
X020547Y024741D02*
X019792Y024741D01*
X019792Y025381D02*
X020547Y025381D01*
X020547Y025741D02*
X019792Y025741D01*
X019792Y026381D02*
X020547Y026381D01*
X015877Y023651D02*
X015877Y023131D01*
X014757Y023131D01*
X014757Y023651D01*
X015877Y023651D01*
X016192Y022381D02*
X015437Y022381D01*
X015437Y021741D02*
X016192Y021741D01*
X016382Y021381D02*
X015627Y021381D01*
X015627Y020741D02*
X016382Y020741D01*
X016192Y020381D02*
X015437Y020381D01*
X015437Y019741D02*
X016192Y019741D01*
X016192Y019381D02*
X015437Y019381D01*
X015437Y018741D02*
X016192Y018741D01*
X015397Y018301D02*
X015397Y017781D01*
X014277Y017781D01*
X014277Y018301D01*
X015397Y018301D01*
X015697Y017591D02*
X016452Y017591D01*
X016452Y016951D02*
X015697Y016951D01*
X015437Y016481D02*
X016192Y016481D01*
X016192Y015841D02*
X015437Y015841D01*
X015437Y015451D02*
X016192Y015451D01*
X016192Y014811D02*
X015437Y014811D01*
X014077Y015121D02*
X014077Y014001D01*
X013557Y014001D01*
X013557Y015121D01*
X014077Y015121D01*
X014077Y015501D02*
X013557Y015501D01*
X013557Y016621D01*
X014077Y016621D01*
X014077Y015501D01*
X014077Y013621D02*
X013557Y013621D01*
X013557Y012501D01*
X014077Y012501D01*
X014077Y013621D01*
X015437Y013381D02*
X016192Y013381D01*
X016192Y012741D02*
X015437Y012741D01*
X015437Y012381D02*
X016192Y012381D01*
X016192Y011741D02*
X015437Y011741D01*
X015437Y011381D02*
X016192Y011381D01*
X016192Y010741D02*
X015437Y010741D01*
X015437Y010381D02*
X016192Y010381D01*
X016192Y009741D02*
X015437Y009741D01*
X015437Y009381D02*
X016192Y009381D01*
X016192Y008741D02*
X015437Y008741D01*
X015377Y008021D02*
X014257Y008021D01*
X014257Y007501D01*
X015377Y007501D01*
X015377Y008021D01*
X015917Y007841D02*
X016437Y007841D01*
X016437Y006721D01*
X015917Y006721D01*
X015917Y007841D01*
X017537Y007681D02*
X018292Y007681D01*
X018292Y007041D02*
X017537Y007041D01*
X017542Y006491D02*
X018297Y006491D01*
X018297Y005851D02*
X017542Y005851D01*
X018765Y005609D02*
X021068Y005609D01*
X021068Y001514D01*
X018765Y001514D01*
X018765Y005609D01*
X018968Y005225D02*
X018970Y005251D01*
X018976Y005277D01*
X018985Y005302D01*
X018998Y005325D01*
X019014Y005346D01*
X019033Y005364D01*
X019055Y005380D01*
X019078Y005392D01*
X019103Y005400D01*
X019129Y005405D01*
X019156Y005406D01*
X019182Y005403D01*
X019207Y005396D01*
X019232Y005386D01*
X019254Y005372D01*
X019275Y005355D01*
X019292Y005336D01*
X019307Y005314D01*
X019318Y005290D01*
X019326Y005264D01*
X019330Y005238D01*
X019330Y005212D01*
X019326Y005186D01*
X019318Y005160D01*
X019307Y005136D01*
X019292Y005114D01*
X019275Y005095D01*
X019254Y005078D01*
X019232Y005064D01*
X019207Y005054D01*
X019182Y005047D01*
X019156Y005044D01*
X019129Y005045D01*
X019103Y005050D01*
X019078Y005058D01*
X019055Y005070D01*
X019033Y005086D01*
X019014Y005104D01*
X018998Y005125D01*
X018985Y005148D01*
X018976Y005173D01*
X018970Y005199D01*
X018968Y005225D01*
X020977Y006441D02*
X020977Y007196D01*
X021617Y007196D02*
X021617Y006441D01*
X024082Y006721D02*
X024837Y006721D01*
X024837Y007361D02*
X024082Y007361D01*
X024387Y009731D02*
X023267Y009731D01*
X023267Y010251D01*
X023487Y010251D01*
X023267Y010251D02*
X023267Y009931D01*
X023267Y010251D02*
X024387Y010251D01*
X024167Y010251D01*
X024387Y010251D02*
X024387Y009931D01*
X024387Y009731D02*
X024387Y010251D01*
X021647Y010176D02*
X021647Y009421D01*
X021007Y009421D02*
X021007Y010176D01*
X020737Y011331D02*
X021492Y011331D01*
X021492Y011971D02*
X020737Y011971D01*
X023347Y015516D02*
X023347Y016271D01*
X023987Y016271D02*
X023987Y015516D01*
X025987Y015491D02*
X025987Y016246D01*
X026627Y016246D02*
X026627Y015491D01*
X028077Y015476D02*
X028077Y016231D01*
X028717Y016231D02*
X028717Y015476D01*
X028997Y014961D02*
X030117Y014961D01*
X030117Y014441D01*
X029897Y014441D01*
X030117Y014441D02*
X030117Y014761D01*
X030117Y014441D02*
X028997Y014441D01*
X029217Y014441D01*
X028997Y014441D02*
X028997Y014761D01*
X028997Y014961D02*
X028997Y014441D01*
X029037Y013311D02*
X028817Y013311D01*
X028817Y012991D01*
X028817Y012791D02*
X028817Y013311D01*
X029937Y013311D01*
X029717Y013311D01*
X029937Y013311D02*
X029937Y012991D01*
X029937Y012791D02*
X028817Y012791D01*
X029937Y012791D02*
X029937Y013311D01*
X030717Y013171D02*
X030717Y012416D01*
X031357Y012416D02*
X031357Y013171D01*
X031587Y013951D02*
X031587Y015371D01*
X033447Y015371D01*
X033447Y013951D01*
X031587Y013951D01*
X033442Y012071D02*
X034197Y012071D01*
X034197Y011431D02*
X033442Y011431D01*
X033442Y011171D02*
X034197Y011171D01*
X034197Y010531D02*
X033442Y010531D01*
X033447Y010261D02*
X034202Y010261D01*
X034202Y009621D02*
X033447Y009621D01*
X033637Y008981D02*
X032217Y008981D01*
X032217Y007121D01*
X033637Y007121D01*
X033637Y008981D01*
X034907Y008531D02*
X034907Y007776D01*
X035547Y007776D02*
X035547Y008531D01*
X035387Y011101D02*
X035387Y011856D01*
X036027Y011856D02*
X036027Y011101D01*
X034397Y013796D02*
X034397Y014551D01*
X033757Y014551D02*
X033757Y013796D01*
X033747Y015921D02*
X033747Y016676D01*
X034387Y016676D02*
X034387Y015921D01*
X032672Y017001D02*
X031917Y017001D01*
X031917Y017641D02*
X032672Y017641D01*
X032687Y018341D02*
X032167Y018341D01*
X032167Y018561D01*
X032167Y018341D02*
X032487Y018341D01*
X032687Y018341D02*
X032687Y019461D01*
X032167Y019461D01*
X032167Y019241D01*
X032167Y019461D02*
X032487Y019461D01*
X032167Y019461D02*
X032167Y018341D01*
X031507Y018591D02*
X031507Y019346D01*
X030867Y019346D02*
X030867Y018591D01*
X030467Y016761D02*
X029947Y016761D01*
X029947Y016541D01*
X029947Y016761D02*
X030267Y016761D01*
X030467Y016761D02*
X030467Y015641D01*
X029947Y015641D01*
X029947Y015861D01*
X029947Y015641D02*
X030267Y015641D01*
X029947Y015641D02*
X029947Y016761D01*
X027707Y017736D02*
X027707Y018491D01*
X027067Y018491D02*
X027067Y017736D01*
X026687Y019591D02*
X025932Y019591D01*
X025932Y020231D02*
X026687Y020231D01*
X032987Y020721D02*
X033742Y020721D01*
X035167Y029561D02*
X035169Y029628D01*
X035175Y029696D01*
X035185Y029763D01*
X035199Y029829D01*
X035216Y029894D01*
X035238Y029958D01*
X035263Y030021D01*
X035292Y030082D01*
X035324Y030141D01*
X035360Y030198D01*
X035399Y030253D01*
X035441Y030306D01*
X035486Y030356D01*
X035534Y030403D01*
X035585Y030448D01*
X035638Y030489D01*
X035694Y030528D01*
X035752Y030563D01*
X035812Y030594D01*
X035873Y030622D01*
X035936Y030646D01*
X036000Y030667D01*
X036066Y030683D01*
X036132Y030696D01*
X036199Y030705D01*
X036266Y030710D01*
X036334Y030711D01*
X036401Y030708D01*
X036468Y030701D01*
X036535Y030690D01*
X036601Y030675D01*
X036666Y030657D01*
X036730Y030634D01*
X036792Y030608D01*
X036853Y030579D01*
X036911Y030545D01*
X036968Y030509D01*
X037023Y030469D01*
X037075Y030426D01*
X037124Y030380D01*
X037171Y030331D01*
X037215Y030280D01*
X037255Y030226D01*
X037293Y030170D01*
X037327Y030111D01*
X037357Y030051D01*
X037384Y029989D01*
X037408Y029926D01*
X037427Y029861D01*
X037443Y029796D01*
X037455Y029729D01*
X037463Y029662D01*
X037467Y029595D01*
X037467Y029527D01*
X037463Y029460D01*
X037455Y029393D01*
X037443Y029326D01*
X037427Y029261D01*
X037408Y029196D01*
X037384Y029133D01*
X037357Y029071D01*
X037327Y029011D01*
X037293Y028952D01*
X037255Y028896D01*
X037215Y028842D01*
X037171Y028791D01*
X037124Y028742D01*
X037075Y028696D01*
X037023Y028653D01*
X036968Y028613D01*
X036911Y028577D01*
X036853Y028543D01*
X036792Y028514D01*
X036730Y028488D01*
X036666Y028465D01*
X036601Y028447D01*
X036535Y028432D01*
X036468Y028421D01*
X036401Y028414D01*
X036334Y028411D01*
X036266Y028412D01*
X036199Y028417D01*
X036132Y028426D01*
X036066Y028439D01*
X036000Y028455D01*
X035936Y028476D01*
X035873Y028500D01*
X035812Y028528D01*
X035752Y028559D01*
X035694Y028594D01*
X035638Y028633D01*
X035585Y028674D01*
X035534Y028719D01*
X035486Y028766D01*
X035441Y028816D01*
X035399Y028869D01*
X035360Y028924D01*
X035324Y028981D01*
X035292Y029040D01*
X035263Y029101D01*
X035238Y029164D01*
X035216Y029228D01*
X035199Y029293D01*
X035185Y029359D01*
X035175Y029426D01*
X035169Y029494D01*
X035167Y029561D01*
X014217Y020921D02*
X014217Y019801D01*
X013697Y019801D01*
X013697Y020921D01*
X014217Y020921D01*
X014077Y021201D02*
X014077Y022321D01*
X013557Y022321D01*
X013557Y021201D01*
X014077Y021201D01*
X013237Y019911D02*
X013237Y019391D01*
X012117Y019391D01*
X012117Y019911D01*
X013237Y019911D01*
X009887Y016961D02*
X009717Y017131D01*
X004347Y017131D01*
X004347Y011591D01*
X009887Y011591D01*
X009887Y016961D01*
X009212Y016676D02*
X009214Y016705D01*
X009220Y016734D01*
X009229Y016762D01*
X009243Y016788D01*
X009259Y016812D01*
X009279Y016834D01*
X009302Y016853D01*
X009326Y016869D01*
X009353Y016881D01*
X009381Y016890D01*
X009410Y016895D01*
X009439Y016896D01*
X009469Y016893D01*
X009497Y016886D01*
X009525Y016876D01*
X009550Y016861D01*
X009574Y016844D01*
X009595Y016824D01*
X009613Y016801D01*
X009628Y016775D01*
X009640Y016748D01*
X009648Y016720D01*
X009652Y016691D01*
X009652Y016661D01*
X009648Y016632D01*
X009640Y016604D01*
X009628Y016577D01*
X009613Y016551D01*
X009595Y016528D01*
X009574Y016508D01*
X009550Y016491D01*
X009525Y016476D01*
X009497Y016466D01*
X009469Y016459D01*
X009439Y016456D01*
X009410Y016457D01*
X009381Y016462D01*
X009353Y016471D01*
X009326Y016483D01*
X009302Y016499D01*
X009279Y016518D01*
X009259Y016540D01*
X009243Y016564D01*
X009229Y016590D01*
X009220Y016618D01*
X009214Y016647D01*
X009212Y016676D01*
X008127Y020596D02*
X008127Y021351D01*
X007487Y021351D02*
X007487Y020596D01*
X008077Y022231D02*
X008077Y023351D01*
X008597Y023351D01*
X008597Y023131D01*
X008597Y023351D02*
X008277Y023351D01*
X008377Y023621D02*
X007857Y023621D01*
X007857Y024741D01*
X008377Y024741D01*
X008377Y023621D01*
X008597Y023351D02*
X008597Y022231D01*
X008597Y022451D01*
X008597Y022231D02*
X008277Y022231D01*
X008077Y022231D02*
X008597Y022231D01*
X006877Y023621D02*
X006357Y023621D01*
X006357Y024741D01*
X006877Y024741D01*
X006877Y023621D01*
X005377Y023621D02*
X004857Y023621D01*
X004857Y024741D01*
X005377Y024741D01*
X005377Y023621D01*
X003977Y023621D02*
X003457Y023621D01*
X003457Y024741D01*
X003977Y024741D01*
X003977Y023621D01*
X003757Y022951D02*
X003002Y022951D01*
X003002Y022311D02*
X003757Y022311D01*
X004187Y021851D02*
X004187Y021631D01*
X004187Y021851D02*
X004507Y021851D01*
X004707Y021851D02*
X004187Y021851D01*
X004187Y020731D01*
X004187Y020951D01*
X004187Y020731D02*
X004507Y020731D01*
X004707Y020731D02*
X004187Y020731D01*
X004277Y020411D02*
X004277Y020191D01*
X004277Y020411D02*
X004597Y020411D01*
X004797Y020411D02*
X004797Y019291D01*
X004277Y019291D01*
X004277Y019511D01*
X004277Y019291D02*
X004597Y019291D01*
X004277Y019291D02*
X004277Y020411D01*
X004797Y020411D01*
X004707Y020731D02*
X004707Y021851D01*
X003067Y021271D02*
X002312Y021271D01*
X002312Y020631D02*
X003067Y020631D01*
X003067Y020381D02*
X002312Y020381D01*
X002312Y019741D02*
X003067Y019741D01*
X001727Y017376D02*
X001727Y016621D01*
X001087Y016621D02*
X001087Y017376D01*
X005597Y009241D02*
X005597Y008486D01*
X005253Y008379D02*
X005253Y008143D01*
X004780Y008143D02*
X004780Y008379D01*
X006237Y008486D02*
X006237Y009241D01*
X006477Y009236D02*
X006477Y008481D01*
X007117Y008481D02*
X007117Y009236D01*
X009517Y006246D02*
X009517Y005491D01*
X010157Y005491D02*
X010157Y006246D01*
X010407Y005171D02*
X010407Y004416D01*
X011047Y004416D02*
X011047Y005171D01*
X011952Y005161D02*
X012707Y005161D01*
X012707Y005801D02*
X011952Y005801D01*
X013557Y008201D02*
X013557Y009321D01*
X014077Y009321D01*
X014077Y008201D01*
X013557Y008201D01*
X013557Y009601D02*
X013557Y010721D01*
X014077Y010721D01*
X014077Y009601D01*
X013557Y009601D01*
X013557Y011001D02*
X013557Y012121D01*
X014077Y012121D01*
X014077Y011001D01*
X013557Y011001D01*
X014987Y005951D02*
X015742Y005951D01*
X015742Y005311D02*
X014987Y005311D01*
X012517Y003231D02*
X012517Y001731D01*
X012267Y001481D01*
X011767Y001481D01*
X011517Y001731D01*
X011517Y003231D01*
X011267Y003481D01*
X010767Y003481D01*
X010517Y003231D01*
X010517Y001731D01*
X010267Y001481D01*
X009767Y001481D01*
X009517Y001731D01*
X009517Y003231D01*
X009267Y003481D01*
X008767Y003481D01*
X008517Y003231D01*
X008517Y001731D01*
X008267Y001481D01*
X007767Y001481D01*
X007517Y001731D01*
X007517Y003231D01*
X007267Y003481D01*
X006767Y003481D01*
X006517Y003231D01*
X006517Y001731D01*
X006267Y001481D01*
X005767Y001481D01*
X005517Y001731D01*
X005517Y003231D01*
X005767Y003481D01*
X006267Y003481D01*
X006517Y003231D01*
X007517Y003231D02*
X007767Y003481D01*
X008267Y003481D01*
X008517Y003231D01*
X009517Y003231D02*
X009767Y003481D01*
X010267Y003481D01*
X010517Y003231D01*
X011517Y003231D02*
X011767Y003481D01*
X012267Y003481D01*
X012517Y003231D01*
X011517Y001731D02*
X011267Y001481D01*
X010767Y001481D01*
X010517Y001731D01*
X009517Y001731D02*
X009267Y001481D01*
X008767Y001481D01*
X008517Y001731D01*
X007517Y001731D02*
X007267Y001481D01*
X006767Y001481D01*
X006517Y001731D01*
X004237Y002481D02*
X004237Y003236D01*
X003597Y003236D02*
X003597Y002481D01*
X000667Y002561D02*
X000669Y002628D01*
X000675Y002696D01*
X000685Y002763D01*
X000699Y002829D01*
X000716Y002894D01*
X000738Y002958D01*
X000763Y003021D01*
X000792Y003082D01*
X000824Y003141D01*
X000860Y003198D01*
X000899Y003253D01*
X000941Y003306D01*
X000986Y003356D01*
X001034Y003403D01*
X001085Y003448D01*
X001138Y003489D01*
X001194Y003528D01*
X001252Y003563D01*
X001312Y003594D01*
X001373Y003622D01*
X001436Y003646D01*
X001500Y003667D01*
X001566Y003683D01*
X001632Y003696D01*
X001699Y003705D01*
X001766Y003710D01*
X001834Y003711D01*
X001901Y003708D01*
X001968Y003701D01*
X002035Y003690D01*
X002101Y003675D01*
X002166Y003657D01*
X002230Y003634D01*
X002292Y003608D01*
X002353Y003579D01*
X002411Y003545D01*
X002468Y003509D01*
X002523Y003469D01*
X002575Y003426D01*
X002624Y003380D01*
X002671Y003331D01*
X002715Y003280D01*
X002755Y003226D01*
X002793Y003170D01*
X002827Y003111D01*
X002857Y003051D01*
X002884Y002989D01*
X002908Y002926D01*
X002927Y002861D01*
X002943Y002796D01*
X002955Y002729D01*
X002963Y002662D01*
X002967Y002595D01*
X002967Y002527D01*
X002963Y002460D01*
X002955Y002393D01*
X002943Y002326D01*
X002927Y002261D01*
X002908Y002196D01*
X002884Y002133D01*
X002857Y002071D01*
X002827Y002011D01*
X002793Y001952D01*
X002755Y001896D01*
X002715Y001842D01*
X002671Y001791D01*
X002624Y001742D01*
X002575Y001696D01*
X002523Y001653D01*
X002468Y001613D01*
X002411Y001577D01*
X002353Y001543D01*
X002292Y001514D01*
X002230Y001488D01*
X002166Y001465D01*
X002101Y001447D01*
X002035Y001432D01*
X001968Y001421D01*
X001901Y001414D01*
X001834Y001411D01*
X001766Y001412D01*
X001699Y001417D01*
X001632Y001426D01*
X001566Y001439D01*
X001500Y001455D01*
X001436Y001476D01*
X001373Y001500D01*
X001312Y001528D01*
X001252Y001559D01*
X001194Y001594D01*
X001138Y001633D01*
X001085Y001674D01*
X001034Y001719D01*
X000986Y001766D01*
X000941Y001816D01*
X000899Y001869D01*
X000860Y001924D01*
X000824Y001981D01*
X000792Y002040D01*
X000763Y002101D01*
X000738Y002164D01*
X000716Y002228D01*
X000699Y002293D01*
X000685Y002359D01*
X000675Y002426D01*
X000669Y002494D01*
X000667Y002561D01*
X004780Y005743D02*
X004780Y005979D01*
X005253Y005979D02*
X005253Y005743D01*
X001537Y007881D02*
X001537Y008636D01*
X000897Y008636D02*
X000897Y007881D01*
X003697Y025581D02*
X003697Y026336D01*
X004337Y026336D02*
X004337Y025581D01*
X004697Y025581D02*
X004697Y026336D01*
X005337Y026336D02*
X005337Y025581D01*
X005697Y025581D02*
X005697Y026336D01*
X006337Y026336D02*
X006337Y025581D01*
X006697Y025581D02*
X006697Y026336D01*
X007337Y026336D02*
X007337Y025581D01*
X002197Y026801D02*
X001442Y026801D01*
X001442Y027441D02*
X002197Y027441D01*
X000667Y029561D02*
X000669Y029628D01*
X000675Y029696D01*
X000685Y029763D01*
X000699Y029829D01*
X000716Y029894D01*
X000738Y029958D01*
X000763Y030021D01*
X000792Y030082D01*
X000824Y030141D01*
X000860Y030198D01*
X000899Y030253D01*
X000941Y030306D01*
X000986Y030356D01*
X001034Y030403D01*
X001085Y030448D01*
X001138Y030489D01*
X001194Y030528D01*
X001252Y030563D01*
X001312Y030594D01*
X001373Y030622D01*
X001436Y030646D01*
X001500Y030667D01*
X001566Y030683D01*
X001632Y030696D01*
X001699Y030705D01*
X001766Y030710D01*
X001834Y030711D01*
X001901Y030708D01*
X001968Y030701D01*
X002035Y030690D01*
X002101Y030675D01*
X002166Y030657D01*
X002230Y030634D01*
X002292Y030608D01*
X002353Y030579D01*
X002411Y030545D01*
X002468Y030509D01*
X002523Y030469D01*
X002575Y030426D01*
X002624Y030380D01*
X002671Y030331D01*
X002715Y030280D01*
X002755Y030226D01*
X002793Y030170D01*
X002827Y030111D01*
X002857Y030051D01*
X002884Y029989D01*
X002908Y029926D01*
X002927Y029861D01*
X002943Y029796D01*
X002955Y029729D01*
X002963Y029662D01*
X002967Y029595D01*
X002967Y029527D01*
X002963Y029460D01*
X002955Y029393D01*
X002943Y029326D01*
X002927Y029261D01*
X002908Y029196D01*
X002884Y029133D01*
X002857Y029071D01*
X002827Y029011D01*
X002793Y028952D01*
X002755Y028896D01*
X002715Y028842D01*
X002671Y028791D01*
X002624Y028742D01*
X002575Y028696D01*
X002523Y028653D01*
X002468Y028613D01*
X002411Y028577D01*
X002353Y028543D01*
X002292Y028514D01*
X002230Y028488D01*
X002166Y028465D01*
X002101Y028447D01*
X002035Y028432D01*
X001968Y028421D01*
X001901Y028414D01*
X001834Y028411D01*
X001766Y028412D01*
X001699Y028417D01*
X001632Y028426D01*
X001566Y028439D01*
X001500Y028455D01*
X001436Y028476D01*
X001373Y028500D01*
X001312Y028528D01*
X001252Y028559D01*
X001194Y028594D01*
X001138Y028633D01*
X001085Y028674D01*
X001034Y028719D01*
X000986Y028766D01*
X000941Y028816D01*
X000899Y028869D01*
X000860Y028924D01*
X000824Y028981D01*
X000792Y029040D01*
X000763Y029101D01*
X000738Y029164D01*
X000716Y029228D01*
X000699Y029293D01*
X000685Y029359D01*
X000675Y029426D01*
X000669Y029494D01*
X000667Y029561D01*
X027417Y010836D02*
X027417Y010081D01*
X028057Y010081D02*
X028057Y010836D01*
X028947Y011021D02*
X028947Y011541D01*
X030067Y011541D01*
X030067Y011021D01*
X029847Y011021D01*
X030067Y011021D02*
X030067Y011341D01*
X030067Y011021D02*
X028947Y011021D01*
X029167Y011021D01*
X028947Y011021D02*
X028947Y011341D01*
X028812Y010081D02*
X029567Y010081D01*
X029567Y009441D02*
X028812Y009441D01*
X031237Y009851D02*
X031992Y009851D01*
X031992Y010491D02*
X031237Y010491D01*
X031232Y010741D02*
X031987Y010741D01*
X031987Y011381D02*
X031232Y011381D01*
X034407Y005651D02*
X034407Y004896D01*
X035047Y004896D02*
X035047Y005651D01*
X035167Y002561D02*
X035169Y002628D01*
X035175Y002696D01*
X035185Y002763D01*
X035199Y002829D01*
X035216Y002894D01*
X035238Y002958D01*
X035263Y003021D01*
X035292Y003082D01*
X035324Y003141D01*
X035360Y003198D01*
X035399Y003253D01*
X035441Y003306D01*
X035486Y003356D01*
X035534Y003403D01*
X035585Y003448D01*
X035638Y003489D01*
X035694Y003528D01*
X035752Y003563D01*
X035812Y003594D01*
X035873Y003622D01*
X035936Y003646D01*
X036000Y003667D01*
X036066Y003683D01*
X036132Y003696D01*
X036199Y003705D01*
X036266Y003710D01*
X036334Y003711D01*
X036401Y003708D01*
X036468Y003701D01*
X036535Y003690D01*
X036601Y003675D01*
X036666Y003657D01*
X036730Y003634D01*
X036792Y003608D01*
X036853Y003579D01*
X036911Y003545D01*
X036968Y003509D01*
X037023Y003469D01*
X037075Y003426D01*
X037124Y003380D01*
X037171Y003331D01*
X037215Y003280D01*
X037255Y003226D01*
X037293Y003170D01*
X037327Y003111D01*
X037357Y003051D01*
X037384Y002989D01*
X037408Y002926D01*
X037427Y002861D01*
X037443Y002796D01*
X037455Y002729D01*
X037463Y002662D01*
X037467Y002595D01*
X037467Y002527D01*
X037463Y002460D01*
X037455Y002393D01*
X037443Y002326D01*
X037427Y002261D01*
X037408Y002196D01*
X037384Y002133D01*
X037357Y002071D01*
X037327Y002011D01*
X037293Y001952D01*
X037255Y001896D01*
X037215Y001842D01*
X037171Y001791D01*
X037124Y001742D01*
X037075Y001696D01*
X037023Y001653D01*
X036968Y001613D01*
X036911Y001577D01*
X036853Y001543D01*
X036792Y001514D01*
X036730Y001488D01*
X036666Y001465D01*
X036601Y001447D01*
X036535Y001432D01*
X036468Y001421D01*
X036401Y001414D01*
X036334Y001411D01*
X036266Y001412D01*
X036199Y001417D01*
X036132Y001426D01*
X036066Y001439D01*
X036000Y001455D01*
X035936Y001476D01*
X035873Y001500D01*
X035812Y001528D01*
X035752Y001559D01*
X035694Y001594D01*
X035638Y001633D01*
X035585Y001674D01*
X035534Y001719D01*
X035486Y001766D01*
X035441Y001816D01*
X035399Y001869D01*
X035360Y001924D01*
X035324Y001981D01*
X035292Y002040D01*
X035263Y002101D01*
X035238Y002164D01*
X035216Y002228D01*
X035199Y002293D01*
X035185Y002359D01*
X035175Y002426D01*
X035169Y002494D01*
X035167Y002561D01*
D12*
X035920Y005488D02*
X035920Y008874D01*
X037613Y008874D01*
X037613Y005488D01*
X035920Y005488D01*
X026547Y012951D02*
X025366Y012951D01*
X025366Y014132D01*
X026547Y014132D01*
X026547Y012951D01*
X025125Y012998D02*
X025127Y013022D01*
X025133Y013044D01*
X025142Y013066D01*
X025155Y013086D01*
X025171Y013103D01*
X025190Y013118D01*
X025211Y013129D01*
X025233Y013137D01*
X025256Y013141D01*
X025280Y013141D01*
X025303Y013137D01*
X025325Y013129D01*
X025346Y013118D01*
X025365Y013103D01*
X025381Y013086D01*
X025394Y013066D01*
X025403Y013044D01*
X025409Y013022D01*
X025411Y012998D01*
X025409Y012974D01*
X025403Y012952D01*
X025394Y012930D01*
X025381Y012910D01*
X025365Y012893D01*
X025346Y012878D01*
X025325Y012867D01*
X025303Y012859D01*
X025280Y012855D01*
X025256Y012855D01*
X025233Y012859D01*
X025211Y012867D01*
X025190Y012878D01*
X025171Y012893D01*
X025155Y012910D01*
X025142Y012930D01*
X025133Y012952D01*
X025127Y012974D01*
X025125Y012998D01*
X024840Y012764D02*
X023297Y012764D01*
X023297Y014311D01*
X024840Y014311D01*
X024840Y012764D01*
X025678Y009805D02*
X025678Y009065D01*
X026155Y009065D01*
X026159Y009065D02*
X026159Y009805D01*
X025678Y009805D01*
X026113Y008975D02*
X026115Y008992D01*
X026121Y009008D01*
X026130Y009022D01*
X026142Y009034D01*
X026157Y009042D01*
X026173Y009047D01*
X026190Y009048D01*
X026207Y009045D01*
X026222Y009038D01*
X026236Y009028D01*
X026247Y009015D01*
X026255Y009000D01*
X026259Y008983D01*
X026259Y008967D01*
X026255Y008950D01*
X026247Y008935D01*
X026236Y008922D01*
X026223Y008912D01*
X026207Y008905D01*
X026190Y008902D01*
X026173Y008903D01*
X026157Y008908D01*
X026142Y008916D01*
X026130Y008928D01*
X026121Y008942D01*
X026115Y008958D01*
X026113Y008975D01*
X023901Y008620D02*
X023901Y008139D01*
X023161Y008139D01*
X023161Y008143D02*
X023161Y008620D01*
X023901Y008620D01*
X022997Y008112D02*
X022999Y008129D01*
X023005Y008145D01*
X023014Y008159D01*
X023026Y008171D01*
X023041Y008179D01*
X023057Y008184D01*
X023074Y008185D01*
X023091Y008182D01*
X023106Y008175D01*
X023120Y008165D01*
X023131Y008152D01*
X023139Y008137D01*
X023143Y008120D01*
X023143Y008104D01*
X023139Y008087D01*
X023131Y008072D01*
X023120Y008059D01*
X023107Y008049D01*
X023091Y008042D01*
X023074Y008039D01*
X023057Y008040D01*
X023041Y008045D01*
X023026Y008053D01*
X023014Y008065D01*
X023005Y008079D01*
X022999Y008095D01*
X022997Y008112D01*
X015797Y003951D02*
X015797Y002191D01*
X013197Y002191D01*
X013197Y003951D01*
X015797Y003951D01*
X014997Y002151D02*
X014997Y001651D01*
X013997Y001651D01*
X013997Y002151D01*
X004562Y004920D02*
X004207Y004920D01*
X004562Y004920D02*
X004562Y009802D01*
X004207Y009802D01*
X003026Y009802D02*
X002672Y009802D01*
X002672Y004920D01*
X003026Y004920D01*
X005659Y021248D02*
X006982Y021248D01*
X006982Y022598D01*
X005659Y022598D01*
X005659Y021248D01*
X006696Y021311D02*
X006698Y021332D01*
X006704Y021352D01*
X006713Y021370D01*
X006726Y021386D01*
X006742Y021400D01*
X006760Y021410D01*
X006779Y021417D01*
X006800Y021420D01*
X006821Y021419D01*
X006841Y021414D01*
X006859Y021405D01*
X006876Y021393D01*
X006891Y021378D01*
X006902Y021361D01*
X006910Y021342D01*
X006914Y021321D01*
X006914Y021301D01*
X006910Y021280D01*
X006902Y021261D01*
X006891Y021244D01*
X006876Y021229D01*
X006860Y021217D01*
X006841Y021208D01*
X006821Y021203D01*
X006800Y021202D01*
X006779Y021205D01*
X006760Y021212D01*
X006742Y021222D01*
X006726Y021236D01*
X006713Y021252D01*
X006704Y021270D01*
X006698Y021290D01*
X006696Y021311D01*
X008858Y025677D02*
X009953Y025677D01*
X009953Y026153D01*
X008858Y026153D01*
X008858Y025677D01*
X009824Y026059D02*
X009826Y026076D01*
X009832Y026093D01*
X009841Y026108D01*
X009853Y026120D01*
X009868Y026129D01*
X009885Y026135D01*
X009902Y026137D01*
X009919Y026135D01*
X009936Y026129D01*
X009951Y026120D01*
X009963Y026108D01*
X009972Y026093D01*
X009978Y026076D01*
X009980Y026059D01*
X009978Y026042D01*
X009972Y026025D01*
X009963Y026010D01*
X009951Y025998D01*
X009936Y025989D01*
X009919Y025983D01*
X009902Y025981D01*
X009885Y025983D01*
X009868Y025989D01*
X009853Y025998D01*
X009841Y026010D01*
X009832Y026025D01*
X009826Y026042D01*
X009824Y026059D01*
X008132Y027120D02*
X012069Y027120D01*
X012306Y027120D01*
X012306Y030663D01*
X012069Y030663D01*
X008132Y030663D01*
X008132Y027120D01*
X012069Y027120D02*
X012069Y030663D01*
X012072Y030663D02*
X012072Y027120D01*
X016009Y027120D01*
X016246Y027120D01*
X016246Y030663D01*
X016009Y030663D01*
X012072Y030663D01*
X016009Y030663D02*
X016009Y027120D01*
X014453Y026053D02*
X014453Y025577D01*
X013358Y025577D01*
X013358Y026053D01*
X014453Y026053D01*
X014324Y025959D02*
X014326Y025976D01*
X014332Y025993D01*
X014341Y026008D01*
X014353Y026020D01*
X014368Y026029D01*
X014385Y026035D01*
X014402Y026037D01*
X014419Y026035D01*
X014436Y026029D01*
X014451Y026020D01*
X014463Y026008D01*
X014472Y025993D01*
X014478Y025976D01*
X014480Y025959D01*
X014478Y025942D01*
X014472Y025925D01*
X014463Y025910D01*
X014451Y025898D01*
X014436Y025889D01*
X014419Y025883D01*
X014402Y025881D01*
X014385Y025883D01*
X014368Y025889D01*
X014353Y025898D01*
X014341Y025910D01*
X014332Y025925D01*
X014326Y025942D01*
X014324Y025959D01*
X024166Y018354D02*
X024166Y017425D01*
X024170Y017425D01*
X024174Y017425D01*
X024682Y017425D01*
X024682Y018354D01*
X024166Y018354D01*
X024457Y017555D02*
X024459Y017573D01*
X024465Y017590D01*
X024474Y017606D01*
X024486Y017620D01*
X024500Y017630D01*
X024517Y017638D01*
X024535Y017642D01*
X024553Y017642D01*
X024571Y017638D01*
X024587Y017630D01*
X024602Y017620D01*
X024614Y017606D01*
X024623Y017590D01*
X024629Y017573D01*
X024631Y017555D01*
X024629Y017537D01*
X024623Y017520D01*
X024614Y017504D01*
X024602Y017490D01*
X024588Y017480D01*
X024571Y017472D01*
X024553Y017468D01*
X024535Y017468D01*
X024517Y017472D01*
X024501Y017480D01*
X024486Y017490D01*
X024474Y017504D01*
X024465Y017520D01*
X024459Y017537D01*
X024457Y017555D01*
X028451Y018594D02*
X028451Y019129D01*
X029415Y019129D01*
X029415Y018594D01*
X028451Y018594D01*
X028506Y018735D02*
X028508Y018750D01*
X028513Y018763D01*
X028522Y018775D01*
X028533Y018785D01*
X028547Y018791D01*
X028561Y018794D01*
X028576Y018793D01*
X028590Y018788D01*
X028603Y018780D01*
X028613Y018770D01*
X028620Y018757D01*
X028624Y018742D01*
X028624Y018728D01*
X028620Y018713D01*
X028613Y018700D01*
X028603Y018690D01*
X028590Y018682D01*
X028576Y018677D01*
X028561Y018676D01*
X028547Y018679D01*
X028533Y018685D01*
X028522Y018695D01*
X028513Y018707D01*
X028508Y018720D01*
X028506Y018735D01*
X025052Y025976D02*
X025052Y026180D01*
X025052Y026078D02*
X024441Y026078D01*
X024441Y025976D02*
X024441Y026180D01*
X024543Y026381D02*
X024645Y026381D01*
X024746Y026483D01*
X024746Y026687D01*
X024848Y026788D01*
X024950Y026788D01*
X025052Y026687D01*
X025052Y026483D01*
X024950Y026381D01*
X024543Y026381D02*
X024441Y026483D01*
X024441Y026687D01*
X024543Y026788D01*
X024441Y026989D02*
X024441Y027294D01*
X024543Y027396D01*
X024746Y027396D01*
X024848Y027294D01*
X024848Y026989D01*
X025052Y026989D02*
X024441Y026989D01*
D13*
X034532Y014247D02*
X034717Y014247D01*
X034779Y014185D01*
X034779Y014061D01*
X034717Y014000D01*
X034532Y014000D01*
X034655Y014000D02*
X034779Y013876D01*
X034900Y013876D02*
X035147Y013876D01*
X035268Y013938D02*
X035330Y013876D01*
X035453Y013876D01*
X035515Y013938D01*
X035515Y014000D01*
X035453Y014061D01*
X035330Y014061D01*
X035268Y014123D01*
X035268Y014185D01*
X035330Y014247D01*
X035453Y014247D01*
X035515Y014185D01*
X035637Y014247D02*
X035637Y013876D01*
X035883Y013876D01*
X035760Y014061D02*
X035637Y014061D01*
X035637Y014247D02*
X035883Y014247D01*
X036005Y014247D02*
X036252Y014247D01*
X036128Y014247D02*
X036128Y013876D01*
X035147Y014247D02*
X034900Y014247D01*
X034900Y013876D01*
X034900Y014061D02*
X035023Y014061D01*
X034532Y013876D02*
X034532Y014247D01*
X017942Y005021D02*
X017571Y004775D01*
X017571Y004653D02*
X017571Y004406D01*
X017571Y004530D02*
X017942Y004530D01*
X017942Y004775D02*
X017571Y005021D01*
X015668Y004967D02*
X015474Y004967D01*
X015571Y004967D02*
X015571Y004676D01*
X015373Y004725D02*
X015325Y004676D01*
X015228Y004676D01*
X015180Y004725D01*
X015228Y004821D02*
X015325Y004821D01*
X015373Y004773D01*
X015373Y004725D01*
X015228Y004821D02*
X015180Y004870D01*
X015180Y004918D01*
X015228Y004967D01*
X015325Y004967D01*
X015373Y004918D01*
X015078Y004870D02*
X015078Y004676D01*
X015078Y004821D02*
X014885Y004821D01*
X014885Y004870D02*
X014982Y004967D01*
X015078Y004870D01*
X014885Y004870D02*
X014885Y004676D01*
X014784Y004676D02*
X014687Y004773D01*
X014735Y004773D02*
X014590Y004773D01*
X014590Y004676D02*
X014590Y004967D01*
X014735Y004967D01*
X014784Y004918D01*
X014784Y004821D01*
X014735Y004773D01*
X014489Y004967D02*
X014296Y004967D01*
X014392Y004967D02*
X014392Y004676D01*
X014194Y004676D02*
X014194Y004967D01*
X014001Y004967D02*
X014001Y004676D01*
X013900Y004725D02*
X013900Y004918D01*
X013851Y004967D01*
X013755Y004967D01*
X013706Y004918D01*
X013706Y004725D01*
X013755Y004676D01*
X013851Y004676D01*
X013900Y004725D01*
X014001Y004967D02*
X014194Y004676D01*
X013605Y004725D02*
X013557Y004676D01*
X013460Y004676D01*
X013412Y004725D01*
X013412Y004918D01*
X013460Y004967D01*
X013557Y004967D01*
X013605Y004918D01*
X009380Y004015D02*
X009380Y003891D01*
X009319Y003830D01*
X009133Y003830D01*
X009133Y003706D02*
X009133Y004077D01*
X009319Y004077D01*
X009380Y004015D01*
X009257Y003830D02*
X009380Y003706D01*
X009012Y003706D02*
X008765Y003706D01*
X008765Y004077D01*
X009012Y004077D01*
X008888Y003891D02*
X008765Y003891D01*
X008644Y003768D02*
X008644Y004015D01*
X008582Y004077D01*
X008397Y004077D01*
X008397Y003706D01*
X008582Y003706D01*
X008644Y003768D01*
X008275Y003706D02*
X008275Y003953D01*
X008152Y004077D01*
X008028Y003953D01*
X008028Y003706D01*
X007907Y003706D02*
X007660Y003706D01*
X007660Y004077D01*
X007907Y004077D01*
X008028Y003891D02*
X008275Y003891D01*
X007784Y003891D02*
X007660Y003891D01*
X007539Y003891D02*
X007292Y003891D01*
X007292Y003706D02*
X007292Y004077D01*
X007539Y004077D02*
X007539Y003706D01*
X006802Y003768D02*
X006802Y004015D01*
X006740Y004077D01*
X006555Y004077D01*
X006555Y003706D01*
X006740Y003706D01*
X006802Y003768D01*
X006434Y003768D02*
X006372Y003706D01*
X006249Y003706D01*
X006187Y003768D01*
X006187Y004015D01*
X006249Y004077D01*
X006372Y004077D01*
X006434Y004015D01*
X006065Y003706D02*
X005819Y003706D01*
X005819Y004077D01*
X017571Y002831D02*
X017942Y002585D01*
X017942Y002463D02*
X017818Y002340D01*
X017818Y002401D02*
X017818Y002216D01*
X017942Y002216D02*
X017571Y002216D01*
X017571Y002401D01*
X017633Y002463D01*
X017757Y002463D01*
X017818Y002401D01*
X017571Y002585D02*
X017942Y002831D01*
D14*
X001226Y002561D02*
X001228Y002609D01*
X001234Y002657D01*
X001244Y002704D01*
X001257Y002750D01*
X001275Y002795D01*
X001295Y002839D01*
X001320Y002881D01*
X001348Y002920D01*
X001378Y002957D01*
X001412Y002991D01*
X001449Y003023D01*
X001487Y003052D01*
X001528Y003077D01*
X001571Y003099D01*
X001616Y003117D01*
X001662Y003131D01*
X001709Y003142D01*
X001757Y003149D01*
X001805Y003152D01*
X001853Y003151D01*
X001901Y003146D01*
X001949Y003137D01*
X001995Y003125D01*
X002040Y003108D01*
X002084Y003088D01*
X002126Y003065D01*
X002166Y003038D01*
X002204Y003008D01*
X002239Y002975D01*
X002271Y002939D01*
X002301Y002901D01*
X002327Y002860D01*
X002349Y002817D01*
X002369Y002773D01*
X002384Y002728D01*
X002396Y002681D01*
X002404Y002633D01*
X002408Y002585D01*
X002408Y002537D01*
X002404Y002489D01*
X002396Y002441D01*
X002384Y002394D01*
X002369Y002349D01*
X002349Y002305D01*
X002327Y002262D01*
X002301Y002221D01*
X002271Y002183D01*
X002239Y002147D01*
X002204Y002114D01*
X002166Y002084D01*
X002126Y002057D01*
X002084Y002034D01*
X002040Y002014D01*
X001995Y001997D01*
X001949Y001985D01*
X001901Y001976D01*
X001853Y001971D01*
X001805Y001970D01*
X001757Y001973D01*
X001709Y001980D01*
X001662Y001991D01*
X001616Y002005D01*
X001571Y002023D01*
X001528Y002045D01*
X001487Y002070D01*
X001449Y002099D01*
X001412Y002131D01*
X001378Y002165D01*
X001348Y002202D01*
X001320Y002241D01*
X001295Y002283D01*
X001275Y002327D01*
X001257Y002372D01*
X001244Y002418D01*
X001234Y002465D01*
X001228Y002513D01*
X001226Y002561D01*
X001610Y004516D02*
X000823Y004516D01*
X000823Y005068D01*
X000941Y005343D02*
X001217Y005343D01*
X000980Y005579D01*
X001453Y005579D01*
X001217Y005343D01*
X001492Y005343D01*
X001610Y005068D02*
X001610Y004516D01*
X001610Y005855D02*
X001610Y006406D01*
X000823Y006406D01*
X000823Y005855D01*
X000823Y009416D02*
X000823Y009968D01*
X000941Y010243D02*
X001217Y010243D01*
X000980Y010479D01*
X001453Y010479D01*
X001217Y010243D01*
X001492Y010243D01*
X001610Y009968D02*
X001610Y009416D01*
X000823Y009416D01*
X000823Y010755D02*
X000823Y011306D01*
X001610Y011306D01*
X001610Y010755D01*
X001567Y012861D02*
X001067Y012861D01*
X000817Y013111D01*
X000817Y013611D01*
X001067Y013861D01*
X000817Y014111D01*
X000817Y014611D01*
X001067Y014861D01*
X000817Y015111D01*
X000817Y015611D01*
X001067Y015861D01*
X001567Y015861D01*
X001817Y015611D01*
X001817Y015111D01*
X001567Y014861D01*
X001817Y014611D01*
X001817Y014111D01*
X001567Y013861D01*
X001817Y013611D01*
X001817Y013111D01*
X001567Y012861D01*
X012125Y019376D02*
X012125Y019691D01*
X012125Y019376D02*
X012362Y019376D01*
X012992Y019376D02*
X013228Y019376D01*
X013228Y019691D01*
X013917Y019810D02*
X014232Y019810D01*
X014232Y020046D01*
X014232Y020676D02*
X014232Y020912D01*
X013917Y020912D01*
X013777Y021210D02*
X014092Y021210D01*
X014092Y021446D01*
X014092Y022076D02*
X014092Y022312D01*
X013777Y022312D01*
X014765Y023116D02*
X014765Y023431D01*
X014765Y023116D02*
X015002Y023116D01*
X015632Y023116D02*
X015868Y023116D01*
X015868Y023431D01*
X017317Y023311D02*
X017317Y022811D01*
X017567Y022561D01*
X017317Y022311D01*
X017317Y021811D01*
X017567Y021561D01*
X017317Y021311D01*
X017317Y020811D01*
X017567Y020561D01*
X017317Y020311D01*
X017317Y019811D01*
X017567Y019561D01*
X017317Y019311D01*
X017317Y018811D01*
X017567Y018561D01*
X018067Y018561D01*
X018317Y018811D01*
X018317Y019311D01*
X018067Y019561D01*
X018317Y019811D01*
X018317Y020311D01*
X018067Y020561D01*
X018317Y020811D01*
X018317Y021311D01*
X018067Y021561D01*
X018317Y021811D01*
X018317Y022311D01*
X018067Y022561D01*
X018317Y022811D01*
X018317Y023311D01*
X018067Y023561D01*
X018317Y023811D01*
X018317Y024311D01*
X018067Y024561D01*
X018317Y024811D01*
X018317Y025311D01*
X018067Y025561D01*
X018317Y025811D01*
X018317Y026311D01*
X018067Y026561D01*
X017567Y026561D01*
X017317Y026311D01*
X017317Y025811D01*
X017567Y025561D01*
X017317Y025311D01*
X017317Y024811D01*
X017567Y024561D01*
X017317Y024311D01*
X017317Y023811D01*
X017567Y023561D01*
X017317Y023311D01*
X021741Y023346D02*
X021741Y023110D01*
X022056Y023110D01*
X022056Y022912D02*
X021741Y022912D01*
X021741Y022676D01*
X021741Y022046D02*
X021741Y021810D01*
X022056Y021810D01*
X021741Y023976D02*
X021741Y024212D01*
X022056Y024212D01*
X022056Y024410D02*
X021741Y024410D01*
X021741Y024646D01*
X021741Y025276D02*
X021741Y025512D01*
X022056Y025512D01*
X022056Y025710D02*
X021741Y025710D01*
X021741Y025946D01*
X021741Y026576D02*
X021741Y026812D01*
X022056Y026812D01*
X021837Y028529D02*
X021337Y028529D01*
X021337Y028661D02*
X021837Y028661D01*
X022087Y028911D01*
X022087Y030411D01*
X022337Y030661D01*
X022837Y030661D01*
X023087Y030411D01*
X023087Y028911D01*
X023337Y028661D01*
X023837Y028661D01*
X024087Y028911D01*
X024087Y030411D01*
X023837Y030661D01*
X023337Y030661D01*
X023087Y030411D01*
X022087Y030411D02*
X021837Y030661D01*
X021337Y030661D01*
X021087Y030411D01*
X021087Y028911D01*
X021337Y028661D01*
X022087Y028911D02*
X022337Y028661D01*
X022837Y028661D01*
X023087Y028911D01*
X025017Y028861D02*
X025017Y028261D01*
X025217Y028061D01*
X025367Y028061D01*
X027067Y028061D01*
X027217Y028061D01*
X027417Y028261D01*
X027417Y028861D01*
X027417Y029654D01*
X027417Y029661D02*
X027417Y030261D01*
X027217Y030461D01*
X027067Y030461D01*
X025367Y030461D01*
X025217Y030461D01*
X025017Y030261D01*
X025017Y029661D01*
X025017Y029666D02*
X025017Y028861D01*
X025217Y028761D02*
X025217Y029061D01*
X025367Y029111D02*
X025217Y029461D01*
X025217Y029761D01*
X025517Y029261D02*
X025519Y029313D01*
X025525Y029365D01*
X025535Y029417D01*
X025548Y029467D01*
X025565Y029517D01*
X025586Y029565D01*
X025611Y029611D01*
X025639Y029655D01*
X025670Y029697D01*
X025704Y029737D01*
X025741Y029774D01*
X025781Y029808D01*
X025823Y029839D01*
X025867Y029867D01*
X025913Y029892D01*
X025961Y029913D01*
X026011Y029930D01*
X026061Y029943D01*
X026113Y029953D01*
X026165Y029959D01*
X026217Y029961D01*
X026269Y029959D01*
X026321Y029953D01*
X026373Y029943D01*
X026423Y029930D01*
X026473Y029913D01*
X026521Y029892D01*
X026567Y029867D01*
X026611Y029839D01*
X026653Y029808D01*
X026693Y029774D01*
X026730Y029737D01*
X026764Y029697D01*
X026795Y029655D01*
X026823Y029611D01*
X026848Y029565D01*
X026869Y029517D01*
X026886Y029467D01*
X026899Y029417D01*
X026909Y029365D01*
X026915Y029313D01*
X026917Y029261D01*
X026915Y029209D01*
X026909Y029157D01*
X026899Y029105D01*
X026886Y029055D01*
X026869Y029005D01*
X026848Y028957D01*
X026823Y028911D01*
X026795Y028867D01*
X026764Y028825D01*
X026730Y028785D01*
X026693Y028748D01*
X026653Y028714D01*
X026611Y028683D01*
X026567Y028655D01*
X026521Y028630D01*
X026473Y028609D01*
X026423Y028592D01*
X026373Y028579D01*
X026321Y028569D01*
X026269Y028563D01*
X026217Y028561D01*
X026165Y028563D01*
X026113Y028569D01*
X026061Y028579D01*
X026011Y028592D01*
X025961Y028609D01*
X025913Y028630D01*
X025867Y028655D01*
X025823Y028683D01*
X025781Y028714D01*
X025741Y028748D01*
X025704Y028785D01*
X025670Y028825D01*
X025639Y028867D01*
X025611Y028911D01*
X025586Y028957D01*
X025565Y029005D01*
X025548Y029055D01*
X025535Y029105D01*
X025525Y029157D01*
X025519Y029209D01*
X025517Y029261D01*
X025567Y027561D02*
X025317Y027311D01*
X025317Y025811D01*
X025567Y025561D01*
X026067Y025561D01*
X026317Y025811D01*
X026317Y027311D01*
X026567Y027561D01*
X027067Y027561D01*
X027317Y027311D01*
X027317Y025811D01*
X027567Y025561D01*
X028067Y025561D01*
X028317Y025811D01*
X028317Y027311D01*
X028067Y027561D01*
X027567Y027561D01*
X027317Y027311D01*
X026317Y027311D02*
X026067Y027561D01*
X025567Y027561D01*
X026317Y025811D02*
X026567Y025561D01*
X027067Y025561D01*
X027317Y025811D01*
X026067Y025429D02*
X025567Y025429D01*
X029917Y028261D02*
X030117Y028061D01*
X030267Y028061D01*
X031967Y028061D01*
X032117Y028061D01*
X032317Y028261D01*
X032317Y028861D01*
X032317Y029654D01*
X032317Y029661D02*
X032317Y030261D01*
X032117Y030461D01*
X031967Y030461D01*
X030267Y030461D01*
X030117Y030461D01*
X029917Y030261D01*
X029917Y029661D01*
X029917Y029666D02*
X029917Y028861D01*
X029917Y028261D01*
X030117Y028761D02*
X030117Y029061D01*
X030267Y029111D02*
X030117Y029461D01*
X030117Y029761D01*
X030417Y029261D02*
X030419Y029313D01*
X030425Y029365D01*
X030435Y029417D01*
X030448Y029467D01*
X030465Y029517D01*
X030486Y029565D01*
X030511Y029611D01*
X030539Y029655D01*
X030570Y029697D01*
X030604Y029737D01*
X030641Y029774D01*
X030681Y029808D01*
X030723Y029839D01*
X030767Y029867D01*
X030813Y029892D01*
X030861Y029913D01*
X030911Y029930D01*
X030961Y029943D01*
X031013Y029953D01*
X031065Y029959D01*
X031117Y029961D01*
X031169Y029959D01*
X031221Y029953D01*
X031273Y029943D01*
X031323Y029930D01*
X031373Y029913D01*
X031421Y029892D01*
X031467Y029867D01*
X031511Y029839D01*
X031553Y029808D01*
X031593Y029774D01*
X031630Y029737D01*
X031664Y029697D01*
X031695Y029655D01*
X031723Y029611D01*
X031748Y029565D01*
X031769Y029517D01*
X031786Y029467D01*
X031799Y029417D01*
X031809Y029365D01*
X031815Y029313D01*
X031817Y029261D01*
X031815Y029209D01*
X031809Y029157D01*
X031799Y029105D01*
X031786Y029055D01*
X031769Y029005D01*
X031748Y028957D01*
X031723Y028911D01*
X031695Y028867D01*
X031664Y028825D01*
X031630Y028785D01*
X031593Y028748D01*
X031553Y028714D01*
X031511Y028683D01*
X031467Y028655D01*
X031421Y028630D01*
X031373Y028609D01*
X031323Y028592D01*
X031273Y028579D01*
X031221Y028569D01*
X031169Y028563D01*
X031117Y028561D01*
X031065Y028563D01*
X031013Y028569D01*
X030961Y028579D01*
X030911Y028592D01*
X030861Y028609D01*
X030813Y028630D01*
X030767Y028655D01*
X030723Y028683D01*
X030681Y028714D01*
X030641Y028748D01*
X030604Y028785D01*
X030570Y028825D01*
X030539Y028867D01*
X030511Y028911D01*
X030486Y028957D01*
X030465Y029005D01*
X030448Y029055D01*
X030435Y029105D01*
X030425Y029157D01*
X030419Y029209D01*
X030417Y029261D01*
X031557Y026852D02*
X031872Y026852D01*
X031872Y026616D01*
X031872Y025986D02*
X031872Y025750D01*
X031557Y025750D01*
X031557Y025452D02*
X031872Y025452D01*
X031872Y025216D01*
X031872Y024586D02*
X031872Y024350D01*
X031557Y024350D01*
X031547Y024062D02*
X031862Y024062D01*
X031862Y023826D01*
X031862Y023196D02*
X031862Y022960D01*
X031547Y022960D01*
X031557Y022692D02*
X031872Y022692D01*
X031872Y022456D01*
X031872Y021826D02*
X031872Y021590D01*
X031557Y021590D01*
X031547Y021362D02*
X031862Y021362D01*
X031862Y021126D01*
X031862Y020496D02*
X031862Y020260D01*
X031547Y020260D01*
X036317Y020811D02*
X036567Y020561D01*
X037067Y020561D01*
X037317Y020811D01*
X037317Y021311D01*
X037067Y021561D01*
X037317Y021811D01*
X037317Y022311D01*
X037067Y022561D01*
X037317Y022811D01*
X037317Y023311D01*
X037067Y023561D01*
X037317Y023811D01*
X037317Y024311D01*
X037067Y024561D01*
X037317Y024811D01*
X037317Y025311D01*
X037067Y025561D01*
X037317Y025811D01*
X037317Y026311D01*
X037067Y026561D01*
X036567Y026561D01*
X036317Y026311D01*
X036317Y025811D01*
X036567Y025561D01*
X036317Y025311D01*
X036317Y024811D01*
X036567Y024561D01*
X036317Y024311D01*
X036317Y023811D01*
X036567Y023561D01*
X036317Y023311D01*
X036317Y022811D01*
X036567Y022561D01*
X036317Y022311D01*
X036317Y021811D01*
X036567Y021561D01*
X036317Y021311D01*
X036317Y020811D01*
X036567Y019561D02*
X037067Y019561D01*
X037317Y019311D01*
X037317Y018811D01*
X037067Y018561D01*
X037317Y018311D01*
X037317Y017811D01*
X037067Y017561D01*
X037317Y017311D01*
X037317Y016811D01*
X037067Y016561D01*
X037317Y016311D01*
X037317Y015811D01*
X037067Y015561D01*
X037317Y015311D01*
X037317Y014811D01*
X037067Y014561D01*
X037317Y014311D01*
X037317Y013811D01*
X037067Y013561D01*
X037317Y013311D01*
X037317Y012811D01*
X037067Y012561D01*
X037317Y012311D01*
X037317Y011811D01*
X037067Y011561D01*
X036567Y011561D01*
X036317Y011811D01*
X036317Y012311D01*
X036567Y012561D01*
X036317Y012811D01*
X036317Y013311D01*
X036567Y013561D01*
X036317Y013811D01*
X036317Y014311D01*
X036567Y014561D01*
X036317Y014811D01*
X036317Y015311D01*
X036567Y015561D01*
X036317Y015811D01*
X036317Y016311D01*
X036567Y016561D01*
X036317Y016811D01*
X036317Y017311D01*
X036567Y017561D01*
X036317Y017811D01*
X036317Y018311D01*
X036567Y018561D01*
X036317Y018811D01*
X036317Y019311D01*
X036567Y019561D01*
X031750Y014271D02*
X031752Y014286D01*
X031758Y014299D01*
X031767Y014311D01*
X031778Y014320D01*
X031792Y014326D01*
X031807Y014328D01*
X031822Y014326D01*
X031835Y014320D01*
X031847Y014311D01*
X031856Y014300D01*
X031862Y014286D01*
X031864Y014271D01*
X031862Y014256D01*
X031856Y014243D01*
X031847Y014231D01*
X031836Y014222D01*
X031822Y014216D01*
X031807Y014214D01*
X031792Y014216D01*
X031779Y014222D01*
X031767Y014231D01*
X031758Y014242D01*
X031752Y014256D01*
X031750Y014271D01*
X032480Y008761D02*
X032482Y008776D01*
X032488Y008789D01*
X032497Y008801D01*
X032508Y008810D01*
X032522Y008816D01*
X032537Y008818D01*
X032552Y008816D01*
X032565Y008810D01*
X032577Y008801D01*
X032586Y008790D01*
X032592Y008776D01*
X032594Y008761D01*
X032592Y008746D01*
X032586Y008733D01*
X032577Y008721D01*
X032566Y008712D01*
X032552Y008706D01*
X032537Y008704D01*
X032522Y008706D01*
X032509Y008712D01*
X032497Y008721D01*
X032488Y008732D01*
X032482Y008746D01*
X032480Y008761D01*
X032262Y005955D02*
X033088Y005955D01*
X033088Y005679D01*
X033088Y003829D02*
X033088Y001742D01*
X029545Y001742D01*
X029545Y005955D01*
X030372Y005955D01*
X027679Y006360D02*
X027679Y004825D01*
X027679Y006360D02*
X022954Y006360D01*
X022954Y004825D01*
X022954Y003171D02*
X022954Y001675D01*
X027679Y001675D01*
X027679Y003171D01*
X027679Y001675D02*
X027679Y000140D01*
X022954Y000140D01*
X022954Y001675D01*
X017420Y001606D02*
X016633Y001606D01*
X016633Y002158D01*
X016751Y002433D02*
X017027Y002433D01*
X016790Y002669D01*
X017263Y002669D01*
X017027Y002433D01*
X017302Y002433D01*
X017420Y002158D02*
X017420Y001606D01*
X017420Y002945D02*
X017420Y003496D01*
X016633Y003496D01*
X016633Y002945D01*
X016633Y003776D02*
X016633Y004328D01*
X016751Y004603D02*
X017027Y004603D01*
X016790Y004839D01*
X017263Y004839D01*
X017027Y004603D01*
X017302Y004603D01*
X017420Y004328D02*
X017420Y003776D01*
X016633Y003776D01*
X016633Y005115D02*
X016633Y005666D01*
X017420Y005666D01*
X017420Y005115D01*
X016452Y006730D02*
X016137Y006730D01*
X016452Y006730D02*
X016452Y006966D01*
X016452Y007596D02*
X016452Y007832D01*
X016137Y007832D01*
X015368Y007722D02*
X015368Y008037D01*
X015132Y008037D01*
X014502Y008037D02*
X014265Y008037D01*
X014265Y007722D01*
X014092Y008210D02*
X013777Y008210D01*
X014092Y008210D02*
X014092Y008446D01*
X014092Y009076D02*
X014092Y009312D01*
X013777Y009312D01*
X013777Y009610D02*
X014092Y009610D01*
X014092Y009846D01*
X014092Y010476D02*
X014092Y010712D01*
X013777Y010712D01*
X013777Y011010D02*
X014092Y011010D01*
X014092Y011246D01*
X014092Y011876D02*
X014092Y012112D01*
X013777Y012112D01*
X013777Y012510D02*
X014092Y012510D01*
X014092Y012746D01*
X014092Y013376D02*
X014092Y013612D01*
X013777Y013612D01*
X013777Y014010D02*
X014092Y014010D01*
X014092Y014246D01*
X014092Y014876D02*
X014092Y015112D01*
X013777Y015112D01*
X013777Y015510D02*
X014092Y015510D01*
X014092Y015746D01*
X014092Y016376D02*
X014092Y016612D01*
X013777Y016612D01*
X013767Y016981D02*
X014017Y017231D01*
X014017Y017731D01*
X013767Y017981D01*
X014017Y018231D01*
X014017Y018731D01*
X013767Y018981D01*
X013267Y018981D01*
X013017Y018731D01*
X013017Y018231D01*
X013267Y017981D01*
X013017Y017731D01*
X013017Y017231D01*
X013267Y016981D01*
X013767Y016981D01*
X014285Y017766D02*
X014285Y018081D01*
X014285Y017766D02*
X014522Y017766D01*
X015152Y017766D02*
X015388Y017766D01*
X015388Y018081D01*
X017317Y017711D02*
X017317Y017211D01*
X017567Y016961D01*
X017317Y016711D01*
X017317Y016211D01*
X017567Y015961D01*
X017317Y015711D01*
X017317Y015211D01*
X017567Y014961D01*
X017317Y014711D01*
X017317Y014211D01*
X017567Y013961D01*
X017317Y013711D01*
X017317Y013211D01*
X017567Y012961D01*
X017317Y012711D01*
X017317Y012211D01*
X017567Y011961D01*
X017317Y011711D01*
X017317Y011211D01*
X017567Y010961D01*
X017317Y010711D01*
X017317Y010211D01*
X017567Y009961D01*
X017317Y009711D01*
X017317Y009211D01*
X017567Y008961D01*
X017317Y008711D01*
X017317Y008211D01*
X017567Y007961D01*
X018067Y007961D01*
X018317Y008211D01*
X018317Y008711D01*
X018067Y008961D01*
X018317Y009211D01*
X018317Y009711D01*
X018067Y009961D01*
X018317Y010211D01*
X018317Y010711D01*
X018067Y010961D01*
X018317Y011211D01*
X018317Y011711D01*
X018067Y011961D01*
X018317Y012211D01*
X018317Y012711D01*
X018067Y012961D01*
X018317Y013211D01*
X018317Y013711D01*
X018067Y013961D01*
X018317Y014211D01*
X018317Y014711D01*
X018067Y014961D01*
X018317Y015211D01*
X018317Y015711D01*
X018067Y015961D01*
X018317Y016211D01*
X018317Y016711D01*
X018067Y016961D01*
X018317Y017211D01*
X018317Y017711D01*
X018067Y017961D01*
X017567Y017961D01*
X017317Y017711D01*
X008156Y023630D02*
X007841Y023630D01*
X007841Y023866D01*
X007841Y024496D02*
X007841Y024732D01*
X008156Y024732D01*
X006656Y024732D02*
X006341Y024732D01*
X006341Y024496D01*
X006341Y023866D02*
X006341Y023630D01*
X006656Y023630D01*
X005156Y023630D02*
X004841Y023630D01*
X004841Y023866D01*
X004841Y024496D02*
X004841Y024732D01*
X005156Y024732D01*
X003756Y024732D02*
X003441Y024732D01*
X003441Y024496D01*
X003441Y023866D02*
X003441Y023630D01*
X003756Y023630D01*
X001700Y024416D02*
X001700Y024968D01*
X001543Y025243D02*
X001307Y025479D01*
X001070Y025243D01*
X001543Y025243D01*
X001582Y025479D02*
X001307Y025479D01*
X001031Y025479D01*
X000913Y025755D02*
X000913Y026306D01*
X001700Y026306D01*
X001700Y025755D01*
X000913Y024968D02*
X000913Y024416D01*
X001700Y024416D01*
X003767Y027761D02*
X004267Y027761D01*
X004517Y028011D01*
X004767Y027761D01*
X005267Y027761D01*
X005517Y028011D01*
X005767Y027761D01*
X006267Y027761D01*
X006517Y028011D01*
X006767Y027761D01*
X007267Y027761D01*
X007517Y028011D01*
X007517Y028511D01*
X007267Y028761D01*
X006767Y028761D01*
X006517Y029011D01*
X006267Y028761D01*
X005767Y028761D01*
X005517Y029011D01*
X005267Y028761D01*
X004767Y028761D01*
X004517Y029011D01*
X004267Y028761D01*
X003767Y028761D01*
X003517Y029011D01*
X003517Y029511D01*
X003767Y029761D01*
X004267Y029761D01*
X004517Y030011D01*
X004767Y029761D01*
X005267Y029761D01*
X005517Y030011D01*
X005767Y029761D01*
X006267Y029761D01*
X006517Y030011D01*
X006767Y029761D01*
X007267Y029761D01*
X007517Y030011D01*
X007517Y030511D01*
X007267Y030761D01*
X006767Y030761D01*
X006517Y030511D01*
X006267Y030761D01*
X005767Y030761D01*
X005517Y030511D01*
X005267Y030761D01*
X004767Y030761D01*
X004517Y030511D01*
X004267Y030761D01*
X003767Y030761D01*
X003517Y030511D01*
X003517Y030011D01*
X003767Y029761D01*
X004267Y029761D01*
X004517Y029511D01*
X004767Y029761D01*
X005267Y029761D01*
X005517Y029511D01*
X005767Y029761D01*
X006267Y029761D01*
X006517Y029511D01*
X006767Y029761D01*
X007267Y029761D01*
X007517Y029511D01*
X007517Y029011D01*
X007267Y028761D01*
X006767Y028761D01*
X006517Y028511D01*
X006267Y028761D01*
X005767Y028761D01*
X005517Y028511D01*
X005267Y028761D01*
X004767Y028761D01*
X004517Y028511D01*
X004267Y028761D01*
X003767Y028761D01*
X003517Y028511D01*
X003517Y028011D01*
X003767Y027761D01*
X001226Y029561D02*
X001228Y029609D01*
X001234Y029657D01*
X001244Y029704D01*
X001257Y029750D01*
X001275Y029795D01*
X001295Y029839D01*
X001320Y029881D01*
X001348Y029920D01*
X001378Y029957D01*
X001412Y029991D01*
X001449Y030023D01*
X001487Y030052D01*
X001528Y030077D01*
X001571Y030099D01*
X001616Y030117D01*
X001662Y030131D01*
X001709Y030142D01*
X001757Y030149D01*
X001805Y030152D01*
X001853Y030151D01*
X001901Y030146D01*
X001949Y030137D01*
X001995Y030125D01*
X002040Y030108D01*
X002084Y030088D01*
X002126Y030065D01*
X002166Y030038D01*
X002204Y030008D01*
X002239Y029975D01*
X002271Y029939D01*
X002301Y029901D01*
X002327Y029860D01*
X002349Y029817D01*
X002369Y029773D01*
X002384Y029728D01*
X002396Y029681D01*
X002404Y029633D01*
X002408Y029585D01*
X002408Y029537D01*
X002404Y029489D01*
X002396Y029441D01*
X002384Y029394D01*
X002369Y029349D01*
X002349Y029305D01*
X002327Y029262D01*
X002301Y029221D01*
X002271Y029183D01*
X002239Y029147D01*
X002204Y029114D01*
X002166Y029084D01*
X002126Y029057D01*
X002084Y029034D01*
X002040Y029014D01*
X001995Y028997D01*
X001949Y028985D01*
X001901Y028976D01*
X001853Y028971D01*
X001805Y028970D01*
X001757Y028973D01*
X001709Y028980D01*
X001662Y028991D01*
X001616Y029005D01*
X001571Y029023D01*
X001528Y029045D01*
X001487Y029070D01*
X001449Y029099D01*
X001412Y029131D01*
X001378Y029165D01*
X001348Y029202D01*
X001320Y029241D01*
X001295Y029283D01*
X001275Y029327D01*
X001257Y029372D01*
X001244Y029418D01*
X001234Y029465D01*
X001228Y029513D01*
X001226Y029561D01*
X017117Y028911D02*
X017117Y030411D01*
X017367Y030661D01*
X017867Y030661D01*
X018117Y030411D01*
X018117Y028911D01*
X018367Y028661D01*
X018867Y028661D01*
X019117Y028911D01*
X019117Y030411D01*
X019367Y030661D01*
X019867Y030661D01*
X020117Y030411D01*
X020117Y028911D01*
X019867Y028661D01*
X019367Y028661D01*
X019117Y028911D01*
X018117Y028911D02*
X017867Y028661D01*
X017367Y028661D01*
X017117Y028911D01*
X017367Y028529D02*
X017867Y028529D01*
X018117Y030411D02*
X018367Y030661D01*
X018867Y030661D01*
X019117Y030411D01*
X033895Y027161D02*
X033895Y026846D01*
X034132Y026846D01*
X034762Y026846D02*
X034998Y026846D01*
X034998Y027161D01*
X035726Y029561D02*
X035728Y029609D01*
X035734Y029657D01*
X035744Y029704D01*
X035757Y029750D01*
X035775Y029795D01*
X035795Y029839D01*
X035820Y029881D01*
X035848Y029920D01*
X035878Y029957D01*
X035912Y029991D01*
X035949Y030023D01*
X035987Y030052D01*
X036028Y030077D01*
X036071Y030099D01*
X036116Y030117D01*
X036162Y030131D01*
X036209Y030142D01*
X036257Y030149D01*
X036305Y030152D01*
X036353Y030151D01*
X036401Y030146D01*
X036449Y030137D01*
X036495Y030125D01*
X036540Y030108D01*
X036584Y030088D01*
X036626Y030065D01*
X036666Y030038D01*
X036704Y030008D01*
X036739Y029975D01*
X036771Y029939D01*
X036801Y029901D01*
X036827Y029860D01*
X036849Y029817D01*
X036869Y029773D01*
X036884Y029728D01*
X036896Y029681D01*
X036904Y029633D01*
X036908Y029585D01*
X036908Y029537D01*
X036904Y029489D01*
X036896Y029441D01*
X036884Y029394D01*
X036869Y029349D01*
X036849Y029305D01*
X036827Y029262D01*
X036801Y029221D01*
X036771Y029183D01*
X036739Y029147D01*
X036704Y029114D01*
X036666Y029084D01*
X036626Y029057D01*
X036584Y029034D01*
X036540Y029014D01*
X036495Y028997D01*
X036449Y028985D01*
X036401Y028976D01*
X036353Y028971D01*
X036305Y028970D01*
X036257Y028973D01*
X036209Y028980D01*
X036162Y028991D01*
X036116Y029005D01*
X036071Y029023D01*
X036028Y029045D01*
X035987Y029070D01*
X035949Y029099D01*
X035912Y029131D01*
X035878Y029165D01*
X035848Y029202D01*
X035820Y029241D01*
X035795Y029283D01*
X035775Y029327D01*
X035757Y029372D01*
X035744Y029418D01*
X035734Y029465D01*
X035728Y029513D01*
X035726Y029561D01*
X035726Y002561D02*
X035728Y002609D01*
X035734Y002657D01*
X035744Y002704D01*
X035757Y002750D01*
X035775Y002795D01*
X035795Y002839D01*
X035820Y002881D01*
X035848Y002920D01*
X035878Y002957D01*
X035912Y002991D01*
X035949Y003023D01*
X035987Y003052D01*
X036028Y003077D01*
X036071Y003099D01*
X036116Y003117D01*
X036162Y003131D01*
X036209Y003142D01*
X036257Y003149D01*
X036305Y003152D01*
X036353Y003151D01*
X036401Y003146D01*
X036449Y003137D01*
X036495Y003125D01*
X036540Y003108D01*
X036584Y003088D01*
X036626Y003065D01*
X036666Y003038D01*
X036704Y003008D01*
X036739Y002975D01*
X036771Y002939D01*
X036801Y002901D01*
X036827Y002860D01*
X036849Y002817D01*
X036869Y002773D01*
X036884Y002728D01*
X036896Y002681D01*
X036904Y002633D01*
X036908Y002585D01*
X036908Y002537D01*
X036904Y002489D01*
X036896Y002441D01*
X036884Y002394D01*
X036869Y002349D01*
X036849Y002305D01*
X036827Y002262D01*
X036801Y002221D01*
X036771Y002183D01*
X036739Y002147D01*
X036704Y002114D01*
X036666Y002084D01*
X036626Y002057D01*
X036584Y002034D01*
X036540Y002014D01*
X036495Y001997D01*
X036449Y001985D01*
X036401Y001976D01*
X036353Y001971D01*
X036305Y001970D01*
X036257Y001973D01*
X036209Y001980D01*
X036162Y001991D01*
X036116Y002005D01*
X036071Y002023D01*
X036028Y002045D01*
X035987Y002070D01*
X035949Y002099D01*
X035912Y002131D01*
X035878Y002165D01*
X035848Y002202D01*
X035820Y002241D01*
X035795Y002283D01*
X035775Y002327D01*
X035757Y002372D01*
X035744Y002418D01*
X035734Y002465D01*
X035728Y002513D01*
X035726Y002561D01*
X033088Y001742D02*
X033088Y000601D01*
X029545Y000601D01*
X029545Y001742D01*
D15*
X017817Y008461D03*
X017817Y009461D03*
X017817Y010461D03*
X017817Y011461D03*
X017817Y012461D03*
X017817Y013461D03*
X017817Y014461D03*
X017817Y015461D03*
X017817Y016461D03*
X017817Y017461D03*
X017817Y019061D03*
X017817Y020061D03*
X017817Y021061D03*
X017817Y022061D03*
X017817Y023061D03*
X017817Y024061D03*
X017817Y025061D03*
X017817Y026061D03*
X017617Y029161D03*
X018617Y029161D03*
X019617Y029161D03*
X019617Y030161D03*
X018617Y030161D03*
X017617Y030161D03*
X021587Y030161D03*
X022587Y030161D03*
X023587Y030161D03*
X023587Y029161D03*
X022587Y029161D03*
X021587Y029161D03*
X025817Y027061D03*
X026817Y027061D03*
X027817Y027061D03*
X027817Y026061D03*
X026817Y026061D03*
X025817Y026061D03*
X036817Y026061D03*
X036817Y025061D03*
X036817Y024061D03*
X036817Y023061D03*
X036817Y022061D03*
X036817Y021061D03*
X036817Y019061D03*
X036817Y018061D03*
X036817Y017061D03*
X036817Y016061D03*
X036817Y015061D03*
X036817Y014061D03*
X036817Y013061D03*
X036817Y012061D03*
X013517Y017481D03*
X013517Y018481D03*
X007017Y028261D03*
X007017Y029261D03*
X007017Y030261D03*
X006017Y030261D03*
X005017Y030261D03*
X005017Y029261D03*
X006017Y029261D03*
X006017Y028261D03*
X005017Y028261D03*
X004017Y028261D03*
X004017Y029261D03*
X004017Y030261D03*
X001317Y015361D03*
X001317Y014361D03*
X001317Y013361D03*
X006017Y002981D03*
X007017Y002981D03*
X008017Y002981D03*
X009017Y002981D03*
X010017Y002981D03*
X011017Y002981D03*
X012017Y002981D03*
X012017Y001981D03*
X011017Y001981D03*
X010017Y001981D03*
X009017Y001981D03*
X008017Y001981D03*
X007017Y001981D03*
X006017Y001981D03*
D16*
X004932Y019481D03*
X004932Y020221D03*
X004842Y020921D03*
X004052Y021291D03*
X004842Y021661D03*
X004142Y019851D03*
X007942Y022421D03*
X007942Y023161D03*
X008732Y022791D03*
X029812Y016201D03*
X030602Y015831D03*
X030602Y016571D03*
X032822Y018531D03*
X032822Y019271D03*
X032032Y018901D03*
D17*
X036273Y030665D02*
X036273Y029852D01*
X036272Y029853D02*
X036239Y029845D01*
X036207Y029835D01*
X036176Y029820D01*
X036147Y029802D01*
X036121Y029781D01*
X036097Y029757D01*
X036076Y029731D01*
X036058Y029702D01*
X036043Y029671D01*
X036033Y029639D01*
X036025Y029606D01*
X035213Y029605D01*
X035213Y029606D01*
X035218Y029672D01*
X035226Y029737D01*
X035238Y029802D01*
X035255Y029865D01*
X035275Y029928D01*
X035298Y029989D01*
X035326Y030049D01*
X035357Y030107D01*
X035391Y030164D01*
X035428Y030218D01*
X035469Y030270D01*
X035513Y030319D01*
X035559Y030365D01*
X035608Y030409D01*
X035660Y030450D01*
X035714Y030487D01*
X035771Y030521D01*
X035829Y030552D01*
X035889Y030580D01*
X035950Y030603D01*
X036013Y030623D01*
X036076Y030640D01*
X036141Y030652D01*
X036206Y030660D01*
X036272Y030665D01*
X036272Y030580D01*
X036209Y030575D01*
X036147Y030567D01*
X036085Y030554D01*
X036024Y030538D01*
X035964Y030518D01*
X035906Y030495D01*
X035849Y030467D01*
X035794Y030437D01*
X035741Y030403D01*
X035690Y030366D01*
X035642Y030325D01*
X035596Y030282D01*
X035553Y030236D01*
X035512Y030188D01*
X035475Y030137D01*
X035441Y030084D01*
X035411Y030029D01*
X035383Y029972D01*
X035360Y029914D01*
X035340Y029854D01*
X035324Y029793D01*
X035311Y029731D01*
X035303Y029669D01*
X035298Y029606D01*
X035383Y029606D01*
X035388Y029666D01*
X035397Y029725D01*
X035409Y029784D01*
X035425Y029841D01*
X035445Y029898D01*
X035468Y029953D01*
X035495Y030007D01*
X035525Y030058D01*
X035559Y030108D01*
X035595Y030156D01*
X035635Y030201D01*
X035677Y030243D01*
X035722Y030283D01*
X035770Y030319D01*
X035820Y030353D01*
X035871Y030383D01*
X035925Y030410D01*
X035980Y030433D01*
X036037Y030453D01*
X036094Y030469D01*
X036153Y030481D01*
X036212Y030490D01*
X036272Y030495D01*
X036272Y030410D01*
X036216Y030405D01*
X036160Y030396D01*
X036104Y030384D01*
X036050Y030368D01*
X035997Y030348D01*
X035945Y030325D01*
X035895Y030299D01*
X035847Y030269D01*
X035801Y030237D01*
X035757Y030201D01*
X035716Y030162D01*
X035677Y030121D01*
X035641Y030077D01*
X035609Y030031D01*
X035579Y029983D01*
X035553Y029933D01*
X035530Y029881D01*
X035510Y029828D01*
X035494Y029774D01*
X035482Y029718D01*
X035473Y029662D01*
X035468Y029606D01*
X035553Y029606D01*
X035558Y029659D01*
X035567Y029711D01*
X035579Y029762D01*
X035595Y029813D01*
X035614Y029862D01*
X035636Y029910D01*
X035662Y029956D01*
X035691Y030001D01*
X035723Y030043D01*
X035758Y030083D01*
X035795Y030120D01*
X035835Y030155D01*
X035877Y030187D01*
X035922Y030216D01*
X035968Y030242D01*
X036016Y030264D01*
X036065Y030283D01*
X036116Y030299D01*
X036167Y030311D01*
X036219Y030320D01*
X036272Y030325D01*
X036272Y030240D01*
X036221Y030234D01*
X036170Y030225D01*
X036120Y030212D01*
X036072Y030195D01*
X036024Y030175D01*
X035979Y030151D01*
X035935Y030124D01*
X035894Y030093D01*
X035855Y030060D01*
X035818Y030023D01*
X035785Y029984D01*
X035754Y029943D01*
X035727Y029899D01*
X035703Y029854D01*
X035683Y029806D01*
X035666Y029758D01*
X035653Y029708D01*
X035644Y029657D01*
X035638Y029606D01*
X035724Y029606D01*
X035729Y029653D01*
X035738Y029699D01*
X035751Y029744D01*
X035767Y029788D01*
X035787Y029830D01*
X035809Y029871D01*
X035835Y029910D01*
X035864Y029947D01*
X035896Y029982D01*
X035931Y030014D01*
X035968Y030043D01*
X036007Y030069D01*
X036048Y030091D01*
X036090Y030111D01*
X036134Y030127D01*
X036179Y030140D01*
X036225Y030149D01*
X036272Y030154D01*
X036272Y030069D01*
X036228Y030063D01*
X036185Y030054D01*
X036142Y030040D01*
X036101Y030023D01*
X036062Y030003D01*
X036024Y029979D01*
X035989Y029952D01*
X035956Y029922D01*
X035926Y029889D01*
X035899Y029854D01*
X035875Y029816D01*
X035855Y029777D01*
X035838Y029736D01*
X035824Y029693D01*
X035815Y029650D01*
X035809Y029606D01*
X035894Y029606D01*
X035900Y029644D01*
X035909Y029681D01*
X035922Y029718D01*
X035938Y029753D01*
X035957Y029786D01*
X035979Y029818D01*
X036003Y029848D01*
X036030Y029875D01*
X036060Y029899D01*
X036092Y029921D01*
X036125Y029940D01*
X036160Y029956D01*
X036197Y029969D01*
X036234Y029978D01*
X036272Y029984D01*
X036272Y029898D01*
X036239Y029892D01*
X036206Y029882D01*
X036174Y029870D01*
X036144Y029854D01*
X036115Y029835D01*
X036089Y029813D01*
X036065Y029789D01*
X036043Y029763D01*
X036024Y029734D01*
X036008Y029704D01*
X035996Y029672D01*
X035986Y029639D01*
X035980Y029606D01*
X036361Y028457D02*
X036361Y029270D01*
X036362Y029269D02*
X036395Y029277D01*
X036427Y029287D01*
X036458Y029302D01*
X036487Y029320D01*
X036513Y029341D01*
X036537Y029365D01*
X036558Y029391D01*
X036576Y029420D01*
X036591Y029451D01*
X036601Y029483D01*
X036609Y029516D01*
X037421Y029517D01*
X037421Y029516D01*
X037416Y029450D01*
X037408Y029385D01*
X037396Y029320D01*
X037379Y029257D01*
X037359Y029194D01*
X037336Y029133D01*
X037308Y029073D01*
X037277Y029015D01*
X037243Y028958D01*
X037206Y028904D01*
X037165Y028852D01*
X037121Y028803D01*
X037075Y028757D01*
X037026Y028713D01*
X036974Y028672D01*
X036920Y028635D01*
X036863Y028601D01*
X036805Y028570D01*
X036745Y028542D01*
X036684Y028519D01*
X036621Y028499D01*
X036558Y028482D01*
X036493Y028470D01*
X036428Y028462D01*
X036362Y028457D01*
X036362Y028542D01*
X036425Y028547D01*
X036487Y028555D01*
X036549Y028568D01*
X036610Y028584D01*
X036670Y028604D01*
X036728Y028627D01*
X036785Y028655D01*
X036840Y028685D01*
X036893Y028719D01*
X036944Y028756D01*
X036992Y028797D01*
X037038Y028840D01*
X037081Y028886D01*
X037122Y028934D01*
X037159Y028985D01*
X037193Y029038D01*
X037223Y029093D01*
X037251Y029150D01*
X037274Y029208D01*
X037294Y029268D01*
X037310Y029329D01*
X037323Y029391D01*
X037331Y029453D01*
X037336Y029516D01*
X037251Y029516D01*
X037246Y029456D01*
X037237Y029397D01*
X037225Y029338D01*
X037209Y029281D01*
X037189Y029224D01*
X037166Y029169D01*
X037139Y029115D01*
X037109Y029064D01*
X037075Y029014D01*
X037039Y028966D01*
X036999Y028921D01*
X036957Y028879D01*
X036912Y028839D01*
X036864Y028803D01*
X036814Y028769D01*
X036763Y028739D01*
X036709Y028712D01*
X036654Y028689D01*
X036597Y028669D01*
X036540Y028653D01*
X036481Y028641D01*
X036422Y028632D01*
X036362Y028627D01*
X036362Y028712D01*
X036418Y028717D01*
X036474Y028726D01*
X036530Y028738D01*
X036584Y028754D01*
X036637Y028774D01*
X036689Y028797D01*
X036739Y028823D01*
X036787Y028853D01*
X036833Y028885D01*
X036877Y028921D01*
X036918Y028960D01*
X036957Y029001D01*
X036993Y029045D01*
X037025Y029091D01*
X037055Y029139D01*
X037081Y029189D01*
X037104Y029241D01*
X037124Y029294D01*
X037140Y029348D01*
X037152Y029404D01*
X037161Y029460D01*
X037166Y029516D01*
X037081Y029516D01*
X037076Y029463D01*
X037067Y029411D01*
X037055Y029360D01*
X037039Y029309D01*
X037020Y029260D01*
X036998Y029212D01*
X036972Y029166D01*
X036943Y029121D01*
X036911Y029079D01*
X036876Y029039D01*
X036839Y029002D01*
X036799Y028967D01*
X036757Y028935D01*
X036712Y028906D01*
X036666Y028880D01*
X036618Y028858D01*
X036569Y028839D01*
X036518Y028823D01*
X036467Y028811D01*
X036415Y028802D01*
X036362Y028797D01*
X036362Y028882D01*
X036413Y028888D01*
X036464Y028897D01*
X036514Y028910D01*
X036562Y028927D01*
X036610Y028947D01*
X036655Y028971D01*
X036699Y028998D01*
X036740Y029029D01*
X036779Y029062D01*
X036816Y029099D01*
X036849Y029138D01*
X036880Y029179D01*
X036907Y029223D01*
X036931Y029268D01*
X036951Y029316D01*
X036968Y029364D01*
X036981Y029414D01*
X036990Y029465D01*
X036996Y029516D01*
X036910Y029516D01*
X036905Y029469D01*
X036896Y029423D01*
X036883Y029378D01*
X036867Y029334D01*
X036847Y029292D01*
X036825Y029251D01*
X036799Y029212D01*
X036770Y029175D01*
X036738Y029140D01*
X036703Y029108D01*
X036666Y029079D01*
X036627Y029053D01*
X036586Y029031D01*
X036544Y029011D01*
X036500Y028995D01*
X036455Y028982D01*
X036409Y028973D01*
X036362Y028968D01*
X036362Y029053D01*
X036406Y029059D01*
X036449Y029068D01*
X036492Y029082D01*
X036533Y029099D01*
X036572Y029119D01*
X036610Y029143D01*
X036645Y029170D01*
X036678Y029200D01*
X036708Y029233D01*
X036735Y029268D01*
X036759Y029306D01*
X036779Y029345D01*
X036796Y029386D01*
X036810Y029429D01*
X036819Y029472D01*
X036825Y029516D01*
X036740Y029516D01*
X036734Y029478D01*
X036725Y029441D01*
X036712Y029404D01*
X036696Y029369D01*
X036677Y029336D01*
X036655Y029304D01*
X036631Y029274D01*
X036604Y029247D01*
X036574Y029223D01*
X036542Y029201D01*
X036509Y029182D01*
X036474Y029166D01*
X036437Y029153D01*
X036400Y029144D01*
X036362Y029138D01*
X036362Y029224D01*
X036395Y029230D01*
X036428Y029240D01*
X036460Y029252D01*
X036490Y029268D01*
X036519Y029287D01*
X036545Y029309D01*
X036569Y029333D01*
X036591Y029359D01*
X036610Y029388D01*
X036626Y029418D01*
X036638Y029450D01*
X036648Y029483D01*
X036654Y029516D01*
X036273Y003665D02*
X036273Y002852D01*
X036272Y002853D02*
X036239Y002845D01*
X036207Y002835D01*
X036176Y002820D01*
X036147Y002802D01*
X036121Y002781D01*
X036097Y002757D01*
X036076Y002731D01*
X036058Y002702D01*
X036043Y002671D01*
X036033Y002639D01*
X036025Y002606D01*
X035213Y002605D01*
X035213Y002606D01*
X035218Y002672D01*
X035226Y002737D01*
X035238Y002802D01*
X035255Y002865D01*
X035275Y002928D01*
X035298Y002989D01*
X035326Y003049D01*
X035357Y003107D01*
X035391Y003164D01*
X035428Y003218D01*
X035469Y003270D01*
X035513Y003319D01*
X035559Y003365D01*
X035608Y003409D01*
X035660Y003450D01*
X035714Y003487D01*
X035771Y003521D01*
X035829Y003552D01*
X035889Y003580D01*
X035950Y003603D01*
X036013Y003623D01*
X036076Y003640D01*
X036141Y003652D01*
X036206Y003660D01*
X036272Y003665D01*
X036272Y003580D01*
X036209Y003575D01*
X036147Y003567D01*
X036085Y003554D01*
X036024Y003538D01*
X035964Y003518D01*
X035906Y003495D01*
X035849Y003467D01*
X035794Y003437D01*
X035741Y003403D01*
X035690Y003366D01*
X035642Y003325D01*
X035596Y003282D01*
X035553Y003236D01*
X035512Y003188D01*
X035475Y003137D01*
X035441Y003084D01*
X035411Y003029D01*
X035383Y002972D01*
X035360Y002914D01*
X035340Y002854D01*
X035324Y002793D01*
X035311Y002731D01*
X035303Y002669D01*
X035298Y002606D01*
X035383Y002606D01*
X035388Y002666D01*
X035397Y002725D01*
X035409Y002784D01*
X035425Y002841D01*
X035445Y002898D01*
X035468Y002953D01*
X035495Y003007D01*
X035525Y003058D01*
X035559Y003108D01*
X035595Y003156D01*
X035635Y003201D01*
X035677Y003243D01*
X035722Y003283D01*
X035770Y003319D01*
X035820Y003353D01*
X035871Y003383D01*
X035925Y003410D01*
X035980Y003433D01*
X036037Y003453D01*
X036094Y003469D01*
X036153Y003481D01*
X036212Y003490D01*
X036272Y003495D01*
X036272Y003410D01*
X036216Y003405D01*
X036160Y003396D01*
X036104Y003384D01*
X036050Y003368D01*
X035997Y003348D01*
X035945Y003325D01*
X035895Y003299D01*
X035847Y003269D01*
X035801Y003237D01*
X035757Y003201D01*
X035716Y003162D01*
X035677Y003121D01*
X035641Y003077D01*
X035609Y003031D01*
X035579Y002983D01*
X035553Y002933D01*
X035530Y002881D01*
X035510Y002828D01*
X035494Y002774D01*
X035482Y002718D01*
X035473Y002662D01*
X035468Y002606D01*
X035553Y002606D01*
X035558Y002659D01*
X035567Y002711D01*
X035579Y002762D01*
X035595Y002813D01*
X035614Y002862D01*
X035636Y002910D01*
X035662Y002956D01*
X035691Y003001D01*
X035723Y003043D01*
X035758Y003083D01*
X035795Y003120D01*
X035835Y003155D01*
X035877Y003187D01*
X035922Y003216D01*
X035968Y003242D01*
X036016Y003264D01*
X036065Y003283D01*
X036116Y003299D01*
X036167Y003311D01*
X036219Y003320D01*
X036272Y003325D01*
X036272Y003240D01*
X036221Y003234D01*
X036170Y003225D01*
X036120Y003212D01*
X036072Y003195D01*
X036024Y003175D01*
X035979Y003151D01*
X035935Y003124D01*
X035894Y003093D01*
X035855Y003060D01*
X035818Y003023D01*
X035785Y002984D01*
X035754Y002943D01*
X035727Y002899D01*
X035703Y002854D01*
X035683Y002806D01*
X035666Y002758D01*
X035653Y002708D01*
X035644Y002657D01*
X035638Y002606D01*
X035724Y002606D01*
X035729Y002653D01*
X035738Y002699D01*
X035751Y002744D01*
X035767Y002788D01*
X035787Y002830D01*
X035809Y002871D01*
X035835Y002910D01*
X035864Y002947D01*
X035896Y002982D01*
X035931Y003014D01*
X035968Y003043D01*
X036007Y003069D01*
X036048Y003091D01*
X036090Y003111D01*
X036134Y003127D01*
X036179Y003140D01*
X036225Y003149D01*
X036272Y003154D01*
X036272Y003069D01*
X036228Y003063D01*
X036185Y003054D01*
X036142Y003040D01*
X036101Y003023D01*
X036062Y003003D01*
X036024Y002979D01*
X035989Y002952D01*
X035956Y002922D01*
X035926Y002889D01*
X035899Y002854D01*
X035875Y002816D01*
X035855Y002777D01*
X035838Y002736D01*
X035824Y002693D01*
X035815Y002650D01*
X035809Y002606D01*
X035894Y002606D01*
X035900Y002644D01*
X035909Y002681D01*
X035922Y002718D01*
X035938Y002753D01*
X035957Y002786D01*
X035979Y002818D01*
X036003Y002848D01*
X036030Y002875D01*
X036060Y002899D01*
X036092Y002921D01*
X036125Y002940D01*
X036160Y002956D01*
X036197Y002969D01*
X036234Y002978D01*
X036272Y002984D01*
X036272Y002898D01*
X036239Y002892D01*
X036206Y002882D01*
X036174Y002870D01*
X036144Y002854D01*
X036115Y002835D01*
X036089Y002813D01*
X036065Y002789D01*
X036043Y002763D01*
X036024Y002734D01*
X036008Y002704D01*
X035996Y002672D01*
X035986Y002639D01*
X035980Y002606D01*
X036361Y001457D02*
X036361Y002270D01*
X036362Y002269D02*
X036395Y002277D01*
X036427Y002287D01*
X036458Y002302D01*
X036487Y002320D01*
X036513Y002341D01*
X036537Y002365D01*
X036558Y002391D01*
X036576Y002420D01*
X036591Y002451D01*
X036601Y002483D01*
X036609Y002516D01*
X037421Y002517D01*
X037421Y002516D01*
X037416Y002450D01*
X037408Y002385D01*
X037396Y002320D01*
X037379Y002257D01*
X037359Y002194D01*
X037336Y002133D01*
X037308Y002073D01*
X037277Y002015D01*
X037243Y001958D01*
X037206Y001904D01*
X037165Y001852D01*
X037121Y001803D01*
X037075Y001757D01*
X037026Y001713D01*
X036974Y001672D01*
X036920Y001635D01*
X036863Y001601D01*
X036805Y001570D01*
X036745Y001542D01*
X036684Y001519D01*
X036621Y001499D01*
X036558Y001482D01*
X036493Y001470D01*
X036428Y001462D01*
X036362Y001457D01*
X036362Y001542D01*
X036425Y001547D01*
X036487Y001555D01*
X036549Y001568D01*
X036610Y001584D01*
X036670Y001604D01*
X036728Y001627D01*
X036785Y001655D01*
X036840Y001685D01*
X036893Y001719D01*
X036944Y001756D01*
X036992Y001797D01*
X037038Y001840D01*
X037081Y001886D01*
X037122Y001934D01*
X037159Y001985D01*
X037193Y002038D01*
X037223Y002093D01*
X037251Y002150D01*
X037274Y002208D01*
X037294Y002268D01*
X037310Y002329D01*
X037323Y002391D01*
X037331Y002453D01*
X037336Y002516D01*
X037251Y002516D01*
X037246Y002456D01*
X037237Y002397D01*
X037225Y002338D01*
X037209Y002281D01*
X037189Y002224D01*
X037166Y002169D01*
X037139Y002115D01*
X037109Y002064D01*
X037075Y002014D01*
X037039Y001966D01*
X036999Y001921D01*
X036957Y001879D01*
X036912Y001839D01*
X036864Y001803D01*
X036814Y001769D01*
X036763Y001739D01*
X036709Y001712D01*
X036654Y001689D01*
X036597Y001669D01*
X036540Y001653D01*
X036481Y001641D01*
X036422Y001632D01*
X036362Y001627D01*
X036362Y001712D01*
X036418Y001717D01*
X036474Y001726D01*
X036530Y001738D01*
X036584Y001754D01*
X036637Y001774D01*
X036689Y001797D01*
X036739Y001823D01*
X036787Y001853D01*
X036833Y001885D01*
X036877Y001921D01*
X036918Y001960D01*
X036957Y002001D01*
X036993Y002045D01*
X037025Y002091D01*
X037055Y002139D01*
X037081Y002189D01*
X037104Y002241D01*
X037124Y002294D01*
X037140Y002348D01*
X037152Y002404D01*
X037161Y002460D01*
X037166Y002516D01*
X037081Y002516D01*
X037076Y002463D01*
X037067Y002411D01*
X037055Y002360D01*
X037039Y002309D01*
X037020Y002260D01*
X036998Y002212D01*
X036972Y002166D01*
X036943Y002121D01*
X036911Y002079D01*
X036876Y002039D01*
X036839Y002002D01*
X036799Y001967D01*
X036757Y001935D01*
X036712Y001906D01*
X036666Y001880D01*
X036618Y001858D01*
X036569Y001839D01*
X036518Y001823D01*
X036467Y001811D01*
X036415Y001802D01*
X036362Y001797D01*
X036362Y001882D01*
X036413Y001888D01*
X036464Y001897D01*
X036514Y001910D01*
X036562Y001927D01*
X036610Y001947D01*
X036655Y001971D01*
X036699Y001998D01*
X036740Y002029D01*
X036779Y002062D01*
X036816Y002099D01*
X036849Y002138D01*
X036880Y002179D01*
X036907Y002223D01*
X036931Y002268D01*
X036951Y002316D01*
X036968Y002364D01*
X036981Y002414D01*
X036990Y002465D01*
X036996Y002516D01*
X036910Y002516D01*
X036905Y002469D01*
X036896Y002423D01*
X036883Y002378D01*
X036867Y002334D01*
X036847Y002292D01*
X036825Y002251D01*
X036799Y002212D01*
X036770Y002175D01*
X036738Y002140D01*
X036703Y002108D01*
X036666Y002079D01*
X036627Y002053D01*
X036586Y002031D01*
X036544Y002011D01*
X036500Y001995D01*
X036455Y001982D01*
X036409Y001973D01*
X036362Y001968D01*
X036362Y002053D01*
X036406Y002059D01*
X036449Y002068D01*
X036492Y002082D01*
X036533Y002099D01*
X036572Y002119D01*
X036610Y002143D01*
X036645Y002170D01*
X036678Y002200D01*
X036708Y002233D01*
X036735Y002268D01*
X036759Y002306D01*
X036779Y002345D01*
X036796Y002386D01*
X036810Y002429D01*
X036819Y002472D01*
X036825Y002516D01*
X036740Y002516D01*
X036734Y002478D01*
X036725Y002441D01*
X036712Y002404D01*
X036696Y002369D01*
X036677Y002336D01*
X036655Y002304D01*
X036631Y002274D01*
X036604Y002247D01*
X036574Y002223D01*
X036542Y002201D01*
X036509Y002182D01*
X036474Y002166D01*
X036437Y002153D01*
X036400Y002144D01*
X036362Y002138D01*
X036362Y002224D01*
X036395Y002230D01*
X036428Y002240D01*
X036460Y002252D01*
X036490Y002268D01*
X036519Y002287D01*
X036545Y002309D01*
X036569Y002333D01*
X036591Y002359D01*
X036610Y002388D01*
X036626Y002418D01*
X036638Y002450D01*
X036648Y002483D01*
X036654Y002516D01*
X001773Y003665D02*
X001773Y002852D01*
X001772Y002853D02*
X001739Y002845D01*
X001707Y002835D01*
X001676Y002820D01*
X001647Y002802D01*
X001621Y002781D01*
X001597Y002757D01*
X001576Y002731D01*
X001558Y002702D01*
X001543Y002671D01*
X001533Y002639D01*
X001525Y002606D01*
X000713Y002605D01*
X000713Y002606D01*
X000718Y002672D01*
X000726Y002737D01*
X000738Y002802D01*
X000755Y002865D01*
X000775Y002928D01*
X000798Y002989D01*
X000826Y003049D01*
X000857Y003107D01*
X000891Y003164D01*
X000928Y003218D01*
X000969Y003270D01*
X001013Y003319D01*
X001059Y003365D01*
X001108Y003409D01*
X001160Y003450D01*
X001214Y003487D01*
X001271Y003521D01*
X001329Y003552D01*
X001389Y003580D01*
X001450Y003603D01*
X001513Y003623D01*
X001576Y003640D01*
X001641Y003652D01*
X001706Y003660D01*
X001772Y003665D01*
X001772Y003580D01*
X001709Y003575D01*
X001647Y003567D01*
X001585Y003554D01*
X001524Y003538D01*
X001464Y003518D01*
X001406Y003495D01*
X001349Y003467D01*
X001294Y003437D01*
X001241Y003403D01*
X001190Y003366D01*
X001142Y003325D01*
X001096Y003282D01*
X001053Y003236D01*
X001012Y003188D01*
X000975Y003137D01*
X000941Y003084D01*
X000911Y003029D01*
X000883Y002972D01*
X000860Y002914D01*
X000840Y002854D01*
X000824Y002793D01*
X000811Y002731D01*
X000803Y002669D01*
X000798Y002606D01*
X000883Y002606D01*
X000888Y002666D01*
X000897Y002725D01*
X000909Y002784D01*
X000925Y002841D01*
X000945Y002898D01*
X000968Y002953D01*
X000995Y003007D01*
X001025Y003058D01*
X001059Y003108D01*
X001095Y003156D01*
X001135Y003201D01*
X001177Y003243D01*
X001222Y003283D01*
X001270Y003319D01*
X001320Y003353D01*
X001371Y003383D01*
X001425Y003410D01*
X001480Y003433D01*
X001537Y003453D01*
X001594Y003469D01*
X001653Y003481D01*
X001712Y003490D01*
X001772Y003495D01*
X001772Y003410D01*
X001716Y003405D01*
X001660Y003396D01*
X001604Y003384D01*
X001550Y003368D01*
X001497Y003348D01*
X001445Y003325D01*
X001395Y003299D01*
X001347Y003269D01*
X001301Y003237D01*
X001257Y003201D01*
X001216Y003162D01*
X001177Y003121D01*
X001141Y003077D01*
X001109Y003031D01*
X001079Y002983D01*
X001053Y002933D01*
X001030Y002881D01*
X001010Y002828D01*
X000994Y002774D01*
X000982Y002718D01*
X000973Y002662D01*
X000968Y002606D01*
X001053Y002606D01*
X001058Y002659D01*
X001067Y002711D01*
X001079Y002762D01*
X001095Y002813D01*
X001114Y002862D01*
X001136Y002910D01*
X001162Y002956D01*
X001191Y003001D01*
X001223Y003043D01*
X001258Y003083D01*
X001295Y003120D01*
X001335Y003155D01*
X001377Y003187D01*
X001422Y003216D01*
X001468Y003242D01*
X001516Y003264D01*
X001565Y003283D01*
X001616Y003299D01*
X001667Y003311D01*
X001719Y003320D01*
X001772Y003325D01*
X001772Y003240D01*
X001721Y003234D01*
X001670Y003225D01*
X001620Y003212D01*
X001572Y003195D01*
X001524Y003175D01*
X001479Y003151D01*
X001435Y003124D01*
X001394Y003093D01*
X001355Y003060D01*
X001318Y003023D01*
X001285Y002984D01*
X001254Y002943D01*
X001227Y002899D01*
X001203Y002854D01*
X001183Y002806D01*
X001166Y002758D01*
X001153Y002708D01*
X001144Y002657D01*
X001138Y002606D01*
X001224Y002606D01*
X001229Y002653D01*
X001238Y002699D01*
X001251Y002744D01*
X001267Y002788D01*
X001287Y002830D01*
X001309Y002871D01*
X001335Y002910D01*
X001364Y002947D01*
X001396Y002982D01*
X001431Y003014D01*
X001468Y003043D01*
X001507Y003069D01*
X001548Y003091D01*
X001590Y003111D01*
X001634Y003127D01*
X001679Y003140D01*
X001725Y003149D01*
X001772Y003154D01*
X001772Y003069D01*
X001728Y003063D01*
X001685Y003054D01*
X001642Y003040D01*
X001601Y003023D01*
X001562Y003003D01*
X001524Y002979D01*
X001489Y002952D01*
X001456Y002922D01*
X001426Y002889D01*
X001399Y002854D01*
X001375Y002816D01*
X001355Y002777D01*
X001338Y002736D01*
X001324Y002693D01*
X001315Y002650D01*
X001309Y002606D01*
X001394Y002606D01*
X001400Y002644D01*
X001409Y002681D01*
X001422Y002718D01*
X001438Y002753D01*
X001457Y002786D01*
X001479Y002818D01*
X001503Y002848D01*
X001530Y002875D01*
X001560Y002899D01*
X001592Y002921D01*
X001625Y002940D01*
X001660Y002956D01*
X001697Y002969D01*
X001734Y002978D01*
X001772Y002984D01*
X001772Y002898D01*
X001739Y002892D01*
X001706Y002882D01*
X001674Y002870D01*
X001644Y002854D01*
X001615Y002835D01*
X001589Y002813D01*
X001565Y002789D01*
X001543Y002763D01*
X001524Y002734D01*
X001508Y002704D01*
X001496Y002672D01*
X001486Y002639D01*
X001480Y002606D01*
X001861Y001457D02*
X001861Y002270D01*
X001862Y002269D02*
X001895Y002277D01*
X001927Y002287D01*
X001958Y002302D01*
X001987Y002320D01*
X002013Y002341D01*
X002037Y002365D01*
X002058Y002391D01*
X002076Y002420D01*
X002091Y002451D01*
X002101Y002483D01*
X002109Y002516D01*
X002921Y002517D01*
X002921Y002516D01*
X002916Y002450D01*
X002908Y002385D01*
X002896Y002320D01*
X002879Y002257D01*
X002859Y002194D01*
X002836Y002133D01*
X002808Y002073D01*
X002777Y002015D01*
X002743Y001958D01*
X002706Y001904D01*
X002665Y001852D01*
X002621Y001803D01*
X002575Y001757D01*
X002526Y001713D01*
X002474Y001672D01*
X002420Y001635D01*
X002363Y001601D01*
X002305Y001570D01*
X002245Y001542D01*
X002184Y001519D01*
X002121Y001499D01*
X002058Y001482D01*
X001993Y001470D01*
X001928Y001462D01*
X001862Y001457D01*
X001862Y001542D01*
X001925Y001547D01*
X001987Y001555D01*
X002049Y001568D01*
X002110Y001584D01*
X002170Y001604D01*
X002228Y001627D01*
X002285Y001655D01*
X002340Y001685D01*
X002393Y001719D01*
X002444Y001756D01*
X002492Y001797D01*
X002538Y001840D01*
X002581Y001886D01*
X002622Y001934D01*
X002659Y001985D01*
X002693Y002038D01*
X002723Y002093D01*
X002751Y002150D01*
X002774Y002208D01*
X002794Y002268D01*
X002810Y002329D01*
X002823Y002391D01*
X002831Y002453D01*
X002836Y002516D01*
X002751Y002516D01*
X002746Y002456D01*
X002737Y002397D01*
X002725Y002338D01*
X002709Y002281D01*
X002689Y002224D01*
X002666Y002169D01*
X002639Y002115D01*
X002609Y002064D01*
X002575Y002014D01*
X002539Y001966D01*
X002499Y001921D01*
X002457Y001879D01*
X002412Y001839D01*
X002364Y001803D01*
X002314Y001769D01*
X002263Y001739D01*
X002209Y001712D01*
X002154Y001689D01*
X002097Y001669D01*
X002040Y001653D01*
X001981Y001641D01*
X001922Y001632D01*
X001862Y001627D01*
X001862Y001712D01*
X001918Y001717D01*
X001974Y001726D01*
X002030Y001738D01*
X002084Y001754D01*
X002137Y001774D01*
X002189Y001797D01*
X002239Y001823D01*
X002287Y001853D01*
X002333Y001885D01*
X002377Y001921D01*
X002418Y001960D01*
X002457Y002001D01*
X002493Y002045D01*
X002525Y002091D01*
X002555Y002139D01*
X002581Y002189D01*
X002604Y002241D01*
X002624Y002294D01*
X002640Y002348D01*
X002652Y002404D01*
X002661Y002460D01*
X002666Y002516D01*
X002581Y002516D01*
X002576Y002463D01*
X002567Y002411D01*
X002555Y002360D01*
X002539Y002309D01*
X002520Y002260D01*
X002498Y002212D01*
X002472Y002166D01*
X002443Y002121D01*
X002411Y002079D01*
X002376Y002039D01*
X002339Y002002D01*
X002299Y001967D01*
X002257Y001935D01*
X002212Y001906D01*
X002166Y001880D01*
X002118Y001858D01*
X002069Y001839D01*
X002018Y001823D01*
X001967Y001811D01*
X001915Y001802D01*
X001862Y001797D01*
X001862Y001882D01*
X001913Y001888D01*
X001964Y001897D01*
X002014Y001910D01*
X002062Y001927D01*
X002110Y001947D01*
X002155Y001971D01*
X002199Y001998D01*
X002240Y002029D01*
X002279Y002062D01*
X002316Y002099D01*
X002349Y002138D01*
X002380Y002179D01*
X002407Y002223D01*
X002431Y002268D01*
X002451Y002316D01*
X002468Y002364D01*
X002481Y002414D01*
X002490Y002465D01*
X002496Y002516D01*
X002410Y002516D01*
X002405Y002469D01*
X002396Y002423D01*
X002383Y002378D01*
X002367Y002334D01*
X002347Y002292D01*
X002325Y002251D01*
X002299Y002212D01*
X002270Y002175D01*
X002238Y002140D01*
X002203Y002108D01*
X002166Y002079D01*
X002127Y002053D01*
X002086Y002031D01*
X002044Y002011D01*
X002000Y001995D01*
X001955Y001982D01*
X001909Y001973D01*
X001862Y001968D01*
X001862Y002053D01*
X001906Y002059D01*
X001949Y002068D01*
X001992Y002082D01*
X002033Y002099D01*
X002072Y002119D01*
X002110Y002143D01*
X002145Y002170D01*
X002178Y002200D01*
X002208Y002233D01*
X002235Y002268D01*
X002259Y002306D01*
X002279Y002345D01*
X002296Y002386D01*
X002310Y002429D01*
X002319Y002472D01*
X002325Y002516D01*
X002240Y002516D01*
X002234Y002478D01*
X002225Y002441D01*
X002212Y002404D01*
X002196Y002369D01*
X002177Y002336D01*
X002155Y002304D01*
X002131Y002274D01*
X002104Y002247D01*
X002074Y002223D01*
X002042Y002201D01*
X002009Y002182D01*
X001974Y002166D01*
X001937Y002153D01*
X001900Y002144D01*
X001862Y002138D01*
X001862Y002224D01*
X001895Y002230D01*
X001928Y002240D01*
X001960Y002252D01*
X001990Y002268D01*
X002019Y002287D01*
X002045Y002309D01*
X002069Y002333D01*
X002091Y002359D01*
X002110Y002388D01*
X002126Y002418D01*
X002138Y002450D01*
X002148Y002483D01*
X002154Y002516D01*
X001773Y030665D02*
X001773Y029852D01*
X001772Y029853D02*
X001739Y029845D01*
X001707Y029835D01*
X001676Y029820D01*
X001647Y029802D01*
X001621Y029781D01*
X001597Y029757D01*
X001576Y029731D01*
X001558Y029702D01*
X001543Y029671D01*
X001533Y029639D01*
X001525Y029606D01*
X000713Y029605D01*
X000713Y029606D01*
X000718Y029672D01*
X000726Y029737D01*
X000738Y029802D01*
X000755Y029865D01*
X000775Y029928D01*
X000798Y029989D01*
X000826Y030049D01*
X000857Y030107D01*
X000891Y030164D01*
X000928Y030218D01*
X000969Y030270D01*
X001013Y030319D01*
X001059Y030365D01*
X001108Y030409D01*
X001160Y030450D01*
X001214Y030487D01*
X001271Y030521D01*
X001329Y030552D01*
X001389Y030580D01*
X001450Y030603D01*
X001513Y030623D01*
X001576Y030640D01*
X001641Y030652D01*
X001706Y030660D01*
X001772Y030665D01*
X001772Y030580D01*
X001709Y030575D01*
X001647Y030567D01*
X001585Y030554D01*
X001524Y030538D01*
X001464Y030518D01*
X001406Y030495D01*
X001349Y030467D01*
X001294Y030437D01*
X001241Y030403D01*
X001190Y030366D01*
X001142Y030325D01*
X001096Y030282D01*
X001053Y030236D01*
X001012Y030188D01*
X000975Y030137D01*
X000941Y030084D01*
X000911Y030029D01*
X000883Y029972D01*
X000860Y029914D01*
X000840Y029854D01*
X000824Y029793D01*
X000811Y029731D01*
X000803Y029669D01*
X000798Y029606D01*
X000883Y029606D01*
X000888Y029666D01*
X000897Y029725D01*
X000909Y029784D01*
X000925Y029841D01*
X000945Y029898D01*
X000968Y029953D01*
X000995Y030007D01*
X001025Y030058D01*
X001059Y030108D01*
X001095Y030156D01*
X001135Y030201D01*
X001177Y030243D01*
X001222Y030283D01*
X001270Y030319D01*
X001320Y030353D01*
X001371Y030383D01*
X001425Y030410D01*
X001480Y030433D01*
X001537Y030453D01*
X001594Y030469D01*
X001653Y030481D01*
X001712Y030490D01*
X001772Y030495D01*
X001772Y030410D01*
X001716Y030405D01*
X001660Y030396D01*
X001604Y030384D01*
X001550Y030368D01*
X001497Y030348D01*
X001445Y030325D01*
X001395Y030299D01*
X001347Y030269D01*
X001301Y030237D01*
X001257Y030201D01*
X001216Y030162D01*
X001177Y030121D01*
X001141Y030077D01*
X001109Y030031D01*
X001079Y029983D01*
X001053Y029933D01*
X001030Y029881D01*
X001010Y029828D01*
X000994Y029774D01*
X000982Y029718D01*
X000973Y029662D01*
X000968Y029606D01*
X001053Y029606D01*
X001058Y029659D01*
X001067Y029711D01*
X001079Y029762D01*
X001095Y029813D01*
X001114Y029862D01*
X001136Y029910D01*
X001162Y029956D01*
X001191Y030001D01*
X001223Y030043D01*
X001258Y030083D01*
X001295Y030120D01*
X001335Y030155D01*
X001377Y030187D01*
X001422Y030216D01*
X001468Y030242D01*
X001516Y030264D01*
X001565Y030283D01*
X001616Y030299D01*
X001667Y030311D01*
X001719Y030320D01*
X001772Y030325D01*
X001772Y030240D01*
X001721Y030234D01*
X001670Y030225D01*
X001620Y030212D01*
X001572Y030195D01*
X001524Y030175D01*
X001479Y030151D01*
X001435Y030124D01*
X001394Y030093D01*
X001355Y030060D01*
X001318Y030023D01*
X001285Y029984D01*
X001254Y029943D01*
X001227Y029899D01*
X001203Y029854D01*
X001183Y029806D01*
X001166Y029758D01*
X001153Y029708D01*
X001144Y029657D01*
X001138Y029606D01*
X001224Y029606D01*
X001229Y029653D01*
X001238Y029699D01*
X001251Y029744D01*
X001267Y029788D01*
X001287Y029830D01*
X001309Y029871D01*
X001335Y029910D01*
X001364Y029947D01*
X001396Y029982D01*
X001431Y030014D01*
X001468Y030043D01*
X001507Y030069D01*
X001548Y030091D01*
X001590Y030111D01*
X001634Y030127D01*
X001679Y030140D01*
X001725Y030149D01*
X001772Y030154D01*
X001772Y030069D01*
X001728Y030063D01*
X001685Y030054D01*
X001642Y030040D01*
X001601Y030023D01*
X001562Y030003D01*
X001524Y029979D01*
X001489Y029952D01*
X001456Y029922D01*
X001426Y029889D01*
X001399Y029854D01*
X001375Y029816D01*
X001355Y029777D01*
X001338Y029736D01*
X001324Y029693D01*
X001315Y029650D01*
X001309Y029606D01*
X001394Y029606D01*
X001400Y029644D01*
X001409Y029681D01*
X001422Y029718D01*
X001438Y029753D01*
X001457Y029786D01*
X001479Y029818D01*
X001503Y029848D01*
X001530Y029875D01*
X001560Y029899D01*
X001592Y029921D01*
X001625Y029940D01*
X001660Y029956D01*
X001697Y029969D01*
X001734Y029978D01*
X001772Y029984D01*
X001772Y029898D01*
X001739Y029892D01*
X001706Y029882D01*
X001674Y029870D01*
X001644Y029854D01*
X001615Y029835D01*
X001589Y029813D01*
X001565Y029789D01*
X001543Y029763D01*
X001524Y029734D01*
X001508Y029704D01*
X001496Y029672D01*
X001486Y029639D01*
X001480Y029606D01*
X001861Y028457D02*
X001861Y029270D01*
X001862Y029269D02*
X001895Y029277D01*
X001927Y029287D01*
X001958Y029302D01*
X001987Y029320D01*
X002013Y029341D01*
X002037Y029365D01*
X002058Y029391D01*
X002076Y029420D01*
X002091Y029451D01*
X002101Y029483D01*
X002109Y029516D01*
X002921Y029517D01*
X002921Y029516D01*
X002916Y029450D01*
X002908Y029385D01*
X002896Y029320D01*
X002879Y029257D01*
X002859Y029194D01*
X002836Y029133D01*
X002808Y029073D01*
X002777Y029015D01*
X002743Y028958D01*
X002706Y028904D01*
X002665Y028852D01*
X002621Y028803D01*
X002575Y028757D01*
X002526Y028713D01*
X002474Y028672D01*
X002420Y028635D01*
X002363Y028601D01*
X002305Y028570D01*
X002245Y028542D01*
X002184Y028519D01*
X002121Y028499D01*
X002058Y028482D01*
X001993Y028470D01*
X001928Y028462D01*
X001862Y028457D01*
X001862Y028542D01*
X001925Y028547D01*
X001987Y028555D01*
X002049Y028568D01*
X002110Y028584D01*
X002170Y028604D01*
X002228Y028627D01*
X002285Y028655D01*
X002340Y028685D01*
X002393Y028719D01*
X002444Y028756D01*
X002492Y028797D01*
X002538Y028840D01*
X002581Y028886D01*
X002622Y028934D01*
X002659Y028985D01*
X002693Y029038D01*
X002723Y029093D01*
X002751Y029150D01*
X002774Y029208D01*
X002794Y029268D01*
X002810Y029329D01*
X002823Y029391D01*
X002831Y029453D01*
X002836Y029516D01*
X002751Y029516D01*
X002746Y029456D01*
X002737Y029397D01*
X002725Y029338D01*
X002709Y029281D01*
X002689Y029224D01*
X002666Y029169D01*
X002639Y029115D01*
X002609Y029064D01*
X002575Y029014D01*
X002539Y028966D01*
X002499Y028921D01*
X002457Y028879D01*
X002412Y028839D01*
X002364Y028803D01*
X002314Y028769D01*
X002263Y028739D01*
X002209Y028712D01*
X002154Y028689D01*
X002097Y028669D01*
X002040Y028653D01*
X001981Y028641D01*
X001922Y028632D01*
X001862Y028627D01*
X001862Y028712D01*
X001918Y028717D01*
X001974Y028726D01*
X002030Y028738D01*
X002084Y028754D01*
X002137Y028774D01*
X002189Y028797D01*
X002239Y028823D01*
X002287Y028853D01*
X002333Y028885D01*
X002377Y028921D01*
X002418Y028960D01*
X002457Y029001D01*
X002493Y029045D01*
X002525Y029091D01*
X002555Y029139D01*
X002581Y029189D01*
X002604Y029241D01*
X002624Y029294D01*
X002640Y029348D01*
X002652Y029404D01*
X002661Y029460D01*
X002666Y029516D01*
X002581Y029516D01*
X002576Y029463D01*
X002567Y029411D01*
X002555Y029360D01*
X002539Y029309D01*
X002520Y029260D01*
X002498Y029212D01*
X002472Y029166D01*
X002443Y029121D01*
X002411Y029079D01*
X002376Y029039D01*
X002339Y029002D01*
X002299Y028967D01*
X002257Y028935D01*
X002212Y028906D01*
X002166Y028880D01*
X002118Y028858D01*
X002069Y028839D01*
X002018Y028823D01*
X001967Y028811D01*
X001915Y028802D01*
X001862Y028797D01*
X001862Y028882D01*
X001913Y028888D01*
X001964Y028897D01*
X002014Y028910D01*
X002062Y028927D01*
X002110Y028947D01*
X002155Y028971D01*
X002199Y028998D01*
X002240Y029029D01*
X002279Y029062D01*
X002316Y029099D01*
X002349Y029138D01*
X002380Y029179D01*
X002407Y029223D01*
X002431Y029268D01*
X002451Y029316D01*
X002468Y029364D01*
X002481Y029414D01*
X002490Y029465D01*
X002496Y029516D01*
X002410Y029516D01*
X002405Y029469D01*
X002396Y029423D01*
X002383Y029378D01*
X002367Y029334D01*
X002347Y029292D01*
X002325Y029251D01*
X002299Y029212D01*
X002270Y029175D01*
X002238Y029140D01*
X002203Y029108D01*
X002166Y029079D01*
X002127Y029053D01*
X002086Y029031D01*
X002044Y029011D01*
X002000Y028995D01*
X001955Y028982D01*
X001909Y028973D01*
X001862Y028968D01*
X001862Y029053D01*
X001906Y029059D01*
X001949Y029068D01*
X001992Y029082D01*
X002033Y029099D01*
X002072Y029119D01*
X002110Y029143D01*
X002145Y029170D01*
X002178Y029200D01*
X002208Y029233D01*
X002235Y029268D01*
X002259Y029306D01*
X002279Y029345D01*
X002296Y029386D01*
X002310Y029429D01*
X002319Y029472D01*
X002325Y029516D01*
X002240Y029516D01*
X002234Y029478D01*
X002225Y029441D01*
X002212Y029404D01*
X002196Y029369D01*
X002177Y029336D01*
X002155Y029304D01*
X002131Y029274D01*
X002104Y029247D01*
X002074Y029223D01*
X002042Y029201D01*
X002009Y029182D01*
X001974Y029166D01*
X001937Y029153D01*
X001900Y029144D01*
X001862Y029138D01*
X001862Y029224D01*
X001895Y029230D01*
X001928Y029240D01*
X001960Y029252D01*
X001990Y029268D01*
X002019Y029287D01*
X002045Y029309D01*
X002069Y029333D01*
X002091Y029359D01*
X002110Y029388D01*
X002126Y029418D01*
X002138Y029450D01*
X002148Y029483D01*
X002154Y029516D01*
D18*
X001567Y029561D02*
X001569Y029592D01*
X001575Y029623D01*
X001585Y029653D01*
X001598Y029681D01*
X001615Y029708D01*
X001635Y029732D01*
X001658Y029754D01*
X001683Y029772D01*
X001711Y029787D01*
X001740Y029799D01*
X001770Y029807D01*
X001801Y029811D01*
X001833Y029811D01*
X001864Y029807D01*
X001894Y029799D01*
X001923Y029787D01*
X001951Y029772D01*
X001976Y029754D01*
X001999Y029732D01*
X002019Y029708D01*
X002036Y029681D01*
X002049Y029653D01*
X002059Y029623D01*
X002065Y029592D01*
X002067Y029561D01*
X002065Y029530D01*
X002059Y029499D01*
X002049Y029469D01*
X002036Y029441D01*
X002019Y029414D01*
X001999Y029390D01*
X001976Y029368D01*
X001951Y029350D01*
X001923Y029335D01*
X001894Y029323D01*
X001864Y029315D01*
X001833Y029311D01*
X001801Y029311D01*
X001770Y029315D01*
X001740Y029323D01*
X001711Y029335D01*
X001683Y029350D01*
X001658Y029368D01*
X001635Y029390D01*
X001615Y029414D01*
X001598Y029441D01*
X001585Y029469D01*
X001575Y029499D01*
X001569Y029530D01*
X001567Y029561D01*
X001567Y002561D02*
X001569Y002592D01*
X001575Y002623D01*
X001585Y002653D01*
X001598Y002681D01*
X001615Y002708D01*
X001635Y002732D01*
X001658Y002754D01*
X001683Y002772D01*
X001711Y002787D01*
X001740Y002799D01*
X001770Y002807D01*
X001801Y002811D01*
X001833Y002811D01*
X001864Y002807D01*
X001894Y002799D01*
X001923Y002787D01*
X001951Y002772D01*
X001976Y002754D01*
X001999Y002732D01*
X002019Y002708D01*
X002036Y002681D01*
X002049Y002653D01*
X002059Y002623D01*
X002065Y002592D01*
X002067Y002561D01*
X002065Y002530D01*
X002059Y002499D01*
X002049Y002469D01*
X002036Y002441D01*
X002019Y002414D01*
X001999Y002390D01*
X001976Y002368D01*
X001951Y002350D01*
X001923Y002335D01*
X001894Y002323D01*
X001864Y002315D01*
X001833Y002311D01*
X001801Y002311D01*
X001770Y002315D01*
X001740Y002323D01*
X001711Y002335D01*
X001683Y002350D01*
X001658Y002368D01*
X001635Y002390D01*
X001615Y002414D01*
X001598Y002441D01*
X001585Y002469D01*
X001575Y002499D01*
X001569Y002530D01*
X001567Y002561D01*
X036067Y002561D02*
X036069Y002592D01*
X036075Y002623D01*
X036085Y002653D01*
X036098Y002681D01*
X036115Y002708D01*
X036135Y002732D01*
X036158Y002754D01*
X036183Y002772D01*
X036211Y002787D01*
X036240Y002799D01*
X036270Y002807D01*
X036301Y002811D01*
X036333Y002811D01*
X036364Y002807D01*
X036394Y002799D01*
X036423Y002787D01*
X036451Y002772D01*
X036476Y002754D01*
X036499Y002732D01*
X036519Y002708D01*
X036536Y002681D01*
X036549Y002653D01*
X036559Y002623D01*
X036565Y002592D01*
X036567Y002561D01*
X036565Y002530D01*
X036559Y002499D01*
X036549Y002469D01*
X036536Y002441D01*
X036519Y002414D01*
X036499Y002390D01*
X036476Y002368D01*
X036451Y002350D01*
X036423Y002335D01*
X036394Y002323D01*
X036364Y002315D01*
X036333Y002311D01*
X036301Y002311D01*
X036270Y002315D01*
X036240Y002323D01*
X036211Y002335D01*
X036183Y002350D01*
X036158Y002368D01*
X036135Y002390D01*
X036115Y002414D01*
X036098Y002441D01*
X036085Y002469D01*
X036075Y002499D01*
X036069Y002530D01*
X036067Y002561D01*
X036067Y029561D02*
X036069Y029592D01*
X036075Y029623D01*
X036085Y029653D01*
X036098Y029681D01*
X036115Y029708D01*
X036135Y029732D01*
X036158Y029754D01*
X036183Y029772D01*
X036211Y029787D01*
X036240Y029799D01*
X036270Y029807D01*
X036301Y029811D01*
X036333Y029811D01*
X036364Y029807D01*
X036394Y029799D01*
X036423Y029787D01*
X036451Y029772D01*
X036476Y029754D01*
X036499Y029732D01*
X036519Y029708D01*
X036536Y029681D01*
X036549Y029653D01*
X036559Y029623D01*
X036565Y029592D01*
X036567Y029561D01*
X036565Y029530D01*
X036559Y029499D01*
X036549Y029469D01*
X036536Y029441D01*
X036519Y029414D01*
X036499Y029390D01*
X036476Y029368D01*
X036451Y029350D01*
X036423Y029335D01*
X036394Y029323D01*
X036364Y029315D01*
X036333Y029311D01*
X036301Y029311D01*
X036270Y029315D01*
X036240Y029323D01*
X036211Y029335D01*
X036183Y029350D01*
X036158Y029368D01*
X036135Y029390D01*
X036115Y029414D01*
X036098Y029441D01*
X036085Y029469D01*
X036075Y029499D01*
X036069Y029530D01*
X036067Y029561D01*
D19*
X033887Y026021D03*
X032847Y026021D03*
X032847Y025001D03*
X033887Y025001D03*
X033887Y024021D03*
X032847Y024021D03*
X032847Y023081D03*
X033887Y023081D03*
X033877Y022061D03*
X032837Y022061D03*
X032847Y021041D03*
X033887Y021041D03*
X032817Y017321D03*
X031777Y017321D03*
X026827Y019911D03*
X025787Y019911D03*
X020687Y023061D03*
X020687Y024071D03*
X020687Y025061D03*
X019647Y025061D03*
X019647Y024071D03*
X019647Y023061D03*
X016527Y021061D03*
X016337Y020061D03*
X015297Y020061D03*
X015297Y019061D03*
X016337Y019061D03*
X016597Y017271D03*
X015557Y017271D03*
X015297Y016161D03*
X016337Y016161D03*
X016337Y015131D03*
X015297Y015131D03*
X015297Y013061D03*
X016337Y013061D03*
X016337Y012061D03*
X015297Y012061D03*
X015297Y011061D03*
X016337Y011061D03*
X016337Y010061D03*
X015297Y010061D03*
X015297Y009061D03*
X016337Y009061D03*
X017397Y007361D03*
X018437Y007361D03*
X018437Y006171D03*
X017397Y006171D03*
X015887Y005631D03*
X014847Y005631D03*
X012847Y005481D03*
X011807Y005481D03*
X020597Y011651D03*
X021637Y011651D03*
X023937Y007041D03*
X024977Y007041D03*
X028667Y009761D03*
X029707Y009761D03*
X031097Y010171D03*
X031087Y011061D03*
X032127Y011061D03*
X032137Y010171D03*
X033307Y009941D03*
X033297Y010851D03*
X033297Y011751D03*
X034337Y011751D03*
X034337Y010851D03*
X034347Y009941D03*
X016337Y022061D03*
X015297Y022061D03*
X015487Y021061D03*
X019647Y026061D03*
X020687Y026061D03*
X003897Y022631D03*
X002857Y022631D03*
X003207Y020951D03*
X003207Y020061D03*
X002167Y020061D03*
X002167Y020951D03*
X002337Y027121D03*
X001297Y027121D03*
D20*
X031767Y015591D03*
X032267Y015591D03*
X032767Y015591D03*
X033267Y015591D03*
X033267Y013731D03*
X032767Y013731D03*
X032267Y013731D03*
X031767Y013731D03*
D21*
X028897Y020082D03*
X028897Y022720D03*
D22*
X031997Y008801D03*
X031997Y008301D03*
X031997Y007801D03*
X031997Y007301D03*
X033857Y007301D03*
X033857Y007801D03*
X033857Y008301D03*
X033857Y008801D03*
D23*
X035227Y008671D03*
X035227Y007631D03*
X034727Y005791D03*
X034727Y004751D03*
X027737Y009941D03*
X027737Y010981D03*
X031037Y012271D03*
X031037Y013311D03*
X028397Y015331D03*
X028397Y016371D03*
X027387Y017591D03*
X027387Y018631D03*
X026307Y016391D03*
X026307Y015351D03*
X023667Y015371D03*
X023667Y016411D03*
X021327Y010321D03*
X021327Y009281D03*
X021297Y007341D03*
X021297Y006301D03*
X010727Y005311D03*
X009837Y005351D03*
X010727Y004271D03*
X009837Y006391D03*
X006797Y008341D03*
X005917Y008341D03*
X005917Y009381D03*
X006797Y009381D03*
X001217Y008781D03*
X001217Y007741D03*
X003917Y003381D03*
X003917Y002341D03*
X001407Y016481D03*
X001407Y017521D03*
X007807Y020451D03*
X007807Y021491D03*
X007017Y025441D03*
X006017Y025441D03*
X005017Y025441D03*
X004017Y025441D03*
X004017Y026481D03*
X005017Y026481D03*
X006017Y026481D03*
X007017Y026481D03*
X027727Y024741D03*
X027727Y023701D03*
X031187Y019491D03*
X031187Y018451D03*
X034067Y016821D03*
X034067Y015781D03*
X034077Y014691D03*
X034077Y013651D03*
X035707Y012001D03*
X035707Y010961D03*
D24*
X009481Y011356D03*
X009166Y011356D03*
X008851Y011356D03*
X008536Y011356D03*
X008222Y011356D03*
X007907Y011356D03*
X007592Y011356D03*
X007277Y011356D03*
X006962Y011356D03*
X006647Y011356D03*
X006332Y011356D03*
X006017Y011356D03*
X005702Y011356D03*
X005387Y011356D03*
X005072Y011356D03*
X004757Y011356D03*
X004752Y017366D03*
X005067Y017366D03*
X005382Y017366D03*
X005697Y017366D03*
X006012Y017366D03*
X006327Y017366D03*
X006642Y017366D03*
X006957Y017366D03*
X007272Y017366D03*
X007587Y017366D03*
X007902Y017366D03*
X008217Y017366D03*
X008532Y017366D03*
X008846Y017366D03*
X009161Y017366D03*
X009476Y017366D03*
D25*
X010122Y016726D03*
X010122Y016411D03*
X010122Y016096D03*
X010122Y015781D03*
X010122Y015466D03*
X010122Y015151D03*
X010122Y014836D03*
X010122Y014521D03*
X010122Y014206D03*
X010122Y013891D03*
X010122Y013576D03*
X010122Y013261D03*
X010122Y012946D03*
X010122Y012631D03*
X010122Y012316D03*
X010122Y012002D03*
X004112Y011997D03*
X004112Y012312D03*
X004112Y012626D03*
X004112Y012941D03*
X004112Y013256D03*
X004112Y013571D03*
X004112Y013886D03*
X004112Y014201D03*
X004112Y014516D03*
X004112Y014831D03*
X004112Y015146D03*
X004112Y015461D03*
X004112Y015776D03*
X004112Y016091D03*
X004112Y016406D03*
X004112Y016721D03*
D26*
X023457Y009596D03*
X024197Y009596D03*
X023827Y010386D03*
X029137Y011676D03*
X029877Y011676D03*
X029507Y010886D03*
X029747Y012656D03*
X029007Y012656D03*
X029377Y013446D03*
X029557Y014306D03*
X029927Y015096D03*
X029187Y015096D03*
D27*
X021268Y005225D03*
X021268Y004969D03*
X021268Y004713D03*
X021268Y004457D03*
X021268Y004201D03*
X021268Y003945D03*
X021268Y003689D03*
X021268Y003433D03*
X021268Y003177D03*
X021268Y002921D03*
X021268Y002666D03*
X021268Y002410D03*
X021268Y002154D03*
X021268Y001898D03*
X018565Y001898D03*
X018565Y002154D03*
X018565Y002410D03*
X018565Y002666D03*
X018565Y002921D03*
X018565Y003177D03*
X018565Y003433D03*
X018565Y003689D03*
X018565Y003945D03*
X018565Y004201D03*
X018565Y004457D03*
X018565Y004713D03*
X018565Y004969D03*
X018565Y005225D03*
D28*
X022197Y005789D03*
X022196Y006834D03*
X024947Y010429D03*
X024946Y011474D03*
X025417Y015349D03*
X024547Y015359D03*
X024546Y016404D03*
X025416Y016394D03*
X025757Y017689D03*
X025756Y018734D03*
X027386Y016384D03*
X027387Y015339D03*
X019817Y016439D03*
X019816Y017484D03*
X025457Y022319D03*
X026317Y022309D03*
X026316Y023354D03*
X025456Y023364D03*
X011817Y024839D03*
X011816Y025884D03*
X008666Y021474D03*
X008667Y020429D03*
D29*
X027370Y007552D03*
X028880Y007552D03*
M02*
